<svg version="1.1" xmlns="http://www.w3.org/2000/svg" viewBox="0 0 820.9324722456186 674.1242980957031" width="820.9324722456186" height="674.1242980957031">
  <!-- svg-source:excalidraw -->
  
  <defs>
    <style>
      @font-face {
        font-family: "Virgil";
        src: url("https://excalidraw.com/Virgil.woff2");
      }
      @font-face {
        font-family: "Cascadia";
        src: url("https://excalidraw.com/Cascadia.woff2");
      }
    </style>
  </defs>
  <rect x="0" y="0" width="820.9324722456186" height="674.1242980957031" fill="#ffffff"></rect><g stroke-linecap="round" transform="translate(11.754610579215466 121.27283436847051) rotate(0 63.941917866069474 38.268516949888834)"><path d="M-1.13 0.29 C31.29 0.68, 66.47 2.45, 128.59 -0.54 M0.1 0.57 C44.54 0.26, 89.88 2.1, 127.24 -0.47 M126.31 1.2 C128.01 21.19, 129.05 39.88, 127.65 76.66 M128.19 -0.85 C127.29 16.45, 128.45 34.1, 128.01 75.55 M129.46 78.14 C95.67 76.84, 59.43 78.01, 0.29 75.63 M128.78 77.11 C92.2 77.45, 56.14 77.2, -0.68 75.54 M0.8 77.69 C-0.85 49.98, 1.08 20.18, -0.9 -1.11 M-0.78 76.88 C-0.35 46.97, -1.18 18.39, -0.86 -0.89" stroke="#000000" stroke-width="1" fill="none"></path></g><g stroke-linecap="round"><g transform="translate(10.679012828320253 131.98936876071468) rotate(0 64.84833345700343 0.12960002568550522)"><path d="M-0.68 0.17 C20.65 0.31, 106.35 -0.42, 128.07 -0.32 M1.17 -0.78 C22.87 -0.37, 109.02 1.12, 130.38 1.04" stroke="#000000" stroke-width="1" fill="none"></path></g></g><g stroke-linecap="round" transform="translate(16.242646048170343 125.54440416847933) rotate(0 2.5009765625 2.5009765625)"><path d="M2.5 0 C3.01 -0.03, 3.7 0.24, 4.11 0.59 C4.52 0.93, 4.87 1.54, 4.96 2.07 C5.06 2.59, 4.93 3.29, 4.67 3.75 C4.4 4.22, 3.86 4.67, 3.36 4.85 C2.85 5.03, 2.15 5.03, 1.65 4.85 C1.14 4.67, 0.6 4.22, 0.34 3.75 C0.07 3.29, -0.06 2.59, 0.04 2.07 C0.13 1.54, 0.48 0.93, 0.89 0.59 C1.3 0.24, 2.23 0.09, 2.5 0 C2.77 -0.09, 2.5 0.01, 2.5 0.05 M2.5 0 C3.01 -0.03, 3.7 0.24, 4.11 0.59 C4.52 0.93, 4.87 1.54, 4.96 2.07 C5.06 2.59, 4.93 3.29, 4.67 3.75 C4.4 4.22, 3.86 4.67, 3.36 4.85 C2.85 5.03, 2.15 5.03, 1.65 4.85 C1.14 4.67, 0.6 4.22, 0.34 3.75 C0.07 3.29, -0.06 2.59, 0.04 2.07 C0.13 1.54, 0.48 0.93, 0.89 0.59 C1.3 0.24, 2.23 0.09, 2.5 0 C2.77 -0.09, 2.5 0.01, 2.5 0.05" stroke="none" stroke-width="0" fill="#fa5252"></path><path d="M2.5 0 C3.01 -0.03, 3.7 0.24, 4.11 0.59 C4.52 0.93, 4.87 1.54, 4.96 2.07 C5.06 2.59, 4.93 3.29, 4.67 3.75 C4.4 4.22, 3.86 4.67, 3.36 4.85 C2.85 5.03, 2.15 5.03, 1.65 4.85 C1.14 4.67, 0.6 4.22, 0.34 3.75 C0.07 3.29, -0.06 2.59, 0.04 2.07 C0.13 1.54, 0.48 0.93, 0.89 0.59 C1.3 0.24, 2.23 0.09, 2.5 0 C2.77 -0.09, 2.5 0.01, 2.5 0.05 M2.5 0 C3.01 -0.03, 3.7 0.24, 4.11 0.59 C4.52 0.93, 4.87 1.54, 4.96 2.07 C5.06 2.59, 4.93 3.29, 4.67 3.75 C4.4 4.22, 3.86 4.67, 3.36 4.85 C2.85 5.03, 2.15 5.03, 1.65 4.85 C1.14 4.67, 0.6 4.22, 0.34 3.75 C0.07 3.29, -0.06 2.59, 0.04 2.07 C0.13 1.54, 0.48 0.93, 0.89 0.59 C1.3 0.24, 2.23 0.09, 2.5 0 C2.77 -0.09, 2.5 0.01, 2.5 0.05" stroke="#000000" stroke-width="1" fill="none"></path></g><g stroke-linecap="round" transform="translate(26.505341360670343 125.54440416847933) rotate(0 2.5009765625 2.5009765625)"><path d="M2.5 0 C3.01 -0.03, 3.7 0.24, 4.11 0.59 C4.52 0.93, 4.87 1.54, 4.96 2.07 C5.06 2.59, 4.93 3.29, 4.67 3.75 C4.4 4.22, 3.86 4.67, 3.36 4.85 C2.85 5.03, 2.15 5.03, 1.65 4.85 C1.14 4.67, 0.6 4.22, 0.34 3.75 C0.07 3.29, -0.06 2.59, 0.04 2.07 C0.13 1.54, 0.48 0.93, 0.89 0.59 C1.3 0.24, 2.23 0.09, 2.5 0 C2.77 -0.09, 2.5 0.01, 2.5 0.05 M2.5 0 C3.01 -0.03, 3.7 0.24, 4.11 0.59 C4.52 0.93, 4.87 1.54, 4.96 2.07 C5.06 2.59, 4.93 3.29, 4.67 3.75 C4.4 4.22, 3.86 4.67, 3.36 4.85 C2.85 5.03, 2.15 5.03, 1.65 4.85 C1.14 4.67, 0.6 4.22, 0.34 3.75 C0.07 3.29, -0.06 2.59, 0.04 2.07 C0.13 1.54, 0.48 0.93, 0.89 0.59 C1.3 0.24, 2.23 0.09, 2.5 0 C2.77 -0.09, 2.5 0.01, 2.5 0.05" stroke="none" stroke-width="0" fill="#fab005"></path><path d="M2.5 0 C3.01 -0.03, 3.7 0.24, 4.11 0.59 C4.52 0.93, 4.87 1.54, 4.96 2.07 C5.06 2.59, 4.93 3.29, 4.67 3.75 C4.4 4.22, 3.86 4.67, 3.36 4.85 C2.85 5.03, 2.15 5.03, 1.65 4.85 C1.14 4.67, 0.6 4.22, 0.34 3.75 C0.07 3.29, -0.06 2.59, 0.04 2.07 C0.13 1.54, 0.48 0.93, 0.89 0.59 C1.3 0.24, 2.23 0.09, 2.5 0 C2.77 -0.09, 2.5 0.01, 2.5 0.05 M2.5 0 C3.01 -0.03, 3.7 0.24, 4.11 0.59 C4.52 0.93, 4.87 1.54, 4.96 2.07 C5.06 2.59, 4.93 3.29, 4.67 3.75 C4.4 4.22, 3.86 4.67, 3.36 4.85 C2.85 5.03, 2.15 5.03, 1.65 4.85 C1.14 4.67, 0.6 4.22, 0.34 3.75 C0.07 3.29, -0.06 2.59, 0.04 2.07 C0.13 1.54, 0.48 0.93, 0.89 0.59 C1.3 0.24, 2.23 0.09, 2.5 0 C2.77 -0.09, 2.5 0.01, 2.5 0.05" stroke="#000000" stroke-width="1" fill="none"></path></g><g stroke-linecap="round" transform="translate(37.21875782701653 125.99512532232552) rotate(0 2.5009765625 2.5009765625)"><path d="M2.5 0 C3.01 -0.03, 3.7 0.24, 4.11 0.59 C4.52 0.93, 4.87 1.54, 4.96 2.07 C5.06 2.59, 4.93 3.29, 4.67 3.75 C4.4 4.22, 3.86 4.67, 3.36 4.85 C2.85 5.03, 2.15 5.03, 1.65 4.85 C1.14 4.67, 0.6 4.22, 0.34 3.75 C0.07 3.29, -0.06 2.59, 0.04 2.07 C0.13 1.54, 0.48 0.93, 0.89 0.59 C1.3 0.24, 2.23 0.09, 2.5 0 C2.77 -0.09, 2.5 0.01, 2.5 0.05 M2.5 0 C3.01 -0.03, 3.7 0.24, 4.11 0.59 C4.52 0.93, 4.87 1.54, 4.96 2.07 C5.06 2.59, 4.93 3.29, 4.67 3.75 C4.4 4.22, 3.86 4.67, 3.36 4.85 C2.85 5.03, 2.15 5.03, 1.65 4.85 C1.14 4.67, 0.6 4.22, 0.34 3.75 C0.07 3.29, -0.06 2.59, 0.04 2.07 C0.13 1.54, 0.48 0.93, 0.89 0.59 C1.3 0.24, 2.23 0.09, 2.5 0 C2.77 -0.09, 2.5 0.01, 2.5 0.05" stroke="none" stroke-width="0" fill="#40c057"></path><path d="M2.5 0 C3.01 -0.03, 3.7 0.24, 4.11 0.59 C4.52 0.93, 4.87 1.54, 4.96 2.07 C5.06 2.59, 4.93 3.29, 4.67 3.75 C4.4 4.22, 3.86 4.67, 3.36 4.85 C2.85 5.03, 2.15 5.03, 1.65 4.85 C1.14 4.67, 0.6 4.22, 0.34 3.75 C0.07 3.29, -0.06 2.59, 0.04 2.07 C0.13 1.54, 0.48 0.93, 0.89 0.59 C1.3 0.24, 2.23 0.09, 2.5 0 C2.77 -0.09, 2.5 0.01, 2.5 0.05 M2.5 0 C3.01 -0.03, 3.7 0.24, 4.11 0.59 C4.52 0.93, 4.87 1.54, 4.96 2.07 C5.06 2.59, 4.93 3.29, 4.67 3.75 C4.4 4.22, 3.86 4.67, 3.36 4.85 C2.85 5.03, 2.15 5.03, 1.65 4.85 C1.14 4.67, 0.6 4.22, 0.34 3.75 C0.07 3.29, -0.06 2.59, 0.04 2.07 C0.13 1.54, 0.48 0.93, 0.89 0.59 C1.3 0.24, 2.23 0.09, 2.5 0 C2.77 -0.09, 2.5 0.01, 2.5 0.05" stroke="#000000" stroke-width="1" fill="none"></path></g><g stroke-opacity="0.9" fill-opacity="0.9" stroke-linecap="round" transform="translate(53.24581881664375 142.04749420034136) rotate(0 21.360101269687874 21.360101269687874)"><path d="M10.99 2.98 C14.68 0.61, 21.61 -0.97, 26.22 -0.03 C30.83 0.9, 35.99 4.99, 38.65 8.58 C41.32 12.17, 42.52 16.87, 42.21 21.5 C41.9 26.12, 39.58 32.66, 36.79 36.32 C33.99 39.98, 30 42.86, 25.43 43.46 C20.87 44.06, 13.39 42.56, 9.4 39.9 C5.4 37.25, 2.85 31.96, 1.46 27.53 C0.07 23.11, -0.67 17.76, 1.04 13.34 C2.74 8.92, 9.35 3.03, 11.7 1.01 C14.05 -1.01, 14.73 0.62, 15.11 1.24 M11.62 2.52 C15.67 0.3, 22.17 -0.54, 26.8 0.28 C31.44 1.11, 36.68 3.84, 39.42 7.47 C42.15 11.11, 43.74 17.55, 43.21 22.07 C42.69 26.59, 39.6 31.03, 36.26 34.59 C32.92 38.16, 27.7 42.52, 23.15 43.45 C18.6 44.39, 12.71 42.56, 8.96 40.19 C5.21 37.82, 1.79 33.85, 0.66 29.22 C-0.47 24.59, 0.51 16.98, 2.19 12.42 C3.87 7.86, 8.97 3.24, 10.74 1.88 C12.51 0.51, 12.56 4.01, 12.81 4.22" stroke="none" stroke-width="0" fill="#04aaf7"></path><path d="M25.45 -0.6 C29.84 -0.09, 35.07 4.73, 37.87 8.25 C40.66 11.76, 42.29 15.86, 42.23 20.49 C42.16 25.13, 40.47 32.48, 37.49 36.05 C34.51 39.62, 28.88 41.26, 24.36 41.93 C19.83 42.61, 14.2 42.45, 10.34 40.1 C6.48 37.74, 2.59 32.17, 1.19 27.82 C-0.22 23.46, 0.29 18.04, 1.91 13.95 C3.54 9.87, 6.33 5.32, 10.93 3.31 C15.54 1.3, 25.56 1.68, 29.54 1.89 C33.53 2.1, 34.87 4.15, 34.85 4.58 M23.1 1.17 C27.47 1.72, 33.25 4.25, 36.27 7.44 C39.29 10.62, 40.86 15.68, 41.23 20.28 C41.6 24.89, 40.9 31.18, 38.49 35.05 C36.07 38.92, 31.15 42.66, 26.74 43.5 C22.34 44.35, 16.45 42.36, 12.05 40.11 C7.64 37.86, 2.1 34.39, 0.31 30.02 C-1.47 25.64, -0.27 18.26, 1.34 13.85 C2.95 9.44, 5.99 5.61, 9.95 3.57 C13.92 1.52, 22.57 2.02, 25.14 1.58 C27.71 1.14, 25.4 0.8, 25.36 0.92" stroke="#000000" stroke-width="1" fill="none"></path></g><g stroke-linecap="round"><g transform="translate(80.32398287861935 158.2718462647989) rotate(0 -3.466956822748358 6.479860744560767)" fill-rule="evenodd"><path d="M0 0 L-1.83 -0.41 L-7.57 -6.27 L-9.75 -6.1 L-11.36 -4.35 L-12.61 2.37 L-11.27 6.74 L-17.42 8.89 L-18 11.42 L-17.2 13.64 L-15.01 14.04 L-12.38 13.35 L-8.7 9.48 L-3.62 17.87 L-1.49 19.38 L-0.42 18.17 L-3.78 4.8 L-1.52 3.64 L1.39 4.35 L3.16 5.87 L6.21 6.29 L9.24 5.87 L10.81 3.22 L10.8 0.63 L4.22 1.11 L5.49 -5.76 L4.23 -6.26 L2.47 -5.35 L-0.24 -0.92 L0 0" stroke="none" stroke-width="0" fill="#40c057" fill-rule="evenodd"></path><path d="M0 0 C-0.31 -0.07, -0.57 0.63, -1.83 -0.41 C-3.09 -1.46, -5.98 -5.62, -7.57 -6.27 C-9.16 -6.93, -10.52 -5.79, -11.36 -4.35 C-12.2 -2.91, -12.63 0.53, -12.61 2.37 C-12.6 4.22, -10.47 5.65, -11.27 6.74 C-12.07 7.83, -16.44 7.74, -17.42 8.89 C-18.41 10.04, -18.04 12.9, -17.2 13.64 C-16.36 14.39, -13.8 14.04, -12.38 13.35 C-10.96 12.66, -10.16 8.72, -8.7 9.48 C-7.24 10.23, -5 16.42, -3.62 17.87 C-2.24 19.32, -0.39 20.35, -0.42 18.17 C-0.44 15.99, -4.08 7.1, -3.78 4.8 C-3.48 2.5, 0.23 4.17, 1.39 4.35 C2.54 4.53, 1.85 5.61, 3.16 5.87 C4.47 6.12, 7.96 6.74, 9.24 5.87 C10.51 5, 11.64 1.43, 10.8 0.63 C9.97 -0.16, 5.11 2.18, 4.22 1.11 C3.34 0.04, 5.78 -4.68, 5.49 -5.76 C5.19 -6.84, 3.43 -6.15, 2.47 -5.35 C1.52 -4.54, 0.17 -1.81, -0.24 -0.92 C-0.65 -0.03, -0.04 -0.15, 0 0 M0 0 C-0.31 -0.07, -0.57 0.63, -1.83 -0.41 C-3.09 -1.46, -5.98 -5.62, -7.57 -6.27 C-9.16 -6.93, -10.52 -5.79, -11.36 -4.35 C-12.2 -2.91, -12.63 0.53, -12.61 2.37 C-12.6 4.22, -10.47 5.65, -11.27 6.74 C-12.07 7.83, -16.44 7.74, -17.42 8.89 C-18.41 10.04, -18.04 12.9, -17.2 13.64 C-16.36 14.39, -13.8 14.04, -12.38 13.35 C-10.96 12.66, -10.16 8.72, -8.7 9.48 C-7.24 10.23, -5 16.42, -3.62 17.87 C-2.24 19.32, -0.39 20.35, -0.42 18.17 C-0.44 15.99, -4.08 7.1, -3.78 4.8 C-3.48 2.5, 0.23 4.17, 1.39 4.35 C2.54 4.53, 1.85 5.61, 3.16 5.87 C4.47 6.12, 7.96 6.74, 9.24 5.87 C10.51 5, 11.64 1.43, 10.8 0.63 C9.97 -0.16, 5.11 2.18, 4.22 1.11 C3.34 0.04, 5.78 -4.68, 5.49 -5.76 C5.19 -6.84, 3.43 -6.15, 2.47 -5.35 C1.52 -4.54, 0.17 -1.81, -0.24 -0.92 C-0.65 -0.03, -0.04 -0.15, 0 0" stroke="#087f5b" stroke-width="1" fill="none"></path></g></g><g stroke-linecap="round"><g stroke-opacity="0.9" fill-opacity="0.9" transform="translate(54.30488129067129 163.01036776352237) rotate(0 20.955918217581115 -0.7681477987160861)"><path d="M0.43 -0.32 C7.42 -0.38, 35.96 0.31, 42.72 0.38 M-0.81 -1.54 C6.01 -2.03, 34.75 -2.05, 42.1 -1.54" stroke="#000000" stroke-width="1" fill="none"></path></g></g><g stroke-linecap="round"><g stroke-opacity="0.9" fill-opacity="0.9" transform="translate(59.40021032044564 147.57583883655616) rotate(0 14.659303301924325 2.6275724513134264)"><path d="M0 0 C0.13 0.38, 0.09 1.58, 0.77 2.28 C1.46 2.97, 2.81 3.68, 4.1 4.19 C5.4 4.7, 6.64 5.13, 8.54 5.34 C10.43 5.55, 12.97 5.55, 15.48 5.45 C17.99 5.34, 21.44 5.28, 23.58 4.71 C25.72 4.14, 27.36 2.86, 28.32 2.03 C29.27 1.2, 29.15 0.12, 29.32 -0.26 M0 0 C0.13 0.38, 0.09 1.58, 0.77 2.28 C1.46 2.97, 2.81 3.68, 4.1 4.19 C5.4 4.7, 6.64 5.13, 8.54 5.34 C10.43 5.55, 12.97 5.55, 15.48 5.45 C17.99 5.34, 21.44 5.28, 23.58 4.71 C25.72 4.14, 27.36 2.86, 28.32 2.03 C29.27 1.2, 29.15 0.12, 29.32 -0.26" stroke="#000000" stroke-width="1" fill="none"></path></g></g><g stroke-opacity="0.9" fill-opacity="0.9" stroke-linecap="round" transform="translate(67.4741262443651 140.66496457074868) rotate(0 7.7642171765580485 22.41115194065472)"><path d="M3.78 1.46 C5.1 -0.79, 7.76 0.33, 9.36 1.51 C10.95 2.69, 12.36 4.79, 13.34 8.53 C14.32 12.28, 15.23 19.22, 15.23 23.96 C15.23 28.7, 14.33 33.54, 13.34 36.98 C12.35 40.43, 10.88 43.85, 9.28 44.63 C7.67 45.4, 5.34 44.27, 3.7 41.63 C2.07 38.98, -0.03 33.55, -0.53 28.75 C-1.03 23.95, -0.35 17.42, 0.69 12.84 C1.73 8.26, 4.55 3.48, 5.72 1.28 C6.88 -0.92, 7.74 -0.48, 7.69 -0.37 M8.64 0.49 C10.44 1.64, 13.44 6.45, 14.78 10.81 C16.11 15.16, 16.78 21.94, 16.64 26.64 C16.5 31.34, 15.54 35.83, 13.92 39.01 C12.3 42.18, 8.7 45.61, 6.91 45.69 C5.13 45.76, 4.4 42.46, 3.23 39.45 C2.05 36.44, 0.18 31.97, -0.12 27.62 C-0.41 23.26, 0.49 17.6, 1.46 13.31 C2.43 9.03, 4.13 3.97, 5.68 1.92 C7.23 -0.13, 10 1.26, 10.78 1.02 C11.56 0.78, 10.75 -0.04, 10.36 0.48" stroke="#000000" stroke-width="1" fill="none"></path></g><g stroke-linecap="round"><g stroke-opacity="0.9" fill-opacity="0.9" transform="translate(60.91616183007153 179.31293089499707) rotate(0 14.659303301924325 -2.712622320327597)"><path d="M0 0 C0.68 -0.72, 2.68 -3.4, 4.1 -4.32 C5.53 -5.24, 6.64 -5.3, 8.54 -5.52 C10.43 -5.73, 12.97 -5.73, 15.48 -5.63 C17.99 -5.52, 21.44 -5.45, 23.58 -4.86 C25.72 -4.28, 27.36 -2.95, 28.32 -2.1 C29.27 -1.24, 29.15 -0.12, 29.32 0.27 M0 0 C0.68 -0.72, 2.68 -3.4, 4.1 -4.32 C5.53 -5.24, 6.64 -5.3, 8.54 -5.52 C10.43 -5.73, 12.97 -5.73, 15.48 -5.63 C17.99 -5.52, 21.44 -5.45, 23.58 -4.86 C25.72 -4.28, 27.36 -2.95, 28.32 -2.1 C29.27 -1.24, 29.15 -0.12, 29.32 0.27" stroke="#000000" stroke-width="1" fill="none"></path></g></g><g stroke-linecap="round"><g transform="translate(437.90938469633466 392.0786174204348) rotate(0 -55.31947143177814 45.261013027621914)" fill-rule="evenodd"><path d="M-54.69 0.95 L-95.15 24.69 L-96.1 66.76 L-54.8 90.9 L-15.2 64.36 L-13.84 23.38 L-54.26 -0.6" stroke="none" stroke-width="0" fill="#40c057" fill-rule="evenodd"></path><path d="M-53.09 -0.99 C-69.54 7.28, -79.1 13.98, -95.09 22.4 M-53.61 -0.04 C-67.1 7.67, -81.21 14.59, -94.08 22.24 M-95.83 21.88 C-95.87 37.03, -95.41 48.87, -96.13 65.96 M-93.34 23.58 C-94.04 36.62, -93.45 51.97, -94.6 66.53 M-93.01 67.06 C-79.95 74.08, -67.2 80.56, -56.01 91.51 M-93.57 66.26 C-82.04 73.87, -71.52 79.72, -54.58 91.06 M-53.34 91.01 C-40.15 79.61, -24.04 68.75, -17.03 66.74 M-54.98 89.55 C-44.64 83.57, -34.53 77.6, -15.41 65.49 M-16.36 63.14 C-16.7 55.58, -16.6 45.08, -15.68 23.34 M-15.6 65.49 C-14.08 49.99, -15.79 34.99, -14.51 21.28 M-14.77 19.84 C-26.54 12.35, -42.78 7.86, -53.58 -0.33 M-16 20.45 C-27.64 14.29, -40.74 8.12, -55.13 0.23 M-54.22 0 C-54.22 0, -54.22 0, -54.22 0 M-54.22 0 C-54.22 0, -54.22 0, -54.22 0" stroke="#000000" stroke-width="1" fill="none"></path></g></g><g stroke-linecap="round"><g transform="translate(380.2058412612628 440.82560066362015) rotate(0 1.335356983634938 -5.294396102468681)" fill-rule="evenodd"><path d="M-9.88 -14 L-12.97 15.1 L-14.41 14.89 L-18.45 13.85 L-18.48 5.6 L-17.68 -16.61 L-16.33 -23.86 L-13.49 -27.3 L-11.38 -23.09 L10.58 2.12 L13.73 4.26 L13.37 -22.03 L18.48 -27.32 L19.74 -25.2 L23.48 -5.21 L22.17 10.92 L16.82 15.91 L9.56 12.74 L-11.46 -15.73" stroke="none" stroke-width="0" fill="#ffff" fill-rule="evenodd"></path><path d="M-10.44 -14.6 C-10.41 -12.43, -12.05 -5.5, -12.03 -0.87 C-12.01 3.75, -9.24 10.85, -10.34 13.14 C-11.44 15.44, -17.18 16.37, -18.62 12.91 C-20.07 9.44, -19.07 -1.66, -18.99 -7.65 C-18.91 -13.65, -19.73 -20.33, -18.14 -23.07 C-16.55 -25.81, -12.84 -26.01, -9.44 -24.09 C-6.05 -22.16, -1.47 -16.06, 2.23 -11.52 C5.94 -6.97, 10.92 5.13, 12.79 3.18 C14.66 1.23, 12.02 -18.75, 13.43 -23.23 C14.85 -27.72, 20.05 -26.31, 21.29 -23.73 C22.53 -21.14, 21.27 -13.9, 20.89 -7.74 C20.52 -1.58, 20.89 9.64, 19.05 13.23 C17.2 16.82, 13.44 16.16, 9.82 13.81 C6.2 11.46, 0.75 3.72, -2.68 -0.87 C-6.11 -5.46, -9.51 -11.7, -10.76 -13.73 M-11.55 -12.3 C-11.06 -9.95, -10.07 -3.85, -9.91 0.55 C-9.74 4.94, -9.07 11.84, -10.53 14.05 C-12 16.27, -17.05 17.4, -18.68 13.83 C-20.3 10.27, -20.53 -1.05, -20.29 -7.31 C-20.05 -13.57, -19.14 -20.74, -17.23 -23.73 C-15.32 -26.73, -11.95 -27.81, -8.83 -25.31 C-5.7 -22.81, -2.41 -13.26, 1.51 -8.74 C5.43 -4.21, 12.67 4.33, 14.71 1.83 C16.74 -0.66, 12.54 -19.66, 13.74 -23.73 C14.95 -27.79, 20.47 -25.09, 21.95 -22.55 C23.43 -20.01, 23.16 -14.4, 22.61 -8.51 C22.06 -2.61, 20.38 9.1, 18.66 12.8 C16.94 16.5, 15.91 16.1, 12.31 13.69 C8.7 11.28, 0.67 2.67, -2.97 -1.67 C-6.61 -6.01, -8.22 -10.03, -9.54 -12.33" stroke="#000000" stroke-width="1" fill="none"></path></g></g><g stroke-linecap="round" transform="translate(309.7355117963998 327.5029907226562) rotate(0 69.70059204101562 88.51138305664062)"><path d="M0 0 C37.86 0, 75.73 0, 139.4 0 M0 0 C34.96 0, 69.93 0, 139.4 0 M139.4 0 C139.4 46.28, 139.4 92.55, 139.4 177.02 M139.4 0 C139.4 49.97, 139.4 99.95, 139.4 177.02 M139.4 177.02 C106.36 177.02, 73.32 177.02, 0 177.02 M139.4 177.02 C107.11 177.02, 74.82 177.02, 0 177.02 M0 177.02 C0 110.3, 0 43.58, 0 0 M0 177.02 C0 114.32, 0 51.61, 0 0" stroke="#000000" stroke-width="1" fill="none"></path></g><g transform="translate(356.8569717573373 350.9333190917968) rotate(0 27 12.5)"><text x="0" y="18" font-family="Virgil, Segoe UI Emoji" font-size="20px" fill="#000000" text-anchor="start" style="white-space: pre;" direction="ltr">Offer</text></g><g stroke-linecap="round" transform="translate(80.5532608198373 321.74340820312494) rotate(0 64.0799560546875 86.54745483398438)"><path d="M0 0 C38.42 0, 76.84 0, 128.16 0 M0 0 C47.57 0, 95.14 0, 128.16 0 M128.16 0 C128.16 49.22, 128.16 98.43, 128.16 173.09 M128.16 0 C128.16 37.33, 128.16 74.66, 128.16 173.09 M128.16 173.09 C98.02 173.09, 67.87 173.09, 0 173.09 M128.16 173.09 C85.12 173.09, 42.09 173.09, 0 173.09 M0 173.09 C0 114.84, 0 56.59, 0 0 M0 173.09 C0 105.02, 0 36.94, 0 0" stroke="#000000" stroke-width="1" fill="none"></path></g><g stroke-linecap="round"><g transform="translate(144.490622061968 382.73590903695055) rotate(0 -0.31528883229219673 45.14123415608566)" fill-rule="evenodd"><path d="M-0.36 -0.21 L-41.72 22.33 L-40.32 67.43 L1.92 91.88 L37.64 66.71 L40.14 22.69 L0.95 0.57" stroke="none" stroke-width="0" fill="#40c057" fill-rule="evenodd"></path><path d="M-0.65 -0.69 C-14.9 9.46, -30.53 17.87, -38.19 21.61 M-0.18 -0.55 C-14.49 7.82, -31.53 18.04, -40.19 23.7 M-38.26 21.88 C-41.14 32.66, -39.54 45.88, -40.87 67.12 M-40.75 23.67 C-39.54 33.64, -39.41 45.14, -40.57 67.18 M-38.27 67.24 C-28.91 71.75, -19.91 78.32, 0.54 90.04 M-40.32 67.24 C-24.85 75.74, -11.71 84.35, 0.9 89.42 M-1.7 90.97 C15.31 79.97, 27.94 73.9, 40.24 64.44 M-0.66 90.36 C14.83 79.36, 29.23 69.84, 39.43 65.08 M38.43 62.88 C37.77 52.79, 36.81 35.6, 36.99 21.63 M39.78 65.06 C38.14 47.11, 39.25 30.89, 38.76 22 M38.65 20.97 C26.36 15.26, 11.34 7.28, -0.85 0.87 M38.62 21.07 C27.66 14.29, 14.86 8.65, -0.51 -0.3 M0 0 C0 0, 0 0, 0 0 M0 0 C0 0, 0 0, 0 0" stroke="#000000" stroke-width="1" fill="none"></path></g></g><g stroke-linecap="round"><g transform="translate(130.78900174797695 417.88475510489644) rotate(0 12.398802677856509 8.781784110782667)" fill-rule="evenodd"><path d="M1.41 0.92 L-2 29.11 L-5.33 28.51 L-6.03 26.44 L-7.97 16.6 L-6.04 -2.42 L-5.48 -11.11 L-3.55 -12.8 L2.07 -10.56 L23.24 15.32 L23.34 16.33 L26.45 -8.05 L29.11 -14.3 L32.28 -8.66 L31.32 7.89 L30.5 27.47 L25.36 29.88 L23.33 26.45 L0.59 1.61" stroke="none" stroke-width="0" fill="#ffff" fill-rule="evenodd"></path><path d="M-0.39 -0.42 C-0.13 2.01, 0.58 9.09, 0.65 13.84 C0.72 18.6, 1.11 26.03, 0.02 28.13 C-1.07 30.23, -4.7 30, -5.89 26.45 C-7.09 22.9, -6.93 12.9, -7.13 6.83 C-7.33 0.75, -8.45 -7.34, -7.09 -10.01 C-5.72 -12.68, -2.09 -11.33, 1.07 -9.2 C4.23 -7.06, 7.93 -1.54, 11.87 2.79 C15.82 7.13, 22.31 18.9, 24.71 16.81 C27.12 14.72, 25.26 -5.14, 26.31 -9.75 C27.35 -14.35, 29.67 -13.5, 30.96 -10.83 C32.25 -8.16, 34.06 0.17, 34.03 6.27 C34.01 12.36, 32.76 22.08, 30.8 25.75 C28.84 29.42, 25.87 30.28, 22.25 28.29 C18.63 26.31, 12.85 18.58, 9.07 13.84 C5.29 9.09, 1.03 2.27, -0.44 -0.19 M1.6 -1.68 C1.83 0.44, 0.29 6.77, -0.07 11.97 C-0.43 17.18, 0.88 27.02, -0.57 29.55 C-2.02 32.07, -7.51 30.81, -8.76 27.12 C-10.01 23.44, -8.47 13.8, -8.05 7.42 C-7.62 1.04, -7.77 -8.27, -6.2 -11.17 C-4.64 -14.06, -2.01 -12.16, 1.36 -9.95 C4.74 -7.75, 10.36 -2.74, 14.03 2.07 C17.7 6.88, 21.75 21.02, 23.39 18.92 C25.03 16.82, 22.63 -5.65, 23.88 -10.51 C25.12 -15.37, 29.31 -12.9, 30.86 -10.24 C32.4 -7.57, 33.17 -0.9, 33.15 5.5 C33.13 11.91, 32.64 24.37, 30.74 28.2 C28.84 32.02, 25.37 30.9, 21.76 28.43 C18.15 25.96, 12.66 17.98, 9.1 13.4 C5.53 8.82, 2.02 3.31, 0.36 0.95" stroke="#000000" stroke-width="1" fill="none"></path></g></g><g transform="translate(107.80100251905606 344.7026062011718) rotate(0 42 12.5)"><text x="0" y="18" font-family="Virgil, Segoe UI Emoji" font-size="20px" fill="#000000" text-anchor="start" style="white-space: pre;" direction="ltr">Discount</text></g><g stroke-linecap="round"><g transform="translate(147.72983552686856 165.3153686523437) rotate(0 19.24542236328125 72.92300634765624)"><path d="M0 0 C6.42 0.95, 37.45 -19.76, 38.49 5.72 C39.53 31.2, 11.61 128.35, 6.24 152.87 M0 0 C6.42 0.95, 37.45 -19.76, 38.49 5.72 C39.53 31.2, 11.61 128.35, 6.24 152.87" stroke="#e67700" stroke-width="1" fill="none"></path></g><g transform="translate(147.72983552686856 165.3153686523437) rotate(0 19.24542236328125 72.92300634765624)"><path d="M3.19 123.03 C4.2 132.93, 5.21 142.83, 6.24 152.87 M3.19 123.03 C4 130.97, 4.81 138.91, 6.24 152.87" stroke="#e67700" stroke-width="1" fill="none"></path></g><g transform="translate(147.72983552686856 165.3153686523437) rotate(0 19.24542236328125 72.92300634765624)"><path d="M23.08 128.05 C17.5 136.28, 11.91 144.52, 6.24 152.87 M23.08 128.05 C18.6 134.65, 14.12 141.26, 6.24 152.87" stroke="#e67700" stroke-width="1" fill="none"></path></g></g><g stroke-linecap="round"><g transform="translate(385.76438142530606 316.4070739746093) rotate(0 -83.3899716796875 60.000963073730475)"><path d="M0 0 C-2.26 -2.76, 7.49 -18.17, -13.55 -16.59 C-34.59 -15.01, -107.59 -14.94, -126.23 9.5 C-144.87 33.93, -118.59 111.44, -125.4 130.04 C-132.22 148.64, -160.15 122.58, -167.09 121.09 M0 0 C-2.26 -2.76, 7.49 -18.17, -13.55 -16.59 C-34.59 -15.01, -107.59 -14.94, -126.23 9.5 C-144.87 33.93, -118.59 111.44, -125.4 130.04 C-132.22 148.64, -160.15 122.58, -167.09 121.09" stroke="#e67700" stroke-width="1" fill="none"></path></g><g transform="translate(385.76438142530606 316.4070739746093) rotate(0 -83.3899716796875 60.000963073730475)"><path d="M-146.07 124.62 C-150.38 123.89, -154.69 123.17, -167.09 121.09 M-146.07 124.62 C-152.13 123.6, -158.2 122.58, -167.09 121.09" stroke="#e67700" stroke-width="1" fill="none"></path></g><g transform="translate(385.76438142530606 316.4070739746093) rotate(0 -83.3899716796875 60.000963073730475)"><path d="M-153.25 137.31 C-156.09 133.98, -158.93 130.66, -167.09 121.09 M-153.25 137.31 C-157.25 132.63, -161.24 127.95, -167.09 121.09" stroke="#e67700" stroke-width="1" fill="none"></path></g></g><g stroke-linecap="round"><g transform="translate(71.64044954054043 416.03201293945307) rotate(0 -15.725097679138173 -101.0355070800781)"><path d="M0 0 C-5.79 -0.44, -31.39 22.83, -34.76 -2.67 C-38.14 -28.16, -26.69 -118.21, -20.25 -152.97 C-13.8 -187.73, -0.12 -201.52, 3.9 -211.23 M0 0 C-5.79 -0.44, -31.39 22.83, -34.76 -2.67 C-38.14 -28.16, -26.69 -118.21, -20.25 -152.97 C-13.8 -187.73, -0.12 -201.52, 3.9 -211.23" stroke="#2b8a3e" stroke-width="1" fill="none"></path></g><g transform="translate(71.64044954054043 416.03201293945307) rotate(0 -15.725097679138173 -101.0355070800781)"><path d="M-0.93 -181.62 C0.12 -188.05, 1.17 -194.48, 3.9 -211.23 M-0.93 -181.62 C0.42 -189.93, 1.78 -198.23, 3.9 -211.23" stroke="#2b8a3e" stroke-width="1" fill="none"></path></g><g transform="translate(71.64044954054043 416.03201293945307) rotate(0 -15.725097679138173 -101.0355070800781)"><path d="M-18.83 -191.66 C-13.9 -195.91, -8.96 -200.16, 3.9 -211.23 M-18.83 -191.66 C-12.46 -197.15, -6.08 -202.64, 3.9 -211.23" stroke="#2b8a3e" stroke-width="1" fill="none"></path></g></g><g stroke-linecap="round"><g transform="translate(561.9488296674936 9.999999999999943) rotate(0 -1.13104248046875 327.0621490478516)"><path d="M0 0 C-0.38 109.02, -1.89 545.1, -2.26 654.12 M0 0 C-0.38 109.02, -1.89 545.1, -2.26 654.12" stroke="#000000" stroke-width="2" fill="none"></path></g></g><g stroke-linecap="round" transform="translate(656.1260095049965 134.0292735774549) rotate(0 63.9419178660695 38.268516949888834)"><path d="M0.51 1.87 C46.9 1.95, 95.05 -1.35, 128.39 0.46 M-0.1 -0.39 C46.11 1.41, 93.65 1.85, 128.56 0.45 M129.54 -1.06 C127.87 17.74, 126.37 37.46, 128.87 75.29 M128.29 -0.88 C128.72 25.48, 128.12 51.22, 127.12 76.32 M127.67 78.4 C98.61 77.69, 67.93 77.39, 0.94 76.86 M127.01 76.24 C81.43 76.92, 36.95 76.4, 0.78 76.6 M-1.22 75.18 C-1.77 55.61, 1.35 36.95, -0.56 -0.89 M-0.5 75.98 C-1.18 46.74, -0.66 19.38, -0.86 0.86" stroke="#000000" stroke-width="1" fill="none"></path></g><g stroke-linecap="round"><g transform="translate(655.0504117541013 144.74580796969906) rotate(0 63.6521410668297 0.2319485401371395)"><path d="M0.31 1.12 C21.79 1.34, 106.93 1.25, 128.29 0.88 M-0.99 0.67 C20.33 0.6, 105.63 -0.61, 127.06 -0.78" stroke="#000000" stroke-width="1" fill="none"></path></g></g><g stroke-linecap="round" transform="translate(660.6140449739514 138.3008433774637) rotate(0 2.5009765625 2.5009765625)"><path d="M2.5 0 C3.01 -0.03, 3.7 0.24, 4.11 0.59 C4.52 0.93, 4.87 1.54, 4.96 2.07 C5.06 2.59, 4.93 3.29, 4.67 3.75 C4.4 4.22, 3.86 4.67, 3.36 4.85 C2.85 5.03, 2.15 5.03, 1.65 4.85 C1.14 4.67, 0.6 4.22, 0.34 3.75 C0.07 3.29, -0.06 2.59, 0.04 2.07 C0.13 1.54, 0.48 0.93, 0.89 0.59 C1.3 0.24, 2.23 0.09, 2.5 0 C2.77 -0.09, 2.5 0.01, 2.5 0.05 M2.5 0 C3.01 -0.03, 3.7 0.24, 4.11 0.59 C4.52 0.93, 4.87 1.54, 4.96 2.07 C5.06 2.59, 4.93 3.29, 4.67 3.75 C4.4 4.22, 3.86 4.67, 3.36 4.85 C2.85 5.03, 2.15 5.03, 1.65 4.85 C1.14 4.67, 0.6 4.22, 0.34 3.75 C0.07 3.29, -0.06 2.59, 0.04 2.07 C0.13 1.54, 0.48 0.93, 0.89 0.59 C1.3 0.24, 2.23 0.09, 2.5 0 C2.77 -0.09, 2.5 0.01, 2.5 0.05" stroke="none" stroke-width="0" fill="#fa5252"></path><path d="M2.5 0 C3.01 -0.03, 3.7 0.24, 4.11 0.59 C4.52 0.93, 4.87 1.54, 4.96 2.07 C5.06 2.59, 4.93 3.29, 4.67 3.75 C4.4 4.22, 3.86 4.67, 3.36 4.85 C2.85 5.03, 2.15 5.03, 1.65 4.85 C1.14 4.67, 0.6 4.22, 0.34 3.75 C0.07 3.29, -0.06 2.59, 0.04 2.07 C0.13 1.54, 0.48 0.93, 0.89 0.59 C1.3 0.24, 2.23 0.09, 2.5 0 C2.77 -0.09, 2.5 0.01, 2.5 0.05 M2.5 0 C3.01 -0.03, 3.7 0.24, 4.11 0.59 C4.52 0.93, 4.87 1.54, 4.96 2.07 C5.06 2.59, 4.93 3.29, 4.67 3.75 C4.4 4.22, 3.86 4.67, 3.36 4.85 C2.85 5.03, 2.15 5.03, 1.65 4.85 C1.14 4.67, 0.6 4.22, 0.34 3.75 C0.07 3.29, -0.06 2.59, 0.04 2.07 C0.13 1.54, 0.48 0.93, 0.89 0.59 C1.3 0.24, 2.23 0.09, 2.5 0 C2.77 -0.09, 2.5 0.01, 2.5 0.05" stroke="#000000" stroke-width="1" fill="none"></path></g><g stroke-linecap="round" transform="translate(670.8767402864514 138.3008433774637) rotate(0 2.5009765625 2.5009765625)"><path d="M2.5 0 C3.01 -0.03, 3.7 0.24, 4.11 0.59 C4.52 0.93, 4.87 1.54, 4.96 2.07 C5.06 2.59, 4.93 3.29, 4.67 3.75 C4.4 4.22, 3.86 4.67, 3.36 4.85 C2.85 5.03, 2.15 5.03, 1.65 4.85 C1.14 4.67, 0.6 4.22, 0.34 3.75 C0.07 3.29, -0.06 2.59, 0.04 2.07 C0.13 1.54, 0.48 0.93, 0.89 0.59 C1.3 0.24, 2.23 0.09, 2.5 0 C2.77 -0.09, 2.5 0.01, 2.5 0.05 M2.5 0 C3.01 -0.03, 3.7 0.24, 4.11 0.59 C4.52 0.93, 4.87 1.54, 4.96 2.07 C5.06 2.59, 4.93 3.29, 4.67 3.75 C4.4 4.22, 3.86 4.67, 3.36 4.85 C2.85 5.03, 2.15 5.03, 1.65 4.85 C1.14 4.67, 0.6 4.22, 0.34 3.75 C0.07 3.29, -0.06 2.59, 0.04 2.07 C0.13 1.54, 0.48 0.93, 0.89 0.59 C1.3 0.24, 2.23 0.09, 2.5 0 C2.77 -0.09, 2.5 0.01, 2.5 0.05" stroke="none" stroke-width="0" fill="#fab005"></path><path d="M2.5 0 C3.01 -0.03, 3.7 0.24, 4.11 0.59 C4.52 0.93, 4.87 1.54, 4.96 2.07 C5.06 2.59, 4.93 3.29, 4.67 3.75 C4.4 4.22, 3.86 4.67, 3.36 4.85 C2.85 5.03, 2.15 5.03, 1.65 4.85 C1.14 4.67, 0.6 4.22, 0.34 3.75 C0.07 3.29, -0.06 2.59, 0.04 2.07 C0.13 1.54, 0.48 0.93, 0.89 0.59 C1.3 0.24, 2.23 0.09, 2.5 0 C2.77 -0.09, 2.5 0.01, 2.5 0.05 M2.5 0 C3.01 -0.03, 3.7 0.24, 4.11 0.59 C4.52 0.93, 4.87 1.54, 4.96 2.07 C5.06 2.59, 4.93 3.29, 4.67 3.75 C4.4 4.22, 3.86 4.67, 3.36 4.85 C2.85 5.03, 2.15 5.03, 1.65 4.85 C1.14 4.67, 0.6 4.22, 0.34 3.75 C0.07 3.29, -0.06 2.59, 0.04 2.07 C0.13 1.54, 0.48 0.93, 0.89 0.59 C1.3 0.24, 2.23 0.09, 2.5 0 C2.77 -0.09, 2.5 0.01, 2.5 0.05" stroke="#000000" stroke-width="1" fill="none"></path></g><g stroke-linecap="round" transform="translate(681.5901567527976 138.7515645313099) rotate(0 2.5009765625 2.5009765625)"><path d="M2.5 0 C3.01 -0.03, 3.7 0.24, 4.11 0.59 C4.52 0.93, 4.87 1.54, 4.96 2.07 C5.06 2.59, 4.93 3.29, 4.67 3.75 C4.4 4.22, 3.86 4.67, 3.36 4.85 C2.85 5.03, 2.15 5.03, 1.65 4.85 C1.14 4.67, 0.6 4.22, 0.34 3.75 C0.07 3.29, -0.06 2.59, 0.04 2.07 C0.13 1.54, 0.48 0.93, 0.89 0.59 C1.3 0.24, 2.23 0.09, 2.5 0 C2.77 -0.09, 2.5 0.01, 2.5 0.05 M2.5 0 C3.01 -0.03, 3.7 0.24, 4.11 0.59 C4.52 0.93, 4.87 1.54, 4.96 2.07 C5.06 2.59, 4.93 3.29, 4.67 3.75 C4.4 4.22, 3.86 4.67, 3.36 4.85 C2.85 5.03, 2.15 5.03, 1.65 4.85 C1.14 4.67, 0.6 4.22, 0.34 3.75 C0.07 3.29, -0.06 2.59, 0.04 2.07 C0.13 1.54, 0.48 0.93, 0.89 0.59 C1.3 0.24, 2.23 0.09, 2.5 0 C2.77 -0.09, 2.5 0.01, 2.5 0.05" stroke="none" stroke-width="0" fill="#40c057"></path><path d="M2.5 0 C3.01 -0.03, 3.7 0.24, 4.11 0.59 C4.52 0.93, 4.87 1.54, 4.96 2.07 C5.06 2.59, 4.93 3.29, 4.67 3.75 C4.4 4.22, 3.86 4.67, 3.36 4.85 C2.85 5.03, 2.15 5.03, 1.65 4.85 C1.14 4.67, 0.6 4.22, 0.34 3.75 C0.07 3.29, -0.06 2.59, 0.04 2.07 C0.13 1.54, 0.48 0.93, 0.89 0.59 C1.3 0.24, 2.23 0.09, 2.5 0 C2.77 -0.09, 2.5 0.01, 2.5 0.05 M2.5 0 C3.01 -0.03, 3.7 0.24, 4.11 0.59 C4.52 0.93, 4.87 1.54, 4.96 2.07 C5.06 2.59, 4.93 3.29, 4.67 3.75 C4.4 4.22, 3.86 4.67, 3.36 4.85 C2.85 5.03, 2.15 5.03, 1.65 4.85 C1.14 4.67, 0.6 4.22, 0.34 3.75 C0.07 3.29, -0.06 2.59, 0.04 2.07 C0.13 1.54, 0.48 0.93, 0.89 0.59 C1.3 0.24, 2.23 0.09, 2.5 0 C2.77 -0.09, 2.5 0.01, 2.5 0.05" stroke="#000000" stroke-width="1" fill="none"></path></g><g stroke-opacity="0.9" fill-opacity="0.9" stroke-linecap="round" transform="translate(697.6172177424248 154.80393340932574) rotate(0 21.360101269687902 21.360101269687874)"><path d="M22.23 -0.6 C26.52 -0.88, 31.54 1.23, 34.89 4.48 C38.23 7.74, 41.4 14.27, 42.3 18.91 C43.2 23.54, 42.72 28.38, 40.27 32.3 C37.83 36.22, 32.06 40.96, 27.63 42.43 C23.2 43.89, 17.96 43, 13.7 41.08 C9.44 39.17, 4.43 35.08, 2.05 30.93 C-0.32 26.79, -1.49 20.46, -0.56 16.21 C0.38 11.95, 3.34 7.86, 7.64 5.39 C11.94 2.92, 21.64 1.98, 25.25 1.39 C28.87 0.8, 29.31 1.69, 29.32 1.85 M31.55 1.91 C35.65 3.65, 38.87 9.66, 40.67 13.75 C42.48 17.84, 43.79 22.4, 42.39 26.47 C41 30.53, 36.28 35.27, 32.28 38.16 C28.29 41.05, 22.85 44.32, 18.41 43.8 C13.96 43.29, 8.74 38.66, 5.6 35.09 C2.46 31.52, -0.38 26.64, -0.43 22.4 C-0.49 18.15, 2.21 13.27, 5.26 9.61 C8.31 5.95, 13.58 1.77, 17.86 0.45 C22.14 -0.87, 28.87 1.38, 30.93 1.71 C33 2.04, 30.23 2.23, 30.27 2.45" stroke="none" stroke-width="0" fill="#04aaf7"></path><path d="M24.82 -0.69 C29.11 -0.58, 34.04 2.91, 36.93 6.46 C39.83 10.01, 41.89 15.87, 42.2 20.63 C42.52 25.39, 41.39 31.36, 38.82 35.03 C36.25 38.69, 31.39 41.79, 26.77 42.64 C22.14 43.5, 15.31 42.18, 11.06 40.15 C6.81 38.13, 3.02 34.64, 1.25 30.47 C-0.52 26.29, -0.91 19.74, 0.42 15.12 C1.75 10.49, 5.16 5.12, 9.23 2.73 C13.29 0.34, 22.16 1.04, 24.81 0.8 C27.46 0.56, 24.99 1.09, 25.12 1.29 M24.85 -0.36 C29.17 0.05, 33.92 3.4, 36.84 6.97 C39.76 10.54, 42.13 16.43, 42.39 21.08 C42.65 25.72, 41.41 31.04, 38.39 34.84 C35.38 38.65, 28.83 42.89, 24.3 43.89 C19.76 44.9, 14.87 43.31, 11.17 40.86 C7.46 38.4, 3.57 33.7, 2.08 29.17 C0.59 24.65, 0.55 18.32, 2.21 13.72 C3.88 9.12, 8.14 4, 12.08 1.57 C16.02 -0.86, 23.67 -0.56, 25.85 -0.87 C28.03 -1.18, 25.19 -0.96, 25.15 -0.29" stroke="#000000" stroke-width="1" fill="none"></path></g><g stroke-linecap="round"><g transform="translate(724.6953818044005 171.02828547378328) rotate(0 -3.4669568227483296 6.479860744560767)" fill-rule="evenodd"><path d="M0 0 L-1.83 -0.41 L-7.57 -6.27 L-9.75 -6.1 L-11.36 -4.35 L-12.61 2.37 L-11.27 6.74 L-17.42 8.89 L-18 11.42 L-17.2 13.64 L-15.01 14.04 L-12.38 13.35 L-8.7 9.48 L-3.62 17.87 L-1.49 19.38 L-0.42 18.17 L-3.78 4.8 L-1.52 3.64 L1.39 4.35 L3.16 5.87 L6.21 6.29 L9.24 5.87 L10.81 3.22 L10.8 0.63 L4.22 1.11 L5.49 -5.76 L4.23 -6.26 L2.47 -5.35 L-0.24 -0.92 L0 0" stroke="none" stroke-width="0" fill="#40c057" fill-rule="evenodd"></path><path d="M0 0 C-0.31 -0.07, -0.57 0.63, -1.83 -0.41 C-3.09 -1.46, -5.98 -5.62, -7.57 -6.27 C-9.16 -6.93, -10.52 -5.79, -11.36 -4.35 C-12.2 -2.91, -12.63 0.53, -12.61 2.37 C-12.6 4.22, -10.47 5.65, -11.27 6.74 C-12.07 7.83, -16.44 7.74, -17.42 8.89 C-18.41 10.04, -18.04 12.9, -17.2 13.64 C-16.36 14.39, -13.8 14.04, -12.38 13.35 C-10.96 12.66, -10.16 8.72, -8.7 9.48 C-7.24 10.23, -5 16.42, -3.62 17.87 C-2.24 19.32, -0.39 20.35, -0.42 18.17 C-0.44 15.99, -4.08 7.1, -3.78 4.8 C-3.48 2.5, 0.23 4.17, 1.39 4.35 C2.54 4.53, 1.85 5.61, 3.16 5.87 C4.47 6.12, 7.96 6.74, 9.24 5.87 C10.51 5, 11.64 1.43, 10.8 0.63 C9.97 -0.16, 5.11 2.18, 4.22 1.11 C3.34 0.04, 5.78 -4.68, 5.49 -5.76 C5.19 -6.84, 3.43 -6.15, 2.47 -5.35 C1.52 -4.54, 0.17 -1.81, -0.24 -0.92 C-0.65 -0.03, -0.04 -0.15, 0 0 M0 0 C-0.31 -0.07, -0.57 0.63, -1.83 -0.41 C-3.09 -1.46, -5.98 -5.62, -7.57 -6.27 C-9.16 -6.93, -10.52 -5.79, -11.36 -4.35 C-12.2 -2.91, -12.63 0.53, -12.61 2.37 C-12.6 4.22, -10.47 5.65, -11.27 6.74 C-12.07 7.83, -16.44 7.74, -17.42 8.89 C-18.41 10.04, -18.04 12.9, -17.2 13.64 C-16.36 14.39, -13.8 14.04, -12.38 13.35 C-10.96 12.66, -10.16 8.72, -8.7 9.48 C-7.24 10.23, -5 16.42, -3.62 17.87 C-2.24 19.32, -0.39 20.35, -0.42 18.17 C-0.44 15.99, -4.08 7.1, -3.78 4.8 C-3.48 2.5, 0.23 4.17, 1.39 4.35 C2.54 4.53, 1.85 5.61, 3.16 5.87 C4.47 6.12, 7.96 6.74, 9.24 5.87 C10.51 5, 11.64 1.43, 10.8 0.63 C9.97 -0.16, 5.11 2.18, 4.22 1.11 C3.34 0.04, 5.78 -4.68, 5.49 -5.76 C5.19 -6.84, 3.43 -6.15, 2.47 -5.35 C1.52 -4.54, 0.17 -1.81, -0.24 -0.92 C-0.65 -0.03, -0.04 -0.15, 0 0" stroke="#087f5b" stroke-width="1" fill="none"></path></g></g><g stroke-linecap="round"><g stroke-opacity="0.9" fill-opacity="0.9" transform="translate(698.6762802164524 175.76680697250674) rotate(0 20.934336615782513 0.07597876101169732)"><path d="M0.3 0.28 C7.5 0.62, 36.07 1, 42.87 0.94 M-1 -0.62 C6.14 -0.51, 34.92 -0.99, 42.33 -0.7" stroke="#000000" stroke-width="1" fill="none"></path></g></g><g stroke-linecap="round"><g stroke-opacity="0.9" fill-opacity="0.9" transform="translate(703.7716092462267 160.33227804554053) rotate(0 14.659303301924297 2.6275724513134264)"><path d="M0 0 C0.13 0.38, 0.09 1.58, 0.77 2.28 C1.46 2.97, 2.81 3.68, 4.1 4.19 C5.4 4.7, 6.64 5.13, 8.54 5.34 C10.43 5.55, 12.97 5.55, 15.48 5.45 C17.99 5.34, 21.44 5.28, 23.58 4.71 C25.72 4.14, 27.36 2.86, 28.32 2.03 C29.27 1.2, 29.15 0.12, 29.32 -0.26 M0 0 C0.13 0.38, 0.09 1.58, 0.77 2.28 C1.46 2.97, 2.81 3.68, 4.1 4.19 C5.4 4.7, 6.64 5.13, 8.54 5.34 C10.43 5.55, 12.97 5.55, 15.48 5.45 C17.99 5.34, 21.44 5.28, 23.58 4.71 C25.72 4.14, 27.36 2.86, 28.32 2.03 C29.27 1.2, 29.15 0.12, 29.32 -0.26" stroke="#000000" stroke-width="1" fill="none"></path></g></g><g stroke-opacity="0.9" fill-opacity="0.9" stroke-linecap="round" transform="translate(711.8455251701462 153.42140377973305) rotate(0 7.764217176558077 22.41115194065472)"><path d="M4.06 2.33 C5.54 0.37, 8.49 0.26, 10.29 1.57 C12.08 2.88, 14.06 6.38, 14.84 10.17 C15.62 13.97, 15.3 19.52, 14.96 24.36 C14.61 29.2, 13.97 35.82, 12.79 39.23 C11.6 42.64, 9.52 44.7, 7.84 44.82 C6.16 44.95, 3.98 42.7, 2.7 39.98 C1.41 37.26, 0.55 32.98, 0.12 28.51 C-0.31 24.04, -1.12 17.94, 0.13 13.16 C1.39 8.38, 6.12 2.05, 7.63 -0.18 C9.14 -2.41, 9.33 -0.57, 9.2 -0.23 M5.41 -0.12 C7.3 -1.52, 10.56 -1.05, 12.1 1.35 C13.63 3.74, 13.93 9.58, 14.63 14.26 C15.33 18.94, 16.52 24.85, 16.29 29.44 C16.06 34.04, 14.65 39.22, 13.24 41.81 C11.83 44.4, 9.5 45.73, 7.82 44.99 C6.14 44.24, 4.43 40.98, 3.16 37.34 C1.89 33.7, 0.57 27.96, 0.2 23.15 C-0.17 18.34, -0.04 12.1, 0.94 8.48 C1.92 4.87, 5.35 2.47, 6.08 1.45 C6.82 0.44, 5.36 2.21, 5.35 2.38" stroke="#000000" stroke-width="1" fill="none"></path></g><g stroke-linecap="round"><g stroke-opacity="0.9" fill-opacity="0.9" transform="translate(705.2875607558526 192.06937010398144) rotate(0 14.659303301924297 -2.712622320327597)"><path d="M0 0 C0.68 -0.72, 2.68 -3.4, 4.1 -4.32 C5.53 -5.24, 6.64 -5.3, 8.54 -5.52 C10.43 -5.73, 12.97 -5.73, 15.48 -5.63 C17.99 -5.52, 21.44 -5.45, 23.58 -4.86 C25.72 -4.28, 27.36 -2.95, 28.32 -2.1 C29.27 -1.24, 29.15 -0.12, 29.32 0.27 M0 0 C0.68 -0.72, 2.68 -3.4, 4.1 -4.32 C5.53 -5.24, 6.64 -5.3, 8.54 -5.52 C10.43 -5.73, 12.97 -5.73, 15.48 -5.63 C17.99 -5.52, 21.44 -5.45, 23.58 -4.86 C25.72 -4.28, 27.36 -2.95, 28.32 -2.1 C29.27 -1.24, 29.15 -0.12, 29.32 0.27" stroke="#000000" stroke-width="1" fill="none"></path></g></g><g stroke-linecap="round" transform="translate(682.7725601362436 341.0942077636718) rotate(0 64.0799560546875 86.54745483398438)"><path d="M0 0 C32.3 0, 64.6 0, 128.16 0 M0 0 C40.03 0, 80.06 0, 128.16 0 M128.16 0 C128.16 65.27, 128.16 130.54, 128.16 173.09 M128.16 0 C128.16 39.93, 128.16 79.85, 128.16 173.09 M128.16 173.09 C84.41 173.09, 40.66 173.09, 0 173.09 M128.16 173.09 C94.41 173.09, 60.66 173.09, 0 173.09 M0 173.09 C0 105.83, 0 38.56, 0 0 M0 173.09 C0 134.69, 0 96.28, 0 0" stroke="#000000" stroke-width="1" fill="none"></path></g><g stroke-linecap="round"><g transform="translate(746.7099213783742 402.0867085974974) rotate(0 -0.6349490234134691 45.4359512826116)" fill-rule="evenodd"><path d="M0.23 1.07 L-40.36 23.62 L-38.92 67.93 L1.23 89.61 L39.47 64.37 L40 21.57 L1.32 -1.62" stroke="none" stroke-width="0" fill="#40c057" fill-rule="evenodd"></path><path d="M-1.26 1.61 C-9.39 3.06, -15.64 9.51, -39.17 23.21 M-0.15 -0.99 C-12.78 7.41, -27.09 16.15, -40.49 23.73 M-39.31 21.78 C-38.36 32.43, -39.5 45.02, -41.19 65.34 M-40.87 23.45 C-40.73 38.55, -38.98 53.05, -40.22 67.14 M-38.9 65.94 C-27.88 75.51, -13.82 82.81, -0.51 89.54 M-39.31 66.37 C-28.2 73.37, -17.33 80.97, 0.37 91.16 M-1.5 91.87 C10.58 81.62, 26.03 74.01, 39.47 63.2 M-0.19 90.58 C14.85 80.95, 27.96 71.37, 39.07 64.52 M39.23 65.64 C39.58 48.49, 38.34 36.24, 39.75 21.05 M38.12 64.67 C40.31 50.42, 40.25 33.95, 39.28 21.05 M39.1 19.73 C28.02 16.48, 19.1 8.41, -1.16 -0.12 M38.4 20.88 C29.68 17.1, 20.64 11.87, 0.29 0.24 M0 0 C0 0, 0 0, 0 0 M0 0 C0 0, 0 0, 0 0" stroke="#000000" stroke-width="1" fill="none"></path></g></g><g stroke-linecap="round"><g transform="translate(733.0083010643832 437.2355546654433) rotate(0 12.403931431537785 9.03206885926528)" fill-rule="evenodd"><path d="M0.99 -1.95 L0.51 29.48 L-4.1 29.22 L-6.11 27.97 L-7.31 18.92 L-6.67 -3.72 L-7.59 -8.69 L-3.65 -11.44 L1.03 -11.05 L21.75 16.3 L23.23 18.35 L24.72 -9.03 L27.83 -13.85 L32.46 -9.72 L34.8 7.14 L29.79 25.7 L25.56 30.77 L19.97 26.8 L1.5 -0.54" stroke="none" stroke-width="0" fill="#ffff" fill-rule="evenodd"></path><path d="M-0.76 0.97 C-0.78 3.03, -0.51 7.81, -0.3 12.28 C-0.08 16.75, 1.57 25.25, 0.54 27.77 C-0.49 30.29, -5.11 30.76, -6.48 27.4 C-7.85 24.04, -7.69 13.85, -7.68 7.62 C-7.66 1.39, -7.77 -7.11, -6.4 -9.96 C-5.03 -12.82, -2.6 -11.76, 0.53 -9.5 C3.66 -7.24, 8.34 -0.75, 12.36 3.58 C16.39 7.9, 22.35 18.69, 24.68 16.45 C27.01 14.2, 25.04 -5.39, 26.35 -9.89 C27.66 -14.38, 31.36 -13.2, 32.54 -10.52 C33.71 -7.84, 33.47 0.13, 33.4 6.21 C33.33 12.28, 34.03 22.23, 32.12 25.93 C30.21 29.63, 25.8 30.6, 21.93 28.41 C18.06 26.22, 12.44 17.42, 8.88 12.77 C5.31 8.11, 2.18 2.79, 0.56 0.47 M1.05 0.43 C0.83 2.61, -1.37 8.49, -1.51 13.25 C-1.65 18.01, 0.97 26.45, 0.22 29.01 C-0.52 31.57, -4.48 32.59, -5.99 28.58 C-7.51 24.58, -9.02 11.58, -8.88 4.96 C-8.74 -1.65, -6.73 -8.53, -5.16 -11.09 C-3.59 -13.66, -2.17 -12.81, 0.55 -10.42 C3.26 -8.03, 7.32 -1.53, 11.11 3.27 C14.91 8.07, 21.2 20.7, 23.33 18.37 C25.47 16.04, 22.28 -6.04, 23.94 -10.73 C25.59 -15.42, 31.89 -12.46, 33.26 -9.77 C34.64 -7.08, 32.26 -0.35, 32.18 5.41 C32.09 11.17, 34.57 20.94, 32.75 24.8 C30.93 28.67, 25.26 30.78, 21.27 28.61 C17.28 26.43, 12.65 16.82, 8.81 11.77 C4.97 6.72, -0.48 0.44, -1.77 -1.69" stroke="#000000" stroke-width="1" fill="none"></path></g></g><g transform="translate(710.0203018354623 364.0534057617187) rotate(0 42 12.5)"><text x="0" y="18" font-family="Virgil, Segoe UI Emoji" font-size="20px" fill="#000000" text-anchor="start" style="white-space: pre;" direction="ltr">Discount</text></g><g stroke-linecap="round"><g transform="translate(763.9617601535024 220.937286376953) rotate(0 4.169933049977885 55.01675415039065)"><path d="M0 0 C1.39 18.34, 6.95 91.69, 8.34 110.03 M0 0 C1.39 18.34, 6.95 91.69, 8.34 110.03" stroke="#e67700" stroke-width="1" fill="none"></path></g><g transform="translate(763.9617601535024 220.937286376953) rotate(0 4.169933049977885 55.01675415039065)"><path d="M-4.02 82.7 C0.8 93.35, 5.61 104.01, 8.34 110.03 M-4.02 82.7 C-0.24 91.06, 3.54 99.41, 8.34 110.03" stroke="#e67700" stroke-width="1" fill="none"></path></g><g transform="translate(763.9617601535024 220.937286376953) rotate(0 4.169933049977885 55.01675415039065)"><path d="M16.44 81.15 C13.28 92.41, 10.13 103.66, 8.34 110.03 M16.44 81.15 C13.96 89.98, 11.49 98.81, 8.34 110.03" stroke="#e67700" stroke-width="1" fill="none"></path></g></g><g stroke-linecap="round"><g transform="translate(700.4371414978227 326.65151977539057) rotate(0 -3.8132940157638586 -52.1800231933594)"><path d="M0 0 C-1.27 -17.39, -6.36 -86.97, -7.63 -104.36 M0 0 C-1.27 -17.39, -6.36 -86.97, -7.63 -104.36" stroke="#087f5b" stroke-width="1" fill="none"></path></g><g transform="translate(700.4371414978227 326.65151977539057) rotate(0 -3.8132940157638586 -52.1800231933594)"><path d="M4.66 -76.99 C-0.09 -87.57, -4.83 -98.14, -7.63 -104.36 M4.66 -76.99 C0.37 -86.56, -3.93 -96.12, -7.63 -104.36" stroke="#087f5b" stroke-width="1" fill="none"></path></g><g transform="translate(700.4371414978227 326.65151977539057) rotate(0 -3.8132940157638586 -52.1800231933594)"><path d="M-15.81 -75.5 C-12.65 -86.65, -9.48 -97.8, -7.63 -104.36 M-15.81 -75.5 C-12.95 -85.58, -10.09 -95.67, -7.63 -104.36" stroke="#087f5b" stroke-width="1" fill="none"></path></g></g><g transform="translate(106.3747940229623 41.77273559570307) rotate(0 28 12.5)"><text x="0" y="18" font-family="Virgil, Segoe UI Emoji" font-size="20px" fill="#000000" text-anchor="start" style="white-space: pre;" direction="ltr">HTTP</text></g><g transform="translate(700.8780288862436 52.35385131835932) rotate(0 20.5 12.5)"><text x="0" y="18" font-family="Virgil, Segoe UI Emoji" font-size="20px" fill="#000000" text-anchor="start" style="white-space: pre;" direction="ltr">BUS</text></g></svg>