<svg version="1.1" xmlns="http://www.w3.org/2000/svg" viewBox="0 0 911.8981018066406 831.0144540806009" width="911.8981018066406" height="831.0144540806009">
  <!-- svg-source:excalidraw -->
  
  <defs>
    <style>
      @font-face {
        font-family: "Virgil";
        src: url("https://excalidraw.com/Virgil.woff2");
      }
      @font-face {
        font-family: "Cascadia";
        src: url("https://excalidraw.com/Cascadia.woff2");
      }
    </style>
  </defs>
  <rect x="0" y="0" width="911.8981018066406" height="831.0144540806009" fill="#ffffff"></rect><g stroke-linecap="round" transform="translate(300.24900817871094 290.9873392124368) rotate(0 124.89576721191406 122.30160522460938)"><path d="M162.73 6.21 C176.27 8.29, 188.83 16.11, 200.24 24.77 C211.64 33.43, 223.41 45.93, 231.18 58.17 C238.95 70.41, 244.08 84.53, 246.86 98.2 C249.65 111.86, 249.82 126.16, 247.87 140.17 C245.92 154.17, 242.15 169.65, 235.18 182.23 C228.21 194.8, 217.14 206.66, 206.03 215.64 C194.92 224.61, 182.02 231.38, 168.54 236.09 C155.05 240.8, 139.41 243.75, 125.1 243.88 C110.8 244.01, 96.21 241.47, 82.7 236.87 C69.19 232.28, 55.19 225.57, 44.03 216.32 C32.86 207.07, 22.78 193.69, 15.68 181.38 C8.58 169.06, 3.61 156.11, 1.44 142.41 C-0.73 128.71, -0.09 113.28, 2.64 99.19 C5.37 85.09, 10.33 69.89, 17.82 57.86 C25.32 45.82, 36.11 35.53, 47.58 26.97 C59.05 18.4, 72.71 10.99, 86.65 6.49 C100.59 2, 115.97 -0.92, 131.21 0 C146.44 0.93, 167.98 8.53, 178.05 12.06 C188.12 15.6, 192.63 19.56, 191.62 21.22 M86.82 5.91 C99.19 0.05, 114.87 0.17, 129.49 0.59 C144.11 1.02, 161.21 2.94, 174.57 8.47 C187.92 14.01, 199.05 24.02, 209.61 33.82 C220.17 43.62, 231.18 54.59, 237.91 67.28 C244.64 79.98, 248.89 95.98, 250.02 109.99 C251.14 124, 248.51 137.94, 244.66 151.36 C240.8 164.79, 234.57 178.55, 226.88 190.52 C219.2 202.5, 210.36 215.11, 198.53 223.21 C186.7 231.32, 170.19 235.56, 155.9 239.17 C141.62 242.77, 126.98 245.79, 112.81 244.85 C98.65 243.92, 83.63 239.75, 70.92 233.53 C58.21 227.32, 46.36 217.82, 36.54 207.56 C26.73 197.3, 18.01 185.01, 12.01 171.99 C6.02 158.97, 1.91 143.39, 0.58 129.44 C-0.75 115.5, -0.05 101.82, 4.02 88.33 C8.1 74.83, 15.83 60.15, 25 48.45 C34.17 36.75, 48.87 25.24, 59.07 18.14 C69.27 11.04, 81.67 7.44, 86.2 5.86 C90.73 4.27, 85.57 6.79, 86.27 8.63" stroke="#000000" stroke-width="1" fill="none"></path></g><g transform="translate(392.9471435546875 395.22055454446803) rotate(0 27 12.5)"><text x="27" y="18" font-family="Virgil, Segoe UI Emoji" font-size="20px" fill="#000000" text-anchor="middle" style="white-space: pre;" direction="ltr">Offer</text></g><g stroke-linecap="round" transform="translate(652.1065673828125 576.4112436313821) rotate(0 124.89576721191406 122.30160522460938)"><path d="M95.2 4.47 C107.99 -0.72, 123.11 -1.62, 137.25 -0.16 C151.39 1.3, 166.94 6.72, 180.03 13.25 C193.11 19.78, 205.63 28.8, 215.75 39.01 C225.87 49.23, 234.93 61.62, 240.73 74.56 C246.54 87.51, 250 102.63, 250.58 116.7 C251.15 130.78, 248.85 145.41, 244.19 159 C239.53 172.6, 231.55 187.1, 222.62 198.29 C213.68 209.48, 202.55 218.97, 190.58 226.15 C178.62 233.33, 165.05 238.53, 150.85 241.38 C136.64 244.22, 119.95 245.2, 105.36 243.23 C90.76 241.26, 75.84 236.48, 63.26 229.55 C50.68 222.61, 39.3 212.24, 29.89 201.6 C20.48 190.97, 11.64 179.04, 6.79 165.73 C1.95 152.43, 0.54 136, 0.83 121.75 C1.12 107.5, 3.73 93.41, 8.51 80.22 C13.3 67.04, 20.36 53.58, 29.53 42.67 C38.69 31.75, 52.19 21.16, 63.51 14.73 C74.84 8.29, 91.27 5.83, 97.47 4.06 C103.67 2.3, 100.21 2.22, 100.71 4.13 M91.11 4.09 C103.78 -1.76, 119.84 -1.84, 134.55 -0.81 C149.26 0.22, 166.16 3.96, 179.38 10.29 C192.61 16.62, 203.83 27.07, 213.88 37.17 C223.92 47.27, 233.96 57.97, 239.68 70.88 C245.39 83.79, 247.1 100.06, 248.16 114.63 C249.22 129.21, 249.85 144.65, 246.05 158.32 C242.25 171.98, 234.44 185.56, 225.36 196.63 C216.28 207.71, 203.95 217.29, 191.59 224.74 C179.23 232.2, 164.9 238.12, 151.18 241.34 C137.45 244.57, 123.48 246.09, 109.26 244.1 C95.04 242.11, 78.83 236.36, 65.85 229.41 C52.87 222.46, 41.05 212.76, 31.38 202.39 C21.71 192.01, 12.82 180.15, 7.84 167.15 C2.85 154.16, 1.58 138.55, 1.5 124.43 C1.42 110.31, 2.9 95.63, 7.35 82.42 C11.8 69.21, 18.99 56.02, 28.19 45.19 C37.39 34.35, 51.94 24.22, 62.54 17.43 C73.14 10.64, 86.91 6.3, 91.79 4.44 C96.67 2.59, 91.25 4.34, 91.82 6.3" stroke="#000000" stroke-width="1" fill="none"></path></g><g transform="translate(734.7627105712891 691.382160379429) rotate(0 42 12.5)"><text x="42" y="18" font-family="Virgil, Segoe UI Emoji" font-size="20px" fill="#000000" text-anchor="middle" style="white-space: pre;" direction="ltr">Discount</text></g><g stroke-linecap="round" transform="translate(434.71661376953125 11.521091653843044) rotate(0 124.89576721191406 122.30160522460938)"><path d="M82.43 6.67 C94.58 0.01, 109.78 -0.52, 124.19 -0.36 C138.6 -0.2, 155.09 2.5, 168.87 7.63 C182.66 12.76, 196.01 21.05, 206.9 30.42 C217.79 39.79, 227.24 51.6, 234.19 63.86 C241.13 76.11, 246.42 90.26, 248.56 103.94 C250.7 117.62, 249.81 132.15, 247.03 145.94 C244.26 159.72, 239.48 174.35, 231.89 186.67 C224.29 198.99, 213.15 211.24, 201.46 219.87 C189.78 228.49, 175.54 234.47, 161.79 238.41 C148.04 242.35, 133.19 244.13, 118.95 243.5 C104.71 242.87, 89.7 240.16, 76.34 234.61 C62.98 229.07, 49.22 219.78, 38.82 210.25 C28.41 200.71, 20.37 189.8, 13.91 177.42 C7.45 165.05, 1.7 150.27, 0.07 135.99 C-1.57 121.7, 0.48 105.66, 4.12 91.73 C7.76 77.79, 13.89 63.9, 21.91 52.39 C29.93 40.88, 41.46 30.33, 52.22 22.67 C62.99 15.01, 80.32 8.89, 86.5 6.44 C92.69 3.98, 88.76 6.15, 89.34 7.96 M87.55 4.31 C99.61 -1.18, 115.98 0.4, 130.2 1.3 C144.43 2.21, 159.35 4.21, 172.9 9.75 C186.45 15.29, 201.05 24.97, 211.51 34.54 C221.96 44.11, 229.26 54.37, 235.61 67.17 C241.97 79.97, 247.7 96.99, 249.62 111.36 C251.54 125.73, 250.63 140.12, 247.12 153.38 C243.6 166.65, 237.04 179.57, 228.54 190.94 C220.04 202.31, 208.19 213.15, 196.11 221.61 C184.03 230.07, 169.9 238.06, 156.06 241.72 C142.22 245.37, 127.54 245.18, 113.07 243.55 C98.6 241.91, 82.53 238.18, 69.24 231.92 C55.94 225.66, 43.08 215.93, 33.28 206 C23.48 196.07, 16.01 185.12, 10.45 172.34 C4.88 159.57, 0.67 143.75, -0.1 129.33 C-0.86 114.92, 1.45 99.34, 5.87 85.85 C10.29 72.36, 17.56 59.58, 26.44 48.38 C35.31 37.19, 48.89 25.95, 59.13 18.68 C69.38 11.41, 83.07 6.56, 87.9 4.76 C92.73 2.95, 87.52 5.77, 88.14 7.86" stroke="#000000" stroke-width="1" fill="none"></path></g><g transform="translate(519.9930572509766 122.91778965188992) rotate(0 38.5 12.5)"><text x="38.5" y="18" font-family="Virgil, Segoe UI Emoji" font-size="20px" fill="#000000" text-anchor="middle" style="white-space: pre;" direction="ltr">Product</text></g><g stroke-linecap="round" transform="translate(10 555.5256082554056) rotate(0 124.89576721191406 122.30160522460938)"><path d="M69.34 13.46 C81.01 5.8, 98.65 1.41, 112.98 -0.25 C127.3 -1.9, 141.35 -0.16, 155.29 3.53 C169.24 7.21, 184.56 13.57, 196.67 21.85 C208.77 30.12, 219.74 41.44, 227.93 53.19 C236.13 64.94, 242.27 78.79, 245.85 92.36 C249.42 105.94, 250.88 120.86, 249.4 134.64 C247.91 148.41, 243.16 162.36, 236.95 175.01 C230.73 187.65, 222.53 200.43, 212.12 210.51 C201.71 220.59, 188.01 229.94, 174.48 235.51 C160.95 241.08, 145.34 243.47, 130.94 243.92 C116.54 244.37, 101.68 242.32, 88.07 238.19 C74.45 234.06, 60.78 227.75, 49.26 219.14 C37.73 210.53, 26.5 198.32, 18.9 186.53 C11.29 174.74, 6.66 161.95, 3.63 148.41 C0.59 134.87, -1.29 119.5, 0.7 105.29 C2.69 91.08, 8.57 75.78, 15.59 63.15 C22.6 50.51, 31.38 38.87, 42.79 29.48 C54.2 20.1, 74.21 10.92, 84.06 6.83 C93.9 2.75, 101.17 3.01, 101.84 4.98 M159.83 3.66 C173.67 5.37, 186.53 13.35, 197.79 21.95 C209.04 30.56, 219.49 43.39, 227.34 55.3 C235.19 67.21, 241.21 79.71, 244.88 93.4 C248.55 107.09, 251.08 123.59, 249.38 137.44 C247.68 151.3, 241.24 163.85, 234.68 176.55 C228.12 189.25, 220.16 203.75, 210 213.63 C199.84 223.51, 186.98 230.89, 173.73 235.84 C160.47 240.79, 145.18 243.08, 130.49 243.34 C115.8 243.61, 99.54 241.51, 85.59 237.45 C71.64 233.4, 57.94 227.75, 46.78 219.03 C35.62 210.31, 26.2 197.47, 18.62 185.15 C11.05 172.82, 4.38 159.01, 1.34 145.06 C-1.7 131.12, -2.17 115.12, 0.37 101.47 C2.92 87.81, 9.28 75.21, 16.61 63.13 C23.95 51.05, 33.29 38.38, 44.38 29 C55.46 19.62, 69.38 11.59, 83.13 6.85 C96.88 2.11, 114.21 0.96, 126.88 0.54 C139.56 0.12, 154.02 3.42, 159.17 4.34 C164.32 5.26, 158.56 4.08, 157.81 6.07" stroke="#000000" stroke-width="1" fill="none"></path></g><g transform="translate(94.13124084472656 665.5626260776712) rotate(0 41 12.5)"><text x="41" y="18" font-family="Virgil, Segoe UI Emoji" font-size="20px" fill="#000000" text-anchor="middle" style="white-space: pre;" direction="ltr">Transac</text></g><g stroke-linecap="round"><g transform="translate(271.3714968727983 588.2611837955511) rotate(0 39.31568849090871 -33.570168915220904)"><path d="M-0.21 -1.19 C13.23 -12.41, 66.95 -56.78, 80.41 -67.95 M-1.78 0.81 C11.47 -10.21, 65.62 -55.31, 79.17 -66.65" stroke="#000000" stroke-width="1" fill="none"></path></g><g transform="translate(271.3714968727983 588.2611837955511) rotate(0 39.31568849090871 -33.570168915220904)"><path d="M-0.76 -8.77 C0.63 -8.74, 2.62 -8.29, 4.08 -7.16 C5.55 -6.04, 7.61 -3.56, 8.03 -2.04 C8.46 -0.51, 7.45 0.44, 6.61 1.97 C5.78 3.51, 4.66 6.4, 3.02 7.17 C1.38 7.95, -1.5 7.4, -3.23 6.63 C-4.96 5.86, -6.62 4.16, -7.37 2.55 C-8.13 0.94, -8.17 -1.38, -7.76 -3.05 C-7.34 -4.71, -6.13 -6.33, -4.89 -7.45 C-3.65 -8.56, -1.36 -9.66, -0.34 -9.72 C0.68 -9.78, 1.15 -8.18, 1.25 -7.81 M2.97 -9.02 C4.12 -8.44, 4.92 -6.89, 5.56 -5.43 C6.2 -3.96, 6.98 -2.12, 6.79 -0.24 C6.61 1.63, 5.98 4.5, 4.47 5.81 C2.95 7.12, -0.67 7.94, -2.28 7.62 C-3.89 7.3, -4.23 5.12, -5.18 3.89 C-6.14 2.67, -7.67 1.74, -7.99 0.27 C-8.3 -1.19, -7.9 -3.21, -7.05 -4.91 C-6.2 -6.61, -4.5 -9.16, -2.89 -9.91 C-1.28 -10.67, 1.43 -9.73, 2.61 -9.44 C3.79 -9.15, 4.14 -8.61, 4.19 -8.17" stroke="none" stroke-width="0" fill="#000000"></path></g><g transform="translate(271.3714968727983 588.2611837955511) rotate(0 39.31568849090871 -33.570168915220904)"><path d="M78.62 -74.24 C80.01 -74.21, 82 -73.75, 83.46 -72.63 C84.93 -71.51, 86.99 -69.03, 87.41 -67.5 C87.84 -65.98, 86.83 -65.03, 85.99 -63.49 C85.16 -61.96, 84.04 -59.07, 82.4 -58.29 C80.76 -57.52, 77.88 -58.07, 76.15 -58.84 C74.42 -59.61, 72.76 -61.3, 72.01 -62.92 C71.25 -64.53, 71.21 -66.85, 71.62 -68.51 C72.03 -70.18, 73.25 -71.8, 74.49 -72.91 C75.73 -74.02, 78.02 -75.13, 79.04 -75.19 C80.06 -75.25, 80.53 -73.64, 80.63 -73.28 M82.35 -74.49 C83.5 -73.91, 84.3 -72.35, 84.94 -70.89 C85.58 -69.43, 86.35 -67.58, 86.17 -65.71 C85.99 -63.84, 85.36 -60.97, 83.85 -59.66 C82.33 -58.35, 78.71 -57.53, 77.1 -57.85 C75.49 -58.17, 75.15 -60.35, 74.2 -61.57 C73.24 -62.79, 71.7 -63.72, 71.39 -65.19 C71.08 -66.66, 71.48 -68.68, 72.33 -70.37 C73.18 -72.07, 74.88 -74.62, 76.49 -75.38 C78.1 -76.13, 80.81 -75.2, 81.99 -74.91 C83.17 -74.62, 83.52 -74.08, 83.57 -73.63" stroke="none" stroke-width="0" fill="#000000"></path></g></g><g stroke-linecap="round"><g transform="translate(267.02161760974 692.8101441695417) rotate(0 172.4662633567346 6.328544963223067)"><path d="M0.53 -0.01 C57.77 2.19, 285.87 11.6, 343.37 13.72 M-0.65 -1.07 C56.96 0.75, 287.91 9.47, 345.58 11.96" stroke="#000000" stroke-width="1" fill="none"></path></g><g transform="translate(267.02161760974 692.8101441695417) rotate(0 172.4662633567346 6.328544963223067)"><path d="M3.91 -7.15 C5.39 -6.34, 6.88 -4.64, 7.62 -3.21 C8.36 -1.79, 8.73 -0.24, 8.35 1.43 C7.98 3.09, 6.85 5.64, 5.35 6.77 C3.85 7.91, 0.95 8.49, -0.67 8.22 C-2.29 7.95, -3.13 6.53, -4.36 5.16 C-5.59 3.79, -7.6 1.65, -8.03 -0.01 C-8.46 -1.67, -8.12 -3.63, -6.92 -4.82 C-5.72 -6, -2.89 -6.97, -0.81 -7.13 C1.27 -7.3, 4.43 -6.16, 5.55 -5.83 C6.67 -5.5, 6.02 -4.98, 5.92 -5.13 M2.17 -8.03 C3.78 -7.92, 4.87 -6.34, 5.91 -4.96 C6.95 -3.59, 8.16 -1.13, 8.43 0.21 C8.7 1.55, 8.37 1.63, 7.52 3.1 C6.67 4.57, 5.24 8.38, 3.35 9.04 C1.45 9.69, -2.26 7.74, -3.85 7.03 C-5.45 6.32, -5.78 6.22, -6.22 4.77 C-6.67 3.32, -6.81 0.19, -6.51 -1.67 C-6.22 -3.52, -5.72 -5.47, -4.46 -6.36 C-3.2 -7.26, 0.13 -6.97, 1.04 -7.04 C1.96 -7.11, 0.83 -6.62, 1.03 -6.78" stroke="none" stroke-width="0" fill="#000000"></path></g><g transform="translate(267.02161760974 692.8101441695417) rotate(0 172.4662633567346 6.328544963223067)"><path d="M348.96 4.83 C350.43 5.64, 351.92 7.33, 352.66 8.76 C353.4 10.19, 353.78 11.74, 353.4 13.4 C353.02 15.07, 351.9 17.62, 350.4 18.75 C348.89 19.88, 345.99 20.46, 344.37 20.19 C342.76 19.92, 341.91 18.51, 340.69 17.14 C339.46 15.76, 337.44 13.63, 337.02 11.97 C336.59 10.3, 336.92 8.35, 338.13 7.16 C339.33 5.98, 342.16 5.01, 344.23 4.84 C346.31 4.67, 349.48 5.81, 350.6 6.15 C351.72 6.48, 351.06 6.99, 350.97 6.84 M347.21 3.95 C348.83 4.05, 349.91 5.64, 350.96 7.01 C352 8.39, 353.21 10.84, 353.47 12.19 C353.74 13.53, 353.41 13.61, 352.57 15.08 C351.72 16.55, 350.29 20.36, 348.4 21.02 C346.5 21.67, 342.79 19.72, 341.2 19.01 C339.6 18.3, 339.27 18.2, 338.82 16.75 C338.38 15.3, 338.24 12.17, 338.53 10.31 C338.83 8.46, 339.33 6.51, 340.59 5.61 C341.84 4.72, 345.17 5.01, 346.09 4.94 C347 4.87, 345.88 5.35, 346.07 5.19" stroke="none" stroke-width="0" fill="#000000"></path></g></g><g stroke-linecap="round"><g transform="translate(655.6217106817146 592.6384367502735) rotate(0 -54.95073112203556 -59.34047879789074)"><path d="M-0.56 0.87 C-19.05 -19.01, -91.82 -99.66, -110.28 -119.55 M1.35 0.29 C-17.36 -19.47, -92.85 -99.03, -111.25 -118.61" stroke="#000000" stroke-width="1" fill="none"></path></g><g transform="translate(655.6217106817146 592.6384367502735) rotate(0 -54.95073112203556 -59.34047879789074)"><path d="M-0.06 -6.22 C1.76 -6.44, 4.8 -6.32, 5.95 -5.36 C7.1 -4.39, 6.77 -2.02, 6.85 -0.42 C6.94 1.17, 7.22 2.81, 6.48 4.22 C5.73 5.63, 4.09 7.52, 2.4 8.05 C0.71 8.58, -2.06 7.91, -3.65 7.41 C-5.24 6.91, -6.19 6.31, -7.12 5.06 C-8.05 3.82, -9.38 1.58, -9.21 -0.05 C-9.05 -1.69, -7.75 -3.62, -6.13 -4.75 C-4.51 -5.88, -0.77 -6.39, 0.51 -6.83 C1.78 -7.27, 1.36 -7.49, 1.51 -7.41 M-3.71 -6.99 C-2.32 -7.81, 0.72 -8.54, 2.51 -7.77 C4.31 -6.99, 6.04 -4.07, 7.06 -2.35 C8.07 -0.64, 9.06 1.23, 8.61 2.5 C8.16 3.77, 5.7 4.22, 4.37 5.28 C3.05 6.33, 2.36 8.21, 0.66 8.82 C-1.04 9.42, -4.08 10.07, -5.84 8.88 C-7.6 7.69, -9.51 3.48, -9.9 1.66 C-10.28 -0.16, -9.04 -0.63, -8.16 -2.03 C-7.29 -3.42, -5.28 -6.01, -4.65 -6.72 C-4.02 -7.42, -4.72 -6.72, -4.37 -6.28" stroke="none" stroke-width="0" fill="#000000"></path></g><g transform="translate(655.6217106817146 592.6384367502735) rotate(0 -54.95073112203556 -59.34047879789074)"><path d="M-110.75 -125.7 C-108.94 -125.92, -105.9 -125.8, -104.75 -124.84 C-103.6 -123.87, -103.93 -121.5, -103.85 -119.9 C-103.76 -118.31, -103.48 -116.68, -104.22 -115.26 C-104.97 -113.85, -106.61 -111.97, -108.3 -111.43 C-109.99 -110.9, -112.76 -111.57, -114.35 -112.07 C-115.93 -112.57, -116.89 -113.18, -117.82 -114.42 C-118.74 -115.67, -120.08 -117.9, -119.91 -119.54 C-119.75 -121.17, -118.45 -123.1, -116.83 -124.23 C-115.21 -125.36, -111.46 -125.87, -110.19 -126.31 C-108.92 -126.75, -109.34 -126.97, -109.19 -126.89 M-114.41 -126.47 C-113.02 -127.29, -109.98 -128.02, -108.19 -127.25 C-106.39 -126.48, -104.66 -123.55, -103.64 -121.84 C-102.63 -120.13, -101.64 -118.26, -102.09 -116.98 C-102.53 -115.71, -105 -115.26, -106.32 -114.21 C-107.65 -113.15, -108.34 -111.27, -110.04 -110.67 C-111.74 -110.07, -114.78 -109.41, -116.54 -110.6 C-118.3 -111.79, -120.21 -116, -120.59 -117.82 C-120.98 -119.64, -119.74 -120.11, -118.86 -121.51 C-117.99 -122.91, -115.98 -125.49, -115.35 -126.2 C-114.71 -126.91, -115.42 -126.2, -115.07 -125.76" stroke="none" stroke-width="0" fill="#000000"></path></g></g><g stroke-linecap="round"><g transform="translate(538.5827598959054 259.45689040065685) rotate(0 -5.582436150096896 32.829352396308224)"><path d="M-0.29 0.95 C-2.33 11.73, -9.94 53.56, -11.87 64.02 M1.76 0.41 C-0.48 11.39, -10.52 54.57, -12.93 65.25" stroke="#000000" stroke-width="1" fill="none"></path></g><g transform="translate(538.5827598959054 259.45689040065685) rotate(0 -5.582436150096896 32.829352396308224)"><path d="M1.59 -7.17 C3.19 -7.12, 4.38 -5.56, 5.29 -4.03 C6.21 -2.51, 7.05 0.22, 7.08 1.97 C7.12 3.73, 6.52 5.3, 5.5 6.5 C4.47 7.7, 2.54 9.17, 0.95 9.19 C-0.65 9.22, -2.51 7.55, -4.08 6.65 C-5.64 5.74, -7.97 5.31, -8.43 3.76 C-8.89 2.22, -7.41 -1.02, -6.85 -2.63 C-6.28 -4.23, -6.52 -5.22, -5.02 -5.86 C-3.51 -6.5, 0.82 -6.5, 2.18 -6.46 C3.53 -6.43, 3.17 -5.78, 3.09 -5.64 M-2.85 -4.62 C-1.35 -5.34, -0.22 -5.62, 1.12 -5.61 C2.47 -5.6, 3.92 -5.64, 5.22 -4.56 C6.52 -3.48, 9.12 -0.97, 8.92 0.87 C8.72 2.71, 5.47 5.02, 4.01 6.47 C2.56 7.92, 1.82 9.55, 0.21 9.59 C-1.4 9.62, -4.22 7.64, -5.64 6.67 C-7.06 5.69, -7.97 5.25, -8.32 3.75 C-8.66 2.24, -8.23 -0.73, -7.71 -2.35 C-7.19 -3.97, -5.94 -5.42, -5.2 -5.99 C-4.47 -6.55, -3.51 -5.68, -3.31 -5.73" stroke="none" stroke-width="0" fill="#000000"></path></g><g transform="translate(538.5827598959054 259.45689040065685) rotate(0 -5.582436150096896 32.829352396308224)"><path d="M-11.05 57.13 C-9.45 57.17, -8.26 58.74, -7.35 60.26 C-6.43 61.78, -5.59 64.51, -5.56 66.27 C-5.52 68.02, -6.12 69.59, -7.14 70.79 C-8.17 72, -10.1 73.46, -11.69 73.49 C-13.29 73.51, -15.16 71.85, -16.72 70.94 C-18.28 70.04, -20.61 69.6, -21.07 68.06 C-21.53 66.51, -20.06 63.27, -19.49 61.67 C-18.92 60.06, -19.16 59.07, -17.66 58.43 C-16.16 57.79, -11.82 57.79, -10.47 57.83 C-9.11 57.87, -9.47 58.52, -9.55 58.66 M-15.49 59.67 C-13.99 58.96, -12.86 58.68, -11.52 58.69 C-10.17 58.7, -8.72 58.66, -7.42 59.74 C-6.12 60.81, -3.52 63.33, -3.72 65.16 C-3.92 67, -7.17 69.31, -8.63 70.76 C-10.08 72.22, -10.83 73.85, -12.43 73.88 C-14.04 73.91, -16.86 71.93, -18.28 70.96 C-19.7 69.99, -20.61 69.54, -20.96 68.04 C-21.31 66.54, -20.87 63.57, -20.35 61.94 C-19.83 60.32, -18.58 58.87, -17.85 58.31 C-17.11 57.74, -16.15 58.61, -15.95 58.56" stroke="none" stroke-width="0" fill="#000000"></path></g></g><g stroke-linecap="round"><g transform="translate(734.5285899937253 540.7541474870811) rotate(0 -69.66496932672715 -137.9999196915811)"><path d="M-0.02 -0.66 C-23.44 -46.92, -116.36 -231.53, -139.31 -277.61 M-1.49 1.61 C-24.62 -44.51, -114.19 -230.22, -136.94 -276.49" stroke="#000000" stroke-width="1" fill="none"></path></g><g transform="translate(734.5285899937253 540.7541474870811) rotate(0 -69.66496932672715 -137.9999196915811)"><path d="M1.74 -8.91 C3.46 -8.41, 5.85 -5.94, 7.03 -4.31 C8.21 -2.68, 8.95 -0.58, 8.84 0.86 C8.73 2.31, 7.58 3.28, 6.35 4.37 C5.13 5.46, 3.34 7.08, 1.49 7.41 C-0.37 7.75, -3.25 7.45, -4.78 6.38 C-6.32 5.31, -7.32 2.62, -7.74 1.02 C-8.15 -0.59, -8.1 -1.64, -7.27 -3.25 C-6.45 -4.86, -4.47 -7.99, -2.77 -8.64 C-1.08 -9.29, 1.76 -7.31, 2.92 -7.17 C4.07 -7.03, 4.08 -7.86, 4.17 -7.81 M-2.36 -8.48 C-0.93 -9.21, 2.45 -10.12, 3.92 -9.05 C5.39 -7.98, 5.98 -3.67, 6.47 -2.05 C6.95 -0.43, 7.08 -0.88, 6.85 0.66 C6.63 2.21, 6.38 6.31, 5.12 7.23 C3.85 8.16, 1.04 6.88, -0.75 6.23 C-2.55 5.59, -4.42 4.58, -5.64 3.37 C-6.86 2.15, -7.79 0.66, -8.07 -1.06 C-8.34 -2.78, -8.42 -5.75, -7.27 -6.96 C-6.12 -8.17, -1.96 -8.26, -1.18 -8.33 C-0.41 -8.4, -2.52 -7.38, -2.63 -7.39" stroke="none" stroke-width="0" fill="#000000"></path></g><g transform="translate(734.5285899937253 540.7541474870811) rotate(0 -69.66496932672715 -137.9999196915811)"><path d="M-135.18 -284.74 C-133.47 -284.24, -131.08 -281.77, -129.9 -280.14 C-128.71 -278.51, -127.97 -276.41, -128.09 -274.97 C-128.2 -273.52, -129.35 -272.55, -130.57 -271.46 C-131.8 -270.37, -133.58 -268.75, -135.44 -268.42 C-137.29 -268.08, -140.17 -268.38, -141.71 -269.45 C-143.24 -270.51, -144.25 -273.21, -144.66 -274.81 C-145.08 -276.42, -145.02 -277.47, -144.2 -279.08 C-143.37 -280.69, -141.4 -283.82, -139.7 -284.47 C-138 -285.12, -135.16 -283.14, -134.01 -283 C-132.85 -282.86, -132.84 -283.69, -132.76 -283.64 M-139.28 -284.31 C-137.86 -285.04, -134.47 -285.95, -133 -284.88 C-131.53 -283.81, -130.95 -279.5, -130.46 -277.88 C-129.97 -276.26, -129.85 -276.71, -130.07 -275.16 C-130.3 -273.62, -130.54 -269.52, -131.81 -268.59 C-133.08 -267.67, -135.88 -268.95, -137.68 -269.6 C-139.47 -270.24, -141.35 -271.25, -142.57 -272.46 C-143.79 -273.68, -144.72 -275.17, -144.99 -276.89 C-145.26 -278.61, -145.34 -281.58, -144.2 -282.79 C-143.05 -284, -138.88 -284.09, -138.11 -284.16 C-137.33 -284.23, -139.45 -283.21, -139.56 -283.21" stroke="none" stroke-width="0" fill="#000000"></path></g></g><g stroke-linecap="round"><g transform="translate(160.042003432907 518.3656875215088) rotate(0 138.43228990151601 -164.82041685045567)"><path d="M1.15 0.45 C46.78 -54.77, 228.78 -275.11, 274.46 -330.09 M0.29 -0.36 C46.22 -54.93, 230.91 -274.29, 276.57 -328.91" stroke="#000000" stroke-width="1" fill="none"></path></g><g transform="translate(160.042003432907 518.3656875215088) rotate(0 138.43228990151601 -164.82041685045567)"><path d="M3.71 -7.33 C5.39 -6.74, 7.63 -4.54, 8.65 -2.95 C9.67 -1.35, 10.24 0.74, 9.84 2.25 C9.43 3.76, 7.55 4.98, 6.22 6.12 C4.89 7.26, 3.74 9.1, 1.85 9.1 C-0.04 9.11, -3.65 7.51, -5.12 6.15 C-6.59 4.8, -6.85 2.59, -6.97 0.96 C-7.1 -0.67, -6.73 -2.31, -5.87 -3.63 C-5 -4.94, -3.41 -6.44, -1.8 -6.93 C-0.19 -7.41, 2.51 -6.42, 3.78 -6.53 C5.06 -6.64, 5.6 -7.63, 5.86 -7.57 M2.02 -8.84 C3.52 -8.43, 6.7 -4.55, 7.99 -3.07 C9.29 -1.58, 10.19 -1.75, 9.79 0.08 C9.4 1.9, 7.21 6.38, 5.62 7.87 C4.03 9.37, 1.98 9.13, 0.25 9.05 C-1.47 8.98, -3.38 8.54, -4.72 7.42 C-6.05 6.3, -7.57 4.09, -7.75 2.34 C-7.93 0.59, -6.63 -1.35, -5.78 -3.1 C-4.92 -4.85, -4.07 -7.47, -2.62 -8.16 C-1.17 -8.85, 2.05 -7.28, 2.9 -7.23 C3.76 -7.19, 2.6 -8.15, 2.5 -7.89" stroke="none" stroke-width="0" fill="#000000"></path></g><g transform="translate(160.042003432907 518.3656875215088) rotate(0 138.43228990151601 -164.82041685045567)"><path d="M279.14 -336.68 C280.82 -336.1, 283.06 -333.9, 284.08 -332.3 C285.1 -330.71, 285.67 -328.62, 285.27 -327.1 C284.86 -325.59, 282.98 -324.38, 281.65 -323.24 C280.32 -322.09, 279.17 -320.26, 277.28 -320.25 C275.39 -320.25, 271.78 -321.85, 270.31 -323.2 C268.84 -324.56, 268.58 -326.76, 268.46 -328.39 C268.33 -330.02, 268.7 -331.67, 269.56 -332.98 C270.42 -334.3, 272.02 -335.8, 273.63 -336.28 C275.23 -336.76, 277.94 -335.78, 279.21 -335.89 C280.49 -335.99, 281.03 -336.98, 281.28 -336.92 M277.45 -338.19 C278.95 -337.79, 282.13 -333.91, 283.42 -332.42 C284.72 -330.94, 285.62 -331.1, 285.22 -329.28 C284.82 -327.46, 282.64 -322.98, 281.05 -321.48 C279.46 -319.99, 277.4 -320.23, 275.68 -320.3 C273.96 -320.38, 272.05 -320.82, 270.71 -321.94 C269.38 -323.05, 267.85 -325.26, 267.68 -327.01 C267.5 -328.77, 268.79 -330.7, 269.65 -332.45 C270.51 -334.2, 271.36 -336.83, 272.81 -337.52 C274.26 -338.21, 277.48 -336.64, 278.33 -336.59 C279.18 -336.54, 278.03 -337.51, 277.93 -337.24" stroke="none" stroke-width="0" fill="#000000"></path></g></g><g transform="translate(395.2305450439453 124.59405918313992) rotate(0 7 12.5)"><text x="0" y="18" font-family="Virgil, Segoe UI Emoji" font-size="20px" fill="#000000" text-anchor="start" style="white-space: pre;" direction="ltr">U</text></g><g transform="translate(114.41385396321607 42.98087626755833) rotate(0 70 12.5)"><text x="0" y="18" font-family="Virgil, Segoe UI Emoji" font-size="20px" fill="#000000" text-anchor="start" style="white-space: pre;" direction="ltr">U = UpStream</text></g><g transform="translate(592.4653472900391 670.8573038120462) rotate(0 7 12.5)"><text x="0" y="18" font-family="Virgil, Segoe UI Emoji" font-size="20px" fill="#000000" text-anchor="start" style="white-space: pre;" direction="ltr">U</text></g><g transform="translate(619.8217926025391 242.76807041360865) rotate(0 7 12.5)"><text x="0" y="18" font-family="Virgil, Segoe UI Emoji" font-size="20px" fill="#000000" text-anchor="start" style="white-space: pre;" direction="ltr">U</text></g><g transform="translate(506.80531311035156 255.51648349954615) rotate(0 7 12.5)"><text x="0" y="18" font-family="Virgil, Segoe UI Emoji" font-size="20px" fill="#000000" text-anchor="start" style="white-space: pre;" direction="ltr">U</text></g><g transform="translate(571.4494781494141 442.38232822610865) rotate(0 7 12.5)"><text x="0" y="18" font-family="Virgil, Segoe UI Emoji" font-size="20px" fill="#000000" text-anchor="start" style="white-space: pre;" direction="ltr">U</text></g><g transform="translate(305.03346252441406 488.37390537454615) rotate(0 7 12.5)"><text x="0" y="18" font-family="Virgil, Segoe UI Emoji" font-size="20px" fill="#000000" text-anchor="start" style="white-space: pre;" direction="ltr">U</text></g><g transform="translate(112.40737067328564 81.19116611673367) rotate(0 82.5 12.5)"><text x="0" y="18" font-family="Virgil, Segoe UI Emoji" font-size="20px" fill="#000000" text-anchor="start" style="white-space: pre;" direction="ltr">D = DownStream</text></g><g transform="translate(157.82167053222656 486.45703525735865) rotate(0 8 12.5)"><text x="0" y="18" font-family="Virgil, Segoe UI Emoji" font-size="20px" fill="#000000" text-anchor="start" style="white-space: pre;" direction="ltr">D</text></g><g transform="translate(294.39857482910156 576.9025918979837) rotate(5.68010968300814 8 12.5)"><text x="0" y="18" font-family="Virgil, Segoe UI Emoji" font-size="20px" fill="#000000" text-anchor="start" style="white-space: pre;" direction="ltr">D</text></g><g transform="translate(312.6056671142578 647.0350381870462) rotate(0 8 12.5)"><text x="0" y="18" font-family="Virgil, Segoe UI Emoji" font-size="20px" fill="#000000" text-anchor="start" style="white-space: pre;" direction="ltr">D</text></g><g transform="translate(658.2298736572266 562.150455667515) rotate(0 8 12.5)"><text x="0" y="18" font-family="Virgil, Segoe UI Emoji" font-size="20px" fill="#000000" text-anchor="start" style="white-space: pre;" direction="ltr">D</text></g><g transform="translate(753.9010162353516 516.6661417026712) rotate(0 8 12.5)"><text x="0" y="18" font-family="Virgil, Segoe UI Emoji" font-size="20px" fill="#000000" text-anchor="start" style="white-space: pre;" direction="ltr">D</text></g><g transform="translate(505.49098205566406 293.1640054722024) rotate(0 8 12.5)"><text x="0" y="18" font-family="Virgil, Segoe UI Emoji" font-size="20px" fill="#000000" text-anchor="start" style="white-space: pre;" direction="ltr">D</text></g><g transform="translate(235.5412139892578 323.20907993509303) rotate(308.43372389428504 56.5 12.5)"><text x="0" y="18" font-family="Virgil, Segoe UI Emoji" font-size="20px" fill="#000000" text-anchor="start" style="white-space: pre;" direction="ltr">Conformiste</text></g><g stroke-linecap="round" transform="translate(106.79457092285156 524.1422159214212) rotate(0 24.299072265625 15.518951416015625)"><path d="M-1.5 -1.3 C15.37 -1.26, 35.19 0.17, 48.6 0.45 M0.47 -0.41 C11.96 -0.07, 25.5 0.62, 47.85 -0.7 M48.49 1.72 C46.64 9.7, 46.77 21.02, 49.98 29.65 M47.96 0.68 C48.43 10.73, 49.34 22.59, 49.22 30.81 M46.88 31.39 C28.99 30.56, 13.06 31.89, -0.8 32.73 M48.28 31.46 C35.78 31.44, 20.97 32.01, -0.44 31.01 M0.26 31.57 C-0.51 20.64, 0.46 8.38, -0.9 -0.07 M-0.86 31.39 C0.82 23.63, -0.26 15.54, -0.59 0.41" stroke="#000000" stroke-width="1" fill="none"></path></g><g transform="translate(108.99623107910156 528.2062112827493) rotate(0 19 12.5)"><text x="19" y="18" font-family="Virgil, Segoe UI Emoji" font-size="20px" fill="#000000" text-anchor="middle" style="white-space: pre;" direction="ltr">ACL</text></g><g stroke-linecap="round" transform="translate(229.0428009033203 583.4736673374368) rotate(58.208439845714835 24.299072265625 15.518951416015625)"><path d="M1.09 1.1 C19.11 0.73, 36.92 0.73, 48.35 1.66 M-0.47 0.71 C16.8 0.04, 34.84 1.18, 48.6 -0.36 M49.37 -1.93 C47.4 7.81, 50.22 14.69, 46.98 29.98 M48.42 -0.43 C48.66 12.53, 48.11 25.05, 48.86 30.34 M48.59 30.48 C32.69 30.3, 20.35 32.36, 0.52 29.6 M49.28 31.52 C36.99 32.2, 27.09 32.08, 0.14 30.66 M-0.43 32.14 C-1.46 18.74, 1.28 8.79, -0.76 -0.57 M0.39 30.39 C-0.16 23.93, 0.26 17.03, 0.94 0.06" stroke="#000000" stroke-width="1" fill="none"></path></g><g transform="translate(231.82180537328372 584.4104715616803) rotate(58.208439845714835 19 12.5)"><text x="19" y="18" font-family="Virgil, Segoe UI Emoji" font-size="20px" fill="#000000" text-anchor="middle" style="white-space: pre;" direction="ltr">ACL</text></g><g stroke-linecap="round" transform="translate(611.9443511962891 692.4100076694681) rotate(267.2616134227985 24.299072265625 15.518951416015625)"><path d="M0.92 0.84 C15.7 1.72, 33.61 -0.45, 46.64 1.07 M0 -0.36 C13.17 0.29, 26.01 -0.6, 48.06 -0.48 M49.89 -1.52 C48.6 5.2, 46.65 12.43, 49.3 32.85 M49.59 -0.76 C47.99 6.92, 48.93 11.96, 49.13 30.39 M48.67 29.51 C39.94 31.77, 29.35 31.01, -0.12 32.49 M47.68 30.92 C33.63 30.33, 16.86 30.79, -0.76 30.76 M-1.62 32.93 C-0.24 19.69, 1.6 9.94, -0.7 -1.2 M-0.92 31.99 C-0.44 21.78, 0.12 13.49, -0.27 0.74" stroke="#000000" stroke-width="1" fill="none"></path></g><g transform="translate(617.2434234619141 695.4289590854837) rotate(266.8829110802624 19 12.5)"><text x="19" y="18" font-family="Virgil, Segoe UI Emoji" font-size="20px" fill="#000000" text-anchor="middle" style="white-space: pre;" direction="ltr">OHS</text></g><g transform="translate(350.4172123559015 701.0213659759428) rotate(3.199820858164293 81 12.5)"><text x="0" y="18" font-family="Virgil, Segoe UI Emoji" font-size="20px" fill="#000000" text-anchor="start" style="white-space: pre;" direction="ltr">Customer/Suplier</text></g><g stroke-linecap="round" transform="translate(643.8186798095701 598.5979349155618) rotate(308.9156272471816 24.299072265625 15.518951416015625)"><path d="M-1.56 0.44 C13.65 0.83, 30.46 -0.93, 47.14 1.5 M0.99 -0.65 C17.22 -0.59, 36.48 0.29, 48.91 -0.38 M47.49 -0.3 C50 10.11, 47.74 20.62, 47.75 32.64 M49.27 -0.9 C49.4 10.46, 49.28 21.19, 48.01 31.04 M46.92 29.19 C35.52 32.81, 21.63 32.77, -1.67 31.8 M48.12 31.04 C30.56 31.24, 12.66 30.99, 0.77 31.03 M-1.04 32.14 C0.64 20.1, 0.53 9.26, -0.44 0.2 M0.46 30.72 C-0.71 19.67, -0.87 8.42, 0.28 -0.59" stroke="#000000" stroke-width="1" fill="none"></path></g><g transform="translate(647.9851535714733 604.6833662764499) rotate(308.9156272471816 19 12.5)"><text x="19" y="18" font-family="Virgil, Segoe UI Emoji" font-size="20px" fill="#000000" text-anchor="middle" style="white-space: pre;" direction="ltr">ACL</text></g><g transform="translate(534.1212310791016 532.7418252964213) rotate(46.37684706759065 56.5 12.5)"><text x="0" y="18" font-family="Virgil, Segoe UI Emoji" font-size="20px" fill="#000000" text-anchor="start" style="white-space: pre;" direction="ltr">Conformiste</text></g><g stroke-linecap="round" transform="translate(718.6750640869138 547.7284891147806) rotate(345.1509121508157 24.299072265625 15.518951416015625)"><path d="M-1.34 -1.04 C19.64 1.02, 37.55 1.61, 48.93 0.52 M-0.85 0.02 C15.74 0.89, 29.31 0.13, 48.69 0.48 M49.85 -1.55 C48.69 8.16, 49.21 18.15, 47.16 32.62 M49.38 0.65 C49.11 11.98, 49.19 24.46, 47.83 30.54 M49.61 30 C32.34 29.42, 18.39 30.59, -0.18 32.07 M48.55 30.32 C35.92 31.67, 24.38 30.91, 0.17 30.53 M1.66 32.08 C1.53 23.76, 0.77 13.21, 1.06 0.51 M0.02 30.24 C0.58 24.22, 0.8 15.49, -0.71 -0.18" stroke="#000000" stroke-width="1" fill="none"></path></g><g transform="translate(721.2479824302959 552.5513705225571) rotate(345.1509121508157 19 12.5)"><text x="19" y="18" font-family="Virgil, Segoe UI Emoji" font-size="20px" fill="#000000" text-anchor="middle" style="white-space: pre;" direction="ltr">ACL</text></g><g transform="translate(634.1425933837891 401.01758213235854) rotate(62.96474928448675 56.5 12.5)"><text x="0" y="18" font-family="Virgil, Segoe UI Emoji" font-size="20px" fill="#000000" text-anchor="start" style="white-space: pre;" direction="ltr">Conformiste</text></g><g stroke-linecap="round" transform="translate(89.72443668426047 10) rotate(0 108.61575656467016 61.74534267849392)"><path d="M1.18 -1.13 C67.61 -0.99, 134.64 0.99, 217.98 0.05 M0.28 0.52 C49.42 -0.75, 98.64 -0.94, 217.8 0.32 M216.69 -0.08 C217.87 45.52, 216.78 90.07, 217.47 122.36 M218.15 0.72 C217.63 28.65, 216.16 55.21, 217.91 123.5 M218.1 122.57 C151.14 124.54, 87.71 125.26, -0.83 122.72 M216.59 123.99 C149.46 124.35, 83.25 124.68, -0.11 123.42 M-1.1 122.55 C-0.55 76.92, 1.54 32.51, 0.35 1.13 M0.21 123.52 C-0.11 98.57, -0.9 73.04, 0.62 0.59" stroke="#000000" stroke-width="1" fill="none"></path></g></svg>