<svg version="1.1" xmlns="http://www.w3.org/2000/svg" viewBox="0 0 884.6428189380745 490.04225962567017" width="884.6428189380745" height="490.04225962567017">
  <!-- svg-source:excalidraw -->
  
  <defs>
    <style>
      @font-face {
        font-family: "Virgil";
        src: url("https://excalidraw.com/Virgil.woff2");
      }
      @font-face {
        font-family: "Cascadia";
        src: url("https://excalidraw.com/Cascadia.woff2");
      }
    </style>
  </defs>
  <rect x="0" y="0" width="884.6428189380745" height="490.04225962567017" fill="#ffffff"></rect><g stroke-linecap="round" transform="translate(244.3954892261604 177.5818409244983) rotate(0 107.35914611816406 151.23020935058594)"><path d="M-1.68 -1.37 C55.23 -0.24, 106.59 -1.8, 213.25 1.07 M-0.65 0.7 C72.19 -0.02, 143.23 0.54, 214.06 -0.37 M213.96 1.33 C212.17 91.2, 213.69 180.15, 215.26 303.77 M214.6 -0.52 C213.73 70.41, 213.92 140.21, 214.53 302.74 M215.1 302.92 C143.99 301.1, 75.85 301.56, 0.3 302.15 M214.76 301.67 C131.28 302.32, 48.25 301.95, -0.59 302.52 M0.42 301.78 C-2.82 188.97, -2.59 73.93, -0.45 0.75 M-0.71 303.07 C-1.78 202.55, -1.42 101.19, 0.26 0.03" stroke="#000000" stroke-width="1" fill="none"></path></g><g stroke-linecap="round" transform="translate(659.9245267017463 188.75547068524048) rotate(0 107.35914611816406 115.20738220214844)"><path d="M1.41 1.12 C60.6 -0.44, 125.68 0.2, 213.29 -1.16 M0.03 -0.59 C56.16 -1.21, 112.66 -1.55, 215.59 0.46 M216.03 -1.26 C215.48 84.63, 215.76 172.59, 213.74 230.65 M214.35 0.78 C215.62 75.38, 216.01 151.31, 214.4 229.93 M214.73 228.98 C151.24 229.07, 87.37 228.91, 0.77 232.1 M214.17 230.94 C144.55 231.87, 74.99 231.08, 0.07 230.36 M-1.43 231.25 C-0.33 157.11, -2.23 82.78, -1.1 0.61 M-0.19 229.85 C-0.48 141.05, -0.3 52.06, -0.39 0.18" stroke="#000000" stroke-width="1" fill="none"></path></g><g transform="translate(805.1019101245979 203.77077525067017) rotate(0 27 12.5)"><text x="0" y="18" font-family="Virgil, Segoe UI Emoji" font-size="20px" fill="#000000" text-anchor="start" style="white-space: pre;" direction="ltr">Offre</text></g><g stroke-linecap="round"><g transform="translate(328.4272707783125 433.8373325314448) rotate(0 17.411654131364116 14.06650014783611)" fill-rule="evenodd"><path d="M0.45 -6.69 L1.12 32.57 L8.93 33.35 L19.21 36.39 L35.32 35.04 L34.62 -5.83 L27.9 -7.6 L15.05 -7.42 L8.22 -8.83 L-1.11 -3.56" stroke="none" stroke-width="0" fill="#228be6" fill-rule="evenodd"></path><path d="M-0.91 -6.57 C-0.92 -0.9, 0 21.25, 0.2 27.62 C0.39 33.99, 0.03 30.44, 0.27 31.65 C0.5 32.86, 0.39 34.14, 1.6 34.88 C2.8 35.63, 4.59 35.85, 7.5 36.13 C10.41 36.41, 15.6 36.6, 19.07 36.56 C22.53 36.52, 26.03 36.59, 28.3 35.87 C30.56 35.14, 31.72 32.74, 32.67 32.2 C33.62 31.67, 33.55 33.03, 34 32.66 C34.45 32.28, 35.42 35.74, 35.37 29.94 C35.32 24.14, 33.81 3.71, 33.7 -2.15 C33.59 -8.01, 35 -4.18, 34.69 -5.23 C34.38 -6.28, 33.18 -7.96, 31.82 -8.44 C30.47 -8.92, 29.13 -8.1, 26.55 -8.13 C23.97 -8.16, 19.22 -8.57, 16.32 -8.62 C13.43 -8.68, 11.7 -8.56, 9.18 -8.44 C6.66 -8.32, 2.66 -8.21, 1.18 -7.89 C-0.3 -7.58, 0.31 -6.79, 0.31 -6.52 C0.31 -6.26, 1.41 -6.67, 1.17 -6.31 M0.83 -4.52 C0.64 1.39, -0.5 22.6, -0.69 28.8 C-0.89 35.01, -0.75 32.02, -0.34 32.71 C0.06 33.39, 0.13 32.18, 1.76 32.89 C3.39 33.61, 6.88 36.48, 9.45 37 C12.01 37.51, 13.92 36.33, 17.15 35.99 C20.39 35.66, 25.94 35.17, 28.87 35 C31.8 34.83, 33.59 35.51, 34.73 34.96 C35.87 34.4, 36.03 32.49, 35.72 31.68 C35.41 30.88, 33.23 35.53, 32.88 30.11 C32.52 24.68, 33.49 5.04, 33.59 -0.89 C33.68 -6.81, 33.74 -4.55, 33.46 -5.44 C33.18 -6.33, 32.63 -5.73, 31.9 -6.2 C31.16 -6.67, 31.62 -7.79, 29.04 -8.25 C26.46 -8.71, 20.09 -9.14, 16.42 -8.94 C12.76 -8.75, 9.85 -7.32, 7.08 -7.1 C4.3 -6.89, 1.09 -7.71, -0.22 -7.64 C-1.53 -7.57, -0.89 -6.87, -0.79 -6.67 C-0.68 -6.48, 0.48 -6.67, 0.4 -6.47" stroke="#0a11d3" stroke-width="1" fill="none"></path></g></g><g stroke-linecap="round"><g transform="translate(328.65394819903065 454.4347046648598) rotate(0 17.310357914765177 1.6278535232572153)"><path d="M-1.06 -0.16 C-0.87 0.29, -0.67 1.13, 0.24 1.55 C1.14 1.98, 2.53 2.17, 4.36 2.39 C6.18 2.61, 8.7 2.6, 11.18 2.87 C13.65 3.15, 16.29 4.05, 19.23 4.04 C22.17 4.02, 26.28 3.43, 28.81 2.76 C31.34 2.09, 33.62 0.63, 34.42 0.01 C35.22 -0.61, 33.44 -1.01, 33.62 -0.96 M0.58 -1.15 C1.25 -1, 2.13 -1.21, 2.59 -0.42 C3.05 0.38, 2.38 2.93, 3.33 3.62 C4.29 4.32, 5.84 3.55, 8.33 3.74 C10.81 3.93, 15.12 5.11, 18.24 4.76 C21.35 4.41, 24.76 2.15, 27.04 1.65 C29.31 1.15, 30.44 2.29, 31.88 1.75 C33.32 1.22, 35.3 -1.16, 35.68 -1.57" stroke="#0a11d3" stroke-width="1" fill="none"></path></g></g><g stroke-linecap="round"><g transform="translate(328.3617371616192 441.2107551234083) rotate(0 16.44838706285958 2.1107486352437377)"><path d="M0.11 -0.95 C0.46 -0.6, 0.44 0, 1.21 0.76 C1.97 1.53, 3.29 3.04, 4.7 3.62 C6.1 4.2, 7.27 4.13, 9.65 4.24 C12.02 4.35, 15.94 4.37, 18.96 4.3 C21.98 4.23, 25.52 4.53, 27.77 3.81 C30.01 3.1, 31.35 0.6, 32.42 0.02 C33.49 -0.56, 33.68 0.22, 34.19 0.33 M-1.29 1.31 C-1 1.91, -0.45 1.95, 0.41 2.04 C1.27 2.13, 2.31 1.82, 3.85 1.84 C5.39 1.86, 7.33 1.61, 9.65 2.16 C11.98 2.71, 14.58 4.98, 17.82 5.17 C21.06 5.35, 26.66 3.82, 29.11 3.25 C31.55 2.69, 31.86 2.24, 32.49 1.77 C33.12 1.29, 32.61 0.71, 32.9 0.4" stroke="#0a11d3" stroke-width="1" fill="none"></path></g></g><g stroke-linecap="round" transform="translate(327.13778981965174 426.2059822147119) rotate(0 17.218481751852835 3.482308394355073)"><path d="M24.22 0.03 C27.48 0.28, 32.07 1.2, 33.66 1.85 C35.25 2.5, 34.98 3.17, 33.77 3.92 C32.56 4.67, 29.44 5.76, 26.4 6.35 C23.36 6.94, 19 7.46, 15.55 7.49 C12.1 7.52, 8.42 7.15, 5.7 6.51 C2.98 5.88, -0.48 4.39, -0.76 3.67 C-1.05 2.94, 1.85 2.8, 3.97 2.16 C6.09 1.52, 8.38 0.04, 11.96 -0.18 C15.55 -0.4, 23.07 0.55, 25.46 0.85 C27.84 1.15, 26.15 1.55, 26.26 1.62 M9.02 1.66 C12.34 1.31, 18.45 -0.74, 22.44 -0.72 C26.44 -0.71, 31.27 0.74, 33 1.74 C34.73 2.75, 33.54 4.45, 32.84 5.33 C32.13 6.2, 31.07 6.59, 28.79 7 C26.5 7.41, 22.66 7.78, 19.14 7.77 C15.62 7.76, 10.61 7.38, 7.66 6.95 C4.72 6.53, 2.29 6.17, 1.45 5.2 C0.62 4.23, 1.19 2.04, 2.63 1.14 C4.07 0.24, 8.64 -0.02, 10.11 -0.2 C11.58 -0.39, 11.38 -0.18, 11.45 0.04" stroke="none" stroke-width="0" fill="#fff"></path><path d="M13.29 0.83 C16.79 0.62, 22.56 0.81, 25.86 1.16 C29.16 1.51, 31.94 2.53, 33.08 2.94 C34.21 3.36, 33.87 2.97, 32.68 3.67 C31.48 4.36, 28.77 6.39, 25.89 7.09 C23.02 7.8, 19.12 8.05, 15.42 7.91 C11.73 7.76, 6.23 6.91, 3.71 6.25 C1.19 5.58, 0.35 4.92, 0.3 3.94 C0.25 2.96, 0.95 1.02, 3.42 0.39 C5.9 -0.25, 12.74 0.11, 15.12 0.12 C17.5 0.14, 17.41 0.39, 17.69 0.45 M14 1.52 C17.48 1.08, 22.17 -1.04, 25.7 -0.82 C29.22 -0.6, 34.1 1.75, 35.17 2.85 C36.24 3.94, 33.8 5.01, 32.13 5.76 C30.47 6.51, 28.56 7.04, 25.18 7.33 C21.8 7.61, 15.37 7.55, 11.83 7.45 C8.29 7.35, 5.69 7.42, 3.94 6.73 C2.2 6.04, 1.19 4.2, 1.34 3.32 C1.5 2.43, 2.45 2.2, 4.85 1.44 C7.25 0.68, 13.8 -1.03, 15.74 -1.25 C17.69 -1.47, 16.6 -0.02, 16.52 0.11" stroke="#0a11d3" stroke-width="1" fill="none"></path></g><g stroke-linecap="round" transform="translate(355.2331358460883 435.8615306764005) rotate(0 2.5235335540986057 2.7388064164686625)"><path d="M3.09 0.93 C3.58 1.16, 4.29 1.06, 4.52 1.36 C4.76 1.65, 4.58 2.12, 4.51 2.7 C4.44 3.29, 4.37 4.28, 4.12 4.87 C3.88 5.46, 3.48 6.41, 3.04 6.27 C2.6 6.12, 1.99 4.39, 1.48 4.01 C0.97 3.62, 0.03 4.54, -0.05 3.94 C-0.12 3.33, 0.82 1.09, 1.06 0.37 C1.3 -0.36, 0.88 -0.28, 1.39 -0.42 C1.91 -0.57, 3.55 -0.84, 4.15 -0.5 C4.76 -0.16, 5.01 1.58, 5.01 1.63 M3.2 0.42 C3.66 0.69, 2.39 1.71, 2.69 1.65 C2.98 1.59, 4.35 -0.2, 4.97 0.05 C5.6 0.3, 6.41 2.17, 6.42 3.14 C6.42 4.11, 5.54 5.34, 4.99 5.85 C4.45 6.36, 3.75 6.2, 3.16 6.18 C2.56 6.15, 1.82 6.08, 1.44 5.69 C1.07 5.3, 1.22 4.62, 0.92 3.83 C0.62 3.04, -0.42 1.4, -0.35 0.93 C-0.28 0.47, 1.03 1.26, 1.34 1.04 C1.65 0.83, 1.36 -0.32, 1.53 -0.37" stroke="none" stroke-width="0" fill="#fff"></path><path d="M3.12 0.54 C3.6 0.51, 4.33 0.31, 4.77 0.41 C5.2 0.52, 5.88 0.66, 5.73 1.18 C5.59 1.7, 4.15 2.74, 3.89 3.53 C3.63 4.31, 4.38 5.69, 4.19 5.88 C4.01 6.07, 3.35 4.9, 2.79 4.68 C2.24 4.46, 1.27 4.96, 0.86 4.55 C0.46 4.14, 0.53 2.95, 0.36 2.2 C0.19 1.44, -0.56 0.45, -0.17 0.03 C0.23 -0.4, 2.16 -0.5, 2.73 -0.36 C3.3 -0.21, 3.25 0.84, 3.25 0.91 M3.06 -0.79 C3.21 -0.59, 1.57 1.38, 1.89 1.58 C2.22 1.78, 4.34 0.09, 5.02 0.38 C5.69 0.68, 5.93 2.86, 5.92 3.35 C5.91 3.85, 5.41 2.92, 4.95 3.36 C4.5 3.81, 3.68 5.55, 3.21 6.02 C2.74 6.5, 2.67 6.65, 2.16 6.22 C1.64 5.8, 0.35 4.18, 0.1 3.47 C-0.15 2.76, 0.61 2.31, 0.64 1.97 C0.67 1.63, 0.13 1.77, 0.29 1.45 C0.45 1.14, 1.51 0, 1.61 0.08" stroke="#0a11d3" stroke-width="1" fill="none"></path></g><g stroke-linecap="round" transform="translate(355.2331358460883 447.8848805445603) rotate(0 2.5235335540986057 2.7388064164686625)"><path d="M3.12 -0.19 C3.7 -0.29, 3.76 -0.34, 3.98 0.04 C4.2 0.41, 4.3 1.34, 4.44 2.08 C4.57 2.83, 4.82 3.87, 4.8 4.49 C4.78 5.12, 4.96 5.71, 4.33 5.84 C3.69 5.98, 1.53 5.43, 1 5.29 C0.48 5.14, 1.5 5.49, 1.17 4.97 C0.85 4.44, -0.8 2.79, -0.96 2.15 C-1.13 1.51, -0.33 1.31, 0.2 1.12 C0.73 0.92, 1.48 1.01, 2.23 0.98 C2.98 0.95, 4.71 1.14, 4.71 0.94 M2.24 -0.79 C3.19 -1.15, 4.87 -0.18, 5.05 0.47 C5.24 1.11, 3.41 2.41, 3.35 3.09 C3.29 3.76, 4.43 4.04, 4.68 4.5 C4.92 4.96, 5.1 5.56, 4.81 5.83 C4.52 6.1, 3.47 6.19, 2.95 6.14 C2.43 6.09, 2.04 6.2, 1.68 5.54 C1.33 4.87, 1.06 2.95, 0.82 2.13 C0.57 1.31, -0.12 1.02, 0.22 0.62 C0.56 0.23, 2.67 -0.23, 2.87 -0.24 C3.07 -0.24, 1.49 0.64, 1.41 0.61" stroke="none" stroke-width="0" fill="#fff"></path><path d="M4.15 1.02 C4.67 1.23, 4.72 2.11, 4.71 2.37 C4.69 2.63, 4.24 2.03, 4.05 2.58 C3.85 3.13, 3.71 5.01, 3.52 5.65 C3.33 6.3, 3.49 6.53, 2.91 6.44 C2.33 6.35, 0.46 5.62, 0.03 5.09 C-0.41 4.57, 0.26 4.11, 0.3 3.29 C0.33 2.48, 0.08 0.71, 0.23 0.2 C0.37 -0.32, 0.62 0.1, 1.16 0.2 C1.71 0.3, 2.88 0.7, 3.49 0.79 C4.11 0.88, 4.87 0.9, 4.87 0.75 M1.9 -1.36 C2.86 -1.5, 5.49 0.46, 5.87 1.29 C6.24 2.11, 4.34 2.91, 4.16 3.56 C3.97 4.21, 5.17 4.77, 4.75 5.18 C4.33 5.58, 2.11 5.82, 1.63 6.01 C1.15 6.2, 1.89 6.69, 1.87 6.32 C1.84 5.95, 1.75 4.46, 1.49 3.78 C1.22 3.1, 0.24 3, 0.28 2.22 C0.31 1.44, 1.06 -0.51, 1.71 -0.87 C2.35 -1.24, 3.98 0.03, 4.14 0.05 C4.31 0.08, 2.69 -0.61, 2.71 -0.73" stroke="#0a11d3" stroke-width="1" fill="none"></path></g><g stroke-linecap="round" transform="translate(355.2331358460883 460.9526643000101) rotate(0 2.5235335540986057 2.7388064164686625)"><path d="M1.77 0.03 C2.23 -0.34, 2.67 -0.51, 3.18 -0.24 C3.69 0.04, 4.46 0.93, 4.84 1.69 C5.23 2.46, 5.53 3.92, 5.47 4.34 C5.42 4.76, 5.04 3.92, 4.49 4.23 C3.93 4.54, 2.65 6.31, 2.13 6.2 C1.61 6.1, 1.78 4.27, 1.38 3.62 C0.98 2.97, -0.2 2.86, -0.29 2.29 C-0.37 1.73, 0.28 0.44, 0.87 0.21 C1.46 -0.01, 2.86 1.11, 3.26 0.95 C3.66 0.79, 3.52 -0.56, 3.28 -0.75 M0.56 1.68 C0.81 1.11, 2.41 -1.27, 3.32 -1.4 C4.23 -1.54, 5.56 0, 6.01 0.87 C6.47 1.74, 6.17 3.08, 6.03 3.83 C5.88 4.58, 5.57 4.92, 5.15 5.35 C4.72 5.79, 3.98 6.37, 3.46 6.45 C2.93 6.53, 2.71 6.35, 2.02 5.82 C1.32 5.28, -0.3 3.76, -0.69 3.22 C-1.07 2.67, -0.57 3.14, -0.27 2.56 C0.03 1.98, 0.74 0.05, 1.11 -0.25 C1.47 -0.56, 1.98 0.42, 1.92 0.71" stroke="none" stroke-width="0" fill="#fff"></path><path d="M2.8 -0.07 C3.3 -0.45, 4.31 -0.8, 4.51 -0.56 C4.71 -0.33, 3.81 0.53, 3.98 1.34 C4.16 2.14, 5.43 3.76, 5.56 4.27 C5.7 4.78, 5.29 4.16, 4.79 4.4 C4.29 4.64, 3.2 5.75, 2.56 5.73 C1.92 5.71, 1.54 4.9, 0.96 4.29 C0.37 3.67, -0.9 2.65, -0.95 2.05 C-0.99 1.44, 0.03 0.86, 0.68 0.65 C1.33 0.45, 2.55 0.95, 2.98 0.83 C3.41 0.7, 3.46 -0.05, 3.27 -0.09 M0.12 1.68 C0.39 1.44, 2.69 -0.74, 3.59 -0.78 C4.49 -0.81, 5.16 1.07, 5.52 1.47 C5.88 1.88, 5.87 1.01, 5.76 1.64 C5.65 2.28, 5.17 4.41, 4.85 5.27 C4.53 6.13, 4.49 6.82, 3.86 6.79 C3.23 6.76, 1.64 5.57, 1.07 5.09 C0.49 4.61, 0.77 4.27, 0.42 3.89 C0.08 3.5, -1.2 3.41, -1.01 2.77 C-0.83 2.13, 1.25 0.22, 1.53 0.05 C1.82 -0.12, 0.87 1.45, 0.72 1.74" stroke="#0a11d3" stroke-width="1" fill="none"></path></g><g stroke-linecap="round"><g transform="translate(408.1365007979705 309.10967709493315) rotate(0 -60.12247660376448 39.39051550199389)" fill-rule="evenodd"><path d="M-59.01 -1.77 L-93.79 21.62 L-94.13 56.89 L-56.92 81.35 L-23.44 55.88 L-23.42 19.32 L-58.05 -0.54" stroke="none" stroke-width="0" fill="#40c057" fill-rule="evenodd"></path><path d="M-58.79 -1.22 C-67.31 4.82, -77.84 11.75, -93.99 18.47 M-59.31 0.57 C-73 8.03, -86.93 15.86, -94.69 19.26 M-93.58 19.46 C-95.78 30.57, -95.33 40.76, -94.97 57.05 M-93.56 20.53 C-94.37 34.08, -93.55 49.99, -94.48 58.96 M-95.94 60.4 C-85.11 62.17, -78.3 67.08, -57.84 77.62 M-93.96 59.15 C-81.23 64.95, -69.98 72.08, -59.11 78.73 M-59.55 80.75 C-44.97 69.78, -31.73 62.16, -25.26 56.22 M-58.08 78.44 C-49.22 73.22, -38.08 65.39, -25.38 57.88 M-24.31 58.73 C-26.72 47.26, -26.21 39.68, -25.13 17.35 M-24.63 57.15 C-25.92 46.74, -24.9 35.68, -25.3 18.95 M-25.27 19.06 C-37.34 9.55, -51.64 3.92, -58.57 -1.97 M-24.53 18.21 C-37.03 12.74, -49.52 6.31, -58.34 -0.17 M-59.01 0 C-59.01 0, -59.01 0, -59.01 0 M-59.01 0 C-59.01 0, -59.01 0, -59.01 0" stroke="#000000" stroke-width="1" fill="none"></path></g></g><g stroke-linecap="round"><g transform="translate(349.2815324617802 355.3659996912623) rotate(0 -1.2642766537738908 -8.401804219937162)" fill-rule="evenodd"><path d="M-11.45 -15.82 L-14.07 10.41 L-14.58 10.31 L-17.72 7.16 L-18.65 1.82 L-19.24 -22.18 L-13.35 -26.63 L-10.43 -24.89 L8.19 -2.52 L9.95 0.21 L10.89 -22.92 L13.92 -24.67 L14.24 -24.53 L15.34 -9.71 L14.06 9.91 L13.5 10.03 L6.4 10.41 L-11.43 -16.17" stroke="none" stroke-width="0" fill="#ffff" fill-rule="evenodd"></path><path d="M-11.97 -15.98 C-11.8 -13.95, -11.13 -8.07, -11.18 -3.75 C-11.23 0.56, -11.09 8.03, -12.25 9.94 C-13.4 11.85, -17.13 10.81, -18.11 7.7 C-19.1 4.59, -18.32 -3.39, -18.16 -8.71 C-18 -14.03, -18.55 -21.57, -17.17 -24.22 C-15.8 -26.87, -12.61 -26.56, -9.9 -24.6 C-7.19 -22.64, -4.03 -16.42, -0.92 -12.46 C2.2 -8.5, 7.13 1.04, 8.8 -0.85 C10.48 -2.73, 7.87 -19.83, 9.13 -23.78 C10.38 -27.74, 14.96 -26.94, 16.32 -24.57 C17.68 -22.21, 17.61 -15.09, 17.3 -9.61 C16.98 -4.13, 16.24 5.13, 14.41 8.3 C12.58 11.48, 9.4 11.56, 6.31 9.46 C3.22 7.37, -1.22 -0.19, -4.12 -4.28 C-7.03 -8.37, -9.87 -13.36, -11.12 -15.08 M-13.36 -13.75 C-13.27 -11.47, -11.81 -5.97, -11.74 -2.36 C-11.67 1.25, -11.93 6.14, -12.95 7.91 C-13.96 9.68, -16.8 10.89, -17.82 8.26 C-18.83 5.63, -18.79 -2.25, -19.03 -7.86 C-19.27 -13.48, -20.96 -22.41, -19.27 -25.44 C-17.59 -28.48, -11.79 -28.17, -8.9 -26.09 C-6.02 -24.01, -5.23 -17.49, -1.97 -12.96 C1.29 -8.43, 8.78 3.01, 10.66 1.09 C12.54 -0.84, 8.26 -20.34, 9.3 -24.5 C10.33 -28.65, 15.76 -26.2, 16.89 -23.83 C18.01 -21.46, 16.53 -15.51, 16.06 -10.27 C15.59 -5.03, 15.28 4.31, 14.08 7.6 C12.87 10.89, 11.87 11.01, 8.85 9.46 C5.82 7.91, -0.38 2.17, -4.06 -1.7 C-7.74 -5.56, -11.8 -11.78, -13.22 -13.73" stroke="#000000" stroke-width="1" fill="none"></path></g></g><g stroke-linecap="round" transform="translate(12.276587520694875 10) rotate(0 63.941917866069446 38.26851694988882)"><path d="M0.28 -1.3 C27.82 1.04, 57.18 0.44, 128.83 1.81 M0.46 0.58 C42.2 -0.32, 86.31 0.35, 128.23 -0.42 M127.9 -0.79 C129.49 29.19, 126.24 60.63, 125.9 76.67 M127.75 0.75 C127.57 17, 127.56 34.71, 128.12 76.42 M126.67 76.61 C86.31 75.14, 43.79 77.03, -0.78 77.01 M128.76 77.19 C80.92 75.9, 36.44 76.48, -0.85 76.88 M-1.84 78.47 C-0.11 45.82, -1.54 15.1, 0.05 1.63 M-0.53 76.19 C-0.33 56.45, 0.01 35.03, -0.2 0.55" stroke="#000000" stroke-width="1" fill="none"></path></g><g stroke-linecap="round"><g transform="translate(11.200989769799605 20.716534392244284) rotate(0 64.39089638113796 0.47166094099637235)"><path d="M0.17 -0.78 C21.48 -0.62, 106.56 -0.02, 127.81 0.06 M-1.2 1.42 C20.47 1.87, 108.11 1.72, 129.98 1.62" stroke="#000000" stroke-width="1" fill="none"></path></g></g><g stroke-linecap="round" transform="translate(16.76462298964975 14.27156980000882) rotate(0 2.5009765625 2.5009765625)"><path d="M2.5 0 C3.01 -0.03, 3.7 0.24, 4.11 0.59 C4.52 0.93, 4.87 1.54, 4.96 2.07 C5.06 2.59, 4.93 3.29, 4.67 3.75 C4.4 4.22, 3.86 4.67, 3.36 4.85 C2.85 5.03, 2.15 5.03, 1.65 4.85 C1.14 4.67, 0.6 4.22, 0.34 3.75 C0.07 3.29, -0.06 2.59, 0.04 2.07 C0.13 1.54, 0.48 0.93, 0.89 0.59 C1.3 0.24, 2.23 0.09, 2.5 0 C2.77 -0.09, 2.5 0.01, 2.5 0.05 M2.5 0 C3.01 -0.03, 3.7 0.24, 4.11 0.59 C4.52 0.93, 4.87 1.54, 4.96 2.07 C5.06 2.59, 4.93 3.29, 4.67 3.75 C4.4 4.22, 3.86 4.67, 3.36 4.85 C2.85 5.03, 2.15 5.03, 1.65 4.85 C1.14 4.67, 0.6 4.22, 0.34 3.75 C0.07 3.29, -0.06 2.59, 0.04 2.07 C0.13 1.54, 0.48 0.93, 0.89 0.59 C1.3 0.24, 2.23 0.09, 2.5 0 C2.77 -0.09, 2.5 0.01, 2.5 0.05" stroke="none" stroke-width="0" fill="#fa5252"></path><path d="M2.5 0 C3.01 -0.03, 3.7 0.24, 4.11 0.59 C4.52 0.93, 4.87 1.54, 4.96 2.07 C5.06 2.59, 4.93 3.29, 4.67 3.75 C4.4 4.22, 3.86 4.67, 3.36 4.85 C2.85 5.03, 2.15 5.03, 1.65 4.85 C1.14 4.67, 0.6 4.22, 0.34 3.75 C0.07 3.29, -0.06 2.59, 0.04 2.07 C0.13 1.54, 0.48 0.93, 0.89 0.59 C1.3 0.24, 2.23 0.09, 2.5 0 C2.77 -0.09, 2.5 0.01, 2.5 0.05 M2.5 0 C3.01 -0.03, 3.7 0.24, 4.11 0.59 C4.52 0.93, 4.87 1.54, 4.96 2.07 C5.06 2.59, 4.93 3.29, 4.67 3.75 C4.4 4.22, 3.86 4.67, 3.36 4.85 C2.85 5.03, 2.15 5.03, 1.65 4.85 C1.14 4.67, 0.6 4.22, 0.34 3.75 C0.07 3.29, -0.06 2.59, 0.04 2.07 C0.13 1.54, 0.48 0.93, 0.89 0.59 C1.3 0.24, 2.23 0.09, 2.5 0 C2.77 -0.09, 2.5 0.01, 2.5 0.05" stroke="#000000" stroke-width="1" fill="none"></path></g><g stroke-linecap="round" transform="translate(27.02731830214975 14.27156980000882) rotate(0 2.5009765625 2.5009765625)"><path d="M2.5 0 C3.01 -0.03, 3.7 0.24, 4.11 0.59 C4.52 0.93, 4.87 1.54, 4.96 2.07 C5.06 2.59, 4.93 3.29, 4.67 3.75 C4.4 4.22, 3.86 4.67, 3.36 4.85 C2.85 5.03, 2.15 5.03, 1.65 4.85 C1.14 4.67, 0.6 4.22, 0.34 3.75 C0.07 3.29, -0.06 2.59, 0.04 2.07 C0.13 1.54, 0.48 0.93, 0.89 0.59 C1.3 0.24, 2.23 0.09, 2.5 0 C2.77 -0.09, 2.5 0.01, 2.5 0.05 M2.5 0 C3.01 -0.03, 3.7 0.24, 4.11 0.59 C4.52 0.93, 4.87 1.54, 4.96 2.07 C5.06 2.59, 4.93 3.29, 4.67 3.75 C4.4 4.22, 3.86 4.67, 3.36 4.85 C2.85 5.03, 2.15 5.03, 1.65 4.85 C1.14 4.67, 0.6 4.22, 0.34 3.75 C0.07 3.29, -0.06 2.59, 0.04 2.07 C0.13 1.54, 0.48 0.93, 0.89 0.59 C1.3 0.24, 2.23 0.09, 2.5 0 C2.77 -0.09, 2.5 0.01, 2.5 0.05" stroke="none" stroke-width="0" fill="#fab005"></path><path d="M2.5 0 C3.01 -0.03, 3.7 0.24, 4.11 0.59 C4.52 0.93, 4.87 1.54, 4.96 2.07 C5.06 2.59, 4.93 3.29, 4.67 3.75 C4.4 4.22, 3.86 4.67, 3.36 4.85 C2.85 5.03, 2.15 5.03, 1.65 4.85 C1.14 4.67, 0.6 4.22, 0.34 3.75 C0.07 3.29, -0.06 2.59, 0.04 2.07 C0.13 1.54, 0.48 0.93, 0.89 0.59 C1.3 0.24, 2.23 0.09, 2.5 0 C2.77 -0.09, 2.5 0.01, 2.5 0.05 M2.5 0 C3.01 -0.03, 3.7 0.24, 4.11 0.59 C4.52 0.93, 4.87 1.54, 4.96 2.07 C5.06 2.59, 4.93 3.29, 4.67 3.75 C4.4 4.22, 3.86 4.67, 3.36 4.85 C2.85 5.03, 2.15 5.03, 1.65 4.85 C1.14 4.67, 0.6 4.22, 0.34 3.75 C0.07 3.29, -0.06 2.59, 0.04 2.07 C0.13 1.54, 0.48 0.93, 0.89 0.59 C1.3 0.24, 2.23 0.09, 2.5 0 C2.77 -0.09, 2.5 0.01, 2.5 0.05" stroke="#000000" stroke-width="1" fill="none"></path></g><g stroke-linecap="round" transform="translate(37.74073476849594 14.722290953855008) rotate(0 2.5009765625 2.5009765625)"><path d="M2.5 0 C3.01 -0.03, 3.7 0.24, 4.11 0.59 C4.52 0.93, 4.87 1.54, 4.96 2.07 C5.06 2.59, 4.93 3.29, 4.67 3.75 C4.4 4.22, 3.86 4.67, 3.36 4.85 C2.85 5.03, 2.15 5.03, 1.65 4.85 C1.14 4.67, 0.6 4.22, 0.34 3.75 C0.07 3.29, -0.06 2.59, 0.04 2.07 C0.13 1.54, 0.48 0.93, 0.89 0.59 C1.3 0.24, 2.23 0.09, 2.5 0 C2.77 -0.09, 2.5 0.01, 2.5 0.05 M2.5 0 C3.01 -0.03, 3.7 0.24, 4.11 0.59 C4.52 0.93, 4.87 1.54, 4.96 2.07 C5.06 2.59, 4.93 3.29, 4.67 3.75 C4.4 4.22, 3.86 4.67, 3.36 4.85 C2.85 5.03, 2.15 5.03, 1.65 4.85 C1.14 4.67, 0.6 4.22, 0.34 3.75 C0.07 3.29, -0.06 2.59, 0.04 2.07 C0.13 1.54, 0.48 0.93, 0.89 0.59 C1.3 0.24, 2.23 0.09, 2.5 0 C2.77 -0.09, 2.5 0.01, 2.5 0.05" stroke="none" stroke-width="0" fill="#40c057"></path><path d="M2.5 0 C3.01 -0.03, 3.7 0.24, 4.11 0.59 C4.52 0.93, 4.87 1.54, 4.96 2.07 C5.06 2.59, 4.93 3.29, 4.67 3.75 C4.4 4.22, 3.86 4.67, 3.36 4.85 C2.85 5.03, 2.15 5.03, 1.65 4.85 C1.14 4.67, 0.6 4.22, 0.34 3.75 C0.07 3.29, -0.06 2.59, 0.04 2.07 C0.13 1.54, 0.48 0.93, 0.89 0.59 C1.3 0.24, 2.23 0.09, 2.5 0 C2.77 -0.09, 2.5 0.01, 2.5 0.05 M2.5 0 C3.01 -0.03, 3.7 0.24, 4.11 0.59 C4.52 0.93, 4.87 1.54, 4.96 2.07 C5.06 2.59, 4.93 3.29, 4.67 3.75 C4.4 4.22, 3.86 4.67, 3.36 4.85 C2.85 5.03, 2.15 5.03, 1.65 4.85 C1.14 4.67, 0.6 4.22, 0.34 3.75 C0.07 3.29, -0.06 2.59, 0.04 2.07 C0.13 1.54, 0.48 0.93, 0.89 0.59 C1.3 0.24, 2.23 0.09, 2.5 0 C2.77 -0.09, 2.5 0.01, 2.5 0.05" stroke="#000000" stroke-width="1" fill="none"></path></g><g stroke-opacity="0.9" fill-opacity="0.9" stroke-linecap="round" transform="translate(53.76779575812316 30.77465983187085) rotate(0 21.360101269687846 21.36010126968786)"><path d="M25.83 -0.6 C30.16 -0.12, 35.9 4.02, 38.67 7.54 C41.45 11.07, 42.73 15.96, 42.5 20.55 C42.27 25.14, 40.07 31.5, 37.3 35.1 C34.53 38.69, 30.28 41.35, 25.91 42.11 C21.54 42.87, 15.26 41.93, 11.07 39.64 C6.88 37.34, 2.41 32.48, 0.77 28.34 C-0.87 24.2, -0.47 19.03, 1.23 14.8 C2.93 10.58, 6.82 5.27, 10.95 2.98 C15.08 0.7, 23.19 1.35, 26.03 1.11 C28.87 0.87, 27.98 1.14, 28 1.55 M12.58 0.25 C16.82 -1.41, 24.21 -0.63, 28.79 1.11 C33.37 2.85, 37.88 6.67, 40.08 10.71 C42.28 14.74, 42.85 20.66, 41.99 25.3 C41.13 29.94, 38.31 35.8, 34.93 38.54 C31.55 41.28, 26.05 41.68, 21.7 41.75 C17.35 41.82, 12.38 41.36, 8.85 38.97 C5.32 36.58, 1.79 31.95, 0.51 27.38 C-0.76 22.81, -1.03 15.96, 1.19 11.53 C3.41 7.11, 11.76 2.48, 13.83 0.83 C15.9 -0.82, 13.43 1.15, 13.59 1.63" stroke="none" stroke-width="0" fill="#04aaf7"></path><path d="M26.53 0.55 C30.75 1.34, 36.45 5.63, 39 9.26 C41.56 12.88, 42.17 17.79, 41.86 22.31 C41.54 26.82, 40.06 33.06, 37.1 36.37 C34.14 39.68, 28.55 41.68, 24.09 42.16 C19.64 42.64, 14.24 41.73, 10.38 39.27 C6.53 36.81, 2.49 31.69, 0.99 27.41 C-0.51 23.12, -0.41 17.92, 1.39 13.58 C3.18 9.24, 7.18 3.62, 11.76 1.37 C16.35 -0.89, 25.95 0.07, 28.89 0.05 C31.82 0.03, 29.61 0.81, 29.37 1.26 M19.45 -0.65 C23.59 -1.03, 30.28 1.62, 34.02 4.5 C37.77 7.39, 40.97 12.16, 41.93 16.64 C42.9 21.12, 41.97 27.35, 39.82 31.4 C37.67 35.46, 33.15 39.47, 29.04 40.97 C24.93 42.48, 19.59 41.74, 15.17 40.44 C10.74 39.15, 5.08 36.72, 2.47 33.21 C-0.13 29.7, -1.3 23.9, -0.46 19.37 C0.38 14.84, 4.25 9.03, 7.51 6.03 C10.78 3.03, 16.89 2.49, 19.13 1.35 C21.38 0.22, 20.81 -1.11, 20.99 -0.76" stroke="#000000" stroke-width="1" fill="none"></path></g><g stroke-linecap="round"><g transform="translate(80.84595982009864 46.99901189632851) rotate(0 -3.4669568227483865 6.479860744560767)" fill-rule="evenodd"><path d="M0 0 L-1.83 -0.41 L-7.57 -6.27 L-9.75 -6.1 L-11.36 -4.35 L-12.61 2.37 L-11.27 6.74 L-17.42 8.89 L-18 11.42 L-17.2 13.64 L-15.01 14.04 L-12.38 13.35 L-8.7 9.48 L-3.62 17.87 L-1.49 19.38 L-0.42 18.17 L-3.78 4.8 L-1.52 3.64 L1.39 4.35 L3.16 5.87 L6.21 6.29 L9.24 5.87 L10.81 3.22 L10.8 0.63 L4.22 1.11 L5.49 -5.76 L4.23 -6.26 L2.47 -5.35 L-0.24 -0.92 L0 0" stroke="none" stroke-width="0" fill="#40c057" fill-rule="evenodd"></path><path d="M0 0 C-0.31 -0.07, -0.57 0.63, -1.83 -0.41 C-3.09 -1.46, -5.98 -5.62, -7.57 -6.27 C-9.16 -6.93, -10.52 -5.79, -11.36 -4.35 C-12.2 -2.91, -12.63 0.53, -12.61 2.37 C-12.6 4.22, -10.47 5.65, -11.27 6.74 C-12.07 7.83, -16.44 7.74, -17.42 8.89 C-18.41 10.04, -18.04 12.9, -17.2 13.64 C-16.36 14.39, -13.8 14.04, -12.38 13.35 C-10.96 12.66, -10.16 8.72, -8.7 9.48 C-7.24 10.23, -5 16.42, -3.62 17.87 C-2.24 19.32, -0.39 20.35, -0.42 18.17 C-0.44 15.99, -4.08 7.1, -3.78 4.8 C-3.48 2.5, 0.23 4.17, 1.39 4.35 C2.54 4.53, 1.85 5.61, 3.16 5.87 C4.47 6.12, 7.96 6.74, 9.24 5.87 C10.51 5, 11.64 1.43, 10.8 0.63 C9.97 -0.16, 5.11 2.18, 4.22 1.11 C3.34 0.04, 5.78 -4.68, 5.49 -5.76 C5.19 -6.84, 3.43 -6.15, 2.47 -5.35 C1.52 -4.54, 0.17 -1.81, -0.24 -0.92 C-0.65 -0.03, -0.04 -0.15, 0 0 M0 0 C-0.31 -0.07, -0.57 0.63, -1.83 -0.41 C-3.09 -1.46, -5.98 -5.62, -7.57 -6.27 C-9.16 -6.93, -10.52 -5.79, -11.36 -4.35 C-12.2 -2.91, -12.63 0.53, -12.61 2.37 C-12.6 4.22, -10.47 5.65, -11.27 6.74 C-12.07 7.83, -16.44 7.74, -17.42 8.89 C-18.41 10.04, -18.04 12.9, -17.2 13.64 C-16.36 14.39, -13.8 14.04, -12.38 13.35 C-10.96 12.66, -10.16 8.72, -8.7 9.48 C-7.24 10.23, -5 16.42, -3.62 17.87 C-2.24 19.32, -0.39 20.35, -0.42 18.17 C-0.44 15.99, -4.08 7.1, -3.78 4.8 C-3.48 2.5, 0.23 4.17, 1.39 4.35 C2.54 4.53, 1.85 5.61, 3.16 5.87 C4.47 6.12, 7.96 6.74, 9.24 5.87 C10.51 5, 11.64 1.43, 10.8 0.63 C9.97 -0.16, 5.11 2.18, 4.22 1.11 C3.34 0.04, 5.78 -4.68, 5.49 -5.76 C5.19 -6.84, 3.43 -6.15, 2.47 -5.35 C1.52 -4.54, 0.17 -1.81, -0.24 -0.92 C-0.65 -0.03, -0.04 -0.15, 0 0" stroke="#087f5b" stroke-width="1" fill="none"></path></g></g><g stroke-linecap="round"><g stroke-opacity="0.9" fill-opacity="0.9" transform="translate(54.8268582321507 51.73753339505197) rotate(0 20.970048787882888 1.0376762033688607)"><path d="M0.57 1.08 C7.85 1.17, 35.62 0.28, 42.53 0.19 M-0.59 0.61 C6.66 0.94, 34.84 2.18, 41.81 1.83" stroke="#000000" stroke-width="1" fill="none"></path></g></g><g stroke-linecap="round"><g stroke-opacity="0.9" fill-opacity="0.9" transform="translate(59.922187261925046 36.30300446808576) rotate(0 14.659303301924297 2.6275724513134264)"><path d="M0 0 C0.13 0.38, 0.09 1.58, 0.77 2.28 C1.46 2.97, 2.81 3.68, 4.1 4.19 C5.4 4.7, 6.64 5.13, 8.54 5.34 C10.43 5.55, 12.97 5.55, 15.48 5.45 C17.99 5.34, 21.44 5.28, 23.58 4.71 C25.72 4.14, 27.36 2.86, 28.32 2.03 C29.27 1.2, 29.15 0.12, 29.32 -0.26 M0 0 C0.13 0.38, 0.09 1.58, 0.77 2.28 C1.46 2.97, 2.81 3.68, 4.1 4.19 C5.4 4.7, 6.64 5.13, 8.54 5.34 C10.43 5.55, 12.97 5.55, 15.48 5.45 C17.99 5.34, 21.44 5.28, 23.58 4.71 C25.72 4.14, 27.36 2.86, 28.32 2.03 C29.27 1.2, 29.15 0.12, 29.32 -0.26" stroke="#000000" stroke-width="1" fill="none"></path></g></g><g stroke-opacity="0.9" fill-opacity="0.9" stroke-linecap="round" transform="translate(67.9961031858445 29.392130202278167) rotate(0 7.764217176558077 22.41115194065472)"><path d="M6.75 -0.38 C8.29 -0.83, 11.37 2.18, 12.87 5.17 C14.36 8.15, 15.29 12.86, 15.72 17.54 C16.14 22.21, 16.25 28.94, 15.42 33.23 C14.59 37.52, 12.47 41.41, 10.72 43.28 C8.97 45.14, 6.51 46.09, 4.9 44.42 C3.29 42.75, 1.7 37.63, 1.05 33.24 C0.41 28.85, 0.76 22.82, 1.03 18.09 C1.31 13.36, 1.34 7.91, 2.69 4.88 C4.04 1.85, 7.89 0.35, 9.12 -0.06 C10.36 -0.48, 10.23 2.03, 10.11 2.39 M5.81 0.94 C7.21 -0.35, 9.21 0.87, 10.57 2.99 C11.93 5.1, 13.25 9.55, 13.99 13.63 C14.73 17.71, 15.51 22.88, 15 27.46 C14.48 32.05, 12.35 38.23, 10.9 41.15 C9.44 44.08, 7.57 45.57, 6.26 45.02 C4.95 44.47, 4.2 41.21, 3.02 37.87 C1.84 34.53, -0.75 30, -0.83 24.98 C-0.91 19.96, 1.37 11.61, 2.53 7.76 C3.69 3.9, 5.37 3.19, 6.12 1.86 C6.86 0.52, 6.93 -0.63, 7.02 -0.24" stroke="#000000" stroke-width="1" fill="none"></path></g><g stroke-linecap="round"><g stroke-opacity="0.9" fill-opacity="0.9" transform="translate(61.43813877155094 68.04009652652667) rotate(0 14.659303301924297 -2.712622320327597)"><path d="M0 0 C0.68 -0.72, 2.68 -3.4, 4.1 -4.32 C5.53 -5.24, 6.64 -5.3, 8.54 -5.52 C10.43 -5.73, 12.97 -5.73, 15.48 -5.63 C17.99 -5.52, 21.44 -5.45, 23.58 -4.86 C25.72 -4.28, 27.36 -2.95, 28.32 -2.1 C29.27 -1.24, 29.15 -0.12, 29.32 0.27 M0 0 C0.68 -0.72, 2.68 -3.4, 4.1 -4.32 C5.53 -5.24, 6.64 -5.3, 8.54 -5.52 C10.43 -5.73, 12.97 -5.73, 15.48 -5.63 C17.99 -5.52, 21.44 -5.45, 23.58 -4.86 C25.72 -4.28, 27.36 -2.95, 28.32 -2.1 C29.27 -1.24, 29.15 -0.12, 29.32 0.27" stroke="#000000" stroke-width="1" fill="none"></path></g></g><g stroke-linecap="round"><g transform="translate(348.6147275074104 390.04189341473267) rotate(0 -0.9815636431728194 14.275895656687908)"><path d="M0 0 C-0.33 4.76, -1.64 23.79, -1.96 28.55 M0 0 C-0.33 4.76, -1.64 23.79, -1.96 28.55" stroke="#000000" stroke-width="1" fill="none"></path></g><g transform="translate(348.6147275074104 390.04189341473267) rotate(0 -0.9815636431728194 14.275895656687908)"><path d="M-5.92 14.8 C-4.73 18.95, -3.53 23.1, -1.96 28.55 M-5.92 14.8 C-4.91 18.31, -3.9 21.81, -1.96 28.55" stroke="#000000" stroke-width="1" fill="none"></path></g><g transform="translate(348.6147275074104 390.04189341473267) rotate(0 -0.9815636431728194 14.275895656687908)"><path d="M3.84 15.47 C2.09 19.42, 0.34 23.36, -1.96 28.55 M3.84 15.47 C2.36 18.81, 0.88 22.14, -1.96 28.55" stroke="#000000" stroke-width="1" fill="none"></path></g></g><g stroke-linecap="round"><g transform="translate(762.8625765204827 362.52862244777566) rotate(0 17.25115287081144 18.62538892815408)" fill-rule="evenodd"><path d="M0.94 -1.13 L-2 39.25 L6.59 41.05 L16.76 40.67 L31.84 37.88 L34.39 -1.28 L25.65 -2.29 L17.25 -3.62 L6.28 -3.42 L-1.57 -1.23" stroke="none" stroke-width="0" fill="#228be6" fill-rule="evenodd"></path><path d="M0.71 -0.12 C0.81 5.64, -0.18 28.71, -0.17 35 C-0.17 41.29, 0.37 36.81, 0.72 37.63 C1.06 38.45, 0.61 39.48, 1.9 39.93 C3.2 40.39, 5.58 40.12, 8.47 40.37 C11.36 40.61, 15.74 41.32, 19.24 41.4 C22.75 41.49, 27.12 41.26, 29.5 40.88 C31.88 40.51, 32.52 39.71, 33.53 39.16 C34.53 38.6, 35.37 38.36, 35.54 37.56 C35.71 36.75, 34.84 40.04, 34.53 34.3 C34.23 28.57, 33.83 8.98, 33.71 3.13 C33.59 -2.72, 34.2 -0.11, 33.79 -0.78 C33.38 -1.45, 32.46 -0.51, 31.24 -0.9 C30.01 -1.29, 28.89 -2.8, 26.43 -3.1 C23.98 -3.41, 19.65 -2.91, 16.5 -2.76 C13.35 -2.6, 10.01 -2.4, 7.51 -2.18 C5.01 -1.96, 2.54 -1.71, 1.48 -1.44 C0.43 -1.17, 1.57 -0.75, 1.15 -0.58 C0.73 -0.41, -0.95 -0.51, -1.02 -0.43 M-0.38 -1.24 C-0.39 4.2, -1.39 26.81, -1.27 33.5 C-1.16 40.2, -0.25 38.23, 0.33 38.93 C0.91 39.63, 1.06 37.43, 2.21 37.7 C3.37 37.97, 4.72 40.1, 7.26 40.57 C9.79 41.03, 14.11 40.62, 17.41 40.49 C20.7 40.35, 24.53 40, 27.02 39.76 C29.51 39.51, 31.14 39.59, 32.37 39.01 C33.59 38.42, 33.91 37.12, 34.39 36.26 C34.87 35.41, 35.38 39.19, 35.25 33.86 C35.11 28.53, 33.5 10.17, 33.58 4.27 C33.66 -1.63, 36.16 -0.62, 35.73 -1.54 C35.3 -2.46, 32.14 -0.93, 30.99 -1.26 C29.85 -1.58, 31.24 -3.21, 28.85 -3.48 C26.47 -3.75, 20.13 -2.78, 16.68 -2.89 C13.24 -3, 10.91 -4.48, 8.17 -4.11 C5.43 -3.74, 1.51 -1.29, 0.23 -0.69 C-1.05 -0.09, 0.4 -0.55, 0.48 -0.5 C0.56 -0.45, 0.54 -0.77, 0.71 -0.4" stroke="#0a11d3" stroke-width="1" fill="none"></path></g></g><g stroke-linecap="round"><g transform="translate(763.1182118514139 388.36320092278567) rotate(0 16.704497061420966 1.9139811249721106)"><path d="M-0.12 -0.29 C0.16 -0.03, 1.28 1.71, 2.1 2.25 C2.93 2.79, 3.39 2.63, 4.83 2.94 C6.26 3.25, 8.52 3.84, 10.71 4.09 C12.9 4.34, 15.05 4.44, 17.96 4.46 C20.86 4.48, 25.48 4.76, 28.14 4.21 C30.81 3.65, 32.77 1.68, 33.93 1.11 C35.08 0.55, 34.9 1.06, 35.06 0.83 M-1.65 -1.49 C-1.45 -1.63, 0.83 -0.47, 1.78 0.5 C2.73 1.47, 2.46 4.11, 4.04 4.32 C5.63 4.54, 8.63 1.63, 11.28 1.79 C13.93 1.95, 16.89 4.94, 19.95 5.26 C23.02 5.58, 27.21 4.64, 29.68 3.71 C32.15 2.77, 34.03 0.08, 34.79 -0.37 C35.55 -0.82, 34.47 1.24, 34.22 1.01" stroke="#0a11d3" stroke-width="1" fill="none"></path></g></g><g stroke-linecap="round"><g transform="translate(762.8260008140026 375.1392513813342) rotate(0 17.704486775014402 2.158504303791233)"><path d="M-0.29 1.19 C-0.14 1.46, 0.75 1.13, 1.63 1.5 C2.5 1.88, 3.48 3.14, 4.97 3.43 C6.47 3.72, 8.23 3.16, 10.59 3.24 C12.94 3.32, 16.05 3.85, 19.1 3.91 C22.16 3.97, 26.58 3.96, 28.94 3.59 C31.3 3.23, 32.12 2.33, 33.25 1.73 C34.38 1.13, 35.47 0.31, 35.7 0 M1.76 0.77 C1.76 1.25, 0.63 2.92, 1.05 3.03 C1.47 3.13, 2.6 1.22, 4.27 1.41 C5.94 1.6, 8.8 3.65, 11.09 4.15 C13.39 4.65, 15.36 4.65, 18.05 4.42 C20.74 4.19, 24.61 3.41, 27.23 2.77 C29.85 2.13, 32.43 1.08, 33.76 0.58 C35.09 0.07, 34.74 0.1, 35.2 -0.25" stroke="#0a11d3" stroke-width="1" fill="none"></path></g></g><g stroke-linecap="round" transform="translate(761.6020534720349 360.407864698325) rotate(0 17.21848175185289 3.482308394355101)"><path d="M25.32 1.14 C28.54 1.56, 30.98 1.77, 32.41 2.32 C33.85 2.87, 34.92 3.85, 33.93 4.46 C32.95 5.07, 29.58 5.56, 26.52 5.98 C23.46 6.4, 19.06 7.01, 15.59 6.95 C12.12 6.89, 8.31 6, 5.73 5.61 C3.14 5.23, 0.38 5.41, 0.06 4.65 C-0.25 3.9, 1.66 1.88, 3.84 1.11 C6.02 0.33, 9.53 0.15, 13.15 0.01 C16.77 -0.13, 23.22 0.23, 25.56 0.25 C27.91 0.27, 27.37 0.19, 27.21 0.13 M15.66 -1.44 C19.19 -1.5, 24.56 0.52, 27.76 1.36 C30.97 2.21, 33.87 3.22, 34.89 3.62 C35.91 4.01, 35.72 3, 33.88 3.73 C32.03 4.46, 27.47 7.46, 23.83 8 C20.18 8.53, 15.45 7.36, 12 6.94 C8.55 6.52, 5.11 6.34, 3.11 5.47 C1.1 4.6, -0.29 2.38, -0.05 1.74 C0.18 1.09, 1.58 1.9, 4.52 1.62 C7.46 1.34, 15.55 0.21, 17.6 0.07 C19.64 -0.07, 17.09 0.53, 16.8 0.79" stroke="none" stroke-width="0" fill="#fff"></path><path d="M17.41 -0.3 C21 -0.41, 25.84 0.4, 28.77 0.98 C31.7 1.56, 34.45 2.43, 34.99 3.18 C35.54 3.93, 33.83 4.87, 32.02 5.49 C30.22 6.1, 27.58 6.67, 24.15 6.88 C20.72 7.1, 15.19 7.02, 11.45 6.79 C7.71 6.56, 3.66 6.24, 1.71 5.51 C-0.24 4.77, -0.85 3.04, -0.26 2.39 C0.33 1.73, 1.69 2.01, 5.23 1.59 C8.77 1.16, 17.54 -0.11, 20.99 -0.16 C24.43 -0.22, 25.93 1.03, 25.9 1.26 M16.53 -1.28 C19.94 -1.42, 24.83 0.88, 27.76 1.69 C30.68 2.5, 33.49 3.24, 34.07 3.59 C34.66 3.93, 32.92 3.4, 31.28 3.75 C29.64 4.11, 27.52 5.42, 24.23 5.71 C20.94 6, 15.28 5.8, 11.56 5.48 C7.85 5.16, 3.93 4.22, 1.93 3.76 C-0.07 3.3, -1.03 3.43, -0.42 2.72 C0.18 2, 2.58 -0.15, 5.58 -0.54 C8.58 -0.94, 15.64 0.49, 17.58 0.35 C19.51 0.21, 17.28 -1.19, 17.18 -1.39" stroke="#0a11d3" stroke-width="1" fill="none"></path></g><g stroke-linecap="round" transform="translate(789.6973994984717 370.0634131600137) rotate(0 2.523533554098549 2.7388064164686625)"><path d="M3.27 -0.4 C3.95 -0.58, 4.11 0.34, 4.41 0.67 C4.71 1, 5.08 1.06, 5.07 1.6 C5.07 2.14, 4.66 3.17, 4.39 3.9 C4.12 4.62, 3.95 5.71, 3.45 5.95 C2.95 6.19, 1.76 5.51, 1.39 5.33 C1.02 5.16, 1.53 5.34, 1.24 4.91 C0.95 4.47, -0.27 3.6, -0.35 2.74 C-0.44 1.88, 0.21 0.33, 0.74 -0.28 C1.27 -0.88, 2.46 -0.85, 2.83 -0.89 C3.2 -0.94, 3.1 -0.74, 2.98 -0.55 M1.07 0.31 C1.62 0.51, 4.01 1.03, 4.83 1.57 C5.64 2.1, 6.2 3.13, 5.96 3.5 C5.72 3.88, 3.61 3.6, 3.41 3.84 C3.2 4.09, 4.98 4.69, 4.71 4.98 C4.44 5.26, 2.5 5.73, 1.78 5.55 C1.06 5.38, 0.92 4.64, 0.4 3.95 C-0.11 3.26, -1.51 1.73, -1.32 1.42 C-1.12 1.11, 0.92 2.21, 1.57 2.08 C2.22 1.94, 2.3 1.03, 2.58 0.61 C2.86 0.2, 3.03 -0.54, 3.23 -0.41" stroke="none" stroke-width="0" fill="#fff"></path><path d="M2.35 0.66 C2.81 0.73, 3.93 1.33, 4.44 1.59 C4.94 1.84, 5.29 1.6, 5.37 2.18 C5.46 2.76, 5.27 4.54, 4.95 5.06 C4.62 5.57, 3.98 5.35, 3.41 5.27 C2.85 5.18, 2.04 4.85, 1.56 4.56 C1.08 4.26, 0.86 4.04, 0.52 3.51 C0.18 2.97, -0.68 2.01, -0.47 1.37 C-0.27 0.74, 1.2 -0.04, 1.74 -0.3 C2.28 -0.56, 2.38 -0.16, 2.78 -0.17 C3.17 -0.18, 3.96 -0.42, 4.12 -0.34 M1.25 -0.53 C1.67 -0.47, 4.28 0.22, 5.02 0.54 C5.77 0.87, 6.02 0.64, 5.72 1.42 C5.42 2.21, 3.8 4.55, 3.24 5.24 C2.67 5.93, 2.81 5.61, 2.33 5.56 C1.86 5.51, 0.96 5.29, 0.38 4.94 C-0.2 4.58, -1.04 3.96, -1.13 3.41 C-1.21 2.87, -0.23 2.08, -0.12 1.68 C-0.01 1.27, -0.95 1.27, -0.45 0.99 C0.05 0.7, 2.63 0.15, 2.88 -0.04 C3.13 -0.24, 1.33 -0.09, 1.07 -0.2" stroke="#0a11d3" stroke-width="1" fill="none"></path></g><g stroke-linecap="round" transform="translate(789.6973994984717 382.0867630281735) rotate(0 2.523533554098549 2.7388064164686625)"><path d="M1.32 0.46 C1.67 0.12, 3.05 0.16, 3.52 0.27 C3.99 0.37, 3.93 0.57, 4.15 1.08 C4.37 1.58, 4.75 2.7, 4.85 3.28 C4.95 3.86, 5.16 4.04, 4.76 4.55 C4.37 5.06, 2.99 6.36, 2.46 6.34 C1.93 6.32, 1.93 4.96, 1.59 4.41 C1.25 3.86, 0.8 3.61, 0.43 3.04 C0.07 2.47, -0.72 1.64, -0.6 1.01 C-0.47 0.38, 0.81 -0.41, 1.18 -0.73 C1.55 -1.05, 1.49 -1.09, 1.64 -0.92 M3.23 0.72 C3.98 1.17, 4.85 1.78, 5.36 1.89 C5.87 2.01, 6.48 0.74, 6.29 1.39 C6.1 2.04, 4.83 5.1, 4.22 5.79 C3.62 6.48, 3.11 5.65, 2.67 5.55 C2.22 5.45, 1.98 5.73, 1.54 5.2 C1.1 4.67, 0.38 2.81, 0 2.36 C-0.37 1.92, -1.15 2.83, -0.7 2.51 C-0.26 2.19, 1.95 0.75, 2.66 0.45 C3.37 0.16, 3.57 0.6, 3.53 0.74 C3.5 0.89, 2.37 1.26, 2.45 1.33" stroke="none" stroke-width="0" fill="#fff"></path><path d="M3.81 0.28 C4.39 0.5, 5.27 1, 5.44 1.5 C5.61 2, 4.87 2.71, 4.82 3.26 C4.78 3.81, 5.51 4.44, 5.16 4.81 C4.8 5.18, 3.47 5.41, 2.67 5.48 C1.88 5.55, 0.89 5.66, 0.38 5.24 C-0.13 4.81, -0.24 3.41, -0.39 2.93 C-0.55 2.45, -0.69 2.84, -0.53 2.34 C-0.36 1.85, -0.05 0.22, 0.59 -0.02 C1.22 -0.27, 2.84 0.69, 3.28 0.89 C3.72 1.1, 3.21 1.28, 3.23 1.21 M3.17 1.19 C3.74 1.75, 4.61 2.27, 4.76 2.42 C4.91 2.57, 4.04 1.85, 4.08 2.11 C4.12 2.38, 5.27 3.67, 4.99 4.01 C4.71 4.36, 3.2 4.33, 2.42 4.18 C1.63 4.03, 0.79 3.36, 0.27 3.11 C-0.24 2.86, -0.63 3.24, -0.69 2.68 C-0.74 2.11, -0.55 0.08, -0.04 -0.3 C0.46 -0.68, 1.73 0.55, 2.35 0.41 C2.97 0.27, 3.48 -0.93, 3.66 -1.14 C3.84 -1.34, 3.6 -1.19, 3.43 -0.81" stroke="#0a11d3" stroke-width="1" fill="none"></path></g><g stroke-linecap="round" transform="translate(789.6973994984717 395.1545467836234) rotate(0 2.523533554098549 2.7388064164686625)"><path d="M3.88 0.32 C4.23 0.49, 4.75 0.47, 4.88 0.96 C5 1.45, 4.76 2.49, 4.62 3.27 C4.47 4.04, 4.43 5.26, 4 5.63 C3.56 6, 2.4 5.5, 2 5.47 C1.61 5.43, 2.02 5.78, 1.63 5.43 C1.23 5.09, -0.15 4.28, -0.37 3.42 C-0.58 2.55, 0.01 0.94, 0.33 0.23 C0.65 -0.49, 1.1 -0.73, 1.54 -0.87 C1.98 -1.01, 2.74 -0.83, 2.96 -0.63 C3.18 -0.42, 2.77 0.1, 2.87 0.35 M2.78 0.97 C3.68 0.99, 4.61 1.52, 4.75 1.62 C4.89 1.72, 3.35 1.27, 3.6 1.56 C3.84 1.85, 6.16 2.72, 6.21 3.36 C6.26 3.99, 4.57 5.04, 3.89 5.36 C3.21 5.68, 2.91 5.56, 2.13 5.27 C1.36 4.98, -0.53 3.83, -0.77 3.64 C-1.02 3.46, 0.43 4.5, 0.67 4.16 C0.9 3.81, 0.3 2.34, 0.66 1.58 C1.02 0.82, 2.36 -0.36, 2.81 -0.42 C3.26 -0.48, 3.32 1.17, 3.36 1.24" stroke="none" stroke-width="0" fill="#fff"></path><path d="M3.23 0.91 C3.85 0.85, 4.5 0.37, 4.85 0.82 C5.2 1.28, 5.4 3.05, 5.35 3.65 C5.3 4.26, 4.96 4.29, 4.55 4.47 C4.15 4.65, 3.42 4.72, 2.91 4.74 C2.39 4.76, 2 4.9, 1.44 4.59 C0.89 4.27, -0.32 3.46, -0.41 2.84 C-0.49 2.23, 0.68 1.33, 0.92 0.87 C1.16 0.42, 0.49 0.3, 1.04 0.1 C1.58 -0.11, 3.58 -0.44, 4.19 -0.37 C4.8 -0.3, 4.81 0.23, 4.69 0.53 M2.82 -0.03 C3.64 -0.24, 4.27 -1.02, 4.37 -0.55 C4.46 -0.09, 3.45 2.06, 3.37 2.78 C3.29 3.5, 4.02 3.46, 3.89 3.77 C3.77 4.08, 3.15 4.49, 2.63 4.65 C2.11 4.82, 1.12 4.87, 0.77 4.77 C0.42 4.67, 0.88 4.29, 0.53 4.04 C0.17 3.78, -1.4 3.74, -1.35 3.25 C-1.3 2.75, 0.54 1.63, 0.85 1.06 C1.16 0.49, 0.5 0.13, 0.49 -0.18 C0.47 -0.49, 0.42 -1.1, 0.78 -0.8" stroke="#0a11d3" stroke-width="1" fill="none"></path></g><g stroke-linecap="round"><g transform="translate(840.830287419064 279.8905303664175) rotate(0 -69.41362538023918 27.808516860338216)" fill-rule="evenodd"><path d="M-69.05 0.89 L-93.75 13.61 L-92.86 40.66 L-68.19 55.59 L-44.33 41.06 L-43.72 14.73 L-69.57 0.63" stroke="none" stroke-width="0" fill="#40c057" fill-rule="evenodd"></path><path d="M-68.55 -1.7 C-78.16 6.64, -88.93 9.47, -92.62 15.08 M-68.22 -0.49 C-78.2 5.66, -87.65 11.87, -94.67 14.03 M-94.67 13.09 C-93.4 22.22, -93.89 27.37, -95.1 42.58 M-93.18 14.71 C-93.84 22.98, -93.76 32.26, -93.98 41.44 M-95.69 42.78 C-86.55 45.96, -76.19 51.61, -70.68 56.69 M-93.28 41.65 C-84.44 46.92, -75.04 52.44, -68.14 57.32 M-70.76 56.49 C-61.43 54.4, -58.03 47.54, -44.98 42.59 M-69.42 57.28 C-63.24 52.43, -57.67 47.77, -44.32 41.34 M-43.33 40.24 C-46.21 34.25, -44.76 30.85, -43.95 13.16 M-45.38 40.36 C-43.96 29.78, -43.73 19.3, -45.56 12.68 M-43.14 13.7 C-53.88 8.64, -65.23 4.83, -67.79 -0.57 M-43.78 14.15 C-49.38 10.5, -55.23 8.26, -68.52 0.38 M-69.08 0 C-69.08 0, -69.08 0, -69.08 0 M-69.08 0 C-69.08 0, -69.08 0, -69.08 0" stroke="#000000" stroke-width="1" fill="none"></path></g></g><g stroke-linecap="round"><g transform="translate(776.7161418801745 319.0929423655489) rotate(0 -5.532883793056385 -11.936644746036649)" fill-rule="evenodd"><path d="M-13.58 -16.77 L-14.9 0.92 L-16.06 1.18 L-19.42 0.11 L-19.48 -8.46 L-19.53 -23.1 L-16.9 -26.54 L-12.36 -24.94 L-0.79 -7.08 L3.06 -23.4 L1.84 -23.86 L5.31 -23.11 L4.35 0.34 L2.07 2.11 L0.84 -1.36 L-14.4 -18.43" stroke="none" stroke-width="0" fill="#ffff" fill-rule="evenodd"></path><path d="M-13.85 -18.87 C-13.7 -17.37, -13.64 -11.68, -13.83 -8.72 C-14.02 -5.76, -14.36 -2.51, -14.99 -1.11 C-15.62 0.28, -17.07 1.59, -17.61 -0.34 C-18.15 -2.27, -18.36 -8.93, -18.26 -12.7 C-18.16 -16.46, -17.79 -21.11, -17.02 -22.96 C-16.26 -24.8, -15.46 -25.13, -13.67 -23.76 C-11.88 -22.4, -8.83 -17.43, -6.3 -14.76 C-3.77 -12.09, 0.25 -6.15, 1.52 -7.73 C2.79 -9.32, 0.42 -21.61, 1.33 -24.28 C2.23 -26.94, 6.14 -25.38, 6.96 -23.71 C7.77 -22.05, 6.44 -18.17, 6.25 -14.3 C6.05 -10.44, 6.91 -2.8, 5.79 -0.53 C4.67 1.73, 1.95 0.69, -0.47 -0.7 C-2.88 -2.1, -6.45 -5.86, -8.69 -8.89 C-10.94 -11.92, -13.04 -17.58, -13.91 -18.88 M-15.14 -16.79 C-15.08 -15.64, -14.5 -13.22, -14.66 -10.46 C-14.82 -7.7, -15.72 -2.12, -16.09 -0.21 C-16.46 1.69, -16.37 3.5, -16.88 0.97 C-17.4 -1.56, -18.86 -11.31, -19.18 -15.38 C-19.49 -19.46, -19.74 -21.88, -18.76 -23.46 C-17.79 -25.03, -15.23 -26.28, -13.33 -24.81 C-11.44 -23.34, -9.65 -17.8, -7.4 -14.63 C-5.15 -11.46, -1.38 -4.04, 0.16 -5.79 C1.7 -7.53, 1.18 -22.31, 1.86 -25.09 C2.54 -27.87, 3.16 -24.14, 4.24 -22.49 C5.32 -20.83, 8.01 -18.72, 8.33 -15.14 C8.65 -11.56, 7.75 -3.35, 6.17 -1 C4.58 1.36, 1.3 0.36, -1.18 -1.01 C-3.65 -2.38, -6.74 -6.37, -8.67 -9.23 C-10.59 -12.09, -11.68 -16.54, -12.74 -18.17" stroke="#000000" stroke-width="1" fill="none"></path></g></g><g stroke-linecap="round"><g transform="translate(151.5047421558479 49.75783579754517) rotate(0 99.33706665039062 121.41194799804688)"><path d="M0 0 C27.46 1.49, 131.65 -33.56, 164.76 8.93 C197.87 51.43, 193.02 213.96, 198.67 254.96 M0 0 C27.46 1.49, 131.65 -33.56, 164.76 8.93 C197.87 51.43, 193.02 213.96, 198.67 254.96" stroke="#000000" stroke-width="1" fill="none"></path></g><g transform="translate(151.5047421558479 49.75783579754517) rotate(0 99.33706665039062 121.41194799804688)"><path d="M186.84 227.39 C189.71 234.08, 192.58 240.77, 198.67 254.96 M186.84 227.39 C189.66 233.95, 192.47 240.5, 198.67 254.96" stroke="#000000" stroke-width="1" fill="none"></path></g><g transform="translate(151.5047421558479 49.75783579754517) rotate(0 99.33706665039062 121.41194799804688)"><path d="M207.33 226.24 C205.23 233.21, 203.13 240.17, 198.67 254.96 M207.33 226.24 C205.27 233.07, 203.22 239.89, 198.67 254.96" stroke="#000000" stroke-width="1" fill="none"></path></g></g><g transform="translate(354.4870419605354 191.85573618817017) rotate(0 42 12.5)"><text x="0" y="18" font-family="Virgil, Segoe UI Emoji" font-size="20px" fill="#c92a2a" text-anchor="start" style="white-space: pre;" direction="ltr">Discount</text></g><g stroke-linecap="round"><g transform="translate(314.04252291756666 351.6940540592639) rotate(0 -83.44583129882812 -144.44461822509766)"><path d="M0 0 C-7.15 -43.2, -15.09 -211.49, -42.9 -259.19 C-70.72 -306.89, -146.23 -281.69, -166.89 -286.19 M0 0 C-7.15 -43.2, -15.09 -211.49, -42.9 -259.19 C-70.72 -306.89, -146.23 -281.69, -166.89 -286.19" stroke="#c92a2a" stroke-width="1" fill="none"></path></g><g transform="translate(314.04252291756666 351.6940540592639) rotate(0 -83.44583129882812 -144.44461822509766)"><path d="M-139.12 -297.54 C-150.08 -293.06, -161.04 -288.58, -166.89 -286.19 M-139.12 -297.54 C-146.35 -294.59, -153.58 -291.63, -166.89 -286.19" stroke="#c92a2a" stroke-width="1" fill="none"></path></g><g transform="translate(314.04252291756666 351.6940540592639) rotate(0 -83.44583129882812 -144.44461822509766)"><path d="M-138.32 -277.04 C-149.6 -280.65, -160.87 -284.26, -166.89 -286.19 M-138.32 -277.04 C-145.76 -279.42, -153.19 -281.8, -166.89 -286.19" stroke="#c92a2a" stroke-width="1" fill="none"></path></g></g><g stroke-linecap="round"><g transform="translate(770.0670387053271 277.10897783313555) rotate(0 -193.26639811197919 24.677386067708312)"><path d="M0 0 C-21.61 -2.35, -65.23 -25.19, -129.66 -14.11 C-194.08 -3.03, -343.72 53.04, -386.53 66.47 M0 0 C-21.61 -2.35, -65.23 -25.19, -129.66 -14.11 C-194.08 -3.03, -343.72 53.04, -386.53 66.47" stroke="#000000" stroke-width="1" fill="none"></path></g><g transform="translate(770.0670387053271 277.10897783313555) rotate(0 -193.26639811197919 24.677386067708312)"><path d="M-363.17 47.65 C-369.75 52.96, -376.34 58.26, -386.53 66.47 M-363.17 47.65 C-370 53.16, -376.84 58.67, -386.53 66.47" stroke="#000000" stroke-width="1" fill="none"></path></g><g transform="translate(770.0670387053271 277.10897783313555) rotate(0 -193.26639811197919 24.677386067708312)"><path d="M-356.54 67.08 C-364.99 66.91, -373.44 66.74, -386.53 66.47 M-356.54 67.08 C-365.31 66.9, -374.09 66.72, -386.53 66.47" stroke="#000000" stroke-width="1" fill="none"></path></g></g><g transform="translate(543.4864994258131 238.18181311959404) rotate(0 22.628078884548643 46.28470680930414)"><text x="0" y="64.5694136186083" font-family="Virgil, Segoe UI Emoji" font-size="74.05553089488666px" fill="#c92a2a" text-anchor="start" style="white-space: pre;" direction="ltr">X</text></g><g transform="translate(150.71706311938976 88.90842309138208) rotate(0 61 17.5)"><text x="0" y="25" font-family="Virgil, Segoe UI Emoji" font-size="28px" fill="#000000" text-anchor="start" style="white-space: pre;" direction="ltr">http:500</text></g></svg>