<svg version="1.1" xmlns="http://www.w3.org/2000/svg" viewBox="0 0 950.6866836713998 762.4692615787951" width="950.6866836713998" height="762.4692615787951">
  <!-- svg-source:excalidraw -->
  
  <defs>
    <style>
      @font-face {
        font-family: "Virgil";
        src: url("https://excalidraw.com/Virgil.woff2");
      }
      @font-face {
        font-family: "Cascadia";
        src: url("https://excalidraw.com/Cascadia.woff2");
      }
    </style>
  </defs>
  <rect x="0" y="0" width="950.6866836713998" height="762.4692615787951" fill="#ffffff"></rect><g stroke-linecap="round" transform="translate(11.754610579215466 10) rotate(0 63.941917866069474 38.268516949888834)"><path d="M-1.13 0.29 C31.29 0.68, 66.47 2.45, 128.59 -0.54 M0.1 0.57 C44.54 0.26, 89.88 2.1, 127.24 -0.47 M126.31 1.2 C128.01 21.19, 129.05 39.88, 127.65 76.66 M128.19 -0.85 C127.29 16.45, 128.45 34.1, 128.01 75.55 M129.46 78.14 C95.67 76.84, 59.43 78.01, 0.29 75.63 M128.78 77.11 C92.2 77.45, 56.14 77.2, -0.68 75.54 M0.8 77.69 C-0.85 49.98, 1.08 20.18, -0.9 -1.11 M-0.78 76.88 C-0.35 46.97, -1.18 18.39, -0.86 -0.89" stroke="#000000" stroke-width="1" fill="none"></path></g><g stroke-linecap="round"><g transform="translate(10.679012828320253 20.71653439224417) rotate(0 64.84833345700343 0.12960002568550522)"><path d="M-0.68 0.17 C20.65 0.31, 106.35 -0.42, 128.07 -0.32 M1.17 -0.78 C22.87 -0.37, 109.02 1.12, 130.38 1.04" stroke="#000000" stroke-width="1" fill="none"></path></g></g><g stroke-linecap="round" transform="translate(16.242646048170343 14.27156980000882) rotate(0 2.5009765625 2.5009765625)"><path d="M2.5 0 C3.01 -0.03, 3.7 0.24, 4.11 0.59 C4.52 0.93, 4.87 1.54, 4.96 2.07 C5.06 2.59, 4.93 3.29, 4.67 3.75 C4.4 4.22, 3.86 4.67, 3.36 4.85 C2.85 5.03, 2.15 5.03, 1.65 4.85 C1.14 4.67, 0.6 4.22, 0.34 3.75 C0.07 3.29, -0.06 2.59, 0.04 2.07 C0.13 1.54, 0.48 0.93, 0.89 0.59 C1.3 0.24, 2.23 0.09, 2.5 0 C2.77 -0.09, 2.5 0.01, 2.5 0.05 M2.5 0 C3.01 -0.03, 3.7 0.24, 4.11 0.59 C4.52 0.93, 4.87 1.54, 4.96 2.07 C5.06 2.59, 4.93 3.29, 4.67 3.75 C4.4 4.22, 3.86 4.67, 3.36 4.85 C2.85 5.03, 2.15 5.03, 1.65 4.85 C1.14 4.67, 0.6 4.22, 0.34 3.75 C0.07 3.29, -0.06 2.59, 0.04 2.07 C0.13 1.54, 0.48 0.93, 0.89 0.59 C1.3 0.24, 2.23 0.09, 2.5 0 C2.77 -0.09, 2.5 0.01, 2.5 0.05" stroke="none" stroke-width="0" fill="#fa5252"></path><path d="M2.5 0 C3.01 -0.03, 3.7 0.24, 4.11 0.59 C4.52 0.93, 4.87 1.54, 4.96 2.07 C5.06 2.59, 4.93 3.29, 4.67 3.75 C4.4 4.22, 3.86 4.67, 3.36 4.85 C2.85 5.03, 2.15 5.03, 1.65 4.85 C1.14 4.67, 0.6 4.22, 0.34 3.75 C0.07 3.29, -0.06 2.59, 0.04 2.07 C0.13 1.54, 0.48 0.93, 0.89 0.59 C1.3 0.24, 2.23 0.09, 2.5 0 C2.77 -0.09, 2.5 0.01, 2.5 0.05 M2.5 0 C3.01 -0.03, 3.7 0.24, 4.11 0.59 C4.52 0.93, 4.87 1.54, 4.96 2.07 C5.06 2.59, 4.93 3.29, 4.67 3.75 C4.4 4.22, 3.86 4.67, 3.36 4.85 C2.85 5.03, 2.15 5.03, 1.65 4.85 C1.14 4.67, 0.6 4.22, 0.34 3.75 C0.07 3.29, -0.06 2.59, 0.04 2.07 C0.13 1.54, 0.48 0.93, 0.89 0.59 C1.3 0.24, 2.23 0.09, 2.5 0 C2.77 -0.09, 2.5 0.01, 2.5 0.05" stroke="#000000" stroke-width="1" fill="none"></path></g><g stroke-linecap="round" transform="translate(26.505341360670343 14.27156980000882) rotate(0 2.5009765625 2.5009765625)"><path d="M2.5 0 C3.01 -0.03, 3.7 0.24, 4.11 0.59 C4.52 0.93, 4.87 1.54, 4.96 2.07 C5.06 2.59, 4.93 3.29, 4.67 3.75 C4.4 4.22, 3.86 4.67, 3.36 4.85 C2.85 5.03, 2.15 5.03, 1.65 4.85 C1.14 4.67, 0.6 4.22, 0.34 3.75 C0.07 3.29, -0.06 2.59, 0.04 2.07 C0.13 1.54, 0.48 0.93, 0.89 0.59 C1.3 0.24, 2.23 0.09, 2.5 0 C2.77 -0.09, 2.5 0.01, 2.5 0.05 M2.5 0 C3.01 -0.03, 3.7 0.24, 4.11 0.59 C4.52 0.93, 4.87 1.54, 4.96 2.07 C5.06 2.59, 4.93 3.29, 4.67 3.75 C4.4 4.22, 3.86 4.67, 3.36 4.85 C2.85 5.03, 2.15 5.03, 1.65 4.85 C1.14 4.67, 0.6 4.22, 0.34 3.75 C0.07 3.29, -0.06 2.59, 0.04 2.07 C0.13 1.54, 0.48 0.93, 0.89 0.59 C1.3 0.24, 2.23 0.09, 2.5 0 C2.77 -0.09, 2.5 0.01, 2.5 0.05" stroke="none" stroke-width="0" fill="#fab005"></path><path d="M2.5 0 C3.01 -0.03, 3.7 0.24, 4.11 0.59 C4.52 0.93, 4.87 1.54, 4.96 2.07 C5.06 2.59, 4.93 3.29, 4.67 3.75 C4.4 4.22, 3.86 4.67, 3.36 4.85 C2.85 5.03, 2.15 5.03, 1.65 4.85 C1.14 4.67, 0.6 4.22, 0.34 3.75 C0.07 3.29, -0.06 2.59, 0.04 2.07 C0.13 1.54, 0.48 0.93, 0.89 0.59 C1.3 0.24, 2.23 0.09, 2.5 0 C2.77 -0.09, 2.5 0.01, 2.5 0.05 M2.5 0 C3.01 -0.03, 3.7 0.24, 4.11 0.59 C4.52 0.93, 4.87 1.54, 4.96 2.07 C5.06 2.59, 4.93 3.29, 4.67 3.75 C4.4 4.22, 3.86 4.67, 3.36 4.85 C2.85 5.03, 2.15 5.03, 1.65 4.85 C1.14 4.67, 0.6 4.22, 0.34 3.75 C0.07 3.29, -0.06 2.59, 0.04 2.07 C0.13 1.54, 0.48 0.93, 0.89 0.59 C1.3 0.24, 2.23 0.09, 2.5 0 C2.77 -0.09, 2.5 0.01, 2.5 0.05" stroke="#000000" stroke-width="1" fill="none"></path></g><g stroke-linecap="round" transform="translate(37.21875782701653 14.722290953855008) rotate(0 2.5009765625 2.5009765625)"><path d="M2.5 0 C3.01 -0.03, 3.7 0.24, 4.11 0.59 C4.52 0.93, 4.87 1.54, 4.96 2.07 C5.06 2.59, 4.93 3.29, 4.67 3.75 C4.4 4.22, 3.86 4.67, 3.36 4.85 C2.85 5.03, 2.15 5.03, 1.65 4.85 C1.14 4.67, 0.6 4.22, 0.34 3.75 C0.07 3.29, -0.06 2.59, 0.04 2.07 C0.13 1.54, 0.48 0.93, 0.89 0.59 C1.3 0.24, 2.23 0.09, 2.5 0 C2.77 -0.09, 2.5 0.01, 2.5 0.05 M2.5 0 C3.01 -0.03, 3.7 0.24, 4.11 0.59 C4.52 0.93, 4.87 1.54, 4.96 2.07 C5.06 2.59, 4.93 3.29, 4.67 3.75 C4.4 4.22, 3.86 4.67, 3.36 4.85 C2.85 5.03, 2.15 5.03, 1.65 4.85 C1.14 4.67, 0.6 4.22, 0.34 3.75 C0.07 3.29, -0.06 2.59, 0.04 2.07 C0.13 1.54, 0.48 0.93, 0.89 0.59 C1.3 0.24, 2.23 0.09, 2.5 0 C2.77 -0.09, 2.5 0.01, 2.5 0.05" stroke="none" stroke-width="0" fill="#40c057"></path><path d="M2.5 0 C3.01 -0.03, 3.7 0.24, 4.11 0.59 C4.52 0.93, 4.87 1.54, 4.96 2.07 C5.06 2.59, 4.93 3.29, 4.67 3.75 C4.4 4.22, 3.86 4.67, 3.36 4.85 C2.85 5.03, 2.15 5.03, 1.65 4.85 C1.14 4.67, 0.6 4.22, 0.34 3.75 C0.07 3.29, -0.06 2.59, 0.04 2.07 C0.13 1.54, 0.48 0.93, 0.89 0.59 C1.3 0.24, 2.23 0.09, 2.5 0 C2.77 -0.09, 2.5 0.01, 2.5 0.05 M2.5 0 C3.01 -0.03, 3.7 0.24, 4.11 0.59 C4.52 0.93, 4.87 1.54, 4.96 2.07 C5.06 2.59, 4.93 3.29, 4.67 3.75 C4.4 4.22, 3.86 4.67, 3.36 4.85 C2.85 5.03, 2.15 5.03, 1.65 4.85 C1.14 4.67, 0.6 4.22, 0.34 3.75 C0.07 3.29, -0.06 2.59, 0.04 2.07 C0.13 1.54, 0.48 0.93, 0.89 0.59 C1.3 0.24, 2.23 0.09, 2.5 0 C2.77 -0.09, 2.5 0.01, 2.5 0.05" stroke="#000000" stroke-width="1" fill="none"></path></g><g stroke-opacity="0.9" fill-opacity="0.9" stroke-linecap="round" transform="translate(53.24581881664375 30.77465983187085) rotate(0 21.360101269687874 21.360101269687874)"><path d="M10.99 2.98 C14.68 0.61, 21.61 -0.97, 26.22 -0.03 C30.83 0.9, 35.99 4.99, 38.65 8.58 C41.32 12.17, 42.52 16.87, 42.21 21.5 C41.9 26.12, 39.58 32.66, 36.79 36.32 C33.99 39.98, 30 42.86, 25.43 43.46 C20.87 44.06, 13.39 42.56, 9.4 39.9 C5.4 37.25, 2.85 31.96, 1.46 27.53 C0.07 23.11, -0.67 17.76, 1.04 13.34 C2.74 8.92, 9.35 3.03, 11.7 1.01 C14.05 -1.01, 14.73 0.62, 15.11 1.24 M11.62 2.52 C15.67 0.3, 22.17 -0.54, 26.8 0.28 C31.44 1.11, 36.68 3.84, 39.42 7.47 C42.15 11.11, 43.74 17.55, 43.21 22.07 C42.69 26.59, 39.6 31.03, 36.26 34.59 C32.92 38.16, 27.7 42.52, 23.15 43.45 C18.6 44.39, 12.71 42.56, 8.96 40.19 C5.21 37.82, 1.79 33.85, 0.66 29.22 C-0.47 24.59, 0.51 16.98, 2.19 12.42 C3.87 7.86, 8.97 3.24, 10.74 1.88 C12.51 0.51, 12.56 4.01, 12.81 4.22" stroke="none" stroke-width="0" fill="#04aaf7"></path><path d="M25.45 -0.6 C29.84 -0.09, 35.07 4.73, 37.87 8.25 C40.66 11.76, 42.29 15.86, 42.23 20.49 C42.16 25.13, 40.47 32.48, 37.49 36.05 C34.51 39.62, 28.88 41.26, 24.36 41.93 C19.83 42.61, 14.2 42.45, 10.34 40.1 C6.48 37.74, 2.59 32.17, 1.19 27.82 C-0.22 23.46, 0.29 18.04, 1.91 13.95 C3.54 9.87, 6.33 5.32, 10.93 3.31 C15.54 1.3, 25.56 1.68, 29.54 1.89 C33.53 2.1, 34.87 4.15, 34.85 4.58 M23.1 1.17 C27.47 1.72, 33.25 4.25, 36.27 7.44 C39.29 10.62, 40.86 15.68, 41.23 20.28 C41.6 24.89, 40.9 31.18, 38.49 35.05 C36.07 38.92, 31.15 42.66, 26.74 43.5 C22.34 44.35, 16.45 42.36, 12.05 40.11 C7.64 37.86, 2.1 34.39, 0.31 30.02 C-1.47 25.64, -0.27 18.26, 1.34 13.85 C2.95 9.44, 5.99 5.61, 9.95 3.57 C13.92 1.52, 22.57 2.02, 25.14 1.58 C27.71 1.14, 25.4 0.8, 25.36 0.92" stroke="#000000" stroke-width="1" fill="none"></path></g><g stroke-linecap="round"><g transform="translate(80.32398287861935 46.9990118963284) rotate(0 -3.466956822748358 6.479860744560767)" fill-rule="evenodd"><path d="M0 0 L-1.83 -0.41 L-7.57 -6.27 L-9.75 -6.1 L-11.36 -4.35 L-12.61 2.37 L-11.27 6.74 L-17.42 8.89 L-18 11.42 L-17.2 13.64 L-15.01 14.04 L-12.38 13.35 L-8.7 9.48 L-3.62 17.87 L-1.49 19.38 L-0.42 18.17 L-3.78 4.8 L-1.52 3.64 L1.39 4.35 L3.16 5.87 L6.21 6.29 L9.24 5.87 L10.81 3.22 L10.8 0.63 L4.22 1.11 L5.49 -5.76 L4.23 -6.26 L2.47 -5.35 L-0.24 -0.92 L0 0" stroke="none" stroke-width="0" fill="#40c057" fill-rule="evenodd"></path><path d="M0 0 C-0.31 -0.07, -0.57 0.63, -1.83 -0.41 C-3.09 -1.46, -5.98 -5.62, -7.57 -6.27 C-9.16 -6.93, -10.52 -5.79, -11.36 -4.35 C-12.2 -2.91, -12.63 0.53, -12.61 2.37 C-12.6 4.22, -10.47 5.65, -11.27 6.74 C-12.07 7.83, -16.44 7.74, -17.42 8.89 C-18.41 10.04, -18.04 12.9, -17.2 13.64 C-16.36 14.39, -13.8 14.04, -12.38 13.35 C-10.96 12.66, -10.16 8.72, -8.7 9.48 C-7.24 10.23, -5 16.42, -3.62 17.87 C-2.24 19.32, -0.39 20.35, -0.42 18.17 C-0.44 15.99, -4.08 7.1, -3.78 4.8 C-3.48 2.5, 0.23 4.17, 1.39 4.35 C2.54 4.53, 1.85 5.61, 3.16 5.87 C4.47 6.12, 7.96 6.74, 9.24 5.87 C10.51 5, 11.64 1.43, 10.8 0.63 C9.97 -0.16, 5.11 2.18, 4.22 1.11 C3.34 0.04, 5.78 -4.68, 5.49 -5.76 C5.19 -6.84, 3.43 -6.15, 2.47 -5.35 C1.52 -4.54, 0.17 -1.81, -0.24 -0.92 C-0.65 -0.03, -0.04 -0.15, 0 0 M0 0 C-0.31 -0.07, -0.57 0.63, -1.83 -0.41 C-3.09 -1.46, -5.98 -5.62, -7.57 -6.27 C-9.16 -6.93, -10.52 -5.79, -11.36 -4.35 C-12.2 -2.91, -12.63 0.53, -12.61 2.37 C-12.6 4.22, -10.47 5.65, -11.27 6.74 C-12.07 7.83, -16.44 7.74, -17.42 8.89 C-18.41 10.04, -18.04 12.9, -17.2 13.64 C-16.36 14.39, -13.8 14.04, -12.38 13.35 C-10.96 12.66, -10.16 8.72, -8.7 9.48 C-7.24 10.23, -5 16.42, -3.62 17.87 C-2.24 19.32, -0.39 20.35, -0.42 18.17 C-0.44 15.99, -4.08 7.1, -3.78 4.8 C-3.48 2.5, 0.23 4.17, 1.39 4.35 C2.54 4.53, 1.85 5.61, 3.16 5.87 C4.47 6.12, 7.96 6.74, 9.24 5.87 C10.51 5, 11.64 1.43, 10.8 0.63 C9.97 -0.16, 5.11 2.18, 4.22 1.11 C3.34 0.04, 5.78 -4.68, 5.49 -5.76 C5.19 -6.84, 3.43 -6.15, 2.47 -5.35 C1.52 -4.54, 0.17 -1.81, -0.24 -0.92 C-0.65 -0.03, -0.04 -0.15, 0 0" stroke="#087f5b" stroke-width="1" fill="none"></path></g></g><g stroke-linecap="round"><g stroke-opacity="0.9" fill-opacity="0.9" transform="translate(54.30488129067129 51.737533395051855) rotate(0 20.955918217581115 -0.7681477987160861)"><path d="M0.43 -0.32 C7.42 -0.38, 35.96 0.31, 42.72 0.38 M-0.81 -1.54 C6.01 -2.03, 34.75 -2.05, 42.1 -1.54" stroke="#000000" stroke-width="1" fill="none"></path></g></g><g stroke-linecap="round"><g stroke-opacity="0.9" fill-opacity="0.9" transform="translate(59.40021032044564 36.303004468085646) rotate(0 14.659303301924325 2.6275724513134264)"><path d="M0 0 C0.13 0.38, 0.09 1.58, 0.77 2.28 C1.46 2.97, 2.81 3.68, 4.1 4.19 C5.4 4.7, 6.64 5.13, 8.54 5.34 C10.43 5.55, 12.97 5.55, 15.48 5.45 C17.99 5.34, 21.44 5.28, 23.58 4.71 C25.72 4.14, 27.36 2.86, 28.32 2.03 C29.27 1.2, 29.15 0.12, 29.32 -0.26 M0 0 C0.13 0.38, 0.09 1.58, 0.77 2.28 C1.46 2.97, 2.81 3.68, 4.1 4.19 C5.4 4.7, 6.64 5.13, 8.54 5.34 C10.43 5.55, 12.97 5.55, 15.48 5.45 C17.99 5.34, 21.44 5.28, 23.58 4.71 C25.72 4.14, 27.36 2.86, 28.32 2.03 C29.27 1.2, 29.15 0.12, 29.32 -0.26" stroke="#000000" stroke-width="1" fill="none"></path></g></g><g stroke-opacity="0.9" fill-opacity="0.9" stroke-linecap="round" transform="translate(67.4741262443651 29.392130202278167) rotate(0 7.7642171765580485 22.41115194065472)"><path d="M3.78 1.46 C5.1 -0.79, 7.76 0.33, 9.36 1.51 C10.95 2.69, 12.36 4.79, 13.34 8.53 C14.32 12.28, 15.23 19.22, 15.23 23.96 C15.23 28.7, 14.33 33.54, 13.34 36.98 C12.35 40.43, 10.88 43.85, 9.28 44.63 C7.67 45.4, 5.34 44.27, 3.7 41.63 C2.07 38.98, -0.03 33.55, -0.53 28.75 C-1.03 23.95, -0.35 17.42, 0.69 12.84 C1.73 8.26, 4.55 3.48, 5.72 1.28 C6.88 -0.92, 7.74 -0.48, 7.69 -0.37 M8.64 0.49 C10.44 1.64, 13.44 6.45, 14.78 10.81 C16.11 15.16, 16.78 21.94, 16.64 26.64 C16.5 31.34, 15.54 35.83, 13.92 39.01 C12.3 42.18, 8.7 45.61, 6.91 45.69 C5.13 45.76, 4.4 42.46, 3.23 39.45 C2.05 36.44, 0.18 31.97, -0.12 27.62 C-0.41 23.26, 0.49 17.6, 1.46 13.31 C2.43 9.03, 4.13 3.97, 5.68 1.92 C7.23 -0.13, 10 1.26, 10.78 1.02 C11.56 0.78, 10.75 -0.04, 10.36 0.48" stroke="#000000" stroke-width="1" fill="none"></path></g><g stroke-linecap="round"><g stroke-opacity="0.9" fill-opacity="0.9" transform="translate(60.91616183007153 68.04009652652655) rotate(0 14.659303301924325 -2.712622320327597)"><path d="M0 0 C0.68 -0.72, 2.68 -3.4, 4.1 -4.32 C5.53 -5.24, 6.64 -5.3, 8.54 -5.52 C10.43 -5.73, 12.97 -5.73, 15.48 -5.63 C17.99 -5.52, 21.44 -5.45, 23.58 -4.86 C25.72 -4.28, 27.36 -2.95, 28.32 -2.1 C29.27 -1.24, 29.15 -0.12, 29.32 0.27 M0 0 C0.68 -0.72, 2.68 -3.4, 4.1 -4.32 C5.53 -5.24, 6.64 -5.3, 8.54 -5.52 C10.43 -5.73, 12.97 -5.73, 15.48 -5.63 C17.99 -5.52, 21.44 -5.45, 23.58 -4.86 C25.72 -4.28, 27.36 -2.95, 28.32 -2.1 C29.27 -1.24, 29.15 -0.12, 29.32 0.27" stroke="#000000" stroke-width="1" fill="none"></path></g></g><g stroke-linecap="round"><g transform="translate(352.5758275674285 268.95281674337053) rotate(0 -55.31947143177814 45.261013027621914)" fill-rule="evenodd"><path d="M-54.69 0.95 L-95.15 24.69 L-96.1 66.76 L-54.8 90.9 L-15.2 64.36 L-13.84 23.38 L-54.26 -0.6" stroke="none" stroke-width="0" fill="#40c057" fill-rule="evenodd"></path><path d="M-53.09 -0.99 C-69.54 7.28, -79.1 13.98, -95.09 22.4 M-53.61 -0.04 C-67.1 7.67, -81.21 14.59, -94.08 22.24 M-95.83 21.88 C-95.87 37.03, -95.41 48.87, -96.13 65.96 M-93.34 23.58 C-94.04 36.62, -93.45 51.97, -94.6 66.53 M-93.01 67.06 C-79.95 74.08, -67.2 80.56, -56.01 91.51 M-93.57 66.26 C-82.04 73.87, -71.52 79.72, -54.58 91.06 M-53.34 91.01 C-40.15 79.61, -24.04 68.75, -17.03 66.74 M-54.98 89.55 C-44.64 83.57, -34.53 77.6, -15.41 65.49 M-16.36 63.14 C-16.7 55.58, -16.6 45.08, -15.68 23.34 M-15.6 65.49 C-14.08 49.99, -15.79 34.99, -14.51 21.28 M-14.77 19.84 C-26.54 12.35, -42.78 7.86, -53.58 -0.33 M-16 20.45 C-27.64 14.29, -40.74 8.12, -55.13 0.23 M-54.22 0 C-54.22 0, -54.22 0, -54.22 0 M-54.22 0 C-54.22 0, -54.22 0, -54.22 0" stroke="#000000" stroke-width="1" fill="none"></path></g></g><g stroke-linecap="round"><g transform="translate(295.7791444839189 318.1092238146809) rotate(0 1.335356983634938 -5.29439610246871)" fill-rule="evenodd"><path d="M-9.88 -14 L-12.97 15.1 L-14.41 14.89 L-18.45 13.85 L-18.48 5.6 L-17.68 -16.61 L-16.33 -23.86 L-13.49 -27.3 L-11.38 -23.09 L10.58 2.12 L13.73 4.26 L13.37 -22.03 L18.48 -27.32 L19.74 -25.2 L23.48 -5.21 L22.17 10.92 L16.82 15.91 L9.56 12.74 L-11.46 -15.73" stroke="none" stroke-width="0" fill="#ffff" fill-rule="evenodd"></path><path d="M-10.44 -14.6 C-10.41 -12.43, -12.05 -5.5, -12.03 -0.87 C-12.01 3.75, -9.24 10.85, -10.34 13.14 C-11.44 15.44, -17.18 16.37, -18.62 12.91 C-20.07 9.44, -19.07 -1.66, -18.99 -7.65 C-18.91 -13.65, -19.73 -20.33, -18.14 -23.07 C-16.55 -25.81, -12.84 -26.01, -9.44 -24.09 C-6.05 -22.16, -1.47 -16.06, 2.23 -11.52 C5.94 -6.97, 10.92 5.13, 12.79 3.18 C14.66 1.23, 12.02 -18.75, 13.43 -23.23 C14.85 -27.72, 20.05 -26.31, 21.29 -23.73 C22.53 -21.14, 21.27 -13.9, 20.89 -7.74 C20.52 -1.58, 20.89 9.64, 19.05 13.23 C17.2 16.82, 13.44 16.16, 9.82 13.81 C6.2 11.46, 0.75 3.72, -2.68 -0.87 C-6.11 -5.46, -9.51 -11.7, -10.76 -13.73 M-11.55 -12.3 C-11.06 -9.95, -10.07 -3.85, -9.91 0.55 C-9.74 4.94, -9.07 11.84, -10.53 14.05 C-12 16.27, -17.05 17.4, -18.68 13.83 C-20.3 10.27, -20.53 -1.05, -20.29 -7.31 C-20.05 -13.57, -19.14 -20.74, -17.23 -23.73 C-15.32 -26.73, -11.95 -27.81, -8.83 -25.31 C-5.7 -22.81, -2.41 -13.26, 1.51 -8.74 C5.43 -4.21, 12.67 4.33, 14.71 1.83 C16.74 -0.66, 12.54 -19.66, 13.74 -23.73 C14.95 -27.79, 20.47 -25.09, 21.95 -22.55 C23.43 -20.01, 23.16 -14.4, 22.61 -8.51 C22.06 -2.61, 20.38 9.1, 18.66 12.8 C16.94 16.5, 15.91 16.1, 12.31 13.69 C8.7 11.28, 0.67 2.67, -2.97 -1.67 C-6.61 -6.01, -8.22 -10.03, -9.54 -12.33" stroke="#000000" stroke-width="1" fill="none"></path></g></g><g stroke-linecap="round" transform="translate(176.33603669874356 204.23796885418568) rotate(0 123.38165283203125 238.43002319335938)"><path d="M0 0 C67.03 0, 134.05 0, 246.76 0 M0 0 C61.89 0, 123.78 0, 246.76 0 M246.76 0 C246.76 124.66, 246.76 249.31, 246.76 476.86 M246.76 0 C246.76 134.62, 246.76 269.24, 246.76 476.86 M246.76 476.86 C188.28 476.86, 129.79 476.86, 0 476.86 M246.76 476.86 C189.6 476.86, 132.44 476.86, 0 476.86 M0 476.86 C0 297.12, 0 117.39, 0 0 M0 476.86 C0 307.94, 0 139.03, 0 0" stroke="#000000" stroke-width="1" fill="none"></path></g><g transform="translate(313.4064102338998 218.9693226139513) rotate(0 27 12.5)"><text x="0" y="18" font-family="Virgil, Segoe UI Emoji" font-size="20px" fill="#000000" text-anchor="start" style="white-space: pre;" direction="ltr">Offer</text></g><g transform="translate(215.2992324995248 421.78038517374085) rotate(0 85.12359619140625 43.430406220105226)"><text x="0" y="12.372162488042086" font-family="Virgil, Segoe UI Emoji" font-size="13.897729990433675px" fill="#000000" text-anchor="start" style="white-space: pre;" direction="ltr">UpdateOffre() {</text><text x="0" y="29.744324976084172" font-family="Virgil, Segoe UI Emoji" font-size="13.897729990433675px" fill="#000000" text-anchor="start" style="white-space: pre;" direction="ltr">   {id: 'x', unit: 'Kg', ... }</text><text x="0" y="47.11648746412626" font-family="Virgil, Segoe UI Emoji" font-size="13.897729990433675px" fill="#000000" text-anchor="start" style="white-space: pre;" direction="ltr">     To</text><text x="0" y="64.48864995216834" font-family="Virgil, Segoe UI Emoji" font-size="13.897729990433675px" fill="#000000" text-anchor="start" style="white-space: pre;" direction="ltr">   {id: 'x', unit: 'T', ... }</text><text x="0" y="81.86081244021042" font-family="Virgil, Segoe UI Emoji" font-size="13.897729990433675px" fill="#000000" text-anchor="start" style="white-space: pre;" direction="ltr">}</text></g><g stroke-linecap="round"><g transform="translate(288.61985892972734 585.1426040708191) rotate(0 19.92850056861738 16.965575122401276)" fill-rule="evenodd"><path d="M1.21 -4.12 L-1.02 40.32 L8.61 41.56 L20.98 42.48 L39.83 39.66 L41.02 -5.79 L36.38 -7.94 L18.5 -8.78 L11.31 -9.92 L0.68 -4.24" stroke="none" stroke-width="0" fill="#228be6" fill-rule="evenodd"></path><path d="M-0.05 -4.68 C0.18 1.51, 1.27 25.57, 1.11 32.88 C0.96 40.2, -1.25 37.94, -0.97 39.2 C-0.68 40.45, 1.08 39.89, 2.83 40.39 C4.59 40.9, 6.56 41.86, 9.56 42.23 C12.55 42.6, 17.09 42.53, 20.8 42.6 C24.51 42.67, 28.88 43.16, 31.84 42.65 C34.79 42.15, 37.12 40.47, 38.53 39.57 C39.94 38.66, 39.97 38.09, 40.28 37.21 C40.58 36.33, 40.65 40.93, 40.37 34.29 C40.09 27.64, 38.57 3.87, 38.62 -2.64 C38.66 -9.14, 40.78 -3.86, 40.65 -4.74 C40.52 -5.61, 39.37 -7.28, 37.84 -7.91 C36.32 -8.53, 34.65 -8.49, 31.5 -8.49 C28.36 -8.5, 22.7 -7.97, 18.98 -7.93 C15.25 -7.9, 11.85 -8.64, 9.17 -8.29 C6.48 -7.94, 4.32 -6.36, 2.86 -5.83 C1.4 -5.31, 0.91 -5.23, 0.41 -5.13 C-0.08 -5.04, 0.1 -5.46, -0.12 -5.27 M-1.52 -5.58 C-1.33 0.67, 0.2 26.72, 0.69 33.86 C1.18 41, 0.96 36, 1.43 37.28 C1.9 38.56, 2.36 40.63, 3.5 41.55 C4.65 42.47, 5.21 42.76, 8.3 42.78 C11.38 42.8, 18.04 41.81, 21.99 41.65 C25.94 41.5, 29.45 42.27, 32.01 41.85 C34.56 41.44, 36.18 39.63, 37.33 39.16 C38.47 38.69, 38.21 39.94, 38.89 39.04 C39.57 38.13, 41.5 40.59, 41.41 33.72 C41.32 26.86, 38.6 4.3, 38.34 -2.14 C38.07 -8.59, 39.79 -4.39, 39.82 -4.95 C39.85 -5.52, 40.03 -4.88, 38.52 -5.53 C37.01 -6.18, 33.99 -8.47, 30.76 -8.87 C27.53 -9.26, 22.59 -8.22, 19.14 -7.89 C15.69 -7.57, 12.88 -6.85, 10.06 -6.92 C7.24 -6.99, 4.01 -8.67, 2.23 -8.32 C0.45 -7.97, 0 -5.36, -0.63 -4.84 C-1.26 -4.31, -1.51 -5.1, -1.55 -5.17" stroke="#0a11d3" stroke-width="1" fill="none"></path></g></g><g stroke-linecap="round"><g transform="translate(288.62743739527696 609.3966334776737) rotate(0 19.616012670168686 2.8349942189849457)"><path d="M0.29 0.76 C0.17 0.9, -1.04 0.07, -0.02 0.57 C1 1.08, 4.45 3.19, 6.4 3.81 C8.36 4.43, 9.23 4.34, 11.73 4.29 C14.23 4.25, 17.97 3.86, 21.4 3.56 C24.83 3.26, 29.27 2.93, 32.31 2.5 C35.34 2.08, 38.36 1.39, 39.62 0.99 C40.87 0.59, 39.91 0.25, 39.82 0.09 M-1.02 0.24 C-0.83 0.51, 0.95 1.34, 2.13 1.61 C3.32 1.89, 4.42 1.22, 6.07 1.89 C7.71 2.55, 9.69 5.3, 12.02 5.61 C14.36 5.91, 16.46 3.89, 20.09 3.73 C23.72 3.57, 30.97 4.75, 33.81 4.65 C36.65 4.55, 36.32 3.9, 37.14 3.13 C37.96 2.36, 38.15 0.73, 38.73 0.04" stroke="#0a11d3" stroke-width="1" fill="none"></path></g></g><g stroke-linecap="round"><g transform="translate(287.75188433108724 594.5181883003286) rotate(0 20.171160176407056 1.6905767305150334)"><path d="M1.01 -1.32 C1.03 -0.93, -0.79 1.6, 0.11 2.33 C1 3.07, 4.41 2.79, 6.4 3.1 C8.38 3.41, 9.65 4.03, 12.02 4.21 C14.4 4.39, 17.47 4.12, 20.67 4.16 C23.87 4.2, 28.29 4.94, 31.22 4.45 C34.15 3.96, 36.7 2.17, 38.24 1.21 C39.78 0.25, 40.12 -0.99, 40.49 -1.31 M0.08 0.74 C0.47 0.76, 1.32 0.02, 2.32 0.64 C3.32 1.26, 4.36 3.66, 6.05 4.47 C7.75 5.27, 9.72 5.45, 12.48 5.48 C15.24 5.51, 19.35 4.9, 22.63 4.64 C25.91 4.39, 29.48 4.76, 32.16 3.95 C34.84 3.14, 37.44 0.8, 38.7 -0.2 C39.97 -1.21, 39.69 -1.77, 39.75 -2.1" stroke="#0a11d3" stroke-width="1" fill="none"></path></g></g><g stroke-linecap="round" transform="translate(287.066446060657 576.9137993711126) rotate(0 19.822707104009794 4.008993379437072)"><path d="M10.74 1.25 C14.07 0.91, 19.12 0.61, 23.35 0.53 C27.58 0.45, 33.42 -0.02, 36.11 0.75 C38.79 1.51, 39.66 4.23, 39.45 5.14 C39.25 6.06, 37.69 5.67, 34.86 6.25 C32.03 6.83, 26.82 8.4, 22.47 8.63 C18.12 8.86, 12.38 8.1, 8.75 7.64 C5.12 7.18, 1.87 6.61, 0.67 5.87 C-0.52 5.13, -0.53 4.14, 1.61 3.2 C3.75 2.27, 10.91 0.92, 13.51 0.26 C16.11 -0.39, 17.07 -0.71, 17.23 -0.71 M24.92 -0.37 C28.52 -0.18, 31.68 0.13, 34.31 0.86 C36.94 1.59, 40.86 3.04, 40.7 4.01 C40.55 4.98, 36.61 6.03, 33.38 6.67 C30.15 7.32, 25.5 7.85, 21.32 7.88 C17.14 7.9, 11.93 7.4, 8.29 6.82 C4.65 6.24, 0.55 5.32, -0.51 4.39 C-1.56 3.45, 0.03 1.71, 1.96 1.22 C3.88 0.73, 7.05 1.43, 11.04 1.45 C15.03 1.47, 23.5 1.48, 25.88 1.34 C28.26 1.2, 25.55 0.66, 25.33 0.59" stroke="none" stroke-width="0" fill="#fff"></path><path d="M26.75 0.49 C30.46 0.72, 34.56 1.28, 36.54 2.12 C38.52 2.96, 39.31 4.72, 38.62 5.53 C37.94 6.34, 35.46 6.66, 32.43 6.95 C29.41 7.25, 24.6 7.31, 20.47 7.31 C16.35 7.3, 11.18 7.49, 7.66 6.93 C4.15 6.37, 0.08 4.73, -0.62 3.97 C-1.31 3.21, 1.12 3.1, 3.48 2.36 C5.85 1.63, 9.62 -0.08, 13.57 -0.47 C17.53 -0.86, 24.86 -0.3, 27.22 0.01 C29.58 0.32, 27.87 1.25, 27.72 1.4 M29.01 0.36 C32.46 0.42, 36.04 0.45, 37.85 1.42 C39.67 2.39, 41.04 5.3, 39.88 6.19 C38.72 7.07, 34.5 6.48, 30.91 6.71 C27.33 6.94, 22.74 7.59, 18.38 7.56 C14.03 7.52, 7.84 6.95, 4.78 6.5 C1.73 6.05, 0.14 5.54, 0.05 4.86 C-0.04 4.18, 1.63 3.05, 4.22 2.44 C6.81 1.83, 11.46 1.63, 15.59 1.2 C19.72 0.77, 26.7 -0.25, 28.97 -0.12 C31.24 0.01, 29.51 1.71, 29.22 1.95" stroke="#0a11d3" stroke-width="1" fill="none"></path></g><g stroke-linecap="round" transform="translate(319.41109893389546 588.029710276789) rotate(0 2.9052077431074395 3.1530397505807173)"><path d="M3.62 -1 C4.28 -0.97, 4.9 0.52, 5.11 1.08 C5.32 1.63, 4.67 1.64, 4.88 2.33 C5.09 3.02, 6.61 4.54, 6.38 5.22 C6.15 5.89, 4.11 6.25, 3.49 6.37 C2.87 6.49, 3.11 6.22, 2.65 5.94 C2.19 5.65, 1.04 5.19, 0.72 4.66 C0.4 4.12, 0.56 3.45, 0.73 2.72 C0.9 2, 1.35 0.77, 1.73 0.29 C2.11 -0.19, 2.93 -0.11, 3.01 -0.16 C3.09 -0.22, 2.29 -0.21, 2.22 -0.05 M3.29 -1.28 C3.91 -1.03, 4.21 1.88, 4.59 2.54 C4.96 3.21, 5.51 2.35, 5.55 2.71 C5.58 3.06, 5.22 4.19, 4.79 4.68 C4.35 5.18, 3.62 5.74, 2.93 5.68 C2.23 5.62, 1.21 4.58, 0.61 4.33 C0 4.08, -0.45 4.6, -0.7 4.18 C-0.95 3.76, -1.46 2.21, -0.88 1.8 C-0.29 1.39, 1.83 1.82, 2.81 1.71 C3.79 1.61, 4.78 1.3, 5 1.15 C5.22 1, 4.3 1.13, 4.16 0.81" stroke="none" stroke-width="0" fill="#fff"></path><path d="M4.12 -0.18 C4.7 -0.19, 5.13 0.19, 5.55 0.78 C5.97 1.38, 6.78 2.51, 6.64 3.38 C6.5 4.24, 5.43 5.43, 4.7 5.99 C3.97 6.55, 2.87 6.96, 2.23 6.74 C1.6 6.51, 1.38 4.99, 0.89 4.64 C0.4 4.3, -0.69 5.05, -0.73 4.67 C-0.76 4.28, 0.38 3.09, 0.7 2.33 C1.01 1.58, 0.61 0.51, 1.15 0.14 C1.69 -0.24, 3.22 0.04, 3.95 0.09 C4.68 0.13, 5.45 0.16, 5.51 0.41 M3.75 -0.2 C4.04 0.21, 3.81 2.02, 4.3 2.76 C4.79 3.51, 6.73 3.6, 6.7 4.29 C6.67 4.99, 4.79 6.63, 4.1 6.92 C3.4 7.21, 3.06 6.25, 2.53 6.04 C1.99 5.82, 1.18 6.02, 0.89 5.64 C0.59 5.25, 0.71 4.42, 0.77 3.72 C0.84 3.02, 0.91 2.06, 1.28 1.44 C1.65 0.82, 2.66 0.17, 2.99 -0.01 C3.32 -0.18, 2.89 0.53, 3.27 0.4 C3.64 0.26, 5.08 -0.92, 5.25 -0.82" stroke="#0a11d3" stroke-width="1" fill="none"></path></g><g stroke-linecap="round" transform="translate(319.41109893389546 601.871542923848) rotate(0 2.9052077431074395 3.1530397505807173)"><path d="M1.91 0.42 C2.59 0.1, 4.57 -0.64, 5.18 -0.13 C5.8 0.39, 5.47 2.79, 5.61 3.51 C5.74 4.24, 6.24 3.68, 6.01 4.22 C5.77 4.76, 4.92 6.39, 4.2 6.76 C3.48 7.12, 2.36 6.61, 1.7 6.39 C1.03 6.17, 0.49 5.93, 0.22 5.43 C-0.06 4.93, 0 4.15, 0.05 3.38 C0.1 2.61, 0.02 1.52, 0.52 0.83 C1.01 0.13, 2.53 -0.64, 2.99 -0.81 C3.45 -0.98, 3.18 -0.48, 3.28 -0.19 M0.46 -0.56 C1.09 -0.78, 4.28 -0.4, 4.96 -0.06 C5.65 0.28, 4.56 0.86, 4.56 1.46 C4.56 2.06, 5.05 2.96, 4.99 3.55 C4.92 4.14, 4.74 4.68, 4.17 5.01 C3.61 5.34, 2.07 5.64, 1.6 5.54 C1.14 5.43, 1.64 4.52, 1.39 4.39 C1.15 4.26, 0.07 5.02, 0.15 4.76 C0.22 4.51, 1.39 3.53, 1.84 2.84 C2.3 2.15, 2.78 0.96, 2.89 0.61 C3 0.25, 2.86 0.83, 2.51 0.71" stroke="none" stroke-width="0" fill="#fff"></path><path d="M2.67 0.15 C3.08 0.24, 3.63 1.27, 4.1 1.69 C4.58 2.1, 5.22 2.22, 5.5 2.63 C5.79 3.03, 6.03 3.57, 5.81 4.13 C5.6 4.68, 5.05 5.79, 4.22 5.98 C3.39 6.17, 1.34 5.47, 0.85 5.29 C0.36 5.12, 1.27 5.53, 1.26 4.94 C1.25 4.35, 0.82 2.52, 0.78 1.76 C0.75 0.99, 0.6 0.48, 1.06 0.37 C1.52 0.26, 3 1.04, 3.53 1.1 C4.06 1.17, 4.05 0.75, 4.24 0.76 M3.09 -1.04 C3.91 -0.79, 5.83 1.5, 6.39 2.1 C6.95 2.69, 6.43 2.05, 6.45 2.5 C6.46 2.96, 7.03 4.21, 6.47 4.8 C5.91 5.4, 3.93 5.79, 3.09 6.09 C2.25 6.38, 1.94 6.74, 1.45 6.58 C0.96 6.41, 0.37 5.66, 0.13 5.09 C-0.1 4.51, -0.17 4.02, 0.02 3.14 C0.21 2.25, 0.68 0.08, 1.29 -0.2 C1.9 -0.48, 3.49 1.33, 3.68 1.47 C3.87 1.61, 2.35 0.8, 2.4 0.65" stroke="#0a11d3" stroke-width="1" fill="none"></path></g><g stroke-linecap="round" transform="translate(319.41109893389546 616.9157758368285) rotate(0 2.9052077431074395 3.1530397505807173)"><path d="M3.11 0.42 C3.42 0.47, 3.16 0.01, 3.74 0.43 C4.33 0.86, 6.42 2.23, 6.63 2.97 C6.84 3.7, 5.33 4.35, 5.02 4.82 C4.7 5.3, 5.17 5.61, 4.74 5.81 C4.3 6.01, 2.98 6.16, 2.39 6.02 C1.8 5.87, 1.47 5.55, 1.2 4.93 C0.94 4.31, 0.83 3.01, 0.79 2.31 C0.75 1.61, 0.72 1.13, 0.97 0.73 C1.21 0.33, 1.9 -0.09, 2.27 -0.11 C2.63 -0.13, 2.93 0.64, 3.16 0.59 M2.64 1.14 C3.27 1.31, 4.37 0.07, 4.89 0.27 C5.4 0.48, 5.7 1.65, 5.72 2.36 C5.74 3.07, 5.5 4.12, 5.02 4.55 C4.55 4.98, 3.6 4.64, 2.88 4.92 C2.16 5.2, 1.34 6.32, 0.69 6.22 C0.04 6.12, -1.11 4.78, -1.02 4.34 C-0.94 3.89, 0.59 4.04, 1.2 3.55 C1.82 3.07, 2.24 1.92, 2.68 1.44 C3.11 0.95, 3.61 1.08, 3.8 0.65 C4 0.23, 4.02 -1.06, 3.84 -1.12" stroke="none" stroke-width="0" fill="#fff"></path><path d="M3.53 -0.71 C4.22 -0.64, 5.61 0.11, 5.98 0.82 C6.34 1.54, 5.96 2.78, 5.71 3.58 C5.45 4.37, 4.84 5.3, 4.44 5.59 C4.03 5.87, 3.88 5.09, 3.26 5.3 C2.64 5.51, 1.16 6.88, 0.7 6.82 C0.24 6.77, 0.72 5.77, 0.51 4.98 C0.3 4.18, -0.66 2.84, -0.56 2.03 C-0.45 1.23, 0.24 0.52, 1.14 0.18 C2.04 -0.17, 4.29 -0.25, 4.86 -0.03 C5.42 0.19, 4.62 1.33, 4.55 1.48 M1.64 1.23 C2.4 1.32, 5 0.83, 5.57 1.26 C6.13 1.69, 5.11 3.3, 5.03 3.8 C4.95 4.31, 5.27 3.92, 5.08 4.3 C4.89 4.68, 4.25 5.78, 3.87 6.09 C3.49 6.4, 3.21 6.38, 2.79 6.15 C2.38 5.92, 1.66 5.31, 1.39 4.71 C1.11 4.12, 1.31 3.18, 1.13 2.57 C0.95 1.97, -0.19 1.68, 0.32 1.08 C0.82 0.48, 3.65 -0.97, 4.15 -1.05 C4.64 -1.12, 3.47 0.62, 3.27 0.61" stroke="#0a11d3" stroke-width="1" fill="none"></path></g><g stroke-linecap="round"><g transform="translate(307.4803014381099 524.5248035709826) rotate(0 -0.688435265875853 25.571278170782307)"><path d="M0 0 C-0.23 8.52, -1.15 42.62, -1.38 51.14 M0 0 C-0.23 8.52, -1.15 42.62, -1.38 51.14" stroke="#000000" stroke-width="1" fill="none"></path></g><g transform="translate(307.4803014381099 524.5248035709826) rotate(0 -0.688435265875853 25.571278170782307)"><path d="M-9.48 26.88 C-6.46 35.93, -3.44 44.97, -1.38 51.14 M-9.48 26.88 C-6.84 34.77, -4.21 42.66, -1.38 51.14" stroke="#000000" stroke-width="1" fill="none"></path></g><g transform="translate(307.4803014381099 524.5248035709826) rotate(0 -0.688435265875853 25.571278170782307)"><path d="M8.02 27.35 C4.51 36.22, 1.01 45.09, -1.38 51.14 M8.02 27.35 C4.96 35.09, 1.91 42.83, -1.38 51.14" stroke="#000000" stroke-width="1" fill="none"></path></g></g><g stroke-linecap="round"><g transform="translate(148.38486482374356 56.13116208499724) rotate(0 77.39477157592779 96.64842735176899)"><path d="M0 0 C23.38 -0.19, 115.02 -36.08, 140.31 -1.14 C165.6 33.8, 149.83 174.5, 151.73 209.63 M0 0 C23.38 -0.19, 115.02 -36.08, 140.31 -1.14 C165.6 33.8, 149.83 174.5, 151.73 209.63" stroke="#000000" stroke-width="1" fill="none"></path></g><g transform="translate(148.38486482374356 56.13116208499724) rotate(0 77.39477157592779 96.64842735176899)"><path d="M142.24 181.18 C144.83 188.94, 147.42 196.71, 151.73 209.63 M142.24 181.18 C144.34 187.47, 146.44 193.77, 151.73 209.63" stroke="#000000" stroke-width="1" fill="none"></path></g><g transform="translate(148.38486482374356 56.13116208499724) rotate(0 77.39477157592779 96.64842735176899)"><path d="M162.75 181.73 C159.74 189.35, 156.74 196.97, 151.73 209.63 M162.75 181.73 C160.31 187.9, 157.88 194.08, 151.73 209.63" stroke="#000000" stroke-width="1" fill="none"></path></g></g><g stroke-linecap="round"><g transform="translate(297.8782119917123 360.9108509342638) rotate(0 -0.09247568037790188 24.868452422472956)"><path d="M0 0 C-0.03 8.29, -0.15 41.45, -0.18 49.74 M0 0 C-0.03 8.29, -0.15 41.45, -0.18 49.74" stroke="#000000" stroke-width="1" fill="none"></path></g></g><g stroke-linecap="round"><g transform="translate(558.3933016109805 583.5056066790562) rotate(0 34.4209253512646 -203.106881635481)" fill-rule="evenodd"><path d="M0.82 -196.46 L-2.04 -170.32 L2.36 -167.95 L4.93 -165.94 L60.83 -167.73 L67.17 -169.09 L70.83 -168.88 L71.11 -187.23 L69.46 -207.13 L60.37 -207.94 L44.62 -208.79 L42.24 -211.1 L41.7 -235.18 L35.58 -240.75 L31.16 -237.55 L27.31 -236.45 L25.25 -209.61 L24.27 -209.24 L16.94 -206.85 L13.1 -209.6 L11.33 -235.61 L10.84 -239.34 L6.45 -239.72 L1.5 -239.88 L1.23 -235.09 L-0.19 -195.16" stroke="none" stroke-width="0" fill="#fd7e14" fill-rule="evenodd"></path><path d="M0.03 -197.12 C0.15 -194.17, -0.54 -183.67, -0.47 -178.82 C-0.41 -173.98, -1.79 -169.96, 0.41 -168.07 C2.61 -166.18, 6.52 -167.85, 12.72 -167.47 C18.92 -167.09, 29.44 -166.12, 37.6 -165.81 C45.76 -165.49, 56.26 -164.78, 61.68 -165.59 C67.1 -166.41, 68.85 -168.34, 70.1 -170.69 C71.36 -173.03, 69.25 -175.12, 69.22 -179.68 C69.19 -184.24, 70.27 -193.84, 69.92 -198.05 C69.56 -202.25, 68.61 -203.11, 67.1 -204.91 C65.58 -206.71, 63.26 -208.31, 60.81 -208.87 C58.37 -209.43, 55.75 -207.85, 52.45 -208.26 C49.15 -208.67, 43.06 -208.88, 41.03 -211.34 C38.99 -213.8, 40.35 -218.62, 40.24 -223.03 C40.13 -227.44, 41.41 -235.14, 40.36 -237.79 C39.3 -240.44, 36.25 -238.99, 33.91 -238.93 C31.58 -238.88, 27.72 -240.22, 26.34 -237.46 C24.95 -234.71, 25.65 -227.05, 25.62 -222.41 C25.59 -217.77, 27.26 -211.87, 26.16 -209.61 C25.06 -207.34, 21.28 -208.72, 19.02 -208.82 C16.75 -208.92, 13.64 -207.7, 12.57 -210.21 C11.49 -212.72, 12.67 -219.69, 12.59 -223.88 C12.52 -228.07, 13.26 -232.88, 12.14 -235.35 C11.02 -237.81, 8.06 -238.71, 5.87 -238.66 C3.68 -238.62, 0.14 -238.18, -1 -235.07 C-2.14 -231.96, -1.03 -226.63, -0.97 -219.99 C-0.91 -213.36, -0.42 -199.38, -0.64 -195.27 M-0.84 -194.89 C-0.83 -191.79, -1.25 -182.36, -1.2 -177.71 C-1.15 -173.06, -2.89 -168.79, -0.53 -166.96 C1.84 -165.14, 6.83 -167.09, 12.97 -166.77 C19.11 -166.45, 28.49 -165.16, 36.3 -165.05 C44.1 -164.94, 54.58 -165.47, 59.79 -166.11 C65.01 -166.75, 65.64 -166.62, 67.58 -168.88 C69.52 -171.15, 71.31 -175.19, 71.44 -179.73 C71.56 -184.27, 69 -191.96, 68.33 -196.13 C67.65 -200.31, 68.6 -202.84, 67.37 -204.78 C66.15 -206.72, 63.62 -207.22, 60.97 -207.79 C58.32 -208.36, 54.78 -207.99, 51.46 -208.2 C48.13 -208.41, 43.04 -206.6, 41.03 -209.05 C39.02 -211.51, 39.4 -218.56, 39.39 -222.94 C39.38 -227.32, 41.7 -232.28, 40.98 -235.31 C40.26 -238.34, 37.18 -240.83, 35.08 -241.13 C32.98 -241.43, 29.64 -240.36, 28.37 -237.1 C27.11 -233.85, 28.07 -226.29, 27.51 -221.59 C26.94 -216.89, 26.34 -211.32, 24.97 -208.9 C23.61 -206.49, 21 -206.72, 19.32 -207.1 C17.63 -207.47, 15.93 -208.69, 14.87 -211.15 C13.8 -213.61, 13.37 -217.75, 12.93 -221.86 C12.49 -225.96, 13.7 -232.83, 12.23 -235.77 C10.76 -238.71, 6.05 -239.14, 4.09 -239.49 C2.13 -239.85, 1.09 -241.06, 0.47 -237.91 C-0.15 -234.76, 0.88 -227.73, 0.37 -220.6 C-0.14 -213.47, -2.29 -199.16, -2.6 -195.12" stroke="#000000" stroke-width="1" fill="none"></path></g></g><g stroke-linecap="round"><g transform="translate(601.7594749756099 408.5291237737419) rotate(0 6.840221189262763 -13.85070046578926)" fill-rule="evenodd"><path d="M-1.98 -17.08 L2.11 -21.37 L3.31 -22.69 L14.56 -19.27 L14.84 -8.95 L4 -8.14 L1.81 -8.43 L-0.91 -17.15" stroke="none" stroke-width="0" fill="#ffff" fill-rule="evenodd"></path><path d="M-0.73 -17.07 C-0.6 -17.76, -0.18 -19.85, 0.63 -20.52 C1.45 -21.2, 2.77 -21.06, 4.15 -21.14 C5.53 -21.22, 7.3 -21.32, 8.91 -21 C10.53 -20.68, 12.82 -20.2, 13.84 -19.22 C14.86 -18.23, 15.16 -16.16, 15.03 -15.09 C14.9 -14.02, 13.24 -13.96, 13.07 -12.81 C12.89 -11.66, 14.58 -8.96, 13.98 -8.21 C13.38 -7.45, 10.87 -8.37, 9.48 -8.27 C8.08 -8.16, 6.98 -7.67, 5.61 -7.59 C4.23 -7.51, 1.94 -6.94, 1.21 -7.78 C0.49 -8.63, 1.62 -10.99, 1.24 -12.66 C0.86 -14.32, -0.93 -17.05, -1.05 -17.76 M1.09 -17.89 C1.61 -17.9, 2.57 -18.83, 2.92 -19.16 C3.27 -19.48, 2.2 -19.72, 3.17 -19.82 C4.14 -19.91, 7.16 -19.95, 8.76 -19.73 C10.35 -19.5, 11.97 -19.15, 12.73 -18.47 C13.49 -17.78, 13.22 -16.9, 13.3 -15.64 C13.38 -14.38, 13.2 -12.1, 13.2 -10.91 C13.19 -9.71, 13.6 -9.2, 13.25 -8.47 C12.9 -7.73, 12.76 -6.53, 11.1 -6.48 C9.44 -6.44, 4.88 -7.61, 3.3 -8.21 C1.72 -8.8, 2.13 -9.19, 1.63 -10.04 C1.13 -10.89, 0.81 -11.86, 0.31 -13.31 C-0.19 -14.76, -1.34 -18.14, -1.37 -18.73" stroke="#000000" stroke-width="1" fill="none"></path></g></g><g stroke-linecap="round"><g transform="translate(513.240455644056 93.55788462567006) rotate(0 -0.1793212890625 322.48178100585943)"><path d="M0 0 C-0.06 107.49, -0.3 537.47, -0.36 644.96 M0 0 C-0.06 107.49, -0.3 537.47, -0.36 644.96" stroke="#000000" stroke-width="1" fill="none"></path></g></g><g stroke-linecap="round"><g transform="translate(654.173561112806 95.5826038639513) rotate(0 1.345703125 328.44332885742193)"><path d="M0 0 C0.45 109.48, 2.24 547.41, 2.69 656.89 M0 0 C0.45 109.48, 2.24 547.41, 2.69 656.89" stroke="#000000" stroke-width="1" fill="none"></path></g></g><g stroke-linecap="round" transform="translate(693.9233780073373 200.93907969402943) rotate(0 123.38165283203125 238.43002319335938)"><path d="M0 0 C73.98 0, 147.95 0, 246.76 0 M0 0 C91.59 0, 183.19 0, 246.76 0 M246.76 0 C246.76 135.59, 246.76 271.18, 246.76 476.86 M246.76 0 C246.76 102.83, 246.76 205.67, 246.76 476.86 M246.76 476.86 C188.72 476.86, 130.68 476.86, 0 476.86 M246.76 476.86 C163.9 476.86, 81.04 476.86, 0 476.86 M0 476.86 C0 316.38, 0 155.9, 0 0 M0 476.86 C0 289.31, 0 101.77, 0 0" stroke="#000000" stroke-width="1" fill="none"></path></g><g stroke-linecap="round"><g transform="translate(823.3796601479055 265.88128755910503) rotate(0 -0.3152888322921399 45.14123415608566)" fill-rule="evenodd"><path d="M-0.36 -0.21 L-41.72 22.33 L-40.32 67.43 L1.92 91.88 L37.64 66.71 L40.14 22.69 L0.95 0.57" stroke="none" stroke-width="0" fill="#40c057" fill-rule="evenodd"></path><path d="M-0.65 -0.69 C-14.9 9.46, -30.53 17.87, -38.19 21.61 M-0.18 -0.55 C-14.49 7.82, -31.53 18.04, -40.19 23.7 M-38.26 21.88 C-41.14 32.66, -39.54 45.88, -40.87 67.12 M-40.75 23.67 C-39.54 33.64, -39.41 45.14, -40.57 67.18 M-38.27 67.24 C-28.91 71.75, -19.91 78.32, 0.54 90.04 M-40.32 67.24 C-24.85 75.74, -11.71 84.35, 0.9 89.42 M-1.7 90.97 C15.31 79.97, 27.94 73.9, 40.24 64.44 M-0.66 90.36 C14.83 79.36, 29.23 69.84, 39.43 65.08 M38.43 62.88 C37.77 52.79, 36.81 35.6, 36.99 21.63 M39.78 65.06 C38.14 47.11, 39.25 30.89, 38.76 22 M38.65 20.97 C26.36 15.26, 11.34 7.28, -0.85 0.87 M38.62 21.07 C27.66 14.29, 14.86 8.65, -0.51 -0.3 M0 0 C0 0, 0 0, 0 0 M0 0 C0 0, 0 0, 0 0" stroke="#000000" stroke-width="1" fill="none"></path></g></g><g stroke-linecap="round"><g transform="translate(809.6780398339145 301.03013362705093) rotate(0 12.398802677856452 8.781784110782667)" fill-rule="evenodd"><path d="M1.41 0.92 L-2 29.11 L-5.33 28.51 L-6.03 26.44 L-7.97 16.6 L-6.04 -2.42 L-5.48 -11.11 L-3.55 -12.8 L2.07 -10.56 L23.24 15.32 L23.34 16.33 L26.45 -8.05 L29.11 -14.3 L32.28 -8.66 L31.32 7.89 L30.5 27.47 L25.36 29.88 L23.33 26.45 L0.59 1.61" stroke="none" stroke-width="0" fill="#ffff" fill-rule="evenodd"></path><path d="M-0.39 -0.42 C-0.13 2.01, 0.58 9.09, 0.65 13.84 C0.72 18.6, 1.11 26.03, 0.02 28.13 C-1.07 30.23, -4.7 30, -5.89 26.45 C-7.09 22.9, -6.93 12.9, -7.13 6.83 C-7.33 0.75, -8.45 -7.34, -7.09 -10.01 C-5.72 -12.68, -2.09 -11.33, 1.07 -9.2 C4.23 -7.06, 7.93 -1.54, 11.87 2.79 C15.82 7.13, 22.31 18.9, 24.71 16.81 C27.12 14.72, 25.26 -5.14, 26.31 -9.75 C27.35 -14.35, 29.67 -13.5, 30.96 -10.83 C32.25 -8.16, 34.06 0.17, 34.03 6.27 C34.01 12.36, 32.76 22.08, 30.8 25.75 C28.84 29.42, 25.87 30.28, 22.25 28.29 C18.63 26.31, 12.85 18.58, 9.07 13.84 C5.29 9.09, 1.03 2.27, -0.44 -0.19 M1.6 -1.68 C1.83 0.44, 0.29 6.77, -0.07 11.97 C-0.43 17.18, 0.88 27.02, -0.57 29.55 C-2.02 32.07, -7.51 30.81, -8.76 27.12 C-10.01 23.44, -8.47 13.8, -8.05 7.42 C-7.62 1.04, -7.77 -8.27, -6.2 -11.17 C-4.64 -14.06, -2.01 -12.16, 1.36 -9.95 C4.74 -7.75, 10.36 -2.74, 14.03 2.07 C17.7 6.88, 21.75 21.02, 23.39 18.92 C25.03 16.82, 22.63 -5.65, 23.88 -10.51 C25.12 -15.37, 29.31 -12.9, 30.86 -10.24 C32.4 -7.57, 33.17 -0.9, 33.15 5.5 C33.13 11.91, 32.64 24.37, 30.74 28.2 C28.84 32.02, 25.37 30.9, 21.76 28.43 C18.15 25.96, 12.66 17.98, 9.1 13.4 C5.53 8.82, 2.02 3.31, 0.36 0.95" stroke="#000000" stroke-width="1" fill="none"></path></g></g><g transform="translate(842.7916031049936 218.0342640202013) rotate(0 42 12.5)"><text x="0" y="18" font-family="Virgil, Segoe UI Emoji" font-size="20px" fill="#000000" text-anchor="start" style="white-space: pre;" direction="ltr">Discount</text></g><g stroke-linecap="round"><g transform="translate(317.76706697218106 525.7680286686389) rotate(0 112.219970703125 -43.66277270507811)"><path d="M0 0 C26.28 5.45, 120.28 53.55, 157.68 32.69 C195.09 11.83, 213.31 -98.84, 224.44 -125.15 M0 0 C26.28 5.45, 120.28 53.55, 157.68 32.69 C195.09 11.83, 213.31 -98.84, 224.44 -125.15" stroke="#000000" stroke-width="1" fill="none"></path></g><g transform="translate(317.76706697218106 525.7680286686389) rotate(0 112.219970703125 -43.66277270507811)"><path d="M226.35 -95.21 C225.64 -106.24, 224.94 -117.27, 224.44 -125.15 M226.35 -95.21 C225.96 -101.29, 225.57 -107.37, 224.44 -125.15" stroke="#000000" stroke-width="1" fill="none"></path></g><g transform="translate(317.76706697218106 525.7680286686389) rotate(0 112.219970703125 -43.66277270507811)"><path d="M206.65 -100.99 C213.21 -109.89, 219.76 -118.79, 224.44 -125.15 M206.65 -100.99 C210.27 -105.9, 213.88 -110.81, 224.44 -125.15" stroke="#000000" stroke-width="1" fill="none"></path></g></g><g stroke-linecap="round"><g transform="translate(620.9351577924936 351.11293833660756) rotate(0 104.83579345703129 -123.76449729919432)"><path d="M0 0 C8.32 -34.79, 17.04 -169.25, 49.89 -208.76 C82.75 -248.27, 171.76 -257.72, 197.15 -237.07 C222.54 -216.42, 201.4 -110.22, 202.25 -84.85 M0 0 C8.32 -34.79, 17.04 -169.25, 49.89 -208.76 C82.75 -248.27, 171.76 -257.72, 197.15 -237.07 C222.54 -216.42, 201.4 -110.22, 202.25 -84.85" stroke="#000000" stroke-width="1" fill="none"></path></g><g transform="translate(620.9351577924936 351.11293833660756) rotate(0 104.83579345703129 -123.76449729919432)"><path d="M194.35 -113.79 C196.25 -106.84, 198.14 -99.89, 202.25 -84.85 M194.35 -113.79 C196.26 -106.79, 198.18 -99.78, 202.25 -84.85" stroke="#000000" stroke-width="1" fill="none"></path></g><g transform="translate(620.9351577924936 351.11293833660756) rotate(0 104.83579345703129 -123.76449729919432)"><path d="M214.8 -112.1 C211.79 -105.56, 208.77 -99.02, 202.25 -84.85 M214.8 -112.1 C211.76 -105.5, 208.72 -98.91, 202.25 -84.85" stroke="#000000" stroke-width="1" fill="none"></path></g></g><g stroke-linecap="round"><g transform="translate(814.1930050320345 558.176639016734) rotate(0 19.61575505889175 21.081649868847876)" fill-rule="evenodd"><path d="M0.02 -0.09 L1.83 42.02 L8.03 48.71 L19.56 45.86 L37.84 44.98 L38.82 -0.64 L35.61 -2.48 L17.98 -4.19 L9.72 -4.08 L1.93 -1.54" stroke="none" stroke-width="0" fill="#228be6" fill-rule="evenodd"></path><path d="M0.31 -0.27 C0.55 6.06, 1.03 31.23, 0.95 38.39 C0.87 45.56, -0.45 41.62, -0.17 42.73 C0.11 43.83, 1.24 44.32, 2.63 45.03 C4.01 45.73, 4.95 46.59, 8.13 46.98 C11.31 47.37, 17.78 47.41, 21.72 47.35 C25.66 47.3, 28.77 46.97, 31.78 46.64 C34.79 46.3, 38.66 45.88, 39.8 45.36 C40.93 44.85, 38.44 44.59, 38.61 43.55 C38.78 42.52, 40.68 45.71, 40.81 39.18 C40.94 32.64, 39.47 11.07, 39.38 4.35 C39.3 -2.37, 40.72 -0.01, 40.3 -1.13 C39.88 -2.26, 38.44 -2.12, 36.85 -2.42 C35.26 -2.73, 33.59 -2.63, 30.75 -2.98 C27.91 -3.32, 23.2 -4.31, 19.8 -4.49 C16.4 -4.67, 13.38 -4.57, 10.35 -4.05 C7.32 -3.53, 3.37 -2.01, 1.61 -1.36 C-0.15 -0.7, -0.13 -0.23, -0.2 -0.11 C-0.28 0.01, 1.05 -0.5, 1.16 -0.63 M-0.98 -1.46 C-0.78 5, 0.44 32.12, 0.43 39.65 C0.42 47.18, -1.49 42.66, -1.03 43.71 C-0.57 44.77, 1.38 45.38, 3.17 46 C4.97 46.62, 7 47.37, 9.76 47.42 C12.52 47.47, 16.03 46.65, 19.72 46.29 C23.41 45.94, 28.65 45.47, 31.9 45.32 C35.15 45.17, 37.89 45.87, 39.24 45.39 C40.59 44.91, 40.14 43.58, 40 42.44 C39.86 41.31, 38.49 45.27, 38.41 38.57 C38.32 31.87, 39.35 8.41, 39.49 2.24 C39.63 -3.92, 39.68 2.53, 39.27 1.59 C38.85 0.64, 38 -2.66, 37 -3.43 C36 -4.21, 36.02 -2.76, 33.25 -3.07 C30.48 -3.37, 24.56 -5.26, 20.39 -5.26 C16.21 -5.25, 11.54 -3.86, 8.2 -3.06 C4.85 -2.26, 1.93 -0.99, 0.3 -0.45 C-1.33 0.1, -1.59 0.25, -1.58 0.21 C-1.57 0.16, -0.08 -0.76, 0.38 -0.7" stroke="#0a11d3" stroke-width="1" fill="none"></path></g></g><g stroke-linecap="round"><g transform="translate(814.2267070697658 587.1552682613185) rotate(0 19.960580164012413 2.032162209277942)"><path d="M-0.27 0.82 C-0.25 1.03, -0.35 1.09, 0.52 1.59 C1.39 2.09, 3.15 3.57, 4.96 3.82 C6.77 4.07, 8.68 2.94, 11.39 3.09 C14.09 3.23, 17.73 4.77, 21.18 4.7 C24.63 4.63, 29.18 3.03, 32.09 2.66 C35 2.29, 37.2 3.15, 38.63 2.48 C40.05 1.81, 40.34 -1.06, 40.64 -1.35 M1.79 0.2 C1.57 0.57, -1.05 2.77, -0.7 3.03 C-0.36 3.3, 1.83 1.68, 3.87 1.78 C5.9 1.88, 8.86 3.04, 11.5 3.63 C14.15 4.23, 16.09 5.15, 19.76 5.34 C23.42 5.53, 30.23 5.38, 33.48 4.76 C36.74 4.14, 38.21 2.17, 39.29 1.61 C40.38 1.04, 40.03 1.66, 39.99 1.37" stroke="#0a11d3" stroke-width="1" fill="none"></path></g></g><g stroke-linecap="round"><g transform="translate(813.3511540055761 572.2768230839733) rotate(0 20.094446328009326 2.431523814046159)"><path d="M0.82 -0.53 C0.91 -0.29, -0.02 0.55, 0.88 1.14 C1.77 1.73, 4.55 2.49, 6.16 3.01 C7.78 3.52, 8 4.04, 10.57 4.24 C13.14 4.43, 18.13 4.28, 21.56 4.19 C24.99 4.1, 28.15 4.02, 31.14 3.7 C34.12 3.39, 38.2 2.85, 39.48 2.28 C40.75 1.71, 38.56 0.78, 38.8 0.31 M-0.22 1.81 C-0.32 2.21, -1.15 1.95, -0.17 2.35 C0.82 2.74, 3.96 3.69, 5.7 4.19 C7.44 4.7, 7.82 5.33, 10.26 5.39 C12.7 5.45, 16.71 5.01, 20.34 4.56 C23.97 4.11, 29.26 3.23, 32.03 2.69 C34.79 2.15, 35.47 1.71, 36.93 1.3 C38.4 0.89, 40.37 0.8, 40.83 0.24" stroke="#0a11d3" stroke-width="1" fill="none"></path></g></g><g stroke-linecap="round" transform="translate(812.6657157351458 554.9190619240819) rotate(0 19.82270710400985 4.008993379437072)"><path d="M26.5 -0.74 C30.36 -0.47, 33.85 0.89, 36.07 1.73 C38.29 2.57, 40.49 3.57, 39.82 4.31 C39.14 5.05, 35.13 5.57, 32.01 6.18 C28.88 6.79, 25.01 7.82, 21.07 7.97 C17.13 8.12, 11.95 7.62, 8.36 7.05 C4.78 6.49, 0.61 5.41, -0.44 4.6 C-1.49 3.79, 0.06 2.94, 2.07 2.18 C4.09 1.43, 7.02 0.49, 11.65 0.09 C16.28 -0.31, 26.6 -0.21, 29.83 -0.23 C33.06 -0.25, 31.43 -0.33, 31.02 -0.02 M25.34 -1.09 C29.17 -0.78, 33.72 2.27, 35.84 3.28 C37.97 4.28, 38.76 4.36, 38.08 4.94 C37.4 5.52, 34.67 5.99, 31.76 6.73 C28.85 7.48, 24.88 9.46, 20.62 9.39 C16.37 9.33, 9.44 7.05, 6.23 6.35 C3.03 5.65, 2.17 6.12, 1.39 5.19 C0.61 4.27, -0.14 1.82, 1.56 0.8 C3.26 -0.22, 7.45 -1.07, 11.6 -0.93 C15.75 -0.8, 23.87 1.28, 26.44 1.59 C29.01 1.89, 26.96 1.16, 27.02 0.91" stroke="none" stroke-width="0" fill="#fff"></path><path d="M13.81 0.21 C17.63 -0.02, 24.74 -0.01, 28.59 0.34 C32.45 0.7, 35.11 1.47, 36.96 2.36 C38.82 3.24, 40.84 4.74, 39.72 5.63 C38.6 6.53, 33.71 7.37, 30.24 7.72 C26.76 8.08, 23 7.76, 18.87 7.76 C14.74 7.76, 8.5 8.45, 5.47 7.75 C2.44 7.04, 1.02 4.6, 0.68 3.54 C0.35 2.49, 0.9 1.97, 3.46 1.41 C6.01 0.86, 13.37 0.49, 16 0.21 C18.62 -0.06, 18.91 -0.21, 19.2 -0.24 M18.89 1.45 C22.71 1.49, 27.93 1.09, 31.13 1.37 C34.33 1.66, 37.06 2.18, 38.09 3.16 C39.12 4.15, 39.28 6.66, 37.32 7.28 C35.35 7.89, 29.98 6.96, 26.3 6.85 C22.61 6.73, 19.25 6.81, 15.19 6.57 C11.13 6.32, 4.39 6.01, 1.93 5.36 C-0.53 4.72, -0.33 3.35, 0.41 2.72 C1.16 2.09, 3.3 2.19, 6.42 1.57 C9.54 0.95, 17.06 -0.78, 19.15 -1 C21.24 -1.21, 19.03 -0.2, 18.95 0.28" stroke="#0a11d3" stroke-width="1" fill="none"></path></g><g stroke-linecap="round" transform="translate(845.0103686083842 566.0349728297583) rotate(0 2.9052077431074395 3.1530397505807173)"><path d="M1.35 -0.63 C1.99 -0.79, 3.42 0.49, 4.08 0.78 C4.73 1.06, 5.16 0.4, 5.29 1.1 C5.41 1.79, 4.97 4.01, 4.82 4.96 C4.67 5.91, 4.79 6.7, 4.39 6.78 C3.99 6.87, 3.05 5.77, 2.41 5.46 C1.77 5.14, 0.93 5.41, 0.55 4.88 C0.17 4.35, 0.12 2.73, 0.11 2.26 C0.09 1.79, 0.05 2.49, 0.44 2.07 C0.83 1.65, 2.01 0.16, 2.44 -0.26 C2.87 -0.68, 2.78 -0.65, 3.02 -0.44 M0.88 -0.98 C1.53 -1.2, 4.65 -1.29, 5.48 -0.97 C6.3 -0.64, 5.84 0.01, 5.82 0.96 C5.8 1.9, 5.36 4.04, 5.37 4.68 C5.38 5.32, 6.49 4.36, 5.91 4.81 C5.32 5.25, 2.62 7.43, 1.85 7.35 C1.08 7.27, 1.79 5.2, 1.27 4.32 C0.76 3.44, -0.9 2.57, -1.22 2.06 C-1.54 1.56, -1.43 1.49, -0.63 1.27 C0.16 1.06, 2.98 0.8, 3.56 0.78 C4.13 0.76, 3.12 1.45, 2.82 1.15" stroke="none" stroke-width="0" fill="#fff"></path><path d="M3.67 0.48 C4.28 0.6, 4.85 -0.15, 5.21 0.46 C5.58 1.06, 5.78 3.45, 5.84 4.11 C5.91 4.76, 5.96 3.88, 5.59 4.37 C5.23 4.87, 4.41 6.89, 3.66 7.06 C2.9 7.24, 1.49 5.84, 1.05 5.44 C0.61 5.04, 1.29 5.26, 1.02 4.65 C0.75 4.03, -0.62 2.6, -0.57 1.76 C-0.52 0.92, 0.56 -0.19, 1.32 -0.39 C2.08 -0.59, 3.59 0.32, 3.98 0.56 C4.38 0.8, 3.8 1.08, 3.69 1.05 M4.72 -0.76 C5.44 -0.88, 5.4 -0.7, 5.58 -0.08 C5.77 0.54, 5.65 2.26, 5.82 2.94 C5.99 3.62, 7.15 3.21, 6.62 3.99 C6.1 4.77, 3.72 7.46, 2.67 7.6 C1.62 7.73, 0.85 5.3, 0.31 4.8 C-0.23 4.3, -0.41 5.04, -0.57 4.61 C-0.72 4.17, -1.03 2.83, -0.63 2.17 C-0.22 1.51, 1.37 1.02, 1.86 0.65 C2.34 0.28, 2.01 0.12, 2.28 -0.04 C2.54 -0.2, 3.06 -0.18, 3.46 -0.31" stroke="#0a11d3" stroke-width="1" fill="none"></path></g><g stroke-linecap="round" transform="translate(845.0103686083842 579.8768054768173) rotate(0 2.9052077431074395 3.1530397505807173)"><path d="M1.4 -0.07 C1.97 -0.18, 3.94 -0.21, 4.48 -0.04 C5.02 0.12, 4.29 0.27, 4.63 0.92 C4.97 1.57, 6.39 3.08, 6.55 3.86 C6.71 4.64, 6.35 5.24, 5.57 5.62 C4.79 5.99, 2.74 6.12, 1.89 6.11 C1.05 6.09, 1 6, 0.52 5.53 C0.04 5.07, -1.12 4.11, -0.98 3.31 C-0.84 2.51, 0.84 1.41, 1.36 0.72 C1.88 0.03, 2.04 -0.84, 2.16 -0.82 C2.27 -0.8, 1.91 0.72, 2.07 0.84 M2.54 1.39 C3.09 1.78, 3.58 1.29, 3.97 1.57 C4.36 1.84, 4.61 2.19, 4.89 3.05 C5.17 3.91, 6.09 6.31, 5.65 6.72 C5.21 7.14, 2.8 5.62, 2.24 5.54 C1.69 5.45, 2.86 6.68, 2.34 6.22 C1.81 5.76, -0.35 3.71, -0.91 2.79 C-1.48 1.86, -1.48 0.86, -1.06 0.68 C-0.64 0.49, 0.72 1.67, 1.61 1.67 C2.5 1.67, 3.8 1.04, 4.3 0.7 C4.8 0.35, 4.95 -0.47, 4.59 -0.38" stroke="none" stroke-width="0" fill="#fff"></path><path d="M3 -0.02 C3.6 -0.13, 3.14 0.1, 3.71 0.59 C4.28 1.07, 6.3 2.16, 6.45 2.88 C6.6 3.59, 4.85 4.4, 4.6 4.88 C4.35 5.35, 5.4 5.38, 4.95 5.75 C4.49 6.12, 2.49 7.37, 1.86 7.11 C1.23 6.85, 1.49 4.93, 1.16 4.18 C0.83 3.43, 0.05 3.14, -0.12 2.63 C-0.3 2.12, -0.49 1.61, 0.1 1.12 C0.7 0.63, 2.76 -0.08, 3.45 -0.32 C4.13 -0.56, 4.29 -0.44, 4.2 -0.29 M1.9 0.55 C2.32 0.22, 2.88 0.07, 3.5 0.61 C4.13 1.15, 5.5 3.28, 5.65 3.78 C5.81 4.29, 4.48 3.49, 4.45 3.65 C4.42 3.81, 6.05 4.47, 5.47 4.76 C4.89 5.05, 1.75 5.5, 0.96 5.4 C0.18 5.3, 0.91 4.51, 0.74 4.17 C0.58 3.83, -0.08 4.07, -0.03 3.36 C0.02 2.65, 0.59 0.42, 1.03 -0.1 C1.47 -0.63, 2.41 -0.07, 2.62 0.2 C2.84 0.47, 2.47 1.3, 2.3 1.52" stroke="#0a11d3" stroke-width="1" fill="none"></path></g><g stroke-linecap="round" transform="translate(845.0103686083842 594.9210383897978) rotate(0 2.9052077431074395 3.1530397505807173)"><path d="M3.15 0.44 C3.84 0.47, 4.47 -0.39, 4.78 0.19 C5.08 0.77, 4.91 2.92, 4.97 3.91 C5.02 4.89, 5.39 5.82, 5.12 6.08 C4.86 6.33, 4.03 5.52, 3.39 5.43 C2.76 5.34, 1.83 5.9, 1.32 5.54 C0.8 5.19, 0.53 3.73, 0.3 3.3 C0.08 2.88, -0.1 3.53, -0.03 3.01 C0.04 2.49, 0.27 0.79, 0.72 0.19 C1.17 -0.42, 2.06 -0.73, 2.69 -0.61 C3.32 -0.5, 4.45 0.63, 4.5 0.88 M3.14 -1.07 C3.94 -1.31, 3.77 -1.29, 4.09 -0.75 C4.41 -0.22, 4.54 1.59, 5.05 2.16 C5.56 2.73, 7.32 1.92, 7.16 2.66 C6.99 3.39, 4.7 6.14, 4.08 6.58 C3.46 7.01, 4.14 5.66, 3.44 5.28 C2.74 4.91, 0.63 4.57, -0.13 4.31 C-0.89 4.06, -1.43 4.09, -1.13 3.76 C-0.82 3.43, 1.11 2.76, 1.71 2.34 C2.3 1.91, 2.5 1.79, 2.44 1.21 C2.38 0.63, 1.26 -0.84, 1.32 -1.14" stroke="none" stroke-width="0" fill="#fff"></path><path d="M1.63 -0.53 C2.14 -0.78, 2.98 0.7, 3.68 0.85 C4.39 1, 5.44 -0.18, 5.86 0.38 C6.29 0.93, 6.42 3.41, 6.23 4.19 C6.04 4.96, 5.09 4.58, 4.73 5.04 C4.37 5.49, 4.79 6.8, 4.08 6.9 C3.36 7, 1.15 6.22, 0.44 5.62 C-0.28 5.01, -0.19 3.83, -0.19 3.26 C-0.19 2.7, 0.11 2.64, 0.43 2.24 C0.75 1.84, 1.45 1.26, 1.71 0.89 C1.98 0.52, 1.91 0.12, 2.02 0.02 M3.34 -1.09 C3.69 -1.04, 4.07 0.18, 4.7 0.6 C5.34 1.01, 7.17 0.51, 7.15 1.41 C7.14 2.31, 5.34 5.41, 4.6 6 C3.87 6.58, 3.3 4.85, 2.74 4.92 C2.17 4.99, 1.73 6.42, 1.22 6.39 C0.71 6.37, -0.2 5.37, -0.31 4.79 C-0.43 4.2, 0.5 3.55, 0.55 2.87 C0.59 2.2, -0.45 1.3, -0.04 0.75 C0.36 0.21, 2.28 -0.09, 2.99 -0.39 C3.71 -0.7, 4.07 -1.37, 4.25 -1.09" stroke="#0a11d3" stroke-width="1" fill="none"></path></g><g transform="translate(737.0106582807748 415.7304447141585) rotate(0 85.12359619140625 43.430406220105226)"><text x="0" y="12.372162488042086" font-family="Virgil, Segoe UI Emoji" font-size="13.897729990433675px" fill="#000000" text-anchor="start" style="white-space: pre;" direction="ltr">UpdateOffre() {</text><text x="0" y="29.744324976084172" font-family="Virgil, Segoe UI Emoji" font-size="13.897729990433675px" fill="#000000" text-anchor="start" style="white-space: pre;" direction="ltr">   {id: 'x', unit: 'Kg', ... }</text><text x="0" y="47.11648746412626" font-family="Virgil, Segoe UI Emoji" font-size="13.897729990433675px" fill="#000000" text-anchor="start" style="white-space: pre;" direction="ltr">     To</text><text x="0" y="64.48864995216834" font-family="Virgil, Segoe UI Emoji" font-size="13.897729990433675px" fill="#000000" text-anchor="start" style="white-space: pre;" direction="ltr">   {id: 'x', unit: 'T', ... }</text><text x="0" y="81.86081244021042" font-family="Virgil, Segoe UI Emoji" font-size="13.897729990433675px" fill="#000000" text-anchor="start" style="white-space: pre;" direction="ltr">}</text></g><g stroke-linecap="round"><g transform="translate(822.9898452924936 358.33657114910756) rotate(0 -0.58148193359375 24.979583740234375)"><path d="M0 0 C-0.19 8.33, -0.97 41.63, -1.16 49.96 M0 0 C-0.19 8.33, -0.97 41.63, -1.16 49.96" stroke="#000000" stroke-width="1" fill="none"></path></g><g transform="translate(822.9898452924936 358.33657114910756) rotate(0 -0.58148193359375 24.979583740234375)"><path d="M-9.16 26.29 C-7.12 32.34, -5.07 38.39, -1.16 49.96 M-9.16 26.29 C-6.68 33.63, -4.2 40.97, -1.16 49.96" stroke="#000000" stroke-width="1" fill="none"></path></g><g transform="translate(822.9898452924936 358.33657114910756) rotate(0 -0.58148193359375 24.979583740234375)"><path d="M7.93 26.68 C5.6 32.64, 3.28 38.59, -1.16 49.96 M7.93 26.68 C5.11 33.9, 2.29 41.12, -1.16 49.96" stroke="#000000" stroke-width="1" fill="none"></path></g></g><g stroke-linecap="round"><g transform="translate(828.0013199018686 513.3143543522326) rotate(0 0.85540771484375 19.675384521484375)"><path d="M0 0 C0.29 6.56, 1.43 32.79, 1.71 39.35 M0 0 C0.29 6.56, 1.43 32.79, 1.71 39.35" stroke="#000000" stroke-width="1" fill="none"></path></g><g transform="translate(828.0013199018686 513.3143543522326) rotate(0 0.85540771484375 19.675384521484375)"><path d="M-5.82 21.15 C-2.95 28.09, -0.08 35.03, 1.71 39.35 M-5.82 21.15 C-3.87 25.88, -1.91 30.6, 1.71 39.35" stroke="#000000" stroke-width="1" fill="none"></path></g><g transform="translate(828.0013199018686 513.3143543522326) rotate(0 0.85540771484375 19.675384521484375)"><path d="M7.64 20.57 C5.38 27.73, 3.12 34.89, 1.71 39.35 M7.64 20.57 C6.1 25.44, 4.56 30.32, 1.71 39.35" stroke="#000000" stroke-width="1" fill="none"></path></g></g></svg>