<svg version="1.1" xmlns="http://www.w3.org/2000/svg" viewBox="0 0 784.1478576660156 415.44183349609375" width="784.1478576660156" height="415.44183349609375">
  <!-- svg-source:excalidraw -->
  
  <defs>
    <style>
      @font-face {
        font-family: "Virgil";
        src: url("https://excalidraw.com/Virgil.woff2");
      }
      @font-face {
        font-family: "Cascadia";
        src: url("https://excalidraw.com/Cascadia.woff2");
      }
    </style>
  </defs>
  <rect x="0" y="0" width="784.1478576660156" height="415.44183349609375" fill="#ffffff"></rect><g stroke-linecap="round" transform="translate(10 33.45587158203125) rotate(0 110.0167236328125 127.60191345214844)"><path d="M0.56 1.67 C48.42 1.82, 94.42 0.72, 221.59 -0.91 M-0.53 -0.81 C85.22 -1.56, 170.22 -1.11, 219.39 -0.4 M220.54 -0.01 C220.84 98.42, 221.22 195.02, 221.49 253.83 M220.35 -0.46 C219.5 98.31, 220.48 198.36, 220.24 254.54 M219.1 254.36 C134.37 256.38, 44.98 253.29, 0.39 256.11 M220.42 255.18 C140.27 256.4, 58.28 256.22, -0.86 255.66 M0.01 256.08 C1.61 198.2, -0.89 139.76, 1.01 1.26 M-0.54 254.55 C-1.92 177.56, -1.81 99.22, 0.74 -0.79" stroke="#000000" stroke-width="1" fill="none"></path></g><g stroke-linecap="round" transform="translate(602.6706237792969 10) rotate(0 85.73861694335938 68.36074829101562)"><path d="M1.72 -0.89 C41.61 2.81, 77.88 -0.7, 171.45 -1.46 M-0.32 -0.76 C46.6 1.18, 92.37 0.46, 172.25 0.83 M171.07 0.5 C169.78 50.66, 170.27 102.35, 172.42 134.89 M171.66 0.03 C170.06 35.72, 171.68 70.43, 171.31 136.22 M172.09 136.46 C129.42 137.06, 88.78 138.73, 1.07 136.34 M171.68 136.09 C109.78 137.25, 48.8 138.5, 0.15 137.31 M0.82 135.28 C-0.1 91.91, 1.73 48.25, -0.04 0.43 M-0.39 136.74 C0.18 103.64, 1.21 70.24, 0.95 0.09" stroke="#000000" stroke-width="1" fill="none"></path></g><g stroke-linecap="round" transform="translate(600.9161071777344 268.7203369140625) rotate(0 85.73861694335938 68.36074829101562)"><path d="M-0.89 1.69 C39.39 -3.42, 73.45 -1.5, 170.02 -0.58 M-0.76 0.13 C40.97 -0.05, 81.37 1.31, 172.31 0.8 M171.98 -0.38 C169.31 27.94, 169.09 56.6, 169.64 135.89 M171.51 -0.63 C170.76 34.14, 170.11 66.15, 170.98 136.11 M171.21 135.67 C108.16 136.56, 47.26 138.32, -0.38 137.93 M170.84 136.83 C122.33 138, 75.36 137.22, 0.59 136.92 M-1.44 135.36 C-1.45 108.84, -1.36 79.99, 0.43 -1.16 M0.02 136.03 C-0.15 104.79, -0.44 73.13, 0.09 -0.36" stroke="#000000" stroke-width="1" fill="none"></path></g><g transform="translate(137.81912231445312 46.25836181640625) rotate(0 41 12.5)"><text x="0" y="18" font-family="Virgil, Segoe UI Emoji" font-size="20px" fill="#000000" text-anchor="start" style="white-space: pre;" direction="ltr">Transac</text></g><g transform="translate(657.1019897460938 20.628387451171875) rotate(0 27 12.5)"><text x="0" y="18" font-family="Virgil, Segoe UI Emoji" font-size="20px" fill="#000000" text-anchor="start" style="white-space: pre;" direction="ltr">Offer</text></g><g transform="translate(644.4583129882812 284.8049011230469) rotate(0 42 12.5)"><text x="0" y="18" font-family="Virgil, Segoe UI Emoji" font-size="20px" fill="#000000" text-anchor="start" style="white-space: pre;" direction="ltr">Discount</text></g><g transform="translate(84.98675537109375 129.81832885742188) rotate(0 65.20536376953123 37.91009521484375)"><text x="65.20536376953122" y="12.955047607421868" font-family="Virgil, Segoe UI Emoji" font-size="15.164038085937486px" fill="#000000" text-anchor="middle" style="white-space: pre;" direction="ltr">addLineItems(...){</text><text x="65.20536376953122" y="31.910095214843736" font-family="Virgil, Segoe UI Emoji" font-size="15.164038085937486px" fill="#000000" text-anchor="middle" style="white-space: pre;" direction="ltr"></text><text x="65.20536376953122" y="50.865142822265604" font-family="Virgil, Segoe UI Emoji" font-size="15.164038085937486px" fill="#000000" text-anchor="middle" style="white-space: pre;" direction="ltr"></text><text x="65.20536376953122" y="69.82019042968747" font-family="Virgil, Segoe UI Emoji" font-size="15.164038085937486px" fill="#000000" text-anchor="middle" style="white-space: pre;" direction="ltr">}</text></g><g transform="translate(268.4315795898439 121.82666015625) rotate(354.70402489755776 85.00000000000003 12.5)"><text x="0" y="18" font-family="Virgil, Segoe UI Emoji" font-size="20px" fill="#000000" text-anchor="start" style="white-space: pre;" direction="ltr">HttpOfferForSale</text></g><g transform="translate(273.85864257812517 211.06771850585943) rotate(9.685999198282028 63.50000000000003 12.5)"><text x="0" y="18" font-family="Virgil, Segoe UI Emoji" font-size="20px" fill="#000000" text-anchor="start" style="white-space: pre;" direction="ltr">HttpDiscount</text></g><g stroke-linecap="round"><g transform="translate(118.03302145602925 57.555932358102496) rotate(1.0449234478405587 -57.085357827585554 42.60032804731958)" fill-rule="evenodd"><path d="M-57.59 -0.84 L-93.82 23.29 L-93.92 63.1 L-57.93 83.13 L-19.9 59.32 L-21.01 19.36 L-58.3 -1.47" stroke="none" stroke-width="0" fill="#40c057" fill-rule="evenodd"></path><path d="M-56.65 0.12 C-67.54 7.05, -83.05 14.33, -92.51 21.23 M-56.54 0.33 C-68.24 5.83, -79.97 13.41, -94.56 21.32 M-95.11 20.43 C-93.67 29.28, -95.15 39.49, -93.48 62.75 M-94.56 20.93 C-93.04 35.45, -94.85 48.34, -94.42 62.2 M-92.19 64.14 C-83.9 68.12, -74.32 73.47, -55.21 85.07 M-93.53 62.95 C-85.18 68.33, -76.12 72.43, -56.5 85.2 M-55.6 84.7 C-43.54 76.45, -29.91 68.53, -22.07 58.95 M-56.59 84.98 C-47.63 77.62, -36.31 71.18, -20.2 60.63 M-19.54 61.67 C-21.17 53.27, -20.54 45, -19.06 18.63 M-19.76 60.43 C-20.51 45.55, -20.36 28.92, -20.81 19.89 M-20.81 20.12 C-34.59 13.87, -46.78 4.17, -55.53 0.67 M-19.89 20.8 C-35.38 13.29, -48.62 3.82, -57.1 0.12 M-56.89 0 C-56.89 0, -56.89 0, -56.89 0 M-56.89 0 C-56.89 0, -56.89 0, -56.89 0" stroke="#000000" stroke-width="1" fill="none"></path></g></g><g stroke-linecap="round"><g transform="translate(60.657613752878774 117.28765062122625) rotate(1.0449234478405587 -0.059759752318825576 -6.661030231573562)" fill-rule="evenodd"><path d="M-12.65 -13.03 L-10.68 9.42 L-14.73 12.55 L-18.25 9.78 L-20.5 2.39 L-16.9 -15.55 L-16.41 -23.42 L-13.16 -25.62 L-8.56 -23.47 L7.71 2.23 L10.01 2.5 L13.44 -24.06 L16.06 -27.34 L16.39 -23.67 L21.1 -7.33 L17.69 8.45 L14.87 13.01 L9.39 11.28 L-9.87 -14.21" stroke="none" stroke-width="0" fill="#ffff" fill-rule="evenodd"></path><path d="M-11.52 -14.63 C-11.13 -12.43, -10.12 -6.51, -10.32 -2.15 C-10.51 2.21, -11.53 9.4, -12.67 11.53 C-13.81 13.66, -16.07 13.98, -17.16 10.61 C-18.26 7.25, -19.08 -2.99, -19.23 -8.66 C-19.38 -14.33, -19.65 -20.81, -18.06 -23.41 C-16.46 -26.01, -12.61 -26.2, -9.67 -24.25 C-6.72 -22.3, -3.87 -15.88, -0.36 -11.71 C3.14 -7.54, 9.32 2.81, 11.37 0.77 C13.42 -1.26, 10.63 -19.97, 11.92 -23.95 C13.2 -27.93, 17.97 -25.61, 19.08 -23.09 C20.19 -20.57, 18.81 -14.16, 18.56 -8.84 C18.32 -3.52, 19.42 5.68, 17.63 8.85 C15.85 12.02, 11.2 11.94, 7.88 10.18 C4.56 8.42, 0.92 2.3, -2.29 -1.71 C-5.49 -5.73, -9.84 -11.66, -11.33 -13.91 M-12.9 -15.64 C-12.47 -13.16, -11.11 -5.33, -10.66 -0.57 C-10.2 4.19, -9.19 10.9, -10.15 12.94 C-11.11 14.97, -14.65 15.19, -16.4 11.65 C-18.15 8.12, -20.56 -2.28, -20.66 -8.26 C-20.77 -14.24, -19 -21.35, -17.02 -24.23 C-15.05 -27.11, -11.97 -27.56, -8.81 -25.55 C-5.65 -23.55, -1.19 -16.93, 1.95 -12.2 C5.08 -7.48, 8.23 4.89, 10.01 2.79 C11.79 0.7, 11.57 -20.11, 12.62 -24.78 C13.67 -29.45, 15.02 -27.77, 16.33 -25.23 C17.65 -22.7, 20.25 -15.62, 20.51 -9.57 C20.77 -3.52, 19.58 7.89, 17.89 11.07 C16.21 14.25, 13.67 11.7, 10.4 9.5 C7.12 7.31, 1.67 2.12, -1.75 -2.12 C-5.17 -6.35, -8.36 -13.8, -10.12 -15.9" stroke="#000000" stroke-width="1" fill="none"></path></g></g><g stroke-linecap="round"><g transform="translate(599.9356231689453 349.8403625488281) rotate(0 -188.96022969874556 -83.61523379832508)"><path d="M-1.14 0.48 C-22.27 -18.3, -64.25 -85.25, -127 -113.29 C-189.74 -141.32, -336.04 -158.72, -377.62 -167.71 M0.46 -0.31 C-20.84 -18.92, -65 -84.53, -128.14 -112.2 C-191.28 -139.88, -336.51 -156.8, -378.38 -166.35" stroke="#000000" stroke-width="1" fill="none"></path></g><g transform="translate(599.9356231689453 349.8403625488281) rotate(0 -188.96022969874556 -83.61523379832508)"><path d="M-348.03 -172.17 C-358.63 -170.35, -365.36 -167.05, -377.43 -165.96 M-349.3 -171.83 C-356.76 -169.87, -364.34 -168.24, -379.25 -166.49" stroke="#000000" stroke-width="1" fill="none"></path></g><g transform="translate(599.9356231689453 349.8403625488281) rotate(0 -188.96022969874556 -83.61523379832508)"><path d="M-351.59 -151.96 C-361.1 -155.8, -366.82 -158.19, -377.43 -165.96 M-352.86 -151.62 C-359.43 -155.31, -366.02 -159.3, -379.25 -166.49" stroke="#000000" stroke-width="1" fill="none"></path></g></g><g stroke-linecap="round"><g transform="translate(598.5486602783203 78.41506958007812) rotate(0 -187.25042196621655 44.69930098859126)"><path d="M0.87 -1.17 C-22.65 9.39, -78.25 49.45, -140.85 64.49 C-203.45 79.53, -335.84 84.95, -374.72 89.09 M-0.13 0.84 C-23.83 12.02, -79.23 50.52, -141.77 65.48 C-204.31 80.43, -336.75 86.97, -375.38 90.56" stroke="#000000" stroke-width="1" fill="none"></path></g><g transform="translate(598.5486602783203 78.41506958007812) rotate(0 -187.25042196621655 44.69930098859126)"><path d="M-349.97 78.31 C-358.52 82.79, -365.16 87.71, -374.5 91.14 M-347.22 78.59 C-359.63 83.98, -369.97 88.85, -375.54 90.08" stroke="#000000" stroke-width="1" fill="none"></path></g><g transform="translate(598.5486602783203 78.41506958007812) rotate(0 -187.25042196621655 44.69930098859126)"><path d="M-348.44 98.77 C-357.68 96.62, -364.82 94.9, -374.5 91.14 M-345.68 99.06 C-358.55 96.42, -369.49 93.28, -375.54 90.08" stroke="#000000" stroke-width="1" fill="none"></path></g></g><g stroke-linecap="round"><g transform="translate(686.1720799753723 315.50343827192205) rotate(1.0449234478405587 -0.04707558423643832 43.04493143272333)" fill-rule="evenodd"><path d="M1.55 0.57 L-38.09 21.59 L-38.61 63.11 L1.66 83.35 L36.5 62 L38.26 21.12 L0.52 1.47" stroke="none" stroke-width="0" fill="#40c057" fill-rule="evenodd"></path><path d="M-1.88 1.86 C-15.72 10, -29.27 16.65, -36 20.92 M-0.8 0.03 C-11.05 6.53, -21.91 12.04, -37.11 21.95 M-36.86 21.59 C-37.44 30.91, -38.65 39.36, -37.39 63.99 M-37.87 21.21 C-36.67 33.74, -37.83 45.59, -36.58 63.19 M-38.25 63.13 C-23.49 68.28, -11.65 75.77, -1.06 86.09 M-36.79 62.74 C-24.42 70.13, -10.09 79.32, -0.14 84.48 M-1.13 83.93 C11.16 75.61, 23.12 69.77, 37.98 58.98 M-0.29 85.02 C8.36 79.18, 18.03 72.77, 36.47 59.8 M36.31 59.95 C35.05 50.24, 37.7 44.26, 37 20.81 M37 60.45 C36.59 51.58, 36.95 41.08, 35.85 20.15 M38.16 19.52 C26.13 16.16, 15.36 9.32, -0.75 1.45 M35.77 19.43 C25.59 14.22, 14.73 8.32, 0.55 0.98 M0 0 C0 0, 0 0, 0 0 M0 0 C0 0, 0 0, 0 0" stroke="#000000" stroke-width="1" fill="none"></path></g></g><g stroke-linecap="round"><g transform="translate(674.0197376532466 360.535912436673) rotate(1.0449234478405587 10.921451930534374 7.995304603352224)" fill-rule="evenodd"><path d="M-0.41 0.82 L0.72 24.56 L-2.26 29.15 L-4.59 26.04 L-6.73 17.74 L-8.18 -1.87 L-4.38 -10.17 L-1.81 -11.94 L0.37 -7.76 L21.81 15 L21.87 16.88 L24.69 -10.32 L26.05 -12.17 L31.23 -10.05 L31.33 6.89 L28.35 24.14 L24.11 26.94 L19.61 24.75 L-0.43 0.75" stroke="none" stroke-width="0" fill="#ffff" fill-rule="evenodd"></path><path d="M-1.13 1.12 C-1.34 3.45, -0.57 9.31, -0.39 13.44 C-0.22 17.57, 0.82 23.93, -0.07 25.88 C-0.96 27.83, -4.45 28.62, -5.72 25.13 C-7 21.64, -7.91 10.79, -7.73 4.92 C-7.55 -0.95, -6.2 -7.68, -4.63 -10.1 C-3.07 -12.51, -1.11 -11.82, 1.64 -9.58 C4.39 -7.34, 8.55 -0.92, 11.86 3.36 C15.16 7.65, 19.38 18.25, 21.46 16.14 C23.54 14.02, 23.18 -5.24, 24.35 -9.31 C25.51 -13.39, 27.35 -10.95, 28.46 -8.3 C29.58 -5.66, 30.9 1.06, 31.05 6.55 C31.2 12.05, 31.25 21.57, 29.37 24.66 C27.49 27.74, 23.19 26.89, 19.78 25.07 C16.37 23.25, 12.22 17.83, 8.9 13.73 C5.59 9.63, 1.17 2.91, -0.13 0.49 M0.48 0.66 C0.59 2.72, 2.21 7.42, 2.01 11.83 C1.81 16.24, 0.46 24.73, -0.72 27.1 C-1.9 29.48, -3.66 29.8, -5.08 26.08 C-6.51 22.35, -9.04 10.42, -9.25 4.74 C-9.46 -0.94, -8.26 -5.37, -6.34 -7.98 C-4.41 -10.59, -0.55 -12.75, 2.3 -10.91 C5.16 -9.06, 7.36 -1.23, 10.8 3.07 C14.23 7.36, 20.5 17.05, 22.94 14.84 C25.38 12.63, 24.57 -5.97, 25.44 -10.18 C26.31 -14.38, 27.45 -13.12, 28.17 -10.4 C28.89 -7.67, 29.51 0.48, 29.76 6.18 C30.01 11.88, 31.5 20.75, 29.67 23.8 C27.83 26.85, 22.17 26.16, 18.76 24.49 C15.34 22.81, 12.18 18.08, 9.19 13.72 C6.2 9.36, 2.29 0.7, 0.84 -1.65" stroke="#000000" stroke-width="1" fill="none"></path></g></g><g stroke-linecap="round"><g transform="translate(684.4784764597473 59.101796426218755) rotate(1.0449234478405587 -0.6458526250756904 41.53125543941488)" fill-rule="evenodd"><path d="M1.53 -1.44 L-38.78 19.43 L-36.34 62.86 L0.58 85.04 L36.94 62.21 L37.86 19.21 L-0.19 1.14" stroke="none" stroke-width="0" fill="#40c057" fill-rule="evenodd"></path><path d="M1.92 -0.36 C-13.4 8.23, -29.89 15.22, -36.49 20.54 M0.1 0.24 C-11.58 6.93, -22.07 12.49, -38.05 20.69 M-39.21 21.59 C-37.58 30.08, -36.88 37.06, -36.18 62.68 M-37.47 22.11 C-37.63 32.43, -36.68 44.09, -37.05 61.48 M-38.01 63.19 C-21.96 71.7, -6.77 78.74, -0.57 83.63 M-37.28 61.35 C-26.12 67.57, -16.27 74.74, 0.71 84.67 M-1.77 83.35 C6.44 79.88, 17.68 72.18, 37.14 60.84 M0.63 83.53 C14.87 75.03, 27.1 65.89, 35.54 60.9 M36.5 62.31 C36.63 50.63, 34.37 40.73, 35.91 18.51 M36.98 61.41 C37 48.69, 36.47 36.46, 35.5 20.28 M37.92 21.09 C29.01 16.81, 18.19 10.72, -0.96 -1.61 M37.25 20.18 C23.17 13.1, 11.46 5.74, 0.79 -0.94 M0 0 C0 0, 0 0, 0 0 M0 0 C0 0, 0 0, 0 0" stroke="#000000" stroke-width="1" fill="none"></path></g></g><g stroke-linecap="round"><g transform="translate(672.3261341376217 104.13427059096966) rotate(1.0449234478405587 11.13137448472628 7.612206640489433)" fill-rule="evenodd"><path d="M1.37 -0.91 L-0.95 27.05 L-3.37 28.21 L-8.01 27.24 L-6.01 15.96 L-7.94 -1.8 L-5.17 -8.38 L-1.47 -11.92 L0.86 -10.22 L19.97 14.71 L22.84 15.9 L21.91 -6.76 L25.35 -10.66 L30.52 -8.34 L31.71 4.93 L28.76 26.21 L23.48 26.35 L18.48 27.07 L1.23 -1.1" stroke="none" stroke-width="0" fill="#ffff" fill-rule="evenodd"></path><path d="M1.15 -0.22 C1.22 1.95, 1.09 8.28, 0.72 12.55 C0.35 16.82, 0.06 23.32, -1.07 25.38 C-2.19 27.44, -4.93 27.98, -6.01 24.9 C-7.1 21.82, -7.76 12.55, -7.56 6.9 C-7.36 1.25, -6.39 -6.2, -4.81 -9.01 C-3.24 -11.83, -0.91 -12.17, 1.9 -9.99 C4.71 -7.82, 8.8 -0.13, 12.04 4.03 C15.28 8.2, 19.54 17.3, 21.34 15.01 C23.13 12.72, 21.48 -5.46, 22.84 -9.71 C24.19 -13.96, 28.32 -13.18, 29.45 -10.47 C30.58 -7.76, 29.7 0.65, 29.64 6.55 C29.58 12.46, 30.59 21.84, 29.09 24.97 C27.59 28.1, 23.89 27.31, 20.64 25.31 C17.4 23.3, 13.11 17.12, 9.63 12.94 C6.14 8.76, 1.48 2.43, -0.27 0.23 M0.3 -1.38 C0.23 1.04, -0.14 9.51, 0.05 14.13 C0.23 18.75, 2.35 24.41, 1.42 26.35 C0.49 28.28, -3.79 28.82, -5.53 25.73 C-7.26 22.63, -8.81 13.71, -8.99 7.76 C-9.17 1.81, -8.56 -7.38, -6.61 -9.99 C-4.67 -12.6, -0.25 -10.22, 2.7 -7.87 C5.64 -5.53, 7.73 -0.02, 11.07 4.09 C14.41 8.2, 20.73 18.65, 22.74 16.78 C24.76 14.91, 21.99 -2.65, 23.14 -7.12 C24.3 -11.59, 28.32 -12.26, 29.67 -10.04 C31.03 -7.82, 31.34 0.46, 31.27 6.18 C31.2 11.9, 31.1 21.17, 29.23 24.28 C27.37 27.39, 23.23 26.81, 20.08 24.85 C16.92 22.89, 13.53 16.39, 10.29 12.52 C7.05 8.64, 2.16 3.63, 0.63 1.6" stroke="#000000" stroke-width="1" fill="none"></path></g></g></svg>