<svg version="1.1" xmlns="http://www.w3.org/2000/svg" viewBox="0 0 1307.5219067016988 1099.1530179396345" width="1307.5219067016988" height="1099.1530179396345">
  <!-- svg-source:excalidraw -->
  
  <defs>
    <style>
      @font-face {
        font-family: "Virgil";
        src: url("https://excalidraw.com/Virgil.woff2");
      }
      @font-face {
        font-family: "Cascadia";
        src: url("https://excalidraw.com/Cascadia.woff2");
      }
    </style>
  </defs>
  <rect x="0" y="0" width="1307.5219067016988" height="1099.1530179396345" fill="#ffffff"></rect><g stroke-linecap="round" transform="translate(680.6884106079488 239.89081090838465) rotate(0 121.14697265625 156.47573852539062)"><path d="M0.36 1.09 C61.97 -1.29, 123.8 -0.66, 241.95 -0.91 M-0.1 0.26 C89.48 -0.9, 179.09 -0.6, 242.74 -0.48 M241.45 -0.24 C241.1 66.92, 239.24 133.6, 241.77 312.67 M242.47 -0.46 C241.15 73.07, 241.13 145.15, 242.1 312.46 M240.67 314.12 C170.37 314.07, 101.06 312.12, -1.52 312.18 M241.64 313.38 C168.85 314.86, 96.8 314.99, -0.35 312.67 M0.37 312.94 C-0.66 231.76, 0.45 149.8, -1.14 0.08 M0.71 312.94 C0 202.47, -0.53 93.73, 0.04 0.07" stroke="#000000" stroke-width="1" fill="none"></path></g><g transform="translate(773.3140209595113 250.24551671893153) rotate(0 27 12.5)"><text x="0" y="18" font-family="Virgil, Segoe UI Emoji" font-size="20px" fill="#000000" text-anchor="start" style="white-space: pre;" direction="ltr">Offer</text></g><g transform="translate(713.4640453735738 489.6008328810409) rotate(0 38.5 12.5)"><text x="0" y="18" font-family="Virgil, Segoe UI Emoji" font-size="20px" fill="#000000" text-anchor="start" style="white-space: pre;" direction="ltr">Product</text></g><g stroke-linecap="round" transform="translate(594.8853100220113 840.0498074904159) rotate(0 84.44012451171875 124.55160522460938)"><path d="M-0.68 1.58 C50.88 0.26, 98.02 0.03, 170.55 -0.53 M-1 0.86 C60.21 1.57, 122.43 1.54, 169.52 0.46 M168.23 1.24 C166.98 88.2, 166.44 180.42, 167.65 248.64 M168.8 0.25 C167.19 59.66, 166.93 118.9, 168.5 249.69 M168.01 250.89 C125.74 249.24, 84.68 248.43, -0.35 249.05 M169.63 248.27 C133.5 250.52, 99.32 251.43, -0.85 248.81 M1 250.18 C-1.07 167.57, 0.41 82.56, -1.13 0.8 M0.55 249.16 C0.95 192.43, 0.48 137.27, -0.35 -0.67" stroke="#000000" stroke-width="1" fill="none"></path></g><g transform="translate(661.20922359623 854.1707181349472) rotate(0 42 12.5)"><text x="0" y="18" font-family="Virgil, Segoe UI Emoji" font-size="20px" fill="#000000" text-anchor="start" style="white-space: pre;" direction="ltr">Discount</text></g><g stroke-linecap="round" transform="translate(139.69604000248 437.79469579607996) rotate(0 164.69778442382812 178.3700942993164)"><path d="M0.22 0.08 C88.39 -0.46, 179.66 0.97, 330.44 0.18 M0.48 -0.03 C80.11 1.51, 160.03 1.98, 329.97 -0.65 M329.89 -0.49 C331.12 122.84, 331.74 246.62, 329.31 355.88 M329.56 -0.25 C329.98 86.14, 330.92 172.12, 329.74 356.42 M330.23 355.37 C238 357.91, 144.64 358.39, -0.74 356.14 M329.38 356.39 C254.44 356.54, 178.59 356.27, 0.48 356.79 M-0.92 356.27 C0.46 280.4, -0.22 202.93, 0.47 -0.95 M-0.01 357.03 C-1.22 237.71, -0.78 117.37, -0.33 -0.16" stroke="#000000" stroke-width="1" fill="none"></path></g><g transform="translate(365.12844356693313 473.8389920607284) rotate(0 41 12.5)"><text x="0" y="18" font-family="Virgil, Segoe UI Emoji" font-size="20px" fill="#000000" text-anchor="start" style="white-space: pre;" direction="ltr">Transac</text></g><g transform="translate(280.56496700443313 550.4635342970565) rotate(0 56.5 12.5)"><text x="0" y="18" font-family="Virgil, Segoe UI Emoji" font-size="20px" fill="#000000" text-anchor="start" style="white-space: pre;" direction="ltr">AddItem(...)</text></g><g transform="translate(413.44658931888625 556.536654414244) rotate(0 5.5 37.5)"><text x="0" y="18" font-family="Virgil, Segoe UI Emoji" font-size="20px" fill="#000000" text-anchor="start" style="white-space: pre;" direction="ltr">{</text><text x="0" y="43" font-family="Virgil, Segoe UI Emoji" font-size="20px" fill="#000000" text-anchor="start" style="white-space: pre;" direction="ltr"></text><text x="0" y="68" font-family="Virgil, Segoe UI Emoji" font-size="20px" fill="#000000" text-anchor="start" style="white-space: pre;" direction="ltr">}</text></g><g transform="translate(439.05822698690235 318.9339930065148) rotate(275.18627277271355 86.98026480742817 12.791215412857085)"><text x="0" y="17.58243082571418" font-family="Virgil, Segoe UI Emoji" font-size="20.46594466057135px" fill="#000000" text-anchor="start" style="white-space: pre;" direction="ltr">HttpOfferForSale</text></g><g transform="translate(491.2409145363181 714.9872948253574) rotate(57.4860782356529 63.5 12.5)"><text x="0" y="18" font-family="Virgil, Segoe UI Emoji" font-size="20px" fill="#000000" text-anchor="start" style="white-space: pre;" direction="ltr">HttpDiscount</text></g><g transform="translate(819.368964158046 685.4251758757729) rotate(293.1258353893495 54 12.5)"><text x="0" y="18" font-family="Virgil, Segoe UI Emoji" font-size="20px" fill="#000000" text-anchor="start" style="white-space: pre;" direction="ltr">HttpOffers</text></g><g transform="translate(711.3466111130767 454.2408559585025) rotate(1.2374334960035094 41.5 12.5)"><text x="0" y="18" font-family="Virgil, Segoe UI Emoji" font-size="20px" fill="#000000" text-anchor="start" style="white-space: pre;" direction="ltr">MongoDb</text></g><g transform="translate(842.3442943970113 891.9427213087753) rotate(357.7461954297446 60 12.5)"><text x="0" y="18" font-family="Virgil, Segoe UI Emoji" font-size="20px" fill="#000000" text-anchor="start" style="white-space: pre;" direction="ltr">HttpProduct</text></g><g transform="translate(561.4834572795555 11.90293722468735) rotate(359.55759551684815 246.5 12.5)"><text x="0" y="18" font-family="Virgil, Segoe UI Emoji" font-size="20px" fill="#000000" text-anchor="start" style="white-space: pre;" direction="ltr">/v2/cooperatives/${cooperativeId}/offersForSale</text></g><g transform="translate(365.4726203464696 17.443089667521576) rotate(0.29184121375603156 85 12.5)"><text x="0" y="18" font-family="Virgil, Segoe UI Emoji" font-size="20px" fill="#000000" text-anchor="start" style="white-space: pre;" direction="ltr">HttpOfferForSale</text></g><g transform="translate(544.0977886597066 18.017413081236214) rotate(0 6 12.5)"><text x="0" y="18" font-family="Virgil, Segoe UI Emoji" font-size="20px" fill="#000000" text-anchor="start" style="white-space: pre;" direction="ltr">=</text></g><g transform="translate(523.7400768677144 110.56819433123617) rotate(0 295.5 12.5)"><text x="0" y="18" font-family="Virgil, Segoe UI Emoji" font-size="20px" fill="#000000" text-anchor="start" style="white-space: pre;" direction="ltr">/v1/cooperatives/${cooperativeId}/discounts/${discountId}</text></g><g transform="translate(366.00445064701125 107.25746435076742) rotate(0.554029235145424 63.5 12.5)"><text x="0" y="18" font-family="Virgil, Segoe UI Emoji" font-size="20px" fill="#000000" text-anchor="start" style="white-space: pre;" direction="ltr">HttpDiscount</text></g><g transform="translate(502.56804927982375 108.50960058123617) rotate(0 6 12.5)"><text x="0" y="18" font-family="Virgil, Segoe UI Emoji" font-size="20px" fill="#000000" text-anchor="start" style="white-space: pre;" direction="ltr">=</text></g><g transform="translate(496.1960094849019 48.46760839373616) rotate(0 363 12.5)"><text x="0" y="18" font-family="Virgil, Segoe UI Emoji" font-size="20px" fill="#000000" text-anchor="start" style="white-space: pre;" direction="ltr">/v2/cooperatives/${cooperativeId}/offers?${filterQueryString.toString()}</text></g><g transform="translate(363.2083691040425 45.44642919451741) rotate(0 65 12.5)"><text x="0" y="18" font-family="Virgil, Segoe UI Emoji" font-size="20px" fill="#000000" text-anchor="start" style="white-space: pre;" direction="ltr">HttpOffers =</text></g><g transform="translate(516.6863354126363 149.63325780779866) rotate(0 332 12.5)"><text x="0" y="18" font-family="Virgil, Segoe UI Emoji" font-size="20px" fill="#000000" text-anchor="start" style="white-space: pre;" direction="ltr">/v1/cooperatives/${partnerId}/products?${queryParams.toString()}</text></g><g transform="translate(367.11773189701125 145.59553808123616) rotate(0 71.5 12.5)"><text x="0" y="18" font-family="Virgil, Segoe UI Emoji" font-size="20px" fill="#000000" text-anchor="start" style="white-space: pre;" direction="ltr">HttpProduct =</text></g><g stroke-linecap="round" transform="translate(1055.2279613891988 901.0723904982284) rotate(0 121.14697265625 23.904205322265625)"><path d="M1.53 -1.41 C81.04 0.43, 157.96 1.72, 243.12 -1.08 M0.67 -0.35 C56.48 0.27, 114.06 1.8, 242.66 -0.7 M240.69 0.51 C241.07 16.34, 240.91 27.6, 242.99 49.19 M242.33 0.56 C241.83 12.96, 241.08 26.05, 242.78 48.39 M241.16 46.68 C148.59 46.5, 58.45 47.39, 0.39 47.19 M241.65 47.96 C179.66 46.34, 116.49 46.36, -0.16 47.47 M-1.5 46.52 C1.76 30.71, -0.43 13.72, -0.29 0.27 M0.8 46.85 C1.1 28.54, -0.26 11.44, -0.74 -0.06" stroke="#000000" stroke-width="1" fill="none"></path></g><g transform="translate(1126.2835033813863 912.3840054884628) rotate(0 38.5 12.5)"><text x="38.5" y="18" font-family="Virgil, Segoe UI Emoji" font-size="20px" fill="#000000" text-anchor="middle" style="white-space: pre;" direction="ltr">Product</text></g><g stroke-linecap="round" transform="translate(11.89565025990504 317.2331476595769) rotate(0 63.94191786606946 38.26851694988882)"><path d="M-1.37 1.41 C27.96 -0.98, 54.76 -0.81, 127.52 0.75 M0.55 0.75 C42.42 -0.1, 85.85 0.31, 127.61 -0.02 M127.91 0.57 C128.92 19.4, 127.61 34.31, 127.82 74.86 M128.5 0.34 C129.09 22.98, 127.41 43.62, 127.92 77.05 M126.16 78.17 C85.19 76.16, 40.28 75.98, -0.89 77.88 M128.46 76.35 C90.81 76.69, 55.87 78.01, -0.52 75.72 M-0.62 76.73 C-2.37 51.5, -1.09 25.68, 1.37 1.09 M0.09 76.27 C-0.09 59.23, 0.13 41.03, -0.06 0.41" stroke="#000000" stroke-width="1" fill="none"></path></g><g stroke-linecap="round"><g transform="translate(10.820052509009827 327.94968205182107) rotate(0 64.25624932880334 0.1543615624308643)"><path d="M-0.82 0.85 C20.74 0.74, 107.67 -0.32, 129.33 -0.54 M0.95 0.24 C22.39 0.29, 107.38 0.65, 128.64 0.72" stroke="#000000" stroke-width="1" fill="none"></path></g></g><g stroke-linecap="round" transform="translate(16.383685728859916 321.5047174595857) rotate(0 2.5009765625 2.5009765625)"><path d="M2.5 0 C3.01 -0.03, 3.7 0.24, 4.11 0.59 C4.52 0.93, 4.87 1.54, 4.96 2.07 C5.06 2.59, 4.93 3.29, 4.67 3.75 C4.4 4.22, 3.86 4.67, 3.36 4.85 C2.85 5.03, 2.15 5.03, 1.65 4.85 C1.14 4.67, 0.6 4.22, 0.34 3.75 C0.07 3.29, -0.06 2.59, 0.04 2.07 C0.13 1.54, 0.48 0.93, 0.89 0.59 C1.3 0.24, 2.23 0.09, 2.5 0 C2.77 -0.09, 2.5 0.01, 2.5 0.05 M2.5 0 C3.01 -0.03, 3.7 0.24, 4.11 0.59 C4.52 0.93, 4.87 1.54, 4.96 2.07 C5.06 2.59, 4.93 3.29, 4.67 3.75 C4.4 4.22, 3.86 4.67, 3.36 4.85 C2.85 5.03, 2.15 5.03, 1.65 4.85 C1.14 4.67, 0.6 4.22, 0.34 3.75 C0.07 3.29, -0.06 2.59, 0.04 2.07 C0.13 1.54, 0.48 0.93, 0.89 0.59 C1.3 0.24, 2.23 0.09, 2.5 0 C2.77 -0.09, 2.5 0.01, 2.5 0.05" stroke="none" stroke-width="0" fill="#fa5252"></path><path d="M2.5 0 C3.01 -0.03, 3.7 0.24, 4.11 0.59 C4.52 0.93, 4.87 1.54, 4.96 2.07 C5.06 2.59, 4.93 3.29, 4.67 3.75 C4.4 4.22, 3.86 4.67, 3.36 4.85 C2.85 5.03, 2.15 5.03, 1.65 4.85 C1.14 4.67, 0.6 4.22, 0.34 3.75 C0.07 3.29, -0.06 2.59, 0.04 2.07 C0.13 1.54, 0.48 0.93, 0.89 0.59 C1.3 0.24, 2.23 0.09, 2.5 0 C2.77 -0.09, 2.5 0.01, 2.5 0.05 M2.5 0 C3.01 -0.03, 3.7 0.24, 4.11 0.59 C4.52 0.93, 4.87 1.54, 4.96 2.07 C5.06 2.59, 4.93 3.29, 4.67 3.75 C4.4 4.22, 3.86 4.67, 3.36 4.85 C2.85 5.03, 2.15 5.03, 1.65 4.85 C1.14 4.67, 0.6 4.22, 0.34 3.75 C0.07 3.29, -0.06 2.59, 0.04 2.07 C0.13 1.54, 0.48 0.93, 0.89 0.59 C1.3 0.24, 2.23 0.09, 2.5 0 C2.77 -0.09, 2.5 0.01, 2.5 0.05" stroke="#000000" stroke-width="1" fill="none"></path></g><g stroke-linecap="round" transform="translate(26.646381041359916 321.5047174595857) rotate(0 2.5009765625 2.5009765625)"><path d="M2.5 0 C3.01 -0.03, 3.7 0.24, 4.11 0.59 C4.52 0.93, 4.87 1.54, 4.96 2.07 C5.06 2.59, 4.93 3.29, 4.67 3.75 C4.4 4.22, 3.86 4.67, 3.36 4.85 C2.85 5.03, 2.15 5.03, 1.65 4.85 C1.14 4.67, 0.6 4.22, 0.34 3.75 C0.07 3.29, -0.06 2.59, 0.04 2.07 C0.13 1.54, 0.48 0.93, 0.89 0.59 C1.3 0.24, 2.23 0.09, 2.5 0 C2.77 -0.09, 2.5 0.01, 2.5 0.05 M2.5 0 C3.01 -0.03, 3.7 0.24, 4.11 0.59 C4.52 0.93, 4.87 1.54, 4.96 2.07 C5.06 2.59, 4.93 3.29, 4.67 3.75 C4.4 4.22, 3.86 4.67, 3.36 4.85 C2.85 5.03, 2.15 5.03, 1.65 4.85 C1.14 4.67, 0.6 4.22, 0.34 3.75 C0.07 3.29, -0.06 2.59, 0.04 2.07 C0.13 1.54, 0.48 0.93, 0.89 0.59 C1.3 0.24, 2.23 0.09, 2.5 0 C2.77 -0.09, 2.5 0.01, 2.5 0.05" stroke="none" stroke-width="0" fill="#fab005"></path><path d="M2.5 0 C3.01 -0.03, 3.7 0.24, 4.11 0.59 C4.52 0.93, 4.87 1.54, 4.96 2.07 C5.06 2.59, 4.93 3.29, 4.67 3.75 C4.4 4.22, 3.86 4.67, 3.36 4.85 C2.85 5.03, 2.15 5.03, 1.65 4.85 C1.14 4.67, 0.6 4.22, 0.34 3.75 C0.07 3.29, -0.06 2.59, 0.04 2.07 C0.13 1.54, 0.48 0.93, 0.89 0.59 C1.3 0.24, 2.23 0.09, 2.5 0 C2.77 -0.09, 2.5 0.01, 2.5 0.05 M2.5 0 C3.01 -0.03, 3.7 0.24, 4.11 0.59 C4.52 0.93, 4.87 1.54, 4.96 2.07 C5.06 2.59, 4.93 3.29, 4.67 3.75 C4.4 4.22, 3.86 4.67, 3.36 4.85 C2.85 5.03, 2.15 5.03, 1.65 4.85 C1.14 4.67, 0.6 4.22, 0.34 3.75 C0.07 3.29, -0.06 2.59, 0.04 2.07 C0.13 1.54, 0.48 0.93, 0.89 0.59 C1.3 0.24, 2.23 0.09, 2.5 0 C2.77 -0.09, 2.5 0.01, 2.5 0.05" stroke="#000000" stroke-width="1" fill="none"></path></g><g stroke-linecap="round" transform="translate(37.359797507706105 321.9554386134319) rotate(0 2.5009765625 2.5009765625)"><path d="M2.5 0 C3.01 -0.03, 3.7 0.24, 4.11 0.59 C4.52 0.93, 4.87 1.54, 4.96 2.07 C5.06 2.59, 4.93 3.29, 4.67 3.75 C4.4 4.22, 3.86 4.67, 3.36 4.85 C2.85 5.03, 2.15 5.03, 1.65 4.85 C1.14 4.67, 0.6 4.22, 0.34 3.75 C0.07 3.29, -0.06 2.59, 0.04 2.07 C0.13 1.54, 0.48 0.93, 0.89 0.59 C1.3 0.24, 2.23 0.09, 2.5 0 C2.77 -0.09, 2.5 0.01, 2.5 0.05 M2.5 0 C3.01 -0.03, 3.7 0.24, 4.11 0.59 C4.52 0.93, 4.87 1.54, 4.96 2.07 C5.06 2.59, 4.93 3.29, 4.67 3.75 C4.4 4.22, 3.86 4.67, 3.36 4.85 C2.85 5.03, 2.15 5.03, 1.65 4.85 C1.14 4.67, 0.6 4.22, 0.34 3.75 C0.07 3.29, -0.06 2.59, 0.04 2.07 C0.13 1.54, 0.48 0.93, 0.89 0.59 C1.3 0.24, 2.23 0.09, 2.5 0 C2.77 -0.09, 2.5 0.01, 2.5 0.05" stroke="none" stroke-width="0" fill="#40c057"></path><path d="M2.5 0 C3.01 -0.03, 3.7 0.24, 4.11 0.59 C4.52 0.93, 4.87 1.54, 4.96 2.07 C5.06 2.59, 4.93 3.29, 4.67 3.75 C4.4 4.22, 3.86 4.67, 3.36 4.85 C2.85 5.03, 2.15 5.03, 1.65 4.85 C1.14 4.67, 0.6 4.22, 0.34 3.75 C0.07 3.29, -0.06 2.59, 0.04 2.07 C0.13 1.54, 0.48 0.93, 0.89 0.59 C1.3 0.24, 2.23 0.09, 2.5 0 C2.77 -0.09, 2.5 0.01, 2.5 0.05 M2.5 0 C3.01 -0.03, 3.7 0.24, 4.11 0.59 C4.52 0.93, 4.87 1.54, 4.96 2.07 C5.06 2.59, 4.93 3.29, 4.67 3.75 C4.4 4.22, 3.86 4.67, 3.36 4.85 C2.85 5.03, 2.15 5.03, 1.65 4.85 C1.14 4.67, 0.6 4.22, 0.34 3.75 C0.07 3.29, -0.06 2.59, 0.04 2.07 C0.13 1.54, 0.48 0.93, 0.89 0.59 C1.3 0.24, 2.23 0.09, 2.5 0 C2.77 -0.09, 2.5 0.01, 2.5 0.05" stroke="#000000" stroke-width="1" fill="none"></path></g><g stroke-opacity="0.9" fill-opacity="0.9" stroke-linecap="round" transform="translate(53.38685849733332 338.00780749144775) rotate(0 21.36010126968786 21.36010126968786)"><path d="M12.65 1.44 C16.48 -0.8, 23.05 -1.35, 27.58 -0.03 C32.11 1.28, 37.18 5.24, 39.82 9.33 C42.45 13.42, 43.95 20.03, 43.41 24.52 C42.87 29.01, 40.09 33.31, 36.56 36.27 C33.04 39.23, 26.91 41.95, 22.26 42.28 C17.62 42.61, 12.37 40.76, 8.7 38.23 C5.03 35.71, 1.32 31.41, 0.22 27.14 C-0.87 22.86, -0.27 16.86, 2.14 12.58 C4.56 8.3, 12.18 3.47, 14.71 1.45 C17.25 -0.57, 17.26 0.32, 17.34 0.45 M28.72 1.29 C32.93 3.01, 38.71 9.49, 41.1 13.63 C43.49 17.76, 44.05 22.12, 43.07 26.09 C42.1 30.07, 39.14 34.74, 35.23 37.46 C31.32 40.18, 24.3 42.48, 19.59 42.41 C14.88 42.33, 10.39 40.34, 6.98 36.99 C3.58 33.64, -0.35 26.97, -0.84 22.31 C-1.33 17.64, 1.14 12.35, 4.05 8.99 C6.95 5.63, 11.98 3.47, 16.58 2.13 C21.18 0.8, 29.37 1, 31.67 1 C33.97 1.01, 30.72 1.51, 30.39 2.15" stroke="none" stroke-width="0" fill="#04aaf7"></path><path d="M18.82 -0.56 C23.15 -1.17, 30.29 2, 34.08 4.56 C37.87 7.12, 40.4 10.6, 41.54 14.8 C42.68 19.01, 42.81 25.47, 40.92 29.78 C39.03 34.08, 34.48 38.7, 30.21 40.65 C25.93 42.61, 19.72 42.67, 15.26 41.51 C10.81 40.35, 5.95 37.24, 3.46 33.71 C0.98 30.17, -0.22 24.86, 0.36 20.31 C0.94 15.75, 3.5 9.77, 6.94 6.38 C10.39 2.99, 18.31 0.95, 21.02 -0.03 C23.73 -1.01, 22.98 0.31, 23.19 0.51 M28.88 -0.41 C32.78 0.48, 35.55 5.8, 37.95 10.02 C40.35 14.23, 43.51 20.59, 43.29 24.88 C43.07 29.17, 40.34 32.6, 36.61 35.77 C32.88 38.95, 25.48 43.42, 20.91 43.93 C16.34 44.45, 12.57 41.79, 9.19 38.86 C5.81 35.93, 1.86 30.78, 0.63 26.37 C-0.6 21.97, -0.28 16.79, 1.79 12.43 C3.86 8.07, 8.47 1.99, 13.04 0.23 C17.61 -1.53, 26.81 1.84, 29.21 1.88 C31.62 1.92, 28.03 0.08, 27.45 0.49" stroke="#000000" stroke-width="1" fill="none"></path></g><g stroke-linecap="round"><g transform="translate(80.46502255930892 354.2321595559054) rotate(0 -3.4669568227483722 6.479860744560767)" fill-rule="evenodd"><path d="M0 0 L-1.83 -0.41 L-7.57 -6.27 L-9.75 -6.1 L-11.36 -4.35 L-12.61 2.37 L-11.27 6.74 L-17.42 8.89 L-18 11.42 L-17.2 13.64 L-15.01 14.04 L-12.38 13.35 L-8.7 9.48 L-3.62 17.87 L-1.49 19.38 L-0.42 18.17 L-3.78 4.8 L-1.52 3.64 L1.39 4.35 L3.16 5.87 L6.21 6.29 L9.24 5.87 L10.81 3.22 L10.8 0.63 L4.22 1.11 L5.49 -5.76 L4.23 -6.26 L2.47 -5.35 L-0.24 -0.92 L0 0" stroke="none" stroke-width="0" fill="#40c057" fill-rule="evenodd"></path><path d="M0 0 C-0.31 -0.07, -0.57 0.63, -1.83 -0.41 C-3.09 -1.46, -5.98 -5.62, -7.57 -6.27 C-9.16 -6.93, -10.52 -5.79, -11.36 -4.35 C-12.2 -2.91, -12.63 0.53, -12.61 2.37 C-12.6 4.22, -10.47 5.65, -11.27 6.74 C-12.07 7.83, -16.44 7.74, -17.42 8.89 C-18.41 10.04, -18.04 12.9, -17.2 13.64 C-16.36 14.39, -13.8 14.04, -12.38 13.35 C-10.96 12.66, -10.16 8.72, -8.7 9.48 C-7.24 10.23, -5 16.42, -3.62 17.87 C-2.24 19.32, -0.39 20.35, -0.42 18.17 C-0.44 15.99, -4.08 7.1, -3.78 4.8 C-3.48 2.5, 0.23 4.17, 1.39 4.35 C2.54 4.53, 1.85 5.61, 3.16 5.87 C4.47 6.12, 7.96 6.74, 9.24 5.87 C10.51 5, 11.64 1.43, 10.8 0.63 C9.97 -0.16, 5.11 2.18, 4.22 1.11 C3.34 0.04, 5.78 -4.68, 5.49 -5.76 C5.19 -6.84, 3.43 -6.15, 2.47 -5.35 C1.52 -4.54, 0.17 -1.81, -0.24 -0.92 C-0.65 -0.03, -0.04 -0.15, 0 0 M0 0 C-0.31 -0.07, -0.57 0.63, -1.83 -0.41 C-3.09 -1.46, -5.98 -5.62, -7.57 -6.27 C-9.16 -6.93, -10.52 -5.79, -11.36 -4.35 C-12.2 -2.91, -12.63 0.53, -12.61 2.37 C-12.6 4.22, -10.47 5.65, -11.27 6.74 C-12.07 7.83, -16.44 7.74, -17.42 8.89 C-18.41 10.04, -18.04 12.9, -17.2 13.64 C-16.36 14.39, -13.8 14.04, -12.38 13.35 C-10.96 12.66, -10.16 8.72, -8.7 9.48 C-7.24 10.23, -5 16.42, -3.62 17.87 C-2.24 19.32, -0.39 20.35, -0.42 18.17 C-0.44 15.99, -4.08 7.1, -3.78 4.8 C-3.48 2.5, 0.23 4.17, 1.39 4.35 C2.54 4.53, 1.85 5.61, 3.16 5.87 C4.47 6.12, 7.96 6.74, 9.24 5.87 C10.51 5, 11.64 1.43, 10.8 0.63 C9.97 -0.16, 5.11 2.18, 4.22 1.11 C3.34 0.04, 5.78 -4.68, 5.49 -5.76 C5.19 -6.84, 3.43 -6.15, 2.47 -5.35 C1.52 -4.54, 0.17 -1.81, -0.24 -0.92 C-0.65 -0.03, -0.04 -0.15, 0 0" stroke="#087f5b" stroke-width="1" fill="none"></path></g></g><g stroke-linecap="round"><g stroke-opacity="0.9" fill-opacity="0.9" transform="translate(54.44592097136086 358.97068105462876) rotate(0 20.359853275446582 -0.10558211595331102)"><path d="M-0.22 0.45 C6.82 0.41, 35.59 -0.74, 42.52 -0.7 M-1.8 -0.36 C5.1 -0.22, 34.19 0.63, 41.79 0.47" stroke="#000000" stroke-width="1" fill="none"></path></g></g><g stroke-linecap="round"><g stroke-opacity="0.9" fill-opacity="0.9" transform="translate(59.54125000113521 343.53615212766266) rotate(0 14.65930330192431 2.6275724513134264)"><path d="M0 0 C0.13 0.38, 0.09 1.58, 0.77 2.28 C1.46 2.97, 2.81 3.68, 4.1 4.19 C5.4 4.7, 6.64 5.13, 8.54 5.34 C10.43 5.55, 12.97 5.55, 15.48 5.45 C17.99 5.34, 21.44 5.28, 23.58 4.71 C25.72 4.14, 27.36 2.86, 28.32 2.03 C29.27 1.2, 29.15 0.12, 29.32 -0.26 M0 0 C0.13 0.38, 0.09 1.58, 0.77 2.28 C1.46 2.97, 2.81 3.68, 4.1 4.19 C5.4 4.7, 6.64 5.13, 8.54 5.34 C10.43 5.55, 12.97 5.55, 15.48 5.45 C17.99 5.34, 21.44 5.28, 23.58 4.71 C25.72 4.14, 27.36 2.86, 28.32 2.03 C29.27 1.2, 29.15 0.12, 29.32 -0.26" stroke="#000000" stroke-width="1" fill="none"></path></g></g><g stroke-opacity="0.9" fill-opacity="0.9" stroke-linecap="round" transform="translate(67.61516592505467 336.62527786185507) rotate(0 7.7642171765580485 22.41115194065472)"><path d="M4.85 0.25 C6.25 -1.7, 9.17 -0.88, 10.75 1.01 C12.32 2.91, 13.64 7.42, 14.3 11.64 C14.97 15.85, 15.07 21.59, 14.71 26.31 C14.36 31.02, 13.3 36.72, 12.16 39.92 C11.02 43.13, 9.33 45.63, 7.87 45.53 C6.41 45.42, 4.81 42.59, 3.39 39.3 C1.98 36, -0.12 30.53, -0.64 25.76 C-1.15 20.99, -0.9 15.02, 0.29 10.67 C1.49 6.33, 5.39 1.3, 6.54 -0.31 C7.7 -1.91, 7.17 0.41, 7.22 1.05 M4.97 3.14 C6.72 0.55, 9.07 -1.99, 10.35 -0.84 C11.63 0.31, 11.64 5.91, 12.65 10.06 C13.66 14.22, 16.26 19.41, 16.42 24.08 C16.58 28.75, 15 34.49, 13.61 38.09 C12.22 41.68, 9.79 45.34, 8.08 45.65 C6.37 45.95, 4.41 42.52, 3.34 39.9 C2.28 37.28, 2.2 34.45, 1.7 29.93 C1.2 25.42, 0.15 17.18, 0.32 12.83 C0.49 8.48, 1.97 5.61, 2.71 3.83 C3.45 2.04, 4.66 1.9, 4.77 2.12" stroke="#000000" stroke-width="1" fill="none"></path></g><g stroke-linecap="round"><g stroke-opacity="0.9" fill-opacity="0.9" transform="translate(61.057201510761104 375.27324418610357) rotate(0 14.65930330192431 -2.712622320327597)"><path d="M0 0 C0.68 -0.72, 2.68 -3.4, 4.1 -4.32 C5.53 -5.24, 6.64 -5.3, 8.54 -5.52 C10.43 -5.73, 12.97 -5.73, 15.48 -5.63 C17.99 -5.52, 21.44 -5.45, 23.58 -4.86 C25.72 -4.28, 27.36 -2.95, 28.32 -2.1 C29.27 -1.24, 29.15 -0.12, 29.32 0.27 M0 0 C0.68 -0.72, 2.68 -3.4, 4.1 -4.32 C5.53 -5.24, 6.64 -5.3, 8.54 -5.52 C10.43 -5.73, 12.97 -5.73, 15.48 -5.63 C17.99 -5.52, 21.44 -5.45, 23.58 -4.86 C25.72 -4.28, 27.36 -2.95, 28.32 -2.1 C29.27 -1.24, 29.15 -0.12, 29.32 0.27" stroke="#000000" stroke-width="1" fill="none"></path></g></g><g stroke-linecap="round"><g transform="translate(220.15037180947922 503.8324335191584) rotate(0 -0.49050032410941924 68.01192548768557)" fill-rule="evenodd"><path d="M-1.46 0.65 L-58.28 33.12 L-60.86 102.56 L0.87 137.04 L58.77 99.26 L59.65 30.49 L-0.4 0.78" stroke="none" stroke-width="0" fill="#40c057" fill-rule="evenodd"></path><path d="M1.1 1.51 C-21.23 9.35, -40.23 21.77, -60.76 34.59 M0.01 0.29 C-13.54 8.57, -28.26 15.18, -60.25 33.79 M-58.98 35.31 C-58.35 55.22, -61.71 71.14, -60.14 101.65 M-61.08 35.45 C-59.23 57.69, -59.74 80.26, -60.66 101.31 M-59.07 100.26 C-44.53 108.23, -24.27 120.99, -0.74 134.52 M-60.53 100.73 C-40.14 113.58, -18.74 125.99, 0.97 136.7 M0.48 135.63 C13.59 128.96, 27.91 119.75, 58.65 98.49 M-0.53 137.01 C20.96 122.98, 40.96 108.6, 59.08 98.66 M57.06 97.51 C58.69 74.33, 59.52 48.2, 57.26 32.67 M59.75 97.07 C58.59 79.22, 58.58 61.62, 58.43 31.67 M60.1 33.85 C37.31 22.04, 21.33 9.72, -0.4 -0.82 M58.48 32.47 C42.35 23.05, 26.13 14.66, -0.42 -0.98 M0 0 C0 0, 0 0, 0 0 M0 0 C0 0, 0 0, 0 0" stroke="#000000" stroke-width="1" fill="none"></path></g></g><g stroke-linecap="round"><g transform="translate(200.30008382550875 556.9176387286736) rotate(0 18.70920667769049 13.248815763793289)" fill-rule="evenodd"><path d="M1.64 1.2 L1.21 38.39 L0.16 41.24 L-4.06 44.65 L-10.14 45.83 L-9.31 40.73 L-13.47 24.89 L-9.83 -3.78 L-10.2 -16.39 L-3.26 -16.65 L2.1 -16.18 L35.05 24.27 L37.5 25.24 L39.33 20.61 L39.43 -15.05 L39.7 -18.27 L43.32 -19.1 L45.17 -15.95 L47.65 -13.59 L49.5 -3.5 L50.65 25.72 L46.77 38.32 L42.81 43.51 L33.58 39.75 L27.71 38.65 L1.98 1.37" stroke="none" stroke-width="0" fill="#ffff" fill-rule="evenodd"></path><path d="M0.66 0.9 C0.75 4.21, -0.03 12.27, -0.19 19.04 C-0.35 25.8, 1.49 37.82, -0.28 41.5 C-2.04 45.17, -8.64 46.48, -10.79 41.08 C-12.93 35.68, -13.33 18.42, -13.15 9.12 C-12.97 -0.19, -12.39 -10.77, -9.71 -14.75 C-7.03 -18.72, -2.04 -18.06, 2.94 -14.71 C7.93 -11.36, 14.78 -1.38, 20.18 5.37 C25.59 12.12, 32.54 28.98, 35.4 25.77 C38.26 22.56, 35.13 -6.87, 37.33 -13.89 C39.54 -20.91, 46.45 -20.47, 48.65 -16.34 C50.86 -12.22, 50.64 1.32, 50.56 10.84 C50.47 20.36, 51.28 35.82, 48.16 40.77 C45.03 45.72, 37.4 43.83, 31.8 40.55 C26.21 37.28, 19.79 27.76, 14.58 21.12 C9.37 14.48, 3.13 4.4, 0.52 0.7 M-0.45 0.33 C-0.51 3.81, -1.32 12.96, -1.41 19.99 C-1.49 27.01, 0.61 38.79, -0.94 42.49 C-2.49 46.18, -8.97 47.72, -10.71 42.17 C-12.45 36.62, -11.73 18.85, -11.38 9.19 C-11.02 -0.47, -11.11 -11.64, -8.59 -15.78 C-6.06 -19.91, -0.94 -19.08, 3.77 -15.61 C8.47 -12.13, 14.11 -1.6, 19.64 5.07 C25.16 11.73, 33.94 27.61, 36.93 24.37 C39.92 21.12, 35.5 -7.68, 37.57 -14.4 C39.65 -21.12, 47.37 -20.13, 49.37 -15.96 C51.36 -11.79, 49.62 1.24, 49.53 10.63 C49.45 20.02, 51.41 34.91, 48.84 40.37 C46.28 45.84, 39.81 46.65, 34.16 43.4 C28.51 40.16, 20.32 28.34, 14.93 20.88 C9.55 13.43, 4.2 2.29, 1.83 -1.33" stroke="#000000" stroke-width="1" fill="none"></path></g></g><g stroke-linecap="round"><g transform="translate(144.26308712162063 354.3386104696438) rotate(0 38.751220703125 74.61524136434457)"><path d="M0 0 C10.93 7.6, 52.69 20.75, 65.61 45.62 C78.52 70.49, 75.52 131.96, 77.5 149.23 M0 0 C10.93 7.6, 52.69 20.75, 65.61 45.62 C78.52 70.49, 75.52 131.96, 77.5 149.23" stroke="#000000" stroke-width="1" fill="none"></path></g><g transform="translate(144.26308712162063 354.3386104696438) rotate(0 38.751220703125 74.61524136434457)"><path d="M66.13 121.47 C69.86 130.57, 73.59 139.68, 77.5 149.23 M66.13 121.47 C70.54 132.23, 74.95 142.99, 77.5 149.23" stroke="#000000" stroke-width="1" fill="none"></path></g><g transform="translate(144.26308712162063 354.3386104696438) rotate(0 38.751220703125 74.61524136434457)"><path d="M86.64 120.66 C83.64 130.03, 80.65 139.4, 77.5 149.23 M86.64 120.66 C83.1 131.73, 79.56 142.81, 77.5 149.23" stroke="#000000" stroke-width="1" fill="none"></path></g></g><g stroke-linecap="round"><g transform="translate(774.9161484986926 313.3985565955791) rotate(0 -0.8050986393778885 38.14044798324119)" fill-rule="evenodd"><path d="M1.02 1.4 L-33.96 19.79 L-32.69 56.5 L-1.1 76.18 L31.71 54.72 L32.14 19.33 L-1.69 0.99" stroke="none" stroke-width="0" fill="#40c057" fill-rule="evenodd"></path><path d="M0.65 -0.43 C-9.01 3.99, -15 8.54, -33.28 19.96 M-0.4 -0.66 C-7.2 4.86, -14.08 8.81, -34.38 19.55 M-33.53 20.52 C-31.84 27.2, -33.29 37, -32.47 55.02 M-32.62 18.83 C-33.52 27.42, -32.45 35.51, -33.29 55.53 M-35.39 54.21 C-22.73 64.04, -9.88 69.48, 0.3 74.7 M-34.03 55.42 C-24.95 62.01, -14.77 67.3, -0.81 76.94 M1.87 75.82 C8.3 70.36, 16.09 67.6, 31.94 53.33 M-0.32 75.69 C10.23 69.41, 21.35 63.43, 32.4 55.47 M31.36 56.49 C34.03 41.06, 32.41 26.67, 33.4 18.31 M33.28 54.45 C32.71 44.07, 31.75 33.24, 32.96 18.93 M32.22 18.43 C22.19 12.97, 9.76 6.66, 0.88 1.52 M33.78 17.62 C25.37 14.33, 18.69 10.94, 0.08 0.63 M0 0 C0 0, 0 0, 0 0 M0 0 C0 0, 0 0, 0 0" stroke="#000000" stroke-width="1" fill="none"></path></g></g><g stroke-linecap="round"><g transform="translate(763.4796836629146 343.44970774405294) rotate(0 10.254444362191634 7.492328046539953)" fill-rule="evenodd"><path d="M-0.99 -0.29 L-0.77 25.36 L-4.02 25.75 L-7.12 24.47 L-7.19 14.2 L-6.89 -10.21 L-4.09 -9.77 L-0.19 -10.43 L18.6 12.61 L19.82 13.34 L20.33 -8.53 L22.56 -11.67 L26.99 -8.25 L27.59 3.88 L28.27 20.65 L23.27 23.95 L20.1 23.11 L1.08 -1.08" stroke="none" stroke-width="0" fill="#ffff" fill-rule="evenodd"></path><path d="M0.39 -0.26 C0.32 1.57, -0.59 7.08, -0.69 11.03 C-0.79 14.98, 0.62 21.38, -0.21 23.43 C-1.03 25.48, -4.36 26.38, -5.64 23.32 C-6.92 20.27, -8.07 10.44, -7.88 5.1 C-7.69 -0.24, -5.92 -6.46, -4.5 -8.72 C-3.07 -10.98, -1.97 -10.54, 0.66 -8.46 C3.3 -6.39, 8.02 0.08, 11.32 3.74 C14.62 7.4, 18.76 15.53, 20.48 13.49 C22.21 11.46, 20.73 -4.75, 21.67 -8.46 C22.6 -12.17, 25.08 -11.27, 26.12 -8.77 C27.15 -6.27, 27.61 1.44, 27.86 6.53 C28.1 11.63, 29.1 18.98, 27.57 21.79 C26.05 24.61, 21.83 25.27, 18.7 23.43 C15.57 21.59, 12.07 14.53, 8.8 10.76 C5.54 6.98, 0.55 2.37, -0.88 0.78 M-0.86 -1.43 C-0.53 0.57, 1.59 8.1, 1.57 12.45 C1.56 16.81, 0.2 22.67, -0.94 24.7 C-2.08 26.73, -4.41 27.86, -5.29 24.63 C-6.16 21.4, -6.01 11.09, -6.2 5.32 C-6.39 -0.45, -7.6 -7.5, -6.42 -10.01 C-5.24 -12.51, -1.94 -12, 0.89 -9.69 C3.72 -7.39, 7.58 -0.35, 10.59 3.81 C13.6 7.98, 16.94 17.48, 18.94 15.29 C20.93 13.1, 21.38 -5.44, 22.57 -9.31 C23.77 -13.18, 25.46 -10.57, 26.11 -7.93 C26.76 -5.3, 26.7 1.71, 26.47 6.48 C26.25 11.26, 26.15 17.9, 24.76 20.7 C23.38 23.51, 20.71 25.12, 18.16 23.31 C15.62 21.5, 12.57 13.92, 9.49 9.84 C6.41 5.75, 1.43 0.6, -0.31 -1.22" stroke="#000000" stroke-width="1" fill="none"></path></g></g><g stroke-linecap="round"><g transform="translate(773.2920788208394 312.4808058448173) rotate(0 -173.6310577392578 72.4035177230835)"><path d="M0 0 C-3.21 -17.96, 15.03 -92.05, -19.25 -107.73 C-53.54 -123.42, -167.88 -142.77, -205.68 -94.12 C-243.49 -45.46, -222.17 123.51, -246.11 184.17 C-270.04 244.83, -332.09 255.58, -349.29 269.86 M0 0 C-3.21 -17.96, 15.03 -92.05, -19.25 -107.73 C-53.54 -123.42, -167.88 -142.77, -205.68 -94.12 C-243.49 -45.46, -222.17 123.51, -246.11 184.17 C-270.04 244.83, -332.09 255.58, -349.29 269.86" stroke="#000000" stroke-width="1" fill="none"></path></g><g transform="translate(773.2920788208394 312.4808058448173) rotate(0 -173.6310577392578 72.4035177230835)"><path d="M-329.12 247.65 C-336.82 256.13, -344.53 264.62, -349.29 269.86 M-329.12 247.65 C-335.91 255.12, -342.69 262.59, -349.29 269.86" stroke="#000000" stroke-width="1" fill="none"></path></g><g transform="translate(773.2920788208394 312.4808058448173) rotate(0 -173.6310577392578 72.4035177230835)"><path d="M-319.56 265.81 C-330.92 267.36, -342.27 268.9, -349.29 269.86 M-319.56 265.81 C-329.56 267.17, -339.56 268.53, -349.29 269.86" stroke="#000000" stroke-width="1" fill="none"></path></g></g><g stroke-linecap="round"><g transform="translate(647.9185384810962 895.3415802772198) rotate(0 -0.5679078223682268 41.545491633403685)" fill-rule="evenodd"><path d="M0.02 1.75 L-35.83 22.49 L-38.16 62.88 L-1.16 82.19 L36.12 58.5 L35.6 21.11 L-1.45 -0.59" stroke="none" stroke-width="0" fill="#40c057" fill-rule="evenodd"></path><path d="M0.77 0.91 C-11.36 9.75, -26.52 15.59, -36.76 21.15 M0.34 -0.02 C-14.24 7.07, -26.1 14.97, -36.33 20.23 M-35.8 20.74 C-38.04 29.88, -37.62 41.98, -36.35 59.9 M-37.45 21.09 C-36.03 31.82, -37.79 42.01, -37.63 60.57 M-38.67 61.3 C-25.38 69.84, -15.04 75.52, -0.75 83.44 M-37.72 60.71 C-24.48 67.48, -12.09 76.02, 0.28 83.76 M0.07 83.27 C13.94 75.46, 25.02 67.15, 35.99 61.13 M0.92 82.68 C11.07 75.74, 21.16 68.78, 35.52 59.84 M35.18 60.17 C34.66 46.99, 35.01 35.05, 37.53 18.54 M35.7 59.49 C34.9 49.79, 35.14 41.88, 35.75 19.97 M37.15 19.78 C26.82 12.36, 15.47 6.49, -1.38 -0.67 M36.37 19.67 C26.34 14.66, 17.84 10.22, -0.6 0.36 M0 0 C0 0, 0 0, 0 0 M0 0 C0 0, 0 0, 0 0" stroke="#000000" stroke-width="1" fill="none"></path></g></g><g stroke-linecap="round"><g transform="translate(635.1589715918595 927.6910886809167) rotate(0 11.60681632919966 8.620994211602124)" fill-rule="evenodd"><path d="M-0.14 1.86 L-0.65 24.08 L-4.95 25.81 L-8.25 25.44 L-9.45 15.16 L-8.96 -2.91 L-5.64 -7.77 L-3.91 -10.93 L0.66 -9.27 L20.66 15.74 L22.37 13.93 L21.84 -7.75 L24.38 -9.75 L30.39 -9.08 L31.55 7.66 L27.95 23.31 L25.01 26.96 L20.76 26.12 L-1.31 0.89" stroke="none" stroke-width="0" fill="#ffff" fill-rule="evenodd"></path><path d="M0.46 0.54 C0.73 2.64, 1.4 9.27, 1.24 13.5 C1.07 17.73, 0.75 23.99, -0.52 25.93 C-1.79 27.86, -5.33 28.31, -6.37 25.11 C-7.41 21.91, -6.75 12.36, -6.77 6.74 C-6.79 1.12, -7.88 -5.72, -6.49 -8.62 C-5.1 -11.51, -1.4 -12.74, 1.56 -10.64 C4.53 -8.54, 7.93 -0.5, 11.32 3.99 C14.71 8.49, 20.09 18.51, 21.92 16.34 C23.75 14.18, 21.27 -4.74, 22.31 -8.99 C23.34 -13.24, 26.66 -11.67, 28.12 -9.15 C29.57 -6.63, 31 0.68, 31.05 6.12 C31.09 11.57, 30.24 20.25, 28.38 23.52 C26.52 26.78, 23.08 27.72, 19.87 25.73 C16.67 23.74, 12.53 15.94, 9.15 11.57 C5.78 7.2, 1 1.58, -0.38 -0.48 M-0.76 -0.22 C-0.53 1.5, 0.95 7.41, 0.84 12 C0.73 16.59, -0.25 24.98, -1.41 27.34 C-2.56 29.71, -5.04 29.51, -6.11 26.21 C-7.18 22.91, -7.92 13.49, -7.83 7.55 C-7.74 1.61, -7.21 -6.7, -5.54 -9.45 C-3.87 -12.19, -0.41 -11.17, 2.19 -8.92 C4.79 -6.67, 6.46 0.02, 10.06 4.05 C13.65 8.08, 21.71 17.56, 23.78 15.26 C25.85 12.96, 21.81 -5.84, 22.48 -9.74 C23.16 -13.63, 26.58 -10.65, 27.83 -8.1 C29.07 -5.55, 29.87 -0.1, 29.95 5.56 C30.04 11.23, 30.16 22.53, 28.34 25.88 C26.52 29.23, 22.15 27.61, 19.03 25.66 C15.91 23.71, 12.72 18.36, 9.63 14.17 C6.53 9.98, 2.05 2.95, 0.46 0.52" stroke="#000000" stroke-width="1" fill="none"></path></g></g><g stroke-linecap="round"><g transform="translate(801.7612260912149 461.16259858659726) rotate(0 28.926141567435593 31.153348001905584)" fill-rule="evenodd"><path d="M1.6 0.12 L2.36 64.2 L12.65 68.48 L32.5 67.64 L47.94 67.12 L58.25 62.27 L58.99 -1.22 L49.29 -3.58 L27.76 -7.83 L8.82 -3.18 L-0.58 1.95" stroke="none" stroke-width="0" fill="#228be6" fill-rule="evenodd"></path><path d="M1.14 0.38 C1.31 9.76, 1.3 45.47, 1.11 55.94 C0.92 66.4, -0.11 61.83, 0.01 63.18 C0.13 64.53, -0.46 63.29, 1.82 64.03 C4.09 64.78, 8.76 67.13, 13.67 67.65 C18.58 68.16, 25.58 67.36, 31.3 67.12 C37.02 66.88, 43.87 66.65, 47.99 66.19 C52.1 65.72, 54.35 64.92, 55.99 64.35 C57.63 63.77, 57.43 63.97, 57.83 62.73 C58.22 61.49, 58.39 66.38, 58.36 56.89 C58.34 47.4, 58.01 15.45, 57.66 5.79 C57.32 -3.87, 57.12 0.25, 56.31 -1.06 C55.5 -2.38, 54.73 -1.5, 52.8 -2.09 C50.88 -2.67, 48.8 -4.13, 44.77 -4.59 C40.75 -5.04, 33.67 -4.81, 28.67 -4.81 C23.66 -4.82, 18.92 -5.07, 14.75 -4.61 C10.57 -4.16, 6.2 -3.05, 3.61 -2.1 C1.03 -1.14, -0.29 0.83, -0.77 1.11 C-1.26 1.39, 0.4 -0.24, 0.71 -0.42 M0.28 -0.47 C0.36 9.14, 0.82 47.15, 0.64 57.43 C0.47 67.72, -0.89 60.06, -0.76 61.25 C-0.62 62.43, -0.73 63.4, 1.46 64.55 C3.66 65.69, 7.77 67.36, 12.43 68.13 C17.09 68.9, 23.93 69.18, 29.43 69.17 C34.92 69.15, 41.14 68.9, 45.4 68.05 C49.66 67.19, 53.12 65.09, 54.96 64.04 C56.81 62.99, 56.31 63.02, 56.47 61.76 C56.64 60.5, 55.69 66.16, 55.98 56.48 C56.27 46.8, 57.82 13.43, 58.2 3.69 C58.57 -6.04, 59.12 -0.9, 58.22 -1.93 C57.32 -2.95, 55.21 -1.97, 52.79 -2.44 C50.37 -2.92, 47.58 -4.4, 43.69 -4.79 C39.8 -5.18, 34.62 -4.47, 29.45 -4.8 C24.29 -5.13, 17.13 -7.36, 12.71 -6.76 C8.3 -6.16, 4.88 -2.05, 2.97 -1.19 C1.05 -0.33, 1.76 -1.72, 1.21 -1.59 C0.67 -1.45, 0.14 -0.35, -0.3 -0.38" stroke="#0a11d3" stroke-width="1" fill="none"></path></g></g><g stroke-linecap="round"><g transform="translate(802.2682305342189 502.9325344444261) rotate(0 28.334463054260198 4.161864155644196)"><path d="M0.38 0.92 C0.67 1.15, 0.02 2.11, 1.43 2.54 C2.84 2.98, 6.47 2.89, 8.83 3.53 C11.19 4.18, 12 5.87, 15.62 6.41 C19.23 6.95, 25.6 6.86, 30.52 6.8 C35.44 6.75, 41.13 6.84, 45.15 6.08 C49.18 5.33, 52.59 3.24, 54.66 2.28 C56.72 1.32, 56.95 0.58, 57.56 0.31 M-0.89 0.36 C-0.72 1.3, -1.12 3.43, 0.44 4.08 C2 4.73, 6 3.64, 8.48 4.25 C10.95 4.86, 11.83 7.19, 15.27 7.75 C18.72 8.3, 24.01 7.95, 29.13 7.57 C34.25 7.19, 41.71 6.58, 45.99 5.47 C50.28 4.37, 53.09 1.8, 54.85 0.94 C56.61 0.07, 56.2 0.48, 56.57 0.29" stroke="#0a11d3" stroke-width="1" fill="none"></path></g></g><g stroke-linecap="round"><g transform="translate(801.4950941367931 482.01410319329784) rotate(0 28.84777412828612 3.077259542057732)"><path d="M0.92 -0.08 C0.98 0.41, 0.52 2.72, 1.51 3.33 C2.51 3.93, 4.29 3.09, 6.91 3.55 C9.52 4.02, 13.15 5.89, 17.18 6.13 C21.21 6.37, 26.09 5.28, 31.07 5 C36.05 4.71, 42.99 4.84, 47.06 4.4 C51.14 3.96, 53.69 2.99, 55.53 2.34 C57.37 1.69, 57.61 0.92, 58.09 0.5 M-0.06 -1.17 C-0.25 -1.05, -0.98 0.71, 0.57 1.62 C2.11 2.52, 6.35 3.33, 9.2 4.28 C12.05 5.23, 14.2 7.23, 17.66 7.32 C21.12 7.41, 25.38 4.94, 29.98 4.81 C34.57 4.69, 40.88 7.2, 45.24 6.57 C49.61 5.93, 54.15 2.03, 56.18 1.03 C58.2 0.03, 57.2 1, 57.39 0.57" stroke="#0a11d3" stroke-width="1" fill="none"></path></g></g><g stroke-linecap="round" transform="translate(800.5173258474802 455.41050169485266) rotate(0 28.52920656276683 5.769817393285734)"><path d="M42.71 1.61 C48.06 2.06, 53.33 3.24, 55.35 4.28 C57.36 5.33, 56.85 6.72, 54.79 7.88 C52.72 9.05, 48.13 10.57, 42.97 11.27 C37.81 11.98, 29.85 12.42, 23.83 12.1 C17.8 11.77, 10.65 10.45, 6.81 9.31 C2.97 8.17, 0.85 6.29, 0.8 5.26 C0.75 4.23, 2.82 4, 6.5 3.13 C10.19 2.26, 16.37 0.49, 22.92 0.04 C29.47 -0.4, 41.82 0.17, 45.78 0.45 C49.74 0.73, 47.06 1.48, 46.67 1.72 M35.14 1.72 C40.97 1.8, 49.03 2.22, 52.82 2.77 C56.61 3.32, 58.68 3.75, 57.88 5.01 C57.08 6.28, 52.46 9.27, 48.03 10.37 C43.59 11.47, 37.3 11.45, 31.28 11.59 C25.26 11.74, 16.9 11.98, 11.92 11.26 C6.93 10.55, 3.03 8.85, 1.36 7.3 C-0.3 5.74, -0.55 2.95, 1.91 1.91 C4.37 0.88, 10.59 1.59, 16.15 1.09 C21.71 0.58, 32.11 -1.24, 35.27 -1.12 C38.44 -1, 35.09 1.37, 35.12 1.8" stroke="none" stroke-width="0" fill="#fff"></path><path d="M38.06 0.44 C43.93 0.75, 50.29 0.95, 53.51 1.87 C56.74 2.78, 58.44 4.54, 57.41 5.93 C56.39 7.31, 51.98 9.12, 47.35 10.16 C42.73 11.21, 35.65 12.17, 29.67 12.2 C23.69 12.23, 16.28 11.07, 11.49 10.34 C6.69 9.61, 2.31 9.15, 0.89 7.81 C-0.53 6.47, 0.16 3.41, 2.98 2.3 C5.8 1.18, 11.51 1.42, 17.8 1.13 C24.08 0.85, 36.13 0.44, 40.67 0.59 C45.2 0.74, 44.97 1.85, 45.02 2.01 M43.17 1.55 C48.34 2.42, 52.29 3.78, 54.39 4.98 C56.48 6.17, 57.49 7.58, 55.74 8.72 C53.99 9.85, 49.05 11.4, 43.91 11.79 C38.76 12.18, 30.83 11.17, 24.88 11.05 C18.93 10.94, 12.42 11.84, 8.2 11.1 C3.99 10.35, -0.03 7.93, -0.4 6.59 C-0.77 5.25, 2.3 3.95, 5.98 3.08 C9.66 2.21, 15.76 1.9, 21.67 1.38 C27.59 0.85, 38.14 0.04, 41.47 -0.07 C44.81 -0.18, 42.11 0.33, 41.69 0.73" stroke="#0a11d3" stroke-width="1" fill="none"></path></g><g stroke-linecap="round" transform="translate(847.0683482774562 471.4087261904965) rotate(0 4.181228697774429 4.537913105053946)"><path d="M5.38 0.39 C6.19 0.1, 7.19 -0.13, 7.74 0.35 C8.29 0.84, 8.58 2.31, 8.67 3.29 C8.76 4.28, 8.73 5.42, 8.29 6.25 C7.84 7.09, 7 7.79, 5.98 8.33 C4.97 8.87, 3.24 9.7, 2.19 9.48 C1.15 9.27, -0.09 7.99, -0.28 7.06 C-0.48 6.12, 0.71 4.73, 1.02 3.86 C1.33 2.99, 0.99 2.53, 1.61 1.83 C2.22 1.13, 3.95 -0.18, 4.72 -0.34 C5.49 -0.5, 6.1 0.62, 6.24 0.87 M5.08 0.57 C5.72 0.79, 6.3 1.29, 6.58 1.69 C6.86 2.08, 6.44 2.03, 6.75 2.95 C7.07 3.87, 8.57 6.21, 8.48 7.19 C8.39 8.18, 6.94 8.47, 6.22 8.86 C5.5 9.25, 5.03 9.98, 4.17 9.55 C3.31 9.11, 1.97 7.29, 1.06 6.27 C0.15 5.25, -1.39 4.44, -1.29 3.43 C-1.19 2.41, 1.08 0.98, 1.67 0.19 C2.26 -0.59, 1.67 -1.2, 2.23 -1.26 C2.8 -1.32, 4.71 -0.29, 5.06 -0.17" stroke="none" stroke-width="0" fill="#fff"></path><path d="M2.41 1.1 C3.14 0.68, 3.47 0.68, 4.2 0.8 C4.93 0.91, 6.09 1.05, 6.79 1.8 C7.49 2.54, 8.23 4.16, 8.41 5.26 C8.6 6.37, 8.51 7.74, 7.91 8.42 C7.3 9.11, 5.62 9.48, 4.78 9.38 C3.93 9.28, 3.71 8.47, 2.83 7.82 C1.95 7.18, -0.22 6.44, -0.51 5.5 C-0.81 4.56, 0.47 2.95, 1.07 2.18 C1.66 1.41, 2.43 1.07, 3.06 0.88 C3.69 0.69, 4.76 0.93, 4.85 1.04 M5.6 -0.49 C6.84 -0.66, 8 0.66, 8.66 1.48 C9.32 2.29, 9.56 3.42, 9.56 4.41 C9.56 5.4, 9.47 6.53, 8.66 7.41 C7.84 8.3, 5.5 9.59, 4.67 9.71 C3.85 9.83, 4.33 8.71, 3.71 8.15 C3.08 7.58, 1.35 7.29, 0.9 6.35 C0.46 5.4, 0.64 3.44, 1.02 2.46 C1.39 1.47, 2.67 0.81, 3.16 0.45 C3.66 0.08, 3.73 0.54, 3.98 0.24 C4.24 -0.05, 4.36 -1.44, 4.67 -1.31" stroke="#0a11d3" stroke-width="1" fill="none"></path></g><g stroke-linecap="round" transform="translate(847.0683482774562 491.33014765544374) rotate(0 4.181228697774429 4.537913105053946)"><path d="M6.39 1.14 C6.89 1.39, 6.92 2.14, 7.1 3.01 C7.29 3.89, 7.71 5.41, 7.48 6.39 C7.25 7.37, 6.46 8.51, 5.75 8.9 C5.04 9.29, 3.83 9.05, 3.2 8.73 C2.57 8.41, 2.42 7.47, 1.97 6.98 C1.52 6.49, 0.63 6.64, 0.5 5.78 C0.37 4.91, 0.57 2.84, 1.16 1.8 C1.76 0.76, 3.25 -0.33, 4.09 -0.44 C4.94 -0.56, 5.65 0.69, 6.23 1.11 C6.82 1.53, 7.44 2.06, 7.58 2.05 M6.49 0.63 C7.69 0.49, 8.72 0.32, 8.98 1.24 C9.24 2.16, 8.28 4.98, 8.04 6.16 C7.8 7.34, 8.18 7.71, 7.52 8.34 C6.87 8.96, 5.07 9.98, 4.12 9.9 C3.16 9.83, 2.64 8.95, 1.77 7.9 C0.91 6.85, -0.73 4.51, -1.05 3.62 C-1.38 2.72, -0.67 3.32, -0.2 2.52 C0.28 1.71, 1 -1.1, 1.8 -1.21 C2.61 -1.31, 4.02 1.49, 4.66 1.89 C5.3 2.3, 5.61 1.19, 5.62 1.22" stroke="none" stroke-width="0" fill="#fff"></path><path d="M2.9 -0.42 C3.68 -1.03, 5.05 -0.98, 5.82 -0.6 C6.6 -0.22, 7.03 0.87, 7.54 1.88 C8.04 2.89, 8.78 4.48, 8.86 5.45 C8.94 6.42, 8.67 6.97, 8.03 7.72 C7.39 8.47, 6.12 9.97, 5.01 9.95 C3.9 9.94, 2.23 8.2, 1.36 7.63 C0.49 7.07, 0.07 7.4, -0.2 6.59 C-0.47 5.77, -0.83 3.61, -0.26 2.73 C0.3 1.85, 2.54 1.63, 3.18 1.32 C3.82 1, 3.52 0.87, 3.59 0.83 M2.39 1.62 C2.95 1.33, 4.85 1.21, 5.78 1.54 C6.72 1.86, 7.54 2.98, 7.98 3.57 C8.41 4.16, 8.48 4.07, 8.4 5.07 C8.31 6.07, 8.29 8.8, 7.49 9.56 C6.69 10.33, 4.6 9.79, 3.59 9.65 C2.58 9.51, 2.14 9.27, 1.42 8.73 C0.71 8.18, -0.52 7.62, -0.7 6.39 C-0.87 5.17, -0.27 2.43, 0.37 1.39 C1 0.36, 2.93 0.18, 3.12 0.18 C3.3 0.19, 1.42 1.43, 1.49 1.44" stroke="#0a11d3" stroke-width="1" fill="none"></path></g><g stroke-linecap="round" transform="translate(847.0683482774562 512.9820858140819) rotate(0 4.181228697774429 4.537913105053946)"><path d="M6.56 -0.5 C7.26 -0.36, 7.89 0.93, 8.28 1.82 C8.66 2.71, 9.03 3.88, 8.86 4.85 C8.69 5.82, 8.14 6.82, 7.25 7.65 C6.37 8.48, 4.68 9.74, 3.57 9.85 C2.45 9.96, 1 9.04, 0.56 8.29 C0.12 7.55, 0.92 6.28, 0.93 5.39 C0.94 4.5, 0.37 3.9, 0.63 2.94 C0.88 1.99, 1.39 -0.05, 2.44 -0.33 C3.49 -0.62, 6.02 0.78, 6.92 1.23 C7.81 1.69, 7.92 2.22, 7.8 2.38 M2.43 1.52 C2.68 0.92, 2.76 -0.27, 3.68 -0.07 C4.59 0.13, 7.12 1.88, 7.91 2.73 C8.7 3.58, 8.39 4.14, 8.42 5.05 C8.46 5.95, 8.71 7.67, 8.12 8.16 C7.53 8.65, 6.15 8.09, 4.91 7.97 C3.66 7.84, 1.34 7.97, 0.65 7.41 C-0.03 6.85, 1.08 5.58, 0.8 4.6 C0.52 3.61, -1.53 2.23, -1.04 1.5 C-0.56 0.77, 3.03 0.53, 3.7 0.21 C4.37 -0.12, 2.99 -0.44, 2.98 -0.46" stroke="none" stroke-width="0" fill="#fff"></path><path d="M4.04 0.76 C4.74 0.77, 5.96 0.94, 6.69 1.66 C7.42 2.38, 8.2 3.98, 8.42 5.09 C8.64 6.19, 8.6 7.58, 8.02 8.3 C7.43 9.01, 5.78 9.42, 4.94 9.35 C4.09 9.29, 3.86 8.53, 2.97 7.91 C2.07 7.3, -0.13 6.59, -0.46 5.67 C-0.79 4.74, 0.58 3.07, 1.01 2.34 C1.44 1.61, 1.27 1.52, 2.11 1.31 C2.95 1.09, 5.43 1.07, 6.02 1.05 C6.61 1.04, 5.78 1.39, 5.65 1.21 M7.5 0.52 C8.33 0.99, 8.93 1.96, 9.24 2.87 C9.54 3.79, 9.86 4.97, 9.32 6.01 C8.78 7.05, 6.72 8.66, 6.01 9.1 C5.31 9.53, 5.82 8.85, 5.1 8.61 C4.38 8.38, 2.4 8.44, 1.69 7.67 C0.98 6.91, 0.77 5.05, 0.84 4.02 C0.9 3, 1.81 2.13, 2.1 1.52 C2.38 0.9, 1.87 0.73, 2.53 0.32 C3.19 -0.09, 5.28 -1.07, 6.06 -0.94 C6.84 -0.81, 7.29 0.54, 7.19 1.09" stroke="#0a11d3" stroke-width="1" fill="none"></path></g><g stroke-linecap="round"><g transform="translate(826.5179088989644 447.6494459815361) rotate(0 -28.010784667968778 -29.659576416015625)"><path d="M0 0 C-8.65 -2.35, -43.11 -4.2, -51.92 -14.09 C-60.74 -23.97, -52.72 -51.78, -52.88 -59.32 M0 0 C-8.65 -2.35, -43.11 -4.2, -51.92 -14.09 C-60.74 -23.97, -52.72 -51.78, -52.88 -59.32" stroke="#000000" stroke-width="1" fill="none"></path></g></g><g stroke-linecap="round"><g transform="translate(621.9566640157932 1024.1167155248213) rotate(0 19.68597574978321 21.6298631055663)" fill-rule="evenodd"><path d="M1.31 1.46 L-0.34 41.7 L9.01 45.71 L22.48 47.67 L37.05 42.65 L39.51 0.83 L32.93 -1.09 L20 -4.85 L8.33 -3.25 L-0.38 -0.32" stroke="none" stroke-width="0" fill="#228be6" fill-rule="evenodd"></path><path d="M-0.85 -0.13 C-0.99 6.56, -0.07 32.38, 0.03 39.45 C0.13 46.53, -0.74 41.42, -0.24 42.33 C0.26 43.24, 1.52 44.26, 3.02 44.91 C4.52 45.57, 5.73 45.98, 8.75 46.26 C11.76 46.55, 17.06 46.64, 21.11 46.61 C25.17 46.57, 29.99 46.45, 33.07 46.05 C36.15 45.64, 38.47 44.66, 39.59 44.18 C40.72 43.7, 39.92 43.81, 39.82 43.18 C39.72 42.55, 38.92 47.02, 38.98 40.38 C39.04 33.74, 40.26 10.25, 40.19 3.34 C40.12 -3.58, 39.22 -0.23, 38.56 -1.09 C37.91 -1.96, 37.3 -1.38, 36.25 -1.86 C35.2 -2.34, 35.02 -3.5, 32.26 -3.99 C29.51 -4.47, 23.4 -4.76, 19.71 -4.77 C16.02 -4.78, 13.26 -4.74, 10.12 -4.04 C6.99 -3.35, 2.75 -1.37, 0.92 -0.58 C-0.92 0.2, -0.65 0.63, -0.91 0.65 C-1.17 0.67, -0.76 -0.52, -0.67 -0.46 M0.91 -1.25 C0.52 5.15, -0.63 30.24, -0.98 37.64 C-1.32 45.04, -1.93 41.77, -1.14 43.14 C-0.35 44.51, 1.8 45.33, 3.78 45.86 C5.75 46.4, 7.6 45.86, 10.71 46.36 C13.83 46.86, 18.61 48.55, 22.47 48.85 C26.33 49.14, 31.14 48.98, 33.89 48.11 C36.64 47.24, 38.24 44.65, 38.96 43.62 C39.68 42.58, 38.15 42.44, 38.21 41.9 C38.26 41.37, 38.88 46.69, 39.3 40.43 C39.73 34.17, 40.59 10.82, 40.76 4.36 C40.92 -2.1, 41.09 2.81, 40.31 1.65 C39.54 0.49, 37.5 -1.53, 36.1 -2.58 C34.71 -3.62, 34.56 -4.09, 31.92 -4.61 C29.28 -5.13, 24.28 -5.93, 20.26 -5.67 C16.25 -5.41, 10.74 -3.51, 7.85 -3.05 C4.96 -2.6, 4.05 -3.66, 2.91 -2.93 C1.77 -2.19, 1.27 0.96, 1 1.37 C0.72 1.79, 1.43 -0.18, 1.25 -0.45" stroke="#0a11d3" stroke-width="1" fill="none"></path></g></g><g stroke-linecap="round"><g transform="translate(622.3799407010079 1052.9629717425078) rotate(0 18.90342586763336 1.7768382958183793)"><path d="M-0.13 -0.1 C0.26 0.29, 0.84 0.8, 1.64 1.52 C2.43 2.24, 3 3.85, 4.62 4.21 C6.23 4.58, 8.67 3.73, 11.32 3.71 C13.97 3.7, 17.16 4.07, 20.5 4.11 C23.84 4.16, 28.44 4.29, 31.36 3.99 C34.29 3.69, 36.7 3.01, 38.05 2.32 C39.4 1.64, 39.13 0.47, 39.47 -0.09 M-1.66 -1.21 C-1.32 -0.56, -0.45 2.32, 0.99 2.92 C2.44 3.52, 5.27 2.1, 7.01 2.38 C8.74 2.66, 8.85 4.25, 11.41 4.59 C13.98 4.94, 18.9 4.69, 22.39 4.45 C25.89 4.21, 29.72 3.65, 32.4 3.13 C35.07 2.62, 37.47 1.96, 38.44 1.37 C39.41 0.79, 38.2 -0.27, 38.22 -0.37" stroke="#0a11d3" stroke-width="1" fill="none"></path></g></g><g stroke-linecap="round"><g transform="translate(621.8312860234312 1038.0886156015702) rotate(0 19.554582002517975 2.1113531939769814)"><path d="M-0.1 0.58 C0.17 0.74, -0.31 0.4, 0.8 0.8 C1.91 1.19, 4.82 2.49, 6.55 2.95 C8.28 3.41, 8.78 3.49, 11.18 3.58 C13.58 3.67, 17.41 3.57, 20.95 3.5 C24.49 3.43, 29.37 3.56, 32.43 3.17 C35.48 2.78, 38.01 1.68, 39.27 1.15 C40.54 0.62, 40.04 0.07, 40 0 M-1.62 -0.15 C-1.45 0.13, -1.6 1.12, -0.28 1.83 C1.04 2.54, 4.38 3.69, 6.3 4.11 C8.21 4.54, 9.02 4.49, 11.21 4.39 C13.39 4.29, 16.23 3.93, 19.43 3.51 C22.62 3.09, 26.88 1.93, 30.36 1.88 C33.84 1.84, 38.86 3.6, 40.31 3.25 C41.76 2.89, 38.99 0.33, 39.04 -0.23" stroke="#0a11d3" stroke-width="1" fill="none"></path></g></g><g stroke-linecap="round" transform="translate(620.6571442041536 1019.6193792802568) rotate(0 19.795789765240386 4.003549550178377)"><path d="M24.49 -0.38 C28.16 -0.24, 32.91 1.02, 35.28 1.9 C37.65 2.78, 39.1 4.02, 38.7 4.92 C38.31 5.82, 35.84 6.89, 32.93 7.29 C30.01 7.7, 25.23 7.31, 21.22 7.36 C17.2 7.41, 12.3 8.03, 8.83 7.58 C5.36 7.14, 1.67 5.72, 0.42 4.68 C-0.84 3.63, -0.61 2.17, 1.31 1.32 C3.24 0.47, 8 -0.24, 11.96 -0.45 C15.92 -0.65, 22.65 -0.01, 25.05 0.08 C27.46 0.17, 26.31 -0.03, 26.4 0.09 M18.06 0.31 C22.18 0.28, 28.06 0.67, 31.36 1.15 C34.66 1.63, 37.09 2.39, 37.88 3.22 C38.66 4.04, 37.62 5.47, 36.09 6.1 C34.57 6.74, 32.55 6.78, 28.73 7.04 C24.91 7.31, 17.44 7.91, 13.18 7.69 C8.92 7.47, 5.1 6.32, 3.16 5.71 C1.22 5.11, 0.94 4.72, 1.56 4.04 C2.18 3.36, 4.08 2.45, 6.89 1.64 C9.7 0.82, 16.5 -0.71, 18.42 -0.84 C20.34 -0.98, 18.3 0.63, 18.42 0.84" stroke="none" stroke-width="0" fill="#fff"></path><path d="M11.69 -0.15 C15.15 -0.57, 21.32 -0.69, 25.48 -0.43 C29.64 -0.17, 34.24 0.66, 36.67 1.42 C39.11 2.18, 40.62 3.19, 40.07 4.14 C39.52 5.08, 36.72 6.32, 33.4 7.1 C30.08 7.88, 24.33 8.78, 20.14 8.8 C15.95 8.83, 11.68 8.04, 8.28 7.26 C4.88 6.49, 0.84 4.94, -0.28 4.13 C-1.4 3.31, -1.02 3.14, 1.56 2.36 C4.14 1.58, 12.51 -0.08, 15.21 -0.54 C17.9 -1.01, 17.63 -0.55, 17.71 -0.44 M14.25 -0.62 C17.66 -0.82, 22.33 -0.79, 26.36 -0.18 C30.39 0.43, 36.1 2.26, 38.43 3.05 C40.75 3.84, 41.56 3.9, 40.31 4.56 C39.06 5.22, 34.57 6.26, 30.94 6.99 C27.32 7.73, 22.55 9.17, 18.56 8.95 C14.58 8.73, 10.32 6.42, 7.02 5.67 C3.72 4.92, -0.71 5.29, -1.23 4.42 C-1.75 3.56, 1.28 1.09, 3.91 0.47 C6.55 -0.14, 13.09 0.92, 14.59 0.75 C16.1 0.58, 13.02 -0.47, 12.96 -0.55" stroke="#0a11d3" stroke-width="1" fill="none"></path></g><g stroke-linecap="round" transform="translate(652.957876134898 1030.7201958429646) rotate(0 2.9012627490859018 3.148758224416099)"><path d="M3.62 -0.51 C4.14 -0.31, 5.27 0.42, 5.71 1.04 C6.15 1.66, 6.36 2.46, 6.24 3.22 C6.12 3.97, 5.69 4.98, 4.99 5.58 C4.28 6.17, 2.63 6.86, 1.99 6.79 C1.35 6.71, 1.54 5.8, 1.15 5.14 C0.76 4.47, -0.06 3.37, -0.33 2.8 C-0.59 2.23, -0.71 2.3, -0.43 1.73 C-0.15 1.16, 0.57 -0.43, 1.36 -0.63 C2.16 -0.83, 3.82 0.22, 4.34 0.51 C4.86 0.81, 4.44 1.12, 4.47 1.14 M2.24 -0.18 C2.84 -0.52, 3.71 -1.09, 4.26 -1.01 C4.81 -0.94, 5.24 -0.73, 5.54 0.26 C5.83 1.26, 6.27 4.19, 6.03 4.94 C5.79 5.69, 4.65 4.54, 4.1 4.77 C3.55 4.99, 3.33 5.91, 2.73 6.28 C2.14 6.64, 0.91 7.29, 0.55 6.96 C0.19 6.62, 0.5 5.21, 0.57 4.25 C0.63 3.29, 0.88 1.93, 0.96 1.19 C1.05 0.45, 0.79 -0.08, 1.08 -0.2 C1.37 -0.31, 2.55 0.42, 2.71 0.5" stroke="none" stroke-width="0" fill="#fff"></path><path d="M3.57 0.16 C4.07 0.49, 4.6 1.29, 4.89 2.01 C5.18 2.73, 5.43 3.86, 5.33 4.49 C5.23 5.12, 4.69 5.58, 4.29 5.76 C3.89 5.95, 3.34 5.58, 2.91 5.59 C2.48 5.6, 2.19 6.31, 1.72 5.83 C1.25 5.35, 0.42 3.56, 0.08 2.73 C-0.26 1.9, -0.67 1.17, -0.31 0.83 C0.05 0.5, 1.6 0.74, 2.23 0.71 C2.87 0.68, 3.25 0.62, 3.5 0.68 C3.75 0.73, 3.71 1.14, 3.74 1.02 M3.33 -0.26 C3.99 0.06, 4.54 2.26, 5.1 3.15 C5.66 4.05, 6.8 4.88, 6.67 5.1 C6.54 5.32, 5.01 4.43, 4.31 4.48 C3.61 4.54, 2.9 5.26, 2.48 5.45 C2.06 5.63, 2.4 6.19, 1.76 5.6 C1.13 5.01, -1.1 2.45, -1.34 1.91 C-1.58 1.38, 0.01 2.47, 0.35 2.37 C0.7 2.26, 0.01 1.73, 0.73 1.29 C1.45 0.85, 4.27 -0.14, 4.7 -0.25 C5.13 -0.37, 3.46 0.49, 3.3 0.6" stroke="#0a11d3" stroke-width="1" fill="none"></path></g><g stroke-linecap="round" transform="translate(652.957876134898 1044.5432326062623) rotate(0 2.9012627490859018 3.148758224416099)"><path d="M2.58 0.22 C3.13 0.46, 3.91 1.09, 4.32 1.65 C4.73 2.21, 4.93 3.09, 5.04 3.57 C5.14 4.05, 5.15 4.03, 4.97 4.53 C4.78 5.03, 4.54 6.39, 3.92 6.56 C3.3 6.73, 1.96 6.09, 1.24 5.55 C0.52 5, -0.31 3.99, -0.42 3.27 C-0.53 2.56, 0.39 1.77, 0.58 1.28 C0.76 0.78, 0.1 0.52, 0.71 0.32 C1.31 0.13, 3.45 -0.03, 4.21 0.1 C4.96 0.24, 5.26 1.15, 5.22 1.12 M2.53 0.34 C3.04 0.27, 3.23 0.42, 3.55 0.84 C3.86 1.26, 3.91 2.34, 4.43 2.87 C4.94 3.41, 6.86 3.55, 6.63 4.07 C6.41 4.58, 3.88 5.7, 3.09 5.96 C2.3 6.22, 2.11 5.76, 1.89 5.64 C1.68 5.53, 2.02 5.67, 1.8 5.26 C1.59 4.84, 0.81 4.07, 0.62 3.17 C0.43 2.28, 0.35 0.3, 0.67 -0.11 C0.98 -0.51, 2.1 0.73, 2.51 0.75 C2.93 0.78, 3.12 0.16, 3.15 0.06" stroke="none" stroke-width="0" fill="#fff"></path><path d="M2.46 -0.58 C3.15 -0.69, 4.12 -0.3, 4.77 0.11 C5.41 0.52, 6.15 1.14, 6.3 1.87 C6.45 2.61, 6.13 3.73, 5.67 4.55 C5.2 5.36, 4.02 6.47, 3.51 6.76 C3.01 7.04, 3.26 6.69, 2.63 6.28 C2.01 5.86, 0.33 4.78, -0.21 4.26 C-0.75 3.74, -0.85 3.81, -0.59 3.15 C-0.33 2.5, 0.7 0.94, 1.35 0.32 C2.01 -0.3, 2.89 -0.45, 3.33 -0.55 C3.76 -0.66, 4.12 -0.6, 3.96 -0.31 M1.28 -0.24 C1.89 -0.2, 4.26 0.89, 5.13 1.15 C6 1.4, 6.58 0.91, 6.48 1.3 C6.37 1.69, 4.91 2.64, 4.5 3.5 C4.08 4.36, 4.19 6.22, 3.98 6.46 C3.77 6.7, 3.94 5.12, 3.22 4.95 C2.49 4.77, -0.03 5.85, -0.38 5.41 C-0.73 4.96, 0.79 2.84, 1.12 2.3 C1.44 1.76, 1.52 2.65, 1.55 2.17 C1.58 1.68, 1.2 -0.26, 1.29 -0.62 C1.38 -0.99, 2.03 0.04, 2.1 -0.01" stroke="#0a11d3" stroke-width="1" fill="none"></path></g><g stroke-linecap="round" transform="translate(652.957876134898 1059.5670368910187) rotate(0 2.9012627490859018 3.148758224416099)"><path d="M2.26 -0.67 C3 -0.88, 4 -0.88, 4.61 -0.5 C5.22 -0.12, 5.86 0.78, 5.94 1.59 C6.02 2.41, 5.25 3.76, 5.09 4.4 C4.92 5.05, 5.38 5.25, 4.93 5.47 C4.48 5.68, 3.21 5.63, 2.37 5.69 C1.54 5.75, 0.46 6.31, -0.07 5.83 C-0.6 5.34, -0.87 3.49, -0.79 2.76 C-0.72 2.02, -0.17 1.82, 0.38 1.42 C0.94 1.03, 2 0.63, 2.55 0.4 C3.1 0.16, 3.77 0.03, 3.69 0.02 M2.55 -1.12 C3.08 -1.47, 3.75 -1.71, 4.29 -1.01 C4.84 -0.31, 5.71 2.39, 5.84 3.1 C5.96 3.8, 5.28 2.78, 5.04 3.22 C4.79 3.66, 4.86 5, 4.37 5.74 C3.88 6.49, 2.63 7.66, 2.12 7.69 C1.61 7.72, 1.59 6.69, 1.33 5.91 C1.07 5.12, 0.84 3.83, 0.57 2.99 C0.3 2.16, -0.69 1.35, -0.29 0.91 C0.11 0.47, 2.55 0.51, 2.97 0.35 C3.38 0.19, 2.36 -0.19, 2.22 -0.06" stroke="none" stroke-width="0" fill="#fff"></path><path d="M1.78 0.33 C2.37 0.3, 3.36 0.74, 3.94 1.04 C4.52 1.34, 4.96 1.74, 5.27 2.15 C5.58 2.57, 5.82 2.83, 5.8 3.51 C5.78 4.19, 5.72 5.93, 5.16 6.25 C4.61 6.58, 3.35 5.74, 2.47 5.46 C1.59 5.18, 0.29 4.88, -0.09 4.59 C-0.48 4.3, 0.16 4.26, 0.17 3.74 C0.18 3.22, -0.36 2.02, -0.01 1.49 C0.34 0.96, 1.78 0.91, 2.25 0.56 C2.72 0.22, 2.56 -0.41, 2.81 -0.58 M3.26 1.42 C4.14 1.83, 5.91 2.36, 6.29 2.49 C6.68 2.62, 5.82 1.86, 5.57 2.21 C5.32 2.56, 5.04 3.86, 4.78 4.58 C4.53 5.31, 4.86 6.6, 4.04 6.54 C3.22 6.48, 0.54 4.49, -0.16 4.23 C-0.85 3.96, 0.06 5.18, -0.11 4.96 C-0.28 4.75, -1.56 3.83, -1.16 2.96 C-0.77 2.08, 1.59 0.14, 2.26 -0.3 C2.93 -0.73, 2.68 0.31, 2.87 0.35 C3.06 0.39, 3.52 -0.2, 3.4 -0.06" stroke="#0a11d3" stroke-width="1" fill="none"></path></g><g stroke-linecap="round"><g transform="translate(647.0990246216206 1015.3045973487236) rotate(0 0.28570556640625 -17.319976806640625)"><path d="M0 0 C0.1 -5.77, 0.48 -28.87, 0.57 -34.64 M0 0 C0.1 -5.77, 0.48 -28.87, 0.57 -34.64" stroke="#000000" stroke-width="1" fill="none"></path></g></g><g stroke-linecap="round"><g transform="translate(645.7185924927144 894.5968947120049) rotate(0 -108.81967163085938 -156.45921118164068)"><path d="M0 0 C-3.15 -15.26, 4.5 -42.47, -18.88 -91.57 C-42.26 -140.68, -107.16 -259.13, -140.29 -294.61 C-173.41 -330.08, -204.75 -302.79, -217.64 -304.43 M0 0 C-3.15 -15.26, 4.5 -42.47, -18.88 -91.57 C-42.26 -140.68, -107.16 -259.13, -140.29 -294.61 C-173.41 -330.08, -204.75 -302.79, -217.64 -304.43" stroke="#000000" stroke-width="1" fill="none"></path></g><g transform="translate(645.7185924927144 894.5968947120049) rotate(0 -108.81967163085938 -156.45921118164068)"><path d="M-192.61 -320.97 C-201.48 -315.11, -210.34 -309.25, -217.64 -304.43 M-192.61 -320.97 C-200.96 -315.45, -209.3 -309.94, -217.64 -304.43" stroke="#000000" stroke-width="1" fill="none"></path></g><g transform="translate(645.7185924927144 894.5968947120049) rotate(0 -108.81967163085938 -156.45921118164068)"><path d="M-187.83 -301.01 C-198.39 -302.22, -208.95 -303.43, -217.64 -304.43 M-187.83 -301.01 C-197.77 -302.15, -207.71 -303.29, -217.64 -304.43" stroke="#000000" stroke-width="1" fill="none"></path></g></g><g stroke-linecap="round"><g transform="translate(807.3811291138081 350.41357562020795) rotate(0 27.736572265625 282.78894384765624)"><path d="M0 0 C30.03 3.72, 173.61 -52.08, 180.2 22.31 C186.8 96.71, 90.39 353.04, 39.57 446.35 C-11.26 539.66, -97.35 559.55, -124.73 582.18 M0 0 C30.03 3.72, 173.61 -52.08, 180.2 22.31 C186.8 96.71, 90.39 353.04, 39.57 446.35 C-11.26 539.66, -97.35 559.55, -124.73 582.18" stroke="#000000" stroke-width="1" fill="none"></path></g><g transform="translate(807.3811291138081 350.41357562020795) rotate(0 27.736572265625 282.78894384765624)"><path d="M-105.34 559.29 C-109.38 564.06, -113.42 568.82, -124.73 582.18 M-105.34 559.29 C-110.77 565.7, -116.2 572.12, -124.73 582.18" stroke="#000000" stroke-width="1" fill="none"></path></g><g transform="translate(807.3811291138081 350.41357562020795) rotate(0 27.736572265625 282.78894384765624)"><path d="M-95.16 577.11 C-101.32 578.16, -107.48 579.22, -124.73 582.18 M-95.16 577.11 C-103.45 578.53, -111.73 579.95, -124.73 582.18" stroke="#000000" stroke-width="1" fill="none"></path></g></g><g stroke-linecap="round"><g transform="translate(1049.4034679809956 915.969014105678) rotate(0 -182.73876953125 8.794012324647838)"><path d="M0 0 C-26.85 1.11, -100.17 3.75, -161.09 6.68 C-222 9.61, -331.41 15.77, -365.48 17.59 M0 0 C-26.85 1.11, -100.17 3.75, -161.09 6.68 C-222 9.61, -331.41 15.77, -365.48 17.59" stroke="#000000" stroke-width="1" fill="none"></path></g><g transform="translate(1049.4034679809956 915.969014105678) rotate(0 -182.73876953125 8.794012324647838)"><path d="M-337.89 5.8 C-348.25 10.23, -358.61 14.65, -365.48 17.59 M-337.89 5.8 C-344.36 8.57, -350.83 11.33, -365.48 17.59" stroke="#000000" stroke-width="1" fill="none"></path></g><g transform="translate(1049.4034679809956 915.969014105678) rotate(0 -182.73876953125 8.794012324647838)"><path d="M-336.77 26.3 C-347.55 23.03, -358.33 19.76, -365.48 17.59 M-336.77 26.3 C-343.5 24.25, -350.24 22.21, -365.48 17.59" stroke="#000000" stroke-width="1" fill="none"></path></g></g></svg>