<svg version="1.1" xmlns="http://www.w3.org/2000/svg" viewBox="0 0 901.6002197265625 737.4302203398156" width="901.6002197265625" height="737.4302203398156">
  <!-- svg-source:excalidraw -->
  
  <defs>
    <style>
      @font-face {
        font-family: "Virgil";
        src: url("https://excalidraw.com/Virgil.woff2");
      }
      @font-face {
        font-family: "Cascadia";
        src: url("https://excalidraw.com/Cascadia.woff2");
      }
    </style>
  </defs>
  <rect x="0" y="0" width="901.6002197265625" height="737.4302203398156" fill="#ffffff"></rect><g stroke-linecap="round" transform="translate(126.4669189453125 153.76574635323652) rotate(0 172.75625610351562 258.282470703125)"><path d="M-1.23 0.85 C132.04 2.84, 266.13 2.45, 345.91 -0.79 M-0.58 0.12 C108.14 1.69, 216.94 2.25, 345.94 -0.23 M345.46 -0.03 C345.39 139.67, 345.89 278.17, 344.96 516.44 M345.62 0.05 C344.51 202.42, 344.49 404.81, 345.85 516.54 M345.88 516.36 C216.31 518.83, 87.84 518.92, 0.75 516.14 M344.87 516.99 C251.98 516.13, 157.92 515.11, 0.06 515.98 M-0.74 516.9 C1.74 412.74, 0.89 309.07, -0.56 -0.21 M-0.19 516.79 C-0.91 401.05, -1 284.71, -0.17 0.36" stroke="#000000" stroke-width="1" fill="none"></path></g><g stroke-linecap="round"><g transform="translate(320.81571860305974 257.9681160287389) rotate(0 -50.11531835935898 51.357623096130396)" fill-rule="evenodd"><path d="M-48.69 1.92 L-94.32 25.71 L-96.12 73.54 L-48.47 102.23 L-6.76 73.43 L-4.01 23.89 L-49.8 -0.29" stroke="none" stroke-width="0" fill="#40c057" fill-rule="evenodd"></path><path d="M-50.82 0.19 C-67.58 8.01, -83.72 19.83, -95.99 26.73 M-49.71 -0.71 C-66.66 9.01, -83.06 19.62, -94.62 26.46 M-94.76 25.04 C-91.91 43.85, -94.64 60.74, -94.24 76.48 M-95.06 25.58 C-95.23 39.71, -94.98 55.4, -94.07 75.3 M-92.77 75.89 C-81.6 81.04, -72.59 87.48, -47.85 103.42 M-93.27 75.57 C-76.19 85.94, -60.29 95.49, -49.1 101.83 M-50.6 101.42 C-41.09 96.25, -29.58 91.69, -5.64 71.92 M-48.93 101.33 C-38.86 95.2, -29.05 88.07, -5.93 72.54 M-4.24 74.18 C-5.05 60.05, -5.52 49.5, -6.33 23.42 M-5.13 73.78 C-5.24 60.01, -4.48 46.12, -6.13 23.18 M-5.62 25.8 C-21.51 14.64, -36.15 5.03, -50.45 -0.23 M-5.37 24.04 C-14.34 18.24, -24.95 13.76, -48.58 0.07 M-49.11 0 C-49.11 0, -49.11 0, -49.11 0 M-49.11 0 C-49.11 0, -49.11 0, -49.11 0" stroke="#000000" stroke-width="1" fill="none"></path></g></g><g stroke-linecap="round"><g transform="translate(266.4059387882496 310.8815127939703) rotate(0 4.432280709470319 -2.614438706411846)" fill-rule="evenodd"><path d="M-10.71 -14.1 L-11.16 14.98 L-9.45 18.96 L-14.01 19.84 L-19.88 19.14 L-17.84 8.05 L-17.07 -16.5 L-17.35 -24.31 L-12.11 -24.54 L-6.43 -25.77 L13.69 7.69 L17.68 8.04 L19.06 -24.63 L21.3 -27 L25.78 -25.97 L28.96 -4.22 L23.58 16.8 L19.79 20.69 L16.26 20.3 L10.8 14.62 L-11.53 -13.12" stroke="none" stroke-width="0" fill="#ffff" fill-rule="evenodd"></path><path d="M-11.1 -12.58 C-11.38 -10.4, -10.91 -4.06, -10.91 1.19 C-10.9 6.43, -9.71 15.99, -11.06 18.88 C-12.41 21.78, -17.79 22.68, -19 18.55 C-20.22 14.42, -18.63 1.27, -18.33 -5.89 C-18.04 -13.06, -18.78 -21.32, -17.22 -24.44 C-15.66 -27.57, -12.42 -27.37, -8.98 -24.64 C-5.54 -21.92, -0.9 -13.23, 3.43 -8.11 C7.77 -3, 14.38 8.46, 17.03 6.05 C19.67 3.63, 17.65 -17.6, 19.27 -22.59 C20.9 -27.58, 25.53 -26.77, 26.79 -23.91 C28.05 -21.04, 26.88 -12.4, 26.81 -5.4 C26.74 1.59, 28.5 13.9, 26.36 18.07 C24.23 22.24, 18.28 22.08, 14.01 19.63 C9.74 17.18, 4.76 8.92, 0.74 3.38 C-3.29 -2.16, -8.51 -10.76, -10.15 -13.62 M-9.43 -13.57 C-9.43 -11.36, -8.3 -3.54, -8.76 2.1 C-9.21 7.73, -10.39 17.88, -12.15 20.24 C-13.92 22.6, -18.15 20.59, -19.34 16.26 C-20.53 11.92, -19.86 0.66, -19.29 -5.75 C-18.73 -12.16, -17.71 -19.41, -15.96 -22.2 C-14.2 -24.99, -12.37 -24.84, -8.78 -22.5 C-5.19 -20.15, 1.57 -13.22, 5.59 -8.13 C9.61 -3.05, 12.87 10.47, 15.34 8.03 C17.81 5.58, 18.95 -17.69, 20.4 -22.83 C21.84 -27.97, 22.59 -25.63, 24 -22.84 C25.41 -20.05, 28.95 -12.86, 28.86 -6.1 C28.78 0.66, 26.14 13.35, 23.5 17.71 C20.86 22.06, 16.75 22.44, 13.01 20.03 C9.27 17.61, 4.73 8.69, 1.04 3.21 C-2.66 -2.27, -7.35 -10.06, -9.15 -12.86" stroke="#000000" stroke-width="1" fill="none"></path></g></g><g transform="translate(278.09478759765625 178.13989186104902) rotate(0 27 12.5)"><text x="0" y="18" font-family="Virgil, Segoe UI Emoji" font-size="20px" fill="#000000" text-anchor="start" style="white-space: pre;" direction="ltr">Offer</text></g><g stroke-linecap="round" transform="translate(610.7877197265625 156.05267262276777) rotate(0 140.40625 202.87112426757812)"><path d="M-0.91 -1.07 C110.68 -3.22, 217.43 -1.81, 280.95 -1.36 M-0.65 -0.56 C73.8 1.1, 147.66 1.74, 280.39 0.05 M281.24 0.23 C282.6 157.11, 282.97 313.41, 281.61 405.48 M280.49 0.22 C281.32 98.13, 281.93 196.23, 281.29 405.58 M281.24 404.27 C186.51 407.27, 92.47 406.46, -0.01 404.93 M280.8 405.72 C206.22 403.38, 132.74 404.05, 0.59 405.77 M1.03 406.13 C-1.29 288.4, -2.29 170.32, 0.52 1.1 M-0.05 406.1 C-1.01 293.01, -0.66 179.51, 0.47 -0.48" stroke="#000000" stroke-width="1" fill="none"></path></g><g stroke-linecap="round"><g transform="translate(750.5738853056591 257.37857745452015) rotate(0 -0.5212635581045788 51.15638645137062)" fill-rule="evenodd"><path d="M1.14 1.67 L-46 24.59 L-45.24 74.33 L2.17 101.83 L44.61 72.01 L43.89 25.5 L0.91 0.48" stroke="none" stroke-width="0" fill="#40c057" fill-rule="evenodd"></path><path d="M-1.39 1.89 C-13.89 5.67, -24.75 14.52, -46.81 25.15 M-0.73 0.03 C-17.6 9.36, -33.45 18.25, -44.97 26.77 M-44.63 25.13 C-45.12 45.44, -46.8 66.6, -45.49 74.1 M-44.64 25.19 C-45.35 43.07, -45.68 60.28, -45.32 75.63 M-46.96 75.9 C-30.47 84.48, -18.37 90.55, -0.84 101.08 M-45.06 74.35 C-34.6 81.63, -22.25 89.51, 0.26 101.72 M0.91 103.31 C18.49 89.77, 35.6 79.68, 45.91 72.6 M0.85 100.86 C14.56 92.28, 27.53 84.23, 43.09 73.6 M45.92 72.69 C45.96 61.94, 43 49.84, 41.97 22.17 M44.82 73.36 C44.35 56.53, 44.81 40.58, 43.3 24.72 M45.46 22.36 C34.04 20.24, 27.22 14.74, 1.66 -1 M44.39 24.41 C29.95 15.12, 16.02 7.42, 0.66 0.12 M0 0 C0 0, 0 0, 0 0 M0 0 C0 0, 0 0, 0 0" stroke="#000000" stroke-width="1" fill="none"></path></g></g><g stroke-linecap="round"><g transform="translate(735.203256691816 297.6027412351808) rotate(0 13.76323098432249 10.18455516297584)" fill-rule="evenodd"><path d="M-1.41 -0.54 L1.1 27.37 L1.35 30.92 L-3.28 33.42 L-7.36 31.3 L-11.07 20.75 L-7.34 -1.68 L-6.56 -11.05 L-4.14 -14.19 L1.02 -13.23 L24.7 18.58 L25.31 17.63 L27.95 -10.24 L33.8 -13.81 L35.64 -9.49 L38.42 9.65 L36.04 31.38 L31.96 32.61 L25.75 32.14 L23.31 28 L0.42 0.06" stroke="none" stroke-width="0" fill="#ffff" fill-rule="evenodd"></path><path d="M-0.84 1.13 C-1.14 3.63, -0.75 9.17, -0.63 14.25 C-0.51 19.33, 1.26 28.93, -0.12 31.61 C-1.49 34.28, -7.51 34.5, -8.89 30.29 C-10.27 26.08, -8.56 13.39, -8.39 6.35 C-8.22 -0.69, -9.59 -8.78, -7.86 -11.92 C-6.13 -15.06, -1.76 -15.17, 1.98 -12.5 C5.72 -9.83, 10.51 -1.21, 14.59 4.1 C18.67 9.42, 23.94 21.59, 26.46 19.38 C28.98 17.17, 28.11 -4.09, 29.72 -9.14 C31.33 -14.19, 34.85 -13.66, 36.14 -10.91 C37.44 -8.16, 37.65 0.55, 37.49 7.34 C37.34 14.13, 37.56 25.7, 35.22 29.82 C32.89 33.94, 27.6 34.59, 23.49 32.06 C19.39 29.53, 14.42 20.01, 10.59 14.64 C6.75 9.28, 2.36 2.24, 0.48 -0.12 M0.93 0.68 C0.9 3.37, 1.91 9.98, 1.63 15.36 C1.34 20.75, 1.05 30.35, -0.76 32.98 C-2.56 35.61, -7.76 35.61, -9.2 31.16 C-10.65 26.71, -9.79 13.08, -9.42 6.26 C-9.05 -0.56, -8.99 -6.94, -6.98 -9.76 C-4.97 -12.58, -0.79 -12.91, 2.65 -10.65 C6.09 -8.38, 9.42 -0.95, 13.66 3.83 C17.9 8.61, 25.81 20.17, 28.09 18.04 C30.38 15.9, 25.96 -4.35, 27.38 -8.97 C28.8 -13.59, 35.16 -12.29, 36.63 -9.68 C38.1 -7.07, 36.42 0.23, 36.21 6.68 C36 13.12, 37.11 24.69, 35.38 28.96 C33.66 33.24, 29.95 34.86, 25.85 32.32 C21.75 29.78, 14.79 18.93, 10.77 13.72 C6.76 8.51, 3.34 3.11, 1.76 1.06" stroke="#000000" stroke-width="1" fill="none"></path></g></g><g transform="translate(695.064697265625 189.01690602120527) rotate(0 42 12.5)"><text x="0" y="18" font-family="Virgil, Segoe UI Emoji" font-size="20px" fill="#000000" text-anchor="start" style="white-space: pre;" direction="ltr">Discount</text></g><g stroke-linecap="round"><g transform="translate(252.35245007822334 589.2694315317755) rotate(0 23.686204838994172 21.521548726075707)" fill-rule="evenodd"><path d="M-1.78 -4.36 L-0.47 46.12 L11.98 48.96 L23.77 51.47 L39.33 52.07 L46.26 45.74 L45.34 -4.81 L40.75 -8.5 L22.5 -7.66 L7.61 -6.14 L-1.84 -5.15" stroke="none" stroke-width="0" fill="#228be6" fill-rule="evenodd"></path><path d="M0.84 -4.01 C0.61 3.75, -0.41 32.9, -0.58 41.52 C-0.76 50.14, -0.61 46.33, -0.22 47.73 C0.17 49.13, -0.09 49.34, 1.75 49.93 C3.58 50.51, 7.06 50.94, 10.79 51.25 C14.53 51.56, 19.68 51.89, 24.16 51.79 C28.64 51.69, 34.14 51.25, 37.66 50.65 C41.18 50.05, 43.79 48.77, 45.26 48.2 C46.74 47.63, 46.46 48.17, 46.53 47.22 C46.6 46.28, 45.69 50.53, 45.69 42.53 C45.69 34.52, 46.34 6.86, 46.51 -0.8 C46.68 -8.47, 47.33 -2.32, 46.71 -3.46 C46.09 -4.6, 44.39 -6.83, 42.77 -7.65 C41.15 -8.47, 40.55 -8.27, 36.99 -8.37 C33.44 -8.48, 25.58 -8.32, 21.46 -8.28 C17.33 -8.24, 15.32 -8.54, 12.24 -8.13 C9.16 -7.72, 4.98 -6.61, 2.98 -5.82 C0.99 -5.04, 0.88 -3.54, 0.26 -3.4 C-0.37 -3.26, -0.87 -4.92, -0.77 -5 M-0.17 -4.92 C-0.08 3.12, 1.91 34.62, 1.75 43.11 C1.6 51.59, -1.07 45.17, -1.09 45.97 C-1.11 46.78, -0.08 46.94, 1.65 47.93 C3.39 48.91, 5.42 51.38, 9.34 51.89 C13.26 52.4, 20.42 51.39, 25.18 50.97 C29.93 50.56, 34.75 49.94, 37.89 49.42 C41.04 48.91, 42.29 48.39, 44.05 47.88 C45.81 47.36, 48.15 47.27, 48.45 46.35 C48.76 45.42, 46.16 50.04, 45.88 42.32 C45.6 34.59, 46.82 7.6, 46.75 -0.02 C46.68 -7.63, 46.13 -2.49, 45.45 -3.37 C44.77 -4.25, 44.2 -4.42, 42.67 -5.32 C41.13 -6.22, 39.83 -8.25, 36.24 -8.77 C32.66 -9.29, 25.49 -8.77, 21.16 -8.43 C16.82 -8.09, 13.38 -7.32, 10.23 -6.73 C7.08 -6.14, 4.1 -5.56, 2.25 -4.87 C0.41 -4.18, -0.68 -2.52, -0.87 -2.57 C-1.06 -2.61, 1.28 -4.66, 1.11 -5.14" stroke="#0a11d3" stroke-width="1" fill="none"></path></g></g><g stroke-linecap="round"><g transform="translate(252.69651530362694 619.767675986161) rotate(0 22.91936446241573 2.4194326113089346)"><path d="M0.25 -0.93 C0.6 -0.76, 0.09 1.01, 1.33 1.66 C2.57 2.31, 5.44 2.45, 7.67 2.96 C9.9 3.46, 11.78 4.51, 14.71 4.69 C17.63 4.86, 21.32 4.22, 25.23 3.99 C29.13 3.76, 34.76 3.75, 38.13 3.3 C41.51 2.84, 44.04 1.92, 45.51 1.28 C46.97 0.63, 46.53 -0.1, 46.92 -0.57 M-1.08 1.31 C-0.81 1.59, -1 2.65, 0.43 3.09 C1.86 3.53, 5.58 3.48, 7.49 3.94 C9.39 4.39, 9.09 5.8, 11.85 5.81 C14.6 5.81, 19.96 4.04, 24.01 3.99 C28.05 3.94, 32.4 5.6, 36.11 5.51 C39.82 5.41, 44.64 4.48, 46.27 3.4 C47.9 2.32, 45.84 -0.43, 45.91 -0.97" stroke="#0a11d3" stroke-width="1" fill="none"></path></g></g><g stroke-linecap="round"><g transform="translate(251.9450346799931 601.8709100753433) rotate(0 23.02479872592727 2.768137623515827)"><path d="M-0.71 -0.12 C-0.69 0.37, -0.07 2.17, 1.03 2.97 C2.14 3.77, 3.81 4.3, 5.92 4.66 C8.03 5.02, 10.67 5.04, 13.68 5.13 C16.69 5.22, 20.12 5.31, 23.99 5.18 C27.87 5.04, 33.44 4.89, 36.93 4.31 C40.41 3.73, 43.27 2.31, 44.91 1.68 C46.55 1.05, 46.62 0.8, 46.76 0.52 M1.11 -1.11 C0.89 -0.95, -0.64 0.77, -0.02 1.43 C0.59 2.09, 2.49 2.03, 4.81 2.87 C7.14 3.71, 10.45 6, 13.94 6.48 C17.44 6.97, 21.79 6.31, 25.79 5.79 C29.78 5.27, 34.67 4.3, 37.93 3.39 C41.19 2.48, 44.07 0.8, 45.37 0.35 C46.66 -0.1, 45.37 0.93, 45.68 0.69" stroke="#0a11d3" stroke-width="1" fill="none"></path></g></g><g stroke-linecap="round" transform="translate(251.01461470242202 581.1758874612412) rotate(0 23.26546356203852 4.7052649721530315)"><path d="M17.82 0.48 C22.5 0.26, 30.14 0, 34.73 0.37 C39.31 0.75, 43.41 1.71, 45.31 2.71 C47.21 3.71, 47.56 5.46, 46.12 6.38 C44.68 7.29, 41.1 7.64, 36.65 8.21 C32.19 8.77, 24.56 9.79, 19.38 9.76 C14.2 9.72, 8.85 8.69, 5.57 8 C2.28 7.32, -0.09 6.83, -0.32 5.64 C-0.54 4.45, 0.95 1.67, 4.21 0.86 C7.48 0.06, 16.55 0.81, 19.27 0.8 C21.99 0.8, 20.49 0.72, 20.54 0.82 M32.1 1 C36.71 1.34, 42.51 0.41, 44.77 1.36 C47.03 2.3, 46.58 5.38, 45.66 6.67 C44.74 7.97, 43.04 8.43, 39.23 9.13 C35.43 9.82, 27.86 10.81, 22.86 10.83 C17.85 10.86, 13.15 10.02, 9.2 9.28 C5.25 8.53, 0.24 7.58, -0.83 6.36 C-1.9 5.14, -0.14 3.16, 2.79 1.95 C5.71 0.74, 12.01 -0.6, 16.72 -0.9 C21.44 -1.21, 28.52 -0.19, 31.08 0.13 C33.64 0.46, 32.2 1.15, 32.09 1.04" stroke="none" stroke-width="0" fill="#fff"></path><path d="M33.66 0.89 C38.01 1.17, 42.08 2.29, 43.96 3.18 C45.84 4.07, 46.28 5.32, 44.93 6.23 C43.57 7.14, 39.88 8, 35.82 8.66 C31.76 9.32, 25.61 10.24, 20.55 10.19 C15.5 10.13, 8.93 9.25, 5.49 8.33 C2.05 7.41, 0.03 5.61, -0.09 4.68 C-0.21 3.75, 1.9 3.62, 4.79 2.73 C7.69 1.83, 12.07 -0.29, 17.28 -0.67 C22.5 -1.05, 32.76 0.04, 36.08 0.46 C39.39 0.89, 37.21 1.72, 37.17 1.88 M33.8 -0.53 C38.01 -0.07, 41.14 2.9, 43.23 3.74 C45.31 4.59, 47.38 3.86, 46.33 4.52 C45.27 5.17, 41.23 6.7, 36.89 7.66 C32.56 8.63, 25.49 10.38, 20.3 10.31 C15.12 10.24, 9.12 7.97, 5.78 7.23 C2.43 6.49, 0.31 6.77, 0.21 5.87 C0.11 4.97, 2.62 2.97, 5.19 1.85 C7.76 0.72, 11.02 -0.59, 15.62 -0.86 C20.23 -1.12, 30.12 0.04, 32.79 0.24 C35.47 0.45, 31.68 0.07, 31.68 0.37" stroke="#0a11d3" stroke-width="1" fill="none"></path></g><g stroke-linecap="round" transform="translate(288.97680316137803 594.2223809990758) rotate(0 3.409776703694831 3.7006515327039438)"><path d="M3.79 0.79 C4.54 0.9, 5 0.97, 5.46 1.46 C5.93 1.95, 6.39 2.9, 6.59 3.72 C6.78 4.54, 7.04 5.95, 6.63 6.38 C6.21 6.8, 4.77 6.22, 4.1 6.25 C3.44 6.29, 3.2 6.75, 2.61 6.57 C2.02 6.39, 0.86 5.87, 0.56 5.19 C0.25 4.51, 0.82 3.21, 0.77 2.5 C0.72 1.78, -0.36 1.28, 0.24 0.89 C0.84 0.5, 3.67 0.31, 4.39 0.16 C5.11 0.02, 4.54 -0.13, 4.56 0.03 M4.97 1.34 C5.71 1.3, 4.66 0.45, 5.15 1.1 C5.64 1.75, 7.66 4.39, 7.9 5.24 C8.15 6.09, 7.07 5.64, 6.61 6.18 C6.15 6.72, 5.83 8.59, 5.14 8.49 C4.45 8.4, 3.16 6.32, 2.47 5.6 C1.78 4.89, 1.43 4.59, 1.01 4.2 C0.6 3.82, 0 4.01, -0.04 3.3 C-0.08 2.59, 0.1 0.35, 0.79 -0.05 C1.48 -0.46, 3.42 0.89, 4.11 0.89 C4.8 0.9, 5.11 0.2, 4.91 -0.01" stroke="none" stroke-width="0" fill="#fff"></path><path d="M2.9 -0.5 C3.47 -0.86, 4.55 -0.7, 5.18 -0.32 C5.81 0.07, 6.42 1, 6.68 1.81 C6.94 2.62, 6.82 3.87, 6.74 4.54 C6.66 5.2, 6.73 5.35, 6.19 5.81 C5.65 6.26, 4.43 7.13, 3.52 7.26 C2.6 7.38, 1.15 7.2, 0.7 6.58 C0.25 5.95, 0.98 4.36, 0.83 3.51 C0.68 2.67, -0.55 2.27, -0.2 1.52 C0.15 0.77, 2.11 -0.92, 2.92 -0.99 C3.72 -1.06, 4.54 0.73, 4.64 1.09 M3.03 -0.88 C3.84 -0.91, 6.69 1.02, 7.1 1.77 C7.52 2.51, 5.82 3.09, 5.5 3.58 C5.18 4.06, 5.3 4.26, 5.2 4.66 C5.11 5.07, 5.67 5.59, 4.95 5.98 C4.23 6.37, 1.56 6.96, 0.88 7.01 C0.2 7.05, 1.04 7.2, 0.89 6.24 C0.73 5.29, 0 2.22, -0.04 1.29 C-0.09 0.35, -0.01 0.96, 0.63 0.62 C1.27 0.28, 3.27 -0.87, 3.8 -0.77 C4.34 -0.68, 3.61 0.83, 3.83 1.18" stroke="#0a11d3" stroke-width="1" fill="none"></path></g><g stroke-linecap="round" transform="translate(288.97680316137803 610.4682273101919) rotate(0 3.409776703694831 3.7006515327039438)"><path d="M3.39 -0.04 C4.21 -0.36, 4.88 -0.22, 5.5 0.2 C6.13 0.62, 6.84 1.81, 7.17 2.49 C7.5 3.17, 7.96 3.5, 7.49 4.28 C7.03 5.06, 5.21 6.63, 4.37 7.16 C3.53 7.7, 3.06 7.52, 2.43 7.49 C1.81 7.45, 1.1 7.73, 0.6 6.97 C0.1 6.21, -0.55 3.74, -0.54 2.95 C-0.52 2.16, 0.09 2.62, 0.7 2.24 C1.31 1.87, 2.71 0.93, 3.15 0.71 C3.58 0.49, 3.21 0.89, 3.31 0.92 M3.09 -0.65 C3.51 -0.96, 3.01 0.71, 3.73 1.19 C4.44 1.68, 6.88 1.58, 7.37 2.26 C7.87 2.95, 6.75 4.5, 6.69 5.33 C6.63 6.16, 7.67 6.75, 7 7.24 C6.33 7.73, 3.66 8.4, 2.67 8.27 C1.69 8.14, 1.3 7.22, 1.07 6.44 C0.84 5.67, 1.49 4.33, 1.29 3.6 C1.09 2.87, -0.36 2.5, -0.13 2.07 C0.09 1.65, 2.34 1.52, 2.65 1.05 C2.95 0.57, 1.94 -0.7, 1.7 -0.78" stroke="none" stroke-width="0" fill="#fff"></path><path d="M4.23 0.71 C4.76 0.95, 5.49 1.67, 5.85 2.34 C6.21 3.01, 6.5 3.84, 6.4 4.7 C6.3 5.57, 5.96 7.04, 5.26 7.55 C4.56 8.06, 2.92 8.03, 2.19 7.77 C1.45 7.51, 1.18 6.48, 0.86 5.99 C0.53 5.5, 0.38 5.7, 0.25 4.83 C0.13 3.95, -0.28 1.6, 0.09 0.76 C0.46 -0.07, 1.78 -0.27, 2.47 -0.2 C3.15 -0.13, 3.53 0.99, 4.18 1.2 C4.84 1.41, 6.13 1.06, 6.4 1.06 M2.91 1.14 C3.5 1.12, 5.76 -0.39, 6.39 -0.13 C7.03 0.13, 7.01 1.52, 6.74 2.68 C6.46 3.84, 5.4 6.22, 4.74 6.85 C4.09 7.48, 3.27 6.31, 2.8 6.45 C2.33 6.58, 2.14 7.92, 1.93 7.66 C1.71 7.4, 1.99 5.91, 1.5 4.9 C1 3.88, -1.06 2.3, -1.04 1.56 C-1.01 0.82, 0.99 0.7, 1.67 0.43 C2.34 0.15, 2.48 -0.24, 3.02 -0.09 C3.56 0.07, 4.61 1.51, 4.9 1.36" stroke="#0a11d3" stroke-width="1" fill="none"></path></g><g stroke-linecap="round" transform="translate(288.97680316137803 628.1253036529563) rotate(0 3.409776703694831 3.7006515327039438)"><path d="M2.7 0.63 C3.29 0.44, 4.26 0.72, 4.96 1.16 C5.66 1.6, 6.7 2.8, 6.9 3.28 C7.1 3.77, 6.38 3.57, 6.14 4.07 C5.91 4.58, 6.01 5.84, 5.47 6.32 C4.92 6.81, 3.55 7.13, 2.89 6.99 C2.23 6.86, 2.13 6.05, 1.49 5.5 C0.84 4.95, -1 4.38, -0.99 3.7 C-0.98 3.02, 0.75 2.07, 1.55 1.44 C2.36 0.82, 3.38 0.04, 3.84 -0.07 C4.3 -0.18, 4.34 0.88, 4.31 0.8 M3.05 -0.39 C3.81 -0.28, 6.42 1.96, 7.18 2.64 C7.94 3.32, 7.56 2.91, 7.6 3.68 C7.63 4.45, 7.82 6.85, 7.38 7.27 C6.93 7.69, 5.72 6.37, 4.91 6.23 C4.1 6.08, 3.36 6.41, 2.51 6.38 C1.66 6.34, 0.39 6.75, -0.18 6.01 C-0.75 5.27, -1.23 2.72, -0.93 1.93 C-0.63 1.13, 0.68 1.56, 1.62 1.21 C2.57 0.87, 4.55 0.19, 4.75 -0.13 C4.96 -0.44, 2.99 -0.76, 2.84 -0.66" stroke="none" stroke-width="0" fill="#fff"></path><path d="M3.81 -0.65 C4.47 -0.64, 5.33 -0.02, 5.83 0.59 C6.33 1.2, 6.59 2.33, 6.81 3.01 C7.03 3.69, 7.46 4, 7.15 4.68 C6.83 5.35, 5.8 6.61, 4.92 7.06 C4.04 7.51, 2.5 7.75, 1.89 7.4 C1.28 7.06, 1.69 5.72, 1.25 4.98 C0.81 4.23, -0.69 3.79, -0.74 2.94 C-0.8 2.08, 0.02 0.16, 0.93 -0.16 C1.84 -0.48, 4.06 0.82, 4.72 1.04 C5.38 1.25, 4.93 1.21, 4.86 1.15 M5.75 0.73 C6.35 1.1, 5.05 1.45, 5.08 1.84 C5.11 2.22, 5.68 2.47, 5.91 3.04 C6.14 3.6, 7.03 4.49, 6.46 5.23 C5.89 5.97, 3.25 7.06, 2.48 7.48 C1.71 7.9, 2.28 8.45, 1.83 7.72 C1.39 6.99, 0.2 4.05, -0.19 3.08 C-0.59 2.11, -0.94 2.51, -0.55 1.89 C-0.16 1.27, 1.3 -0.53, 2.15 -0.63 C2.99 -0.72, 3.9 1, 4.53 1.31 C5.15 1.63, 6.1 1.49, 5.88 1.26" stroke="#0a11d3" stroke-width="1" fill="none"></path></g><g stroke-linecap="round"><g transform="translate(728.5611759852609 465.3291008271693) rotate(0 23.071839019229856 24.950132628309575)" fill-rule="evenodd"><path d="M0.61 1.24 L0.72 53.61 L11.99 55.13 L23.78 54.43 L36.69 56.26 L45.45 50.98 L45.02 -2.38 L40.72 -3.39 L22.73 -4.04 L7.23 -4.83 L-1.57 1.37" stroke="none" stroke-width="0" fill="#228be6" fill-rule="evenodd"></path><path d="M1.1 -0.48 C1.01 7.05, 0.4 36.7, 0.33 45.45 C0.26 54.2, 0.29 50.77, 0.68 52.01 C1.07 53.25, 0.8 52.38, 2.67 52.89 C4.53 53.4, 8.15 54.57, 11.87 55.05 C15.59 55.53, 20.45 55.89, 25.01 55.78 C29.56 55.67, 35.58 55.02, 39.2 54.4 C42.81 53.78, 45.37 52.7, 46.7 52.07 C48.03 51.43, 47.16 51.47, 47.16 50.59 C47.17 49.71, 46.98 54.62, 46.72 46.78 C46.47 38.93, 45.57 11.15, 45.64 3.51 C45.7 -4.13, 47.56 1.8, 47.11 0.92 C46.66 0.03, 44.57 -0.85, 42.93 -1.81 C41.29 -2.77, 40.5 -4.19, 37.27 -4.87 C34.04 -5.55, 27.86 -5.9, 23.52 -5.9 C19.19 -5.9, 14.95 -5.33, 11.26 -4.85 C7.57 -4.37, 3.28 -3.76, 1.41 -3.02 C-0.47 -2.29, 0.07 -0.77, 0.03 -0.44 C0 -0.12, 1.31 -1.18, 1.2 -1.06 M0.22 -1.78 C-0.09 5.92, -0.54 38.19, -0.53 46.87 C-0.52 55.54, -0.33 49.09, 0.27 50.26 C0.87 51.42, 1.27 53, 3.05 53.87 C4.83 54.73, 7.06 55.29, 10.97 55.45 C14.87 55.61, 21.58 55.25, 26.46 54.83 C31.33 54.4, 36.93 53.45, 40.22 52.9 C43.52 52.36, 45.3 52.15, 46.22 51.54 C47.15 50.94, 45.55 50.08, 45.75 49.25 C45.96 48.42, 47.51 54.05, 47.45 46.56 C47.39 39.07, 45.64 11.91, 45.4 4.33 C45.17 -3.25, 46.47 2.18, 46.05 1.07 C45.63 -0.04, 44.46 -1.8, 42.89 -2.31 C41.32 -2.82, 39.75 -1.82, 36.65 -2 C33.56 -2.18, 28.35 -3.04, 24.3 -3.37 C20.25 -3.69, 15.85 -4.05, 12.38 -3.96 C8.91 -3.87, 5.77 -3.45, 3.5 -2.83 C1.23 -2.22, -0.71 -0.54, -1.22 -0.3 C-1.73 -0.05, 0.32 -1.19, 0.44 -1.36" stroke="#0a11d3" stroke-width="1" fill="none"></path></g></g><g stroke-linecap="round"><g transform="translate(728.9276178200284 499.87428511948895) rotate(0 23.02335282751369 2.5929059761421627)"><path d="M-0.48 0.17 C-0.35 0.45, -0.36 2.1, 1 2.75 C2.36 3.4, 5.62 3.54, 7.69 4.07 C9.75 4.6, 10.56 5.79, 13.41 5.95 C16.26 6.11, 20.69 5.18, 24.77 5.03 C28.85 4.88, 34.5 5.38, 37.87 5.02 C41.24 4.67, 43.55 3.69, 45 2.9 C46.44 2.11, 46.2 0.8, 46.53 0.26 M1.46 -0.78 C1.4 -0.34, -1.08 -0.07, -0.07 0.98 C0.94 2.03, 5.24 5.02, 7.51 5.52 C9.78 6.02, 10.9 3.97, 13.53 3.96 C16.16 3.95, 19 5.39, 23.31 5.46 C27.61 5.52, 35.67 4.92, 39.36 4.37 C43.06 3.81, 44.5 2.8, 45.49 2.1 C46.48 1.41, 45.35 0.82, 45.32 0.18" stroke="#0a11d3" stroke-width="1" fill="none"></path></g></g><g stroke-linecap="round"><g transform="translate(728.1761371963946 481.9775192086712) rotate(0 23.104961692801112 2.3350658222634024)"><path d="M0.17 -0.23 C0.31 0.38, 0.8 2.56, 1.91 3.2 C3.02 3.83, 4.68 3.29, 6.82 3.57 C8.96 3.85, 11.73 4.63, 14.73 4.88 C17.73 5.14, 20.87 5.27, 24.82 5.12 C28.77 4.98, 34.86 4.61, 38.44 4.01 C42.03 3.41, 44.84 2.2, 46.33 1.5 C47.82 0.81, 47.3 0.06, 47.38 -0.16 M-1.19 -1.4 C-1.25 -1.05, 0.08 0.64, 1.31 1.67 C2.54 2.69, 4.42 4.04, 6.19 4.76 C7.95 5.49, 9.02 5.86, 11.89 6 C14.75 6.13, 19.27 6.12, 23.38 5.59 C27.5 5.07, 33.16 3.15, 36.58 2.82 C39.99 2.5, 42.19 4.18, 43.86 3.63 C45.53 3.09, 46.41 0.3, 46.62 -0.46" stroke="#0a11d3" stroke-width="1" fill="none"></path></g></g><g stroke-linecap="round" transform="translate(727.2457172188235 461.49374998725864) rotate(0 23.265463562038576 4.7052649721530315)"><path d="M31.28 -0.55 C35.73 -0.14, 39.8 1.91, 42.36 2.91 C44.93 3.9, 47.22 4.53, 46.67 5.4 C46.11 6.28, 42.96 7.49, 39.03 8.14 C35.1 8.79, 28.02 9.19, 23.07 9.3 C18.12 9.41, 13.2 9.58, 9.33 8.8 C5.47 8.02, 0.95 5.63, -0.13 4.62 C-1.2 3.61, 0.4 3.4, 2.9 2.73 C5.39 2.06, 10.01 0.94, 14.84 0.61 C19.67 0.27, 28.87 0.81, 31.88 0.7 C34.89 0.6, 32.85 -0.08, 32.9 -0.03 M26.68 0.6 C31.44 0.89, 35.66 1.96, 38.83 2.7 C41.99 3.44, 45.04 4.11, 45.67 5.04 C46.29 5.97, 45.57 7.45, 42.56 8.27 C39.55 9.09, 32.55 9.99, 27.6 9.97 C22.65 9.95, 17.34 8.56, 12.86 8.14 C8.37 7.72, 2.58 8.14, 0.67 7.43 C-1.24 6.71, -0.19 4.72, 1.38 3.82 C2.95 2.92, 6.23 2.74, 10.1 2.02 C13.96 1.3, 22.24 -0.08, 24.59 -0.51 C26.93 -0.95, 24.26 -0.84, 24.18 -0.58" stroke="none" stroke-width="0" fill="#fff"></path><path d="M34.68 0.52 C39.01 0.96, 42.8 2.1, 44.71 2.99 C46.62 3.87, 47.45 4.94, 46.14 5.83 C44.83 6.73, 41.07 7.75, 36.86 8.35 C32.66 8.96, 26.01 9.45, 20.91 9.44 C15.8 9.43, 9.85 9.09, 6.22 8.3 C2.6 7.51, -0.68 5.61, -0.85 4.7 C-1.02 3.78, 2.14 3.48, 5.21 2.8 C8.27 2.12, 12.17 1.1, 17.55 0.64 C22.93 0.17, 33.62 0, 37.51 0.01 C41.39 0.02, 41.1 0.58, 40.86 0.7 M17.01 1.64 C21.52 1.2, 27.4 -0.6, 32.04 -0.34 C36.68 -0.07, 42.43 2.17, 44.85 3.23 C47.28 4.29, 47.83 4.97, 46.59 6.01 C45.35 7.05, 41.68 9.08, 37.42 9.49 C33.16 9.91, 26.31 8.99, 21.02 8.52 C15.74 8.04, 9 7.38, 5.71 6.66 C2.41 5.94, 1.55 5.2, 1.25 4.2 C0.96 3.2, 1.42 1.37, 3.92 0.66 C6.43 -0.05, 14 0.01, 16.26 -0.05 C18.51 -0.11, 17.05 0.01, 17.46 0.28" stroke="#0a11d3" stroke-width="1" fill="none"></path></g><g stroke-linecap="round" transform="translate(765.2079056777795 474.54024352509316) rotate(0 3.409776703694888 3.7006515327039438)"><path d="M2.04 -0.94 C2.86 -1.06, 4.98 0.3, 5.73 0.99 C6.48 1.68, 6.42 2.58, 6.54 3.2 C6.65 3.82, 6.71 3.92, 6.44 4.7 C6.18 5.47, 5.5 7.5, 4.97 7.85 C4.43 8.21, 4.1 7.16, 3.24 6.83 C2.39 6.51, 0.32 6.47, -0.16 5.88 C-0.64 5.29, 0.14 4.11, 0.36 3.3 C0.57 2.49, 0.58 1.58, 1.14 1.02 C1.7 0.46, 3.34 -0.07, 3.7 -0.07 C4.05 -0.07, 3.28 0.93, 3.26 1.04 M2.64 -0.81 C3.51 -1.46, 4.95 -1.13, 5.67 -0.64 C6.39 -0.16, 6.62 1.52, 6.94 2.09 C7.27 2.65, 7.69 2.08, 7.61 2.75 C7.52 3.42, 7.25 5.56, 6.45 6.1 C5.65 6.64, 3.52 5.84, 2.8 6.02 C2.09 6.19, 2.54 7.43, 2.16 7.17 C1.77 6.92, 0.59 5.49, 0.49 4.47 C0.39 3.44, 1.4 1.94, 1.57 1.02 C1.74 0.09, 1.56 -0.76, 1.53 -1.08 C1.5 -1.41, 1.19 -1.43, 1.39 -0.94" stroke="none" stroke-width="0" fill="#fff"></path><path d="M3.79 0.08 C4.54 0.06, 5.53 1.04, 6 1.74 C6.46 2.45, 6.6 3.57, 6.58 4.32 C6.56 5.08, 6.25 5.82, 5.87 6.3 C5.49 6.78, 4.89 7.25, 4.29 7.23 C3.7 7.2, 3 6.39, 2.28 6.14 C1.57 5.9, 0.23 6.4, 0.02 5.76 C-0.18 5.11, 0.72 3.08, 1.05 2.25 C1.38 1.42, 1.57 0.98, 2.02 0.77 C2.48 0.56, 3.35 0.96, 3.79 1 C4.23 1.05, 4.61 1.19, 4.65 1.05 M3.44 -0.96 C3.9 -1.18, 2.93 -0.08, 3.46 0.5 C4 1.07, 6.08 1.72, 6.65 2.48 C7.21 3.24, 6.82 4.4, 6.84 5.04 C6.86 5.69, 7.4 6.13, 6.74 6.37 C6.08 6.61, 3.96 6.22, 2.87 6.49 C1.77 6.75, 0.74 8.31, 0.14 7.94 C-0.46 7.56, -0.55 5.41, -0.73 4.24 C-0.92 3.06, -1.4 1.57, -0.99 0.9 C-0.58 0.22, 1.25 0.16, 1.75 0.17 C2.25 0.19, 1.8 1.14, 2.02 1.01" stroke="#0a11d3" stroke-width="1" fill="none"></path></g><g stroke-linecap="round" transform="translate(765.2079056777795 490.78608983620927) rotate(0 3.409776703694888 3.7006515327039438)"><path d="M1.89 0.62 C2.62 0.58, 4.73 0.15, 5.64 0.44 C6.55 0.73, 7.24 1.6, 7.35 2.35 C7.46 3.1, 6.5 4.08, 6.27 4.93 C6.04 5.77, 6.65 7.17, 5.98 7.41 C5.31 7.66, 3.15 6.57, 2.25 6.4 C1.35 6.23, 1.03 6.79, 0.6 6.38 C0.17 5.97, -0.35 4.74, -0.35 3.94 C-0.35 3.15, -0.02 2.37, 0.58 1.62 C1.18 0.86, 2.57 -0.35, 3.26 -0.56 C3.94 -0.78, 4.65 0.3, 4.7 0.32 M2 1.29 C2.37 1.2, 3.7 0.97, 4.56 1.35 C5.41 1.72, 7.02 2.78, 7.12 3.55 C7.21 4.31, 5.54 5.51, 5.12 5.96 C4.69 6.41, 5.22 5.9, 4.56 6.25 C3.9 6.6, 1.73 8.07, 1.15 8.07 C0.58 8.06, 1.33 6.81, 1.13 6.23 C0.92 5.65, 0.12 5.54, -0.07 4.59 C-0.26 3.65, -0.32 1.43, -0.02 0.55 C0.27 -0.33, 1.42 -0.7, 1.72 -0.69 C2.03 -0.67, 1.36 0.7, 1.8 0.63" stroke="none" stroke-width="0" fill="#fff"></path><path d="M3.13 0.15 C3.76 -0.01, 5.2 0.03, 5.94 0.41 C6.68 0.78, 7.4 1.59, 7.57 2.41 C7.73 3.22, 7.39 4.45, 6.93 5.29 C6.48 6.12, 5.7 7.12, 4.82 7.41 C3.95 7.7, 2.29 7.13, 1.69 7.02 C1.08 6.91, 1.55 7.29, 1.2 6.78 C0.85 6.26, -0.4 5.04, -0.41 3.94 C-0.43 2.84, 0.28 0.97, 1.11 0.16 C1.93 -0.64, 3.94 -0.8, 4.53 -0.88 C5.13 -0.95, 4.87 -0.35, 4.67 -0.29 M2.17 -0.8 C3.01 -1.01, 5.12 0.72, 6.04 1.38 C6.97 2.05, 7.49 2.32, 7.71 3.17 C7.93 4.03, 7.89 6, 7.37 6.53 C6.85 7.05, 5.59 6.46, 4.58 6.34 C3.56 6.22, 1.77 6.1, 1.27 5.81 C0.77 5.53, 1.88 5.31, 1.61 4.62 C1.33 3.93, -0.12 2.34, -0.39 1.67 C-0.65 1.01, -0.6 0.89, 0.01 0.62 C0.63 0.34, 2.63 -0.02, 3.3 0.05 C3.98 0.11, 4.26 1.17, 4.07 1.03" stroke="#0a11d3" stroke-width="1" fill="none"></path></g><g stroke-linecap="round" transform="translate(765.2079056777795 508.4431661789737) rotate(0 3.409776703694888 3.7006515327039438)"><path d="M4.29 0.48 C5.11 0.79, 5.34 1.37, 5.73 1.81 C6.13 2.24, 6.6 2.25, 6.65 3.07 C6.71 3.9, 6.41 6.14, 6.09 6.76 C5.77 7.37, 5.6 6.75, 4.75 6.78 C3.91 6.8, 1.71 7.21, 1.03 6.89 C0.35 6.58, 0.77 5.64, 0.67 4.9 C0.57 4.17, 0.24 3.19, 0.43 2.47 C0.62 1.75, 1.3 0.84, 1.81 0.59 C2.32 0.35, 3.02 1.03, 3.47 1 C3.93 0.97, 4.62 0.54, 4.57 0.42 M5.88 -0.57 C6.56 -0.09, 6.78 1.7, 7.06 2.29 C7.34 2.89, 7.7 2.33, 7.57 2.99 C7.44 3.65, 7.11 5.75, 6.28 6.26 C5.45 6.77, 3.3 5.89, 2.58 6.02 C1.87 6.15, 2.34 7.32, 1.99 7.02 C1.63 6.73, 0.5 5.27, 0.45 4.23 C0.39 3.2, 1.46 1.71, 1.68 0.81 C1.89 -0.09, 1.36 -0.86, 1.73 -1.17 C2.1 -1.48, 3.34 -1.52, 3.9 -1.07 C4.47 -0.62, 5.27 1.5, 5.12 1.54" stroke="none" stroke-width="0" fill="#fff"></path><path d="M5.03 0.98 C5.63 1.4, 6.06 2.37, 6.29 3.06 C6.51 3.75, 6.55 4.52, 6.4 5.13 C6.25 5.73, 5.88 6.47, 5.39 6.69 C4.9 6.92, 4.22 6.48, 3.44 6.5 C2.66 6.53, 1.12 7.33, 0.7 6.84 C0.28 6.34, 0.85 4.41, 0.92 3.55 C1 2.69, 1.04 2.13, 1.16 1.67 C1.28 1.22, 1.09 0.98, 1.62 0.82 C2.16 0.67, 3.81 0.8, 4.37 0.73 C4.94 0.67, 5.04 0.41, 5.01 0.44 M2.02 0.44 C2.52 0.63, 4.81 0.92, 5.58 1.42 C6.35 1.93, 6.32 2.89, 6.65 3.49 C6.97 4.09, 7.91 4.63, 7.51 5.05 C7.11 5.47, 5.25 5.43, 4.24 6.01 C3.24 6.59, 2.2 8.6, 1.48 8.53 C0.76 8.47, 0.4 6.64, -0.06 5.62 C-0.53 4.61, -1.41 3.18, -1.3 2.43 C-1.19 1.68, -0.09 1.43, 0.6 1.13 C1.3 0.84, 2.33 1.02, 2.86 0.64 C3.4 0.26, 3.98 -1.27, 3.79 -1.14" stroke="#0a11d3" stroke-width="1" fill="none"></path></g><g stroke-linecap="round"><g transform="translate(132.930819150273 11.769181007565933) rotate(0 4.523628644166166 4.345020913103042)" fill-rule="evenodd"><path d="M1.26 -1.82 L2.05 7.63 L11.85 11.47 L-0.08 -0.85" stroke="none" stroke-width="0" fill="#000000" fill-rule="evenodd"></path><path d="M-0.72 -0.47 C-0.73 0.29, -0.36 3.5, -0.11 4.93 C0.13 6.35, -0.31 7.34, 0.75 8.08 C1.8 8.82, 4.62 9.12, 6.24 9.39 C7.85 9.65, 10.44 10.03, 10.43 9.67 C10.42 9.3, 7.18 8.24, 6.18 7.19 C5.18 6.14, 5.42 4.44, 4.42 3.36 C3.42 2.28, 0.98 1.24, 0.18 0.71 M1.1 -1.77 C0.92 -1.43, -0.96 1.11, -1.2 2.91 C-1.44 4.7, -1.66 7.77, -0.34 8.99 C0.99 10.21, 5.2 10.04, 6.74 10.23 C8.28 10.41, 8.86 10.7, 8.91 10.11 C8.96 9.53, 8.2 8, 7.04 6.73 C5.89 5.45, 3.29 3.45, 1.99 2.46 C0.69 1.46, -0.66 1.34, -0.75 0.74" stroke="#000000" stroke-width="1" fill="none"></path></g></g><g stroke-linecap="round"><g transform="translate(131.57965890823402 11.648751202906382) rotate(0 -14.841906738626022 -0.4172749098110913)"><path d="M-0.47 -0.27 C-5.59 -0.25, -25.18 -0.73, -30.31 -0.6 M1.48 -1.45 C-3.81 -1.22, -26.12 0.64, -31.16 0.62" stroke="#000000" stroke-width="1" fill="none"></path></g></g><g stroke-linecap="round"><g transform="translate(100.62168271583641 11.868929129201277) rotate(0 0.7326677003899817 29.264680560489566)"><path d="M-0.27 0.19 C-0.25 9.96, -0.73 48.44, -0.6 58.15 M1.79 -0.75 C2.28 9.2, 2.09 49.24, 1.79 59.28" stroke="#000000" stroke-width="1" fill="none"></path></g></g><g stroke-linecap="round"><g transform="translate(101.0374798397097 69.638682801051) rotate(0 20.79961914903504 0.16339623729697905)"><path d="M0.19 -0.6 C7.02 -0.48, 33.7 0.41, 40.46 0.49 M-1.16 1.7 C6.08 1.48, 35.95 -1.28, 42.76 -1.37" stroke="#000000" stroke-width="1" fill="none"></path></g></g><g stroke-linecap="round"><g transform="translate(142.42774407929778 70.06669542560815) rotate(0 0.3404467190662501 -24.37145177419289)"><path d="M-0.6 -0.77 C-0.47 -9.17, 0.44 -42.05, 0.53 -50.18 M1.28 1.44 C1.32 -6.81, 0.2 -40.64, -0.16 -48.91" stroke="#000000" stroke-width="1" fill="none"></path></g></g><g stroke-linecap="round"><g transform="translate(133.01092125628293 10.896973703225555) rotate(0 4.816200283420301 5.50342355270444)"><path d="M-0.77 0.49 C0.93 2.23, 8.44 8.42, 10.4 9.81 M1.02 -0.29 C2.51 1.69, 7.64 9.65, 9.19 11.3" stroke="#000000" stroke-width="1" fill="none"></path></g></g><g stroke-linecap="round"><g transform="translate(135.43655937277504 45.57293290442192) rotate(0 -12.545892458531682 7.687661272458868)" fill-rule="evenodd"><path d="M-34.85 -1.57 L10.93 -1.23 L10.95 5.15 L10.05 15.38 L5.62 14.69 L-37.65 15.65 L-40.13 9.78 L-38.26 4.77 L-37.48 -0.4 L-32.63 -0.3" stroke="none" stroke-width="0" fill="#fff" fill-rule="evenodd"></path><path d="M-32.49 -0.51 C-29.22 -0.36, -20.5 -0.18, -13.95 0.11 C-7.4 0.4, 2.43 0.94, 6.83 1.24 C11.23 1.54, 11.45 1.25, 12.46 1.92 C13.48 2.59, 12.91 3.75, 12.91 5.26 C12.9 6.77, 12.5 9.58, 12.43 10.99 C12.36 12.4, 13.16 13.03, 12.47 13.72 C11.78 14.42, 12.51 14.59, 8.29 15.17 C4.07 15.75, -5.91 17.16, -12.84 17.19 C-19.78 17.23, -29.13 15.65, -33.32 15.39 C-37.51 15.13, -37.17 16.38, -37.96 15.63 C-38.76 14.88, -38.07 12.88, -38.08 10.9 C-38.08 8.93, -38.4 5.56, -38 3.77 C-37.59 1.99, -36.3 0.97, -35.64 0.18 C-34.98 -0.62, -34.33 -0.84, -34.05 -1 M-33.69 -1.82 C-30.53 -1.39, -22.09 1.49, -14.94 1.7 C-7.8 1.92, 5.08 -0.21, 9.17 -0.52 C13.27 -0.84, 9.24 -1.29, 9.63 -0.2 C10.03 0.89, 10.86 4.32, 11.53 6.02 C12.2 7.73, 13.32 8.46, 13.65 10.03 C13.98 11.6, 14.54 14.73, 13.51 15.46 C12.48 16.2, 12.09 14.29, 7.49 14.45 C2.89 14.61, -7.41 16.37, -14.09 16.41 C-20.77 16.45, -28.58 15.16, -32.58 14.67 C-36.58 14.18, -36.99 14.18, -38.09 13.46 C-39.19 12.74, -39.26 11.57, -39.16 10.36 C-39.05 9.14, -38.04 7.96, -37.47 6.16 C-36.9 4.36, -36.26 0.31, -35.73 -0.46 C-35.19 -1.22, -34.66 1.49, -34.28 1.57" stroke="#000000" stroke-width="1" fill="none"></path></g></g><g transform="translate(108.08716748291374 45.1096251987575) rotate(0 15.644924162011904 8.98613412611428)"><text x="0" y="13.97226825222857" font-family="Virgil, Segoe UI Emoji" font-size="11.459813803029766px" fill="#000000" text-anchor="start" style="white-space: pre;" direction="ltr">JSON</text></g><g stroke-linecap="round"><g transform="translate(105.74509932331864 21.59391745306317) rotate(0 11.012794318861438 0.10982754015829954)"><path d="M-0.09 0.11 C3.4 0.38, 17.51 0.98, 21.46 1.1 M-1.6 -0.88 C2.21 -0.88, 19.45 -0.42, 23.62 -0.45" stroke="#000000" stroke-width="1" fill="none"></path></g></g><g stroke-linecap="round"><g transform="translate(105.79129084858243 25.732889747390914) rotate(0 14.49376495322025 0.03348111659288833)"><path d="M0.11 -1.04 C5.24 -0.84, 25.29 0.91, 30.28 1.11 M-1.29 1.02 C3.82 0.92, 24.74 -0.52, 29.91 -0.43" stroke="#000000" stroke-width="1" fill="none"></path></g></g><g stroke-linecap="round"><g transform="translate(105.78954915798215 29.956707447397662) rotate(0 14.624185921655027 0.13796651001479887)"><path d="M-1.04 1.1 C4.02 1.22, 25.23 0.9, 30.29 0.84 M0.61 0.63 C5.62 0.41, 25.25 -0.53, 29.93 -0.85" stroke="#000000" stroke-width="1" fill="none"></path></g></g><g stroke-linecap="round"><g transform="translate(106.02666013648798 33.60700611578761) rotate(0 15.116267461979788 0.9961490554874786)"><path d="M1.1 1.11 C6.08 1.32, 25.22 0.43, 30.02 0.18 M0.21 0.65 C5.11 1.17, 24.63 1.79, 29.51 1.81" stroke="#000000" stroke-width="1" fill="none"></path></g></g><g stroke-linecap="round"><g transform="translate(106.55051158441017 39.17259209841529) rotate(0 14.798949482979253 -0.11072747103486336)"><path d="M1.11 0.84 C6.18 0.77, 24.74 0.82, 29.36 0.71 M0.24 0.23 C5.25 0.33, 23.91 -1.26, 28.51 -1.04" stroke="#000000" stroke-width="1" fill="none"></path></g></g><g transform="translate(10 82.44610523995527) rotate(0 114.5 12.5)"><text x="0" y="18" font-family="Virgil, Segoe UI Emoji" font-size="20px" fill="#000000" text-anchor="start" style="white-space: pre;" direction="ltr">{ id: 'x', unit: 'T', ... } </text></g><g transform="translate(157.3717041015625 407.1344597321428) rotate(0 137.5 62.5)"><text x="0" y="18" font-family="Virgil, Segoe UI Emoji" font-size="20px" fill="#000000" text-anchor="start" style="white-space: pre;" direction="ltr">UpdateOffer(){</text><text x="0" y="43" font-family="Virgil, Segoe UI Emoji" font-size="20px" fill="#000000" text-anchor="start" style="white-space: pre;" direction="ltr">    { id: 'x', unit: 'Kg', ... } </text><text x="0" y="68" font-family="Virgil, Segoe UI Emoji" font-size="20px" fill="#000000" text-anchor="start" style="white-space: pre;" direction="ltr">            To </text><text x="0" y="93" font-family="Virgil, Segoe UI Emoji" font-size="20px" fill="#000000" text-anchor="start" style="white-space: pre;" direction="ltr">    { id: 'x', unit: 'T', ... }</text><text x="0" y="118" font-family="Virgil, Segoe UI Emoji" font-size="20px" fill="#000000" text-anchor="start" style="white-space: pre;" direction="ltr">}</text></g><g stroke-linecap="round"><g transform="translate(273.14476143866773 361.22957611348994) rotate(0 -0.454799648623748 24.87872106778434)"><path d="M0.34 -0.84 C0.3 7.2, -0.02 40.9, 0.05 49.17 M-0.94 1.34 C-1.21 9.47, -1.34 42.52, -1.18 50.59" stroke="#000000" stroke-width="1" fill="none"></path></g><g transform="translate(273.14476143866773 361.22957611348994) rotate(0 -0.454799648623748 24.87872106778434)"><path d="M-11.15 26.57 C-7.14 35.2, -5.03 43.94, -2.86 52.58 M-10.48 27.94 C-8.3 32.34, -5.56 38.98, -2.16 49.65" stroke="#000000" stroke-width="1" fill="none"></path></g><g transform="translate(273.14476143866773 361.22957611348994) rotate(0 -0.454799648623748 24.87872106778434)"><path d="M5.74 26.47 C4.29 35.18, 0.93 43.95, -2.86 52.58 M6.41 27.84 C4.66 32.26, 3.48 38.92, -2.16 49.65" stroke="#000000" stroke-width="1" fill="none"></path></g></g><g stroke-linecap="round"><g transform="translate(277.3585205078125 553.424315689174) rotate(0 -0.15126516538668966 14.366351585090172)"><path d="M-0.81 -0.56 C-0.69 4.13, -0.23 24.68, -0.23 29.3 M0.96 1.76 C1 6.63, -1.38 23.35, -1.26 27.7" stroke="#000000" stroke-width="1" fill="none"></path></g><g transform="translate(277.3585205078125 553.424315689174) rotate(0 -0.15126516538668966 14.366351585090172)"><path d="M-5.87 13.93 C-3.04 16.2, -4.73 20.07, -2.67 27.47 M-4.55 13.59 C-3.5 18.56, -2.65 22.99, -1.29 27.62" stroke="#000000" stroke-width="1" fill="none"></path></g><g transform="translate(277.3585205078125 553.424315689174) rotate(0 -0.15126516538668966 14.366351585090172)"><path d="M3.78 14.57 C4.51 16.63, 0.71 20.37, -2.67 27.47 M5.11 14.23 C2.98 19.08, 0.65 23.29, -1.29 27.62" stroke="#000000" stroke-width="1" fill="none"></path></g></g><g stroke-linecap="round"><g transform="translate(144.4261205755172 120.0696709137834) rotate(0 61.4097876991938 71.68719661199952)"><path d="M0.29 -0.21 C18.38 15.09, 87.56 67.68, 108.15 91.83 C128.74 115.99, 120.98 136.05, 123.83 144.74 M-1.01 -1.36 C17.04 14.13, 87.18 69.38, 107.8 93.37 C128.43 117.37, 119.7 134.02, 122.72 142.6" stroke="#000000" stroke-width="1" fill="none"></path></g><g transform="translate(144.4261205755172 120.0696709137834) rotate(0 61.4097876991938 71.68719661199952)"><path d="M111.21 119.19 C114.6 123.02, 118.29 132.28, 122.09 144.38 M111.4 116.35 C114.43 124.35, 118.73 132.35, 122.94 142.22" stroke="#000000" stroke-width="1" fill="none"></path></g><g transform="translate(144.4261205755172 120.0696709137834) rotate(0 61.4097876991938 71.68719661199952)"><path d="M130.09 117.94 C128.37 122.15, 126.92 131.76, 122.09 144.38 M130.29 115.1 C127.74 123.46, 126.44 131.82, 122.94 142.22" stroke="#000000" stroke-width="1" fill="none"></path></g></g><g stroke-linecap="round"><g transform="translate(541.2042236328125 46.79888844308027) rotate(0 1.2465924719954273 339.7251995540923)"><path d="M0.54 -1.18 C1.22 112.18, 2.52 566.2, 3.14 679.69 M-0.64 0.81 C-0.03 114.32, 1.4 567.34, 2.18 680.63" stroke="#000000" stroke-width="1" fill="none"></path></g></g></svg>